<?xml version="1.0" encoding="utf-8"?>
<!-- Generator: Adobe Illustrator 25.3.0, SVG Export Plug-In . SVG Version: 6.00 Build 0)  -->
<svg version="1.1" id="Ebene_1" xmlns="http://www.w3.org/2000/svg" xmlns:xlink="http://www.w3.org/1999/xlink" x="0px" y="0px"
	 viewBox="0 0 475.5 224.8" style="enable-background:new 0 0 475.5 224.8;" xml:space="preserve">
<style type="text/css">
	.st0{fill:none;stroke:#1D1D1B;stroke-width:2;stroke-miterlimit:10;}
	.st1{fill:#368A41;}
	.st2{fill:#1D1D1B;}
	.st3{fill:#43AD4C;}
	.st4{fill:#356CB4;}
	.st5{clip-path:url(#SVGID_2_);}
	.st6{clip-path:url(#SVGID_4_);}
	.st7{fill:#FFFFFF;}
	.st8{clip-path:url(#SVGID_6_);}
	.st9{clip-path:url(#SVGID_8_);}
	.st10{clip-path:url(#SVGID_10_);}
	.st11{clip-path:url(#SVGID_12_);}
	.st12{fill:none;stroke:#FFFFFF;stroke-width:3;}
</style>
<g>
	<g id="Ebene_1_1_">
		<rect x="197.9" y="44" class="st0" width="115.2" height="77.7"/>
		<path class="st1" d="M103.4,64.4c-13.9,0-25.2-11.3-25.2-25.1c0-13.9,11.3-25.2,25.1-25.2s25.2,11.3,25.2,25.1v0
			C128.6,53.2,117.3,64.4,103.4,64.4z"/>
		<path class="st2" d="M103.4,15.1c13.3,0,24.1,10.8,24.1,24.1s-10.8,24.2-24.2,24.2S79.3,52.6,79.3,39.3c0,0,0,0,0,0
			C79.3,25.9,90.1,15.1,103.4,15.1 M103.4,13.1c-14.4,0-26.2,11.7-26.2,26.2S89,65.4,103.4,65.4s26.2-11.7,26.2-26.1c0,0,0,0,0,0
			C129.6,24.8,117.9,13.1,103.4,13.1C103.4,13.1,103.4,13.1,103.4,13.1z"/>
		<circle class="st1" cx="103.4" cy="127.6" r="25.1"/>
		<path class="st2" d="M103.4,103.4c13.3,0,24.1,10.8,24.1,24.2s-10.8,24.2-24.1,24.2s-24.2-10.8-24.2-24.2
			C79.3,114.2,90.1,103.4,103.4,103.4 M103.4,101.4c-14.4,0-26.2,11.7-26.2,26.2s11.7,26.2,26.2,26.2s26.2-11.7,26.2-26.2l0,0
			C129.6,113.1,117.9,101.4,103.4,101.4C103.4,101.4,103.4,101.4,103.4,101.4z"/>
		<path class="st3" d="M405.8,64.4c-13.9,0-25.1-11.3-25.1-25.2s11.3-25.1,25.2-25.1c13.9,0,25.1,11.3,25.1,25.1
			C431,53.2,419.7,64.4,405.8,64.4z"/>
		<path class="st2" d="M405.8,15.1c13.3,0,24.1,10.8,24.1,24.1s-10.8,24.2-24.1,24.2s-24.1-10.8-24.1-24.2c0,0,0,0,0,0
			C381.7,25.9,392.5,15.1,405.8,15.1 M405.8,13.1c-14.4,0-26.1,11.7-26.1,26.2s11.7,26.1,26.2,26.1c14.4,0,26.1-11.7,26.1-26.2
			C432,24.8,420.3,13.1,405.8,13.1C405.9,13.1,405.9,13.1,405.8,13.1L405.8,13.1z"/>
		<circle class="st3" cx="405.8" cy="127.6" r="25.1"/>
		<path class="st2" d="M405.8,103.4c13.3,0,24.1,10.8,24.1,24.2s-10.8,24.2-24.1,24.2s-24.1-10.8-24.1-24.2l0,0
			C381.7,114.2,392.5,103.4,405.8,103.4 M405.8,101.4c-14.4,0-26.1,11.7-26.1,26.2s11.7,26.1,26.2,26.1c14.4,0,26.1-11.7,26.1-26.2
			C432,113.1,420.3,101.4,405.8,101.4L405.8,101.4z"/>
		<path class="st4" d="M160.4,58.4c-4.8,0-8.6-6.5-8.6-14.4s3.9-14.4,8.6-14.4S169,36.1,169,44S165.1,58.4,160.4,58.4z"/>
		<path class="st2" d="M160.4,30.2c4.4,0,8.1,6.3,8.1,13.9s-3.7,13.9-8.1,13.9s-8.1-6.4-8.1-13.9S156,30.2,160.4,30.2 M160.4,29.2
			c-5,0-9.1,6.7-9.1,14.9s4.1,14.9,9.1,14.9s9.1-6.7,9.1-14.9S165.4,29.2,160.4,29.2z"/>
		<path class="st4" d="M160.4,136c-4.8,0-8.6-6.4-8.6-14.4s3.9-14.4,8.6-14.4s8.6,6.4,8.6,14.4S165.1,136,160.4,136z"/>
		<path class="st2" d="M160.4,107.8c4.4,0,8.1,6.3,8.1,13.9s-3.7,13.9-8.1,13.9s-8.1-6.4-8.1-13.9S156,107.8,160.4,107.8
			 M160.4,106.8c-5,0-9.1,6.7-9.1,14.9s4.1,14.9,9.1,14.9s9.1-6.7,9.1-14.9S165.4,106.8,160.4,106.8z"/>
		<path class="st4" d="M350.9,58.4c-4.8,0-8.6-6.5-8.6-14.4s3.9-14.4,8.6-14.4s8.6,6.5,8.6,14.4S355.6,58.4,350.9,58.4z"/>
		<path class="st2" d="M350.9,30.2c4.4,0,8.1,6.3,8.1,13.9s-3.7,13.9-8.1,13.9s-8.1-6.4-8.1-13.9S346.5,30.2,350.9,30.2 M350.9,29.2
			c-5,0-9.1,6.7-9.1,14.9s4.1,14.9,9.1,14.9S360,52.3,360,44S355.9,29.2,350.9,29.2z"/>
		<ellipse class="st4" cx="350.9" cy="121.6" rx="8.6" ry="14.4"/>
		<path class="st2" d="M350.9,107.8c4.4,0,8.1,6.3,8.1,13.9s-3.7,13.9-8.1,13.9s-8.1-6.4-8.1-13.9S346.5,107.8,350.9,107.8
			 M350.9,106.8c-5,0-9.1,6.7-9.1,14.9s4.1,14.9,9.1,14.9s9.1-6.7,9.1-14.9S355.9,106.8,350.9,106.8z"/>
		<g id="Fingers">
			<g>
				<defs>
					
						<rect id="SVGID_1_" x="97.4" y="8.4" transform="matrix(0.8048 -0.5936 0.5936 0.8048 -10.5739 93.9075)" width="80.1" height="109.2"/>
				</defs>
				<clipPath id="SVGID_2_">
					<use xlink:href="#SVGID_1_"  style="overflow:visible;"/>
				</clipPath>
				<g class="st5">
					<g>
						<defs>
							
								<rect id="SVGID_3_" x="97.4" y="8.4" transform="matrix(0.8048 -0.5936 0.5936 0.8048 -10.5739 93.9075)" width="80.1" height="109.2"/>
						</defs>
						<clipPath id="SVGID_4_">
							<use xlink:href="#SVGID_3_"  style="overflow:visible;"/>
						</clipPath>
						<g class="st6">
							<path class="st1" d="M176.8,99.6c-5.3,3.9-10.7,7.9-16,11.8c-0.7,0.5-1,0.4-1.5-0.2c-2.3-3.3-5-6.4-7.9-9.3
								c-1.5-1.4-3.3-1.8-5.1-2.2c-9.6-2.2-18.9-5.4-27.9-9.4c-4.1-1.7-8.2-3.7-12-6c-3.9-2.4-5.7-6.3-3-10.6c1.9-2.5,5-3.7,8.1-3
								c3.2,0.7,6.3,1.6,9.5,2.4c1.4,0.4,2.8,0.9,4.2,1.3c0.2,0.1,0.6,0.1,0.7,0s0-0.5-0.2-0.7c-2.8-5.7-7.1-10.4-10.7-15.5
								c-5.5-7.6-11.1-15-16.6-22.5c-2.1-2.6-2.1-6.3,0-8.8c2.3-2.7,6.1-3.3,9.1-1.5c0.8,0.5,1.5,1.2,2.1,2c4.4,6,8.9,12,13.3,18
								c0.2,0.2,0.5,0.6,0.7,0.6c0.4,0,0.2-0.5,0.3-0.8c0.3-2.6,2.1-4.7,4.6-5.5c2.7-1,5.7-0.2,7.6,1.9c0.2,0.2,0.3,0.3,0.5,0.5
								c0.5,0.5,1,1,1.5,1.5c0,0,0.1,0,0.1-0.1c0.3-1.5,0.9-2.9,1.7-4.2c2.5-3.4,8.3-3.5,11-0.1c0.5,0.7,1.1,1.9,1.6,1.8
								c0.8-0.1,0.5-1.3,0.8-2c1.5-3.7,5.7-5.4,9.3-3.9c1,0.4,1.9,1.1,2.7,1.9c5.3,6.3,10.2,12.8,14.7,19.6
								c2.8,3.9,4.4,8.6,4.5,13.4c0,2.2-0.9,4.2-1.2,6.3c-0.1,0.7,0,1.4,0.5,1.9c2.4,3.3,4.8,6.6,7.2,9.8c0.4,0.6,0.4,1-0.2,1.4
								c-3.2,2.3-6.4,4.7-9.5,7L176.8,99.6z"/>
							<path class="st7" d="M99.6,25.6c2.3-1.7,5.4-1.8,7.9-0.3c0.8,0.5,1.5,1.2,2.1,2c4.4,6,8.9,12,13.3,18
								c0.2,0.2,0.5,0.6,0.7,0.6c0.1,0,0.1,0,0.2,0c0.2-0.1,0.1-0.5,0.1-0.7c0.5-3.8,4-6.5,7.9-6c1.7,0.2,3.2,1.1,4.4,2.3
								c0.2,0.2,0.3,0.3,0.5,0.5c0.5,0.5,1,1,1.5,1.5c0,0,0.1,0,0.1,0s0,0,0,0c0.3-1.5,0.9-2.9,1.7-4.2c0.3-0.5,0.8-0.9,1.2-1.3
								c3.1-2.1,7.2-1.7,9.7,1.1c0.5,0.7,1.1,1.9,1.6,1.8c0.1,0,0.2,0,0.3-0.1c0.4-0.3,0.3-1.3,0.5-2c0.5-1.2,1.3-2.2,2.4-3
								c3-2.2,7.2-1.8,9.6,1c5.3,6.3,10.2,12.8,14.7,19.6c2.8,3.9,4.4,8.6,4.5,13.4c0,2.2-0.9,4.2-1.2,6.3c-0.1,0.7,0,1.4,0.5,1.9
								c2.4,3.3,4.8,6.6,7.2,9.8c0.4,0.6,0.4,1-0.2,1.4l0,0l-4.3,3.2l-2,1.4l-3.3,2.4l-4.3,3.2l-0.1,0.1l-7.4,5.5
								c-2.8,2.1-5.7,4.2-8.5,6.3l0,0c-0.7,0.5-1,0.4-1.5-0.2c-2.3-3.3-5-6.4-7.9-9.3c-1.5-1.4-3.3-1.8-5.1-2.2
								c-9.6-2.2-18.9-5.4-27.9-9.4c-4.1-1.7-8.2-3.7-12-6c-3.9-2.4-5.7-6.3-3-10.6c0.4-0.6,0.9-1.1,1.5-1.6
								c1.9-1.4,4.3-1.9,6.6-1.4c3.2,0.7,6.3,1.6,9.5,2.4c1.4,0.4,2.8,0.9,4.2,1.3c0.2,0.1,0.5,0.1,0.7,0l0,0c0.3-0.2,0-0.5-0.2-0.7
								c-2.8-5.7-7.1-10.4-10.8-15.5c-5.5-7.6-11.1-15-16.6-22.5c-2.1-2.6-2.1-6.3,0-8.8C98.7,26.4,99.1,26,99.6,25.6 M98.6,24.3
								c-0.6,0.4-1.1,0.9-1.5,1.4c-2.6,3.2-2.6,7.7,0,10.8l5.3,7.1c3.8,5,7.6,10.3,11.4,15.4c1.1,1.5,2.2,2.9,3.2,4.3
								c2.2,2.8,4.2,5.7,6,8.7c-0.5-0.2-1.1-0.3-1.6-0.5l-1-0.3c-2.8-0.7-5.7-1.5-8.5-2.2c-2.8-0.6-5.6,0-7.9,1.7
								c-0.7,0.5-1.4,1.2-1.9,2c-1.3,1.9-1.8,4.2-1.3,6.5c0.7,2.7,2.5,4.9,4.9,6.3c3.7,2.2,7.7,4.2,11.7,5.9l0.5,0.2
								c9,4.1,18.5,7.3,28.2,9.5c1.8,0.4,3.3,0.7,4.4,1.8c2.9,2.7,5.5,5.8,7.7,9c0.4,0.6,1,1.1,1.7,1.2c0.7,0.1,1.4-0.1,2-0.6l0,0
								c3.1-2.3,6.2-4.6,8.5-6.3l3.7-2.7l3.7-2.7l0.1-0.1l4.2-3.2l3.3-2.4l1-0.7l1-0.7c1.4-1,2.9-2.1,4.3-3.2l0,0
								c1.1-0.7,1.5-2.2,0.8-3.3c-0.1-0.1-0.2-0.3-0.3-0.4c-1.1-1.4-2.1-2.9-3.2-4.3c-1.3-1.8-2.7-3.7-4.1-5.5
								c-0.2-0.2-0.2-0.5-0.2-0.7c0.1-0.7,0.3-1.4,0.5-2.2c0.4-1.4,0.7-2.9,0.7-4.4c-0.1-5.1-1.8-10.1-4.8-14.3
								c-4.6-6.9-9.5-13.5-14.8-19.8c-3-3.5-8.1-4-11.8-1.3c-1.2,0.9-2.1,2-2.8,3.3c-3.1-3.3-8.1-3.8-11.8-1.2
								c-0.6,0.5-1.2,1-1.6,1.6c-0.5,0.7-0.9,1.4-1.1,2.2h-0.1l-0.1-0.1c-2.3-2.6-6-3.5-9.3-2.3c-0.8,0.3-1.6,0.7-2.3,1.2
								c-1.2,0.9-2.1,2.1-2.7,3.4c-3.6-4.9-7.8-10.5-12.1-16.3c-0.7-1-1.5-1.8-2.6-2.5C105.2,22.1,101.4,22.3,98.6,24.3"/>
						</g>
					</g>
				</g>
			</g>
		</g>
		<g id="Fingers-2">
			<g>
				<defs>
					
						<rect id="SVGID_5_" x="15.4" y="120.3" transform="matrix(0.4813 -0.8766 0.8766 0.4813 -104.2634 144.512)" width="109.2" height="80.1"/>
				</defs>
				<clipPath id="SVGID_6_">
					<use xlink:href="#SVGID_5_"  style="overflow:visible;"/>
				</clipPath>
				<g class="st8">
					<g>
						<defs>
							
								<rect id="SVGID_7_" x="15.4" y="120.3" transform="matrix(0.4813 -0.8766 0.8766 0.4813 -104.2634 144.512)" width="109.2" height="80.1"/>
						</defs>
						<clipPath id="SVGID_8_">
							<use xlink:href="#SVGID_7_"  style="overflow:visible;"/>
						</clipPath>
						<g class="st9">
							<path class="st1" d="M35.8,201.8c5.8,3.2,11.6,6.4,17.4,9.6c0.8,0.4,1.1,0.3,1.5-0.4c1.9-3.6,4.1-7,6.7-10.2
								c1.3-1.6,3-2.2,4.8-2.9c9.2-3.5,18-7.8,26.4-13.1c3.9-2.2,7.6-4.7,11.1-7.5c3.5-2.9,4.8-7.1,1.6-10.9
								c-2.2-2.2-5.5-2.9-8.4-1.9c-3.1,1.1-6.1,2.4-9.1,3.7c-1.4,0.6-2.7,1.2-4,1.8c-0.2,0.1-0.6,0.2-0.7,0.1c-0.3-0.2,0-0.5,0-0.7
								c2-6,5.6-11.3,8.6-16.9c4.4-8.2,9-16.4,13.5-24.6c1.7-2.8,1.3-6.5-1.2-8.8c-2.6-2.4-6.5-2.5-9.2-0.2
								c-0.7,0.6-1.3,1.4-1.7,2.3c-3.6,6.5-7.2,13.1-10.8,19.6c-0.2,0.3-0.4,0.6-0.6,0.7c-0.4,0-0.3-0.5-0.4-0.8
								c-0.7-2.5-2.7-4.4-5.3-4.9c-2.8-0.6-5.7,0.5-7.3,2.9l-0.4,0.5c-0.4,0.6-0.8,1.2-1.3,1.7c0,0-0.1,0-0.1-0.1
								c-0.5-1.4-1.3-2.8-2.2-3.9c-2.9-3.1-8.7-2.3-10.9,1.3c-0.4,0.7-0.9,2-1.3,2c-0.8,0-0.7-1.2-1.1-1.9c-2-3.4-6.3-4.6-9.8-2.6
								c-1,0.6-1.8,1.3-2.4,2.2c-4.4,6.9-8.4,14-12,21.4c-2.2,4.3-3.2,9.1-2.7,13.9c0.3,2.2,1.4,4,2,6.1c0.2,0.7,0.2,1.4-0.2,2
								c-2,3.6-3.9,7.1-5.9,10.7c-0.4,0.7-0.3,1,0.4,1.4c3.5,1.9,6.9,3.8,10.4,5.7L35.8,201.8z"/>
							<path class="st7" d="M102.6,118.3c-2.5-1.3-5.6-1.1-7.8,0.7c-0.7,0.6-1.3,1.4-1.8,2.3c-3.6,6.5-7.2,13.1-10.8,19.6
								c-0.2,0.3-0.4,0.6-0.6,0.7c-0.1,0-0.1,0-0.2,0c-0.2-0.1-0.1-0.5-0.2-0.7c-0.5-1.8-1.7-3.3-3.2-4.2c-0.6-0.3-1.3-0.6-2-0.7
								c-2.8-0.6-5.7,0.5-7.3,2.9l-0.4,0.5c-0.4,0.6-0.8,1.2-1.3,1.7c0,0-0.1,0-0.1,0l0,0c-0.5-1.4-1.3-2.8-2.2-3.9
								c-0.4-0.5-0.9-0.9-1.5-1.2c-3.3-1.7-7.4-0.7-9.5,2.4c-0.4,0.7-0.9,2-1.3,2c-0.1,0-0.2,0-0.3-0.1c-0.5-0.3-0.4-1.3-0.8-1.9
								c-0.7-1.1-1.6-2.1-2.8-2.7c-3.2-1.8-7.4-0.8-9.4,2.3c-4.4,6.9-8.4,14-12,21.4c-2.2,4.3-3.2,9.1-2.7,13.9c0.3,2.2,1.4,4,2,6.1
								c0.2,0.7,0.2,1.4-0.2,2c-2,3.6-3.9,7.1-5.9,10.7c-0.4,0.7-0.3,1,0.4,1.4l0,0c1.6,0.9,3.2,1.7,4.7,2.6l2.1,1.2l3.5,1.9
								l4.6,2.6h0.1l8.2,4.5c3.1,1.7,6.2,3.4,9.3,5.1l0,0c0.7,0.4,1,0.3,1.5-0.4c1.9-3.6,4.1-7,6.7-10.2c1.3-1.6,3-2.2,4.8-2.9
								c9.2-3.5,18-7.8,26.4-13.1c3.9-2.2,7.6-4.7,11.1-7.5c3.5-2.9,4.8-7.1,1.6-10.9c-0.5-0.5-1.1-1-1.7-1.3
								c-2.1-1.1-4.5-1.3-6.7-0.5c-3.1,1.1-6.1,2.4-9.1,3.7c-1.4,0.6-2.7,1.2-4,1.8c-0.2,0.1-0.5,0.2-0.7,0.1l0,0
								c-0.3-0.2,0-0.5,0-0.7c2-6,5.6-11.3,8.6-16.9c4.4-8.2,9-16.4,13.5-24.6c1.7-2.8,1.3-6.5-1.2-8.8
								C103.5,118.9,103.1,118.5,102.6,118.3 M103.3,116.8c0.6,0.3,1.2,0.7,1.7,1.2c3,2.8,3.6,7.3,1.5,10.7l-4.3,7.7
								c-3,5.5-6.2,11.2-9.2,16.8c-0.8,1.6-1.8,3.2-2.6,4.7c-1.8,3-3.5,6.2-4.9,9.4c0.5-0.2,1-0.5,1.6-0.7l1-0.4
								c2.7-1.1,5.4-2.2,8.2-3.3c2.7-0.9,5.6-0.7,8.1,0.6c0.8,0.4,1.5,1,2.1,1.7c1.6,1.7,2.4,4,2.2,6.3c-0.4,2.7-1.8,5.2-4,6.9
								c-3.4,2.7-7,5.2-10.8,7.4l-0.4,0.3c-8.4,5.3-17.3,9.7-26.7,13.2c-1.7,0.6-3.1,1.1-4.1,2.4c-2.5,3.1-4.7,6.5-6.5,10
								c-0.3,0.7-0.9,1.2-1.6,1.4c-0.7,0.2-1.5,0-2.1-0.3l0,0l-9.3-5.1l-4-2.2l-4-2.2h-0.1l-4.6-2.6l-3.5-1.9l-1.1-0.6l-1.1-0.6
								c-1.5-0.8-3.1-1.7-4.7-2.6l0,0c-0.6-0.3-1.1-0.9-1.4-1.5c-0.2-0.7,0-1.4,0.3-2.1c0.9-1.6,1.7-3.1,2.6-4.7c1.1-2,2.2-4,3.3-6
								c0.1-0.2,0.2-0.5,0.1-0.7c-0.2-0.7-0.5-1.4-0.8-2.1c-0.6-1.4-1.1-2.8-1.3-4.3c-0.6-5.1,0.4-10.3,2.8-14.8
								c3.6-7.4,7.6-14.6,12.1-21.6c2.5-3.8,7.5-5.1,11.5-2.8c1.3,0.7,2.4,1.8,3.2,3c2.6-3.7,7.5-4.9,11.5-2.8
								c0.7,0.4,1.3,0.8,1.8,1.4c0.6,0.6,1.1,1.3,1.4,2l0,0l0.1-0.2c2-2.9,5.5-4.2,8.9-3.5c0.9,0.2,1.7,0.5,2.5,0.9
								c1.3,0.7,2.4,1.7,3.1,3c3-5.3,6.3-11.5,9.8-17.7c0.5-1.1,1.3-2,2.2-2.8c2.7-2.2,6.5-2.5,9.6-0.9"/>
						</g>
					</g>
				</g>
			</g>
		</g>
		<rect x="201.2" y="62" class="st2" width="109.1" height="14"/>
		<rect x="201.2" y="52" class="st2" width="19" height="0.7"/>
		<rect x="201.2" y="54.5" class="st2" width="19" height="0.7"/>
		<rect x="291.3" y="52" class="st2" width="19" height="0.7"/>
		<rect x="291.3" y="54.5" class="st2" width="19" height="0.7"/>
		<path class="st2" d="M223.2,48.2h2v5.4c0,0.6,0,1.1,0.1,1.7c0.1,0.4,0.3,0.8,0.6,1c0.4,0.3,0.9,0.4,1.3,0.4c0.5,0,0.9-0.1,1.3-0.3
			c0.3-0.2,0.5-0.5,0.5-0.9c0.1-0.6,0.1-1.1,0.1-1.7v-5.5h2v5.2c0,0.8,0,1.7-0.1,2.5c-0.1,0.5-0.3,0.9-0.6,1.2
			c-0.3,0.4-0.7,0.6-1.2,0.8c-0.6,0.2-1.3,0.3-1.9,0.3c-0.7,0-1.5-0.1-2.1-0.3c-0.4-0.2-0.8-0.5-1.2-0.8c-0.3-0.3-0.5-0.7-0.6-1.1
			c-0.2-0.8-0.2-1.7-0.2-2.5L223.2,48.2z"/>
		<path class="st2" d="M232.6,56l1.9-0.3c0.1,0.3,0.2,0.6,0.5,0.8c0.3,0.2,0.6,0.3,1,0.3c0.4,0,0.8-0.1,1.1-0.3
			c0.2-0.1,0.3-0.3,0.2-0.5c0-0.1,0-0.3-0.1-0.4c-0.2-0.1-0.4-0.2-0.6-0.2c-1-0.2-2-0.5-2.9-0.9c-0.6-0.4-0.9-1-0.9-1.6
			c0-0.6,0.3-1.2,0.7-1.6c0.7-0.5,1.5-0.7,2.3-0.6c0.8-0.1,1.5,0.1,2.2,0.5c0.5,0.3,0.8,0.8,1,1.4l-1.8,0.3
			c-0.1-0.3-0.2-0.5-0.4-0.6c-0.3-0.2-0.6-0.2-0.9-0.2c-0.4,0-0.7,0-1.1,0.2c-0.1,0.1-0.2,0.2-0.2,0.4c0,0.1,0.1,0.3,0.2,0.3
			c0.6,0.3,1.2,0.4,1.8,0.5c0.8,0.1,1.5,0.4,2.1,0.8c0.4,0.4,0.6,0.9,0.6,1.4c0,0.7-0.3,1.3-0.8,1.7c-0.7,0.5-1.6,0.8-2.4,0.7
			c-0.8,0-1.6-0.2-2.3-0.6C233.1,57.2,232.7,56.7,232.6,56z"/>
		<path class="st2" d="M245.1,55.8l1.9,0.3c-0.2,0.6-0.6,1.2-1.1,1.6c-0.6,0.4-1.3,0.6-2,0.5c-1.1,0.1-2.1-0.4-2.8-1.2
			c-0.5-0.7-0.7-1.6-0.7-2.5c-0.1-1,0.3-2,0.9-2.8c0.6-0.7,1.5-1,2.4-1c1,0,1.9,0.3,2.5,1.1c0.7,0.9,1,2.1,0.9,3.2h-4.8
			c0,0.5,0.1,0.9,0.5,1.3c0.3,0.3,0.7,0.5,1.1,0.5c0.3,0,0.5-0.1,0.8-0.2C244.9,56.4,245,56.1,245.1,55.8z M245.2,53.9
			c0-0.5-0.1-0.9-0.4-1.2c-0.3-0.3-0.6-0.4-1-0.4c-0.4,0-0.7,0.2-1,0.5c-0.3,0.3-0.4,0.8-0.4,1.2H245.2z"/>
		<path class="st2" d="M250.4,58.1h-1.9v-7.2h1.8v1c0.2-0.4,0.5-0.7,0.8-1c0.2-0.2,0.5-0.2,0.8-0.2c0.4,0,0.9,0.1,1.2,0.4l-0.6,1.7
			c-0.3-0.2-0.6-0.3-0.9-0.3c-0.2,0-0.5,0.1-0.7,0.2c-0.2,0.2-0.4,0.5-0.4,0.8c-0.1,0.8-0.2,1.6-0.2,2.4L250.4,58.1z"/>
		<path class="st2" d="M260.6,58.1h-1.9v-3.7c0-0.5,0-1-0.1-1.5c-0.1-0.2-0.2-0.4-0.4-0.5c-0.2-0.1-0.4-0.2-0.6-0.2
			c-0.3,0-0.6,0.1-0.9,0.3c-0.3,0.2-0.4,0.4-0.5,0.7c-0.1,0.5-0.2,1.1-0.1,1.7v3.2H254v-7.2h1.8V52c0.8-1.1,2.3-1.5,3.5-1
			c0.3,0.1,0.6,0.3,0.8,0.6c0.2,0.2,0.3,0.5,0.4,0.8c0.1,0.4,0.1,0.8,0.1,1.3L260.6,58.1z"/>
		<path class="st2" d="M263.9,53.1l-1.7-0.3c0.1-0.6,0.5-1.2,1-1.5c0.6-0.4,1.4-0.5,2.1-0.5c0.6,0,1.3,0.1,1.9,0.3
			c0.4,0.2,0.7,0.4,0.9,0.8c0.2,0.5,0.3,1.1,0.3,1.7v2.2c0,0.5,0,0.9,0.1,1.4c0.1,0.3,0.2,0.7,0.3,1h-1.9c0-0.1-0.1-0.3-0.2-0.6
			l-0.1-0.2c-0.3,0.3-0.6,0.5-1,0.7c-0.4,0.2-0.8,0.2-1.2,0.2c-0.6,0-1.3-0.2-1.8-0.6c-0.4-0.4-0.7-0.9-0.6-1.5
			c0-0.4,0.1-0.8,0.3-1.1c0.2-0.3,0.5-0.6,0.8-0.7c0.5-0.2,1-0.4,1.5-0.4c0.6-0.1,1.2-0.3,1.9-0.5v-0.2c0-0.3-0.1-0.6-0.3-0.8
			c-0.3-0.2-0.7-0.3-1-0.2c-0.3,0-0.6,0.1-0.8,0.2C264.2,52.6,264,52.8,263.9,53.1z M266.5,54.6c-0.4,0.1-0.8,0.2-1.2,0.3
			c-0.3,0.1-0.7,0.2-1,0.3c-0.2,0.1-0.4,0.4-0.4,0.7c0,0.3,0.1,0.5,0.3,0.7c0.2,0.2,0.5,0.3,0.8,0.3c0.4,0,0.7-0.1,1-0.3
			c0.2-0.2,0.4-0.4,0.5-0.6c0.1-0.3,0.1-0.6,0.1-0.9L266.5,54.6z"/>
		<path class="st2" d="M270.1,50.9h1.8v1c0.5-0.7,1.4-1.1,2.2-1.2c0.4,0,0.8,0.1,1.2,0.3c0.4,0.2,0.6,0.5,0.8,0.9
			c0.3-0.4,0.6-0.6,1-0.9c0.4-0.2,0.8-0.3,1.2-0.3c0.5,0,0.9,0.1,1.3,0.3c0.4,0.2,0.7,0.6,0.8,1c0.2,0.5,0.2,1,0.2,1.5v4.6h-1.9V54
			c0-0.5,0-0.9-0.2-1.4c-0.2-0.3-0.5-0.4-0.8-0.4c-0.3,0-0.5,0.1-0.8,0.2c-0.2,0.2-0.4,0.4-0.5,0.7c-0.1,0.5-0.2,1-0.2,1.5v3.5h-1.9
			v-4c0-0.5,0-0.9-0.1-1.3c-0.1-0.2-0.2-0.3-0.3-0.5c-0.2-0.1-0.4-0.2-0.6-0.2c-0.3,0-0.6,0.1-0.8,0.2c-0.2,0.2-0.4,0.4-0.5,0.7
			c-0.1,0.5-0.2,1-0.1,1.5v3.5H270L270.1,50.9z"/>
		<path class="st2" d="M286.7,55.8l1.9,0.3c-0.2,0.6-0.6,1.2-1.1,1.6c-0.6,0.4-1.3,0.6-2,0.5c-1.1,0.1-2.1-0.4-2.8-1.2
			c-0.5-0.7-0.7-1.6-0.7-2.5c-0.1-1,0.3-2,0.9-2.8c0.6-0.7,1.5-1,2.4-1c1,0,1.9,0.3,2.5,1.1c0.7,0.9,1,2.1,0.9,3.2h-4.8
			c0,0.5,0.1,0.9,0.5,1.3c0.3,0.3,0.7,0.5,1.1,0.5c0.3,0,0.5-0.1,0.8-0.2C286.5,56.4,286.6,56.1,286.7,55.8z M286.8,53.9
			c0-0.5-0.1-0.9-0.4-1.2c-0.3-0.3-0.6-0.4-1-0.4c-0.4,0-0.7,0.2-1,0.5c-0.3,0.3-0.4,0.8-0.4,1.2H286.8z"/>
		<path class="st7" d="M207.1,73.9V64h7.4v1.7h-5.4v2.2h5v1.7h-5v2.7h5.5v1.7L207.1,73.9z"/>
		<path class="st7" d="M215.4,73.9l2.6-3.7l-2.5-3.5h2.3l1.3,2l1.3-2h2.2l-2.4,3.4l2.7,3.8h-2.3l-1.5-2.2l-1.5,2.2H215.4z"/>
		<path class="st7" d="M224,65.8V64h1.9v1.8H224z M224,73.9v-7.2h1.9v7.2H224z"/>
		<path class="st7" d="M231.1,66.7v1.5h-1.3v2.9c0,0.3,0,0.7,0,1c0,0.1,0.1,0.2,0.2,0.2c0.1,0.1,0.2,0.1,0.3,0.1
			c0.3,0,0.5-0.1,0.8-0.2l0.2,1.5c-0.5,0.2-1,0.3-1.5,0.3c-0.3,0-0.6-0.1-0.9-0.2c-0.2-0.1-0.4-0.2-0.6-0.4
			c-0.1-0.2-0.2-0.5-0.3-0.8c-0.1-0.4-0.1-0.9-0.1-1.3v-3.1H227v-1.5h0.9v-1.4l1.9-1.1v2.5H231.1z"/>
		<path class="st2" d="M207.1,90.6v-9.9h3.2c0.8,0,1.6,0,2.4,0.2c0.6,0.2,1.1,0.5,1.4,1c0.4,0.6,0.6,1.2,0.6,1.9
			c0,0.5-0.1,1.1-0.3,1.5c-0.2,0.4-0.5,0.7-0.8,1c-0.3,0.2-0.6,0.4-1,0.5c-0.7,0.1-1.4,0.2-2.1,0.1h-1.3v3.7L207.1,90.6z
			 M209.1,82.3v2.8h1.1c0.5,0,1.1,0,1.6-0.2c0.3-0.1,0.5-0.3,0.6-0.5c0.2-0.2,0.2-0.5,0.2-0.8c0-0.3-0.1-0.6-0.3-0.9
			c-0.2-0.2-0.5-0.4-0.8-0.4c-0.5-0.1-1-0.1-1.4-0.1H209.1z"/>
		<path class="st2" d="M218.1,90.6h-1.9v-7.2h1.8v1c0.2-0.4,0.5-0.7,0.8-1c0.2-0.2,0.5-0.2,0.8-0.2c0.4,0,0.9,0.1,1.2,0.4l-0.6,1.7
			c-0.3-0.2-0.6-0.3-0.9-0.3c-0.2,0-0.5,0.1-0.7,0.2c-0.2,0.2-0.4,0.5-0.4,0.8c-0.1,0.8-0.2,1.6-0.2,2.4L218.1,90.6z"/>
		<path class="st2" d="M221.1,86.9c0-0.6,0.2-1.3,0.5-1.8c0.3-0.6,0.8-1,1.3-1.3c0.6-0.3,1.2-0.5,1.9-0.5c1,0,2,0.4,2.7,1.1
			c1.4,1.5,1.4,3.9,0,5.4c-0.7,0.7-1.7,1.1-2.6,1.1c-0.7,0-1.3-0.1-1.9-0.4c-0.6-0.3-1.1-0.7-1.4-1.3
			C221.2,88.3,221.1,87.6,221.1,86.9z M223.1,87c0,0.6,0.1,1.2,0.5,1.6c0.6,0.7,1.7,0.8,2.3,0.2c0.1,0,0.1-0.1,0.2-0.2
			c0.4-0.5,0.5-1.1,0.5-1.7c0-0.6-0.1-1.2-0.5-1.6c-0.6-0.7-1.7-0.8-2.3-0.2c-0.1,0-0.1,0.1-0.2,0.2C223.2,85.8,223,86.4,223.1,87
			L223.1,87z"/>
		<path class="st2" d="M229.8,91l2.2,0.3c0,0.2,0.1,0.4,0.2,0.5c0.3,0.2,0.6,0.2,0.9,0.2c0.4,0,0.8,0,1.1-0.2
			c0.2-0.1,0.3-0.3,0.4-0.5c0.1-0.3,0.1-0.6,0.1-0.9v-1c-0.5,0.7-1.3,1.2-2.1,1.2c-0.9,0-1.8-0.4-2.3-1.2c-0.5-0.7-0.7-1.6-0.7-2.4
			c-0.1-1,0.2-2,0.9-2.8c0.5-0.6,1.3-1,2.2-1c0.9,0,1.7,0.4,2.2,1.2v-1h1.8v6.4c0,0.6,0,1.3-0.2,1.9c-0.1,0.4-0.3,0.7-0.6,1
			c-0.3,0.3-0.6,0.5-1,0.6c-0.5,0.1-1.1,0.2-1.6,0.2c-0.9,0.1-1.8-0.1-2.6-0.6c-0.5-0.4-0.8-1-0.8-1.6
			C229.8,91.2,229.8,91.1,229.8,91z M231.5,86.8c0,0.6,0.1,1.2,0.4,1.7c0.3,0.3,0.7,0.5,1.1,0.5c0.5,0,0.9-0.2,1.2-0.6
			c0.4-0.5,0.5-1,0.5-1.6c0-0.6-0.1-1.2-0.5-1.7c-0.3-0.4-0.7-0.5-1.2-0.5c-0.4,0-0.9,0.2-1.1,0.5C231.6,85.6,231.5,86.2,231.5,86.8
			L231.5,86.8z"/>
		<path class="st2" d="M240.3,90.6h-1.9v-7.2h1.8v1c0.2-0.4,0.5-0.7,0.8-1c0.2-0.2,0.5-0.2,0.8-0.2c0.4,0,0.9,0.1,1.2,0.4l-0.6,1.7
			c-0.3-0.2-0.6-0.3-0.9-0.3c-0.2,0-0.5,0.1-0.7,0.2c-0.2,0.2-0.4,0.5-0.4,0.8c-0.1,0.8-0.2,1.6-0.2,2.4L240.3,90.6z"/>
		<path class="st2" d="M245,85.6l-1.7-0.3c0.1-0.6,0.5-1.2,1-1.6c0.6-0.4,1.4-0.5,2.1-0.5c0.6,0,1.3,0.1,1.9,0.3
			c0.4,0.2,0.7,0.4,0.9,0.8c0.2,0.5,0.3,1.1,0.3,1.7v2.2c0,0.5,0,0.9,0.1,1.4c0.1,0.3,0.2,0.7,0.3,1H248c0-0.1-0.1-0.3-0.2-0.6
			l-0.1-0.2c-0.3,0.3-0.6,0.5-1,0.7c-0.4,0.2-0.8,0.2-1.2,0.2c-0.6,0-1.3-0.2-1.8-0.6c-0.4-0.4-0.7-0.9-0.6-1.5
			c0-0.4,0.1-0.8,0.3-1.1c0.2-0.3,0.5-0.6,0.8-0.7c0.5-0.2,1-0.4,1.5-0.4c0.6-0.1,1.2-0.3,1.9-0.5v-0.2c0-0.3-0.1-0.6-0.3-0.8
			c-0.3-0.2-0.7-0.3-1-0.2c-0.3,0-0.6,0.1-0.8,0.2C245.3,85,245.1,85.3,245,85.6z M247.6,87.1c-0.4,0.1-0.8,0.2-1.2,0.3
			c-0.3,0.1-0.7,0.2-1,0.3c-0.2,0.1-0.4,0.4-0.4,0.7c0,0.3,0.1,0.5,0.3,0.7c0.2,0.2,0.5,0.3,0.8,0.3c0.4,0,0.7-0.1,1-0.3
			c0.2-0.2,0.4-0.4,0.4-0.6c0.1-0.3,0.1-0.6,0.1-0.9L247.6,87.1z"/>
		<path class="st2" d="M251.2,83.4h1.8v1c0.5-0.7,1.4-1.1,2.2-1.2c0.4,0,0.8,0.1,1.2,0.3c0.4,0.2,0.6,0.5,0.8,0.9
			c0.3-0.4,0.6-0.6,1-0.9c0.4-0.2,0.8-0.3,1.2-0.3c0.5,0,0.9,0.1,1.3,0.3c0.4,0.2,0.7,0.6,0.8,1c0.2,0.5,0.2,1,0.2,1.5v4.6h-1.9
			v-4.2c0-0.5,0-0.9-0.2-1.4c-0.2-0.3-0.5-0.4-0.8-0.4c-0.6,0-1.1,0.4-1.3,1c-0.1,0.5-0.2,1-0.2,1.5v3.4h-1.9v-4
			c0-0.5,0-0.9-0.1-1.3c-0.1-0.2-0.2-0.3-0.3-0.4c-0.2-0.1-0.4-0.2-0.6-0.2c-0.3,0-0.6,0.1-0.8,0.2c-0.2,0.2-0.4,0.4-0.5,0.7
			c-0.1,0.5-0.2,1-0.1,1.5v3.5h-1.9L251.2,83.4z"/>
		<path class="st2" d="M276.5,90.6h-2.2l-0.9-2.2h-4l-0.8,2.2h-2.1l3.9-9.9h2.1L276.5,90.6z M272.8,86.6l-1.4-3.6l-1.3,3.7
			L272.8,86.6z"/>
		<path class="st2" d="M282.2,90.6v-1.1c-0.3,0.4-0.6,0.7-1,0.9c-0.4,0.2-0.9,0.3-1.4,0.3c-0.5,0-0.9-0.1-1.3-0.3
			c-0.4-0.2-0.7-0.5-0.8-0.9c-0.2-0.5-0.3-1-0.3-1.6v-4.5h1.9v3.3c0,0.6,0,1.2,0.1,1.9c0.1,0.2,0.2,0.4,0.4,0.5
			c0.2,0.1,0.5,0.2,0.7,0.2c0.3,0,0.6-0.1,0.9-0.3c0.2-0.2,0.4-0.4,0.5-0.7c0.1-0.6,0.1-1.3,0.1-1.9v-3h1.9v7.2L282.2,90.6z"/>
		<path class="st2" d="M292.5,90.6h-1.8v-1c-0.3,0.4-0.6,0.7-1,0.9c-0.4,0.2-0.8,0.3-1.2,0.3c-0.8,0-1.6-0.4-2.1-1
			c-1.2-1.7-1.2-3.9,0-5.6c0.5-0.6,1.3-1,2.2-1c0.8,0,1.6,0.4,2.1,1v-3.6h1.9L292.5,90.6z M287.4,86.8c0,0.6,0.1,1.2,0.3,1.7
			c0.3,0.5,0.8,0.7,1.3,0.7c0.4,0,0.9-0.2,1.1-0.6c0.3-0.5,0.5-1.1,0.5-1.7c0.1-0.6-0.1-1.3-0.4-1.8c-0.5-0.6-1.4-0.7-2.1-0.2
			c-0.1,0.1-0.1,0.1-0.2,0.2C287.5,85.7,287.4,86.2,287.4,86.8z"/>
		<path class="st2" d="M294.4,82.4v-1.8h1.9v1.8H294.4z M294.4,90.6v-7.2h1.9v7.2H294.4z"/>
		<path class="st2" d="M297.8,86.9c0-0.6,0.2-1.3,0.5-1.8c0.3-0.6,0.8-1,1.3-1.3c0.6-0.3,1.2-0.5,1.9-0.5c1,0,2,0.4,2.7,1.1
			c1.4,1.5,1.4,3.9,0,5.4c-0.7,0.7-1.7,1.1-2.6,1.1c-0.7,0-1.3-0.1-1.9-0.4c-0.6-0.3-1.1-0.7-1.4-1.3
			C297.9,88.3,297.7,87.6,297.8,86.9z M299.8,87c0,0.6,0.1,1.2,0.5,1.6c0.6,0.7,1.7,0.8,2.3,0.2c0.1,0,0.1-0.1,0.2-0.2
			c0.4-0.5,0.5-1.1,0.5-1.7c0-0.6-0.1-1.2-0.5-1.6c-0.6-0.7-1.7-0.8-2.3-0.2c-0.1,0-0.1,0.1-0.2,0.2C299.9,85.8,299.7,86.4,299.8,87
			L299.8,87z"/>
		<g>
			<defs>
				<rect id="SVGID_9_" x="201" y="88.9" width="109.4" height="25"/>
			</defs>
			<clipPath id="SVGID_10_">
				<use xlink:href="#SVGID_9_"  style="overflow:visible;"/>
			</clipPath>
			<g class="st10">
				<path class="st2" d="M213.4,103.5l1.9,0.6c-0.2,0.9-0.7,1.8-1.5,2.4c-0.8,0.6-1.7,0.8-2.6,0.8c-1.2,0-2.4-0.5-3.2-1.4
					c-0.9-1-1.3-2.3-1.3-3.7c-0.1-1.4,0.4-2.8,1.3-3.8c0.9-0.9,2.1-1.4,3.4-1.4c1.1-0.1,2.2,0.3,3,1.1c0.5,0.5,0.8,1.1,1,1.8l-2,0.5
					c-0.2-1-1.1-1.7-2.1-1.7c-0.7,0-1.3,0.3-1.8,0.8c-0.5,0.7-0.8,1.7-0.7,2.6c-0.1,0.9,0.1,1.9,0.7,2.7c0.4,0.5,1.1,0.8,1.8,0.8
					c0.5,0,1-0.2,1.4-0.5C213,104.7,213.3,104.1,213.4,103.5z"/>
				<path class="st2" d="M218.9,97.3v3.7c0.5-0.7,1.3-1.1,2.2-1.1c0.4,0,0.8,0.1,1.2,0.2c0.3,0.1,0.6,0.3,0.8,0.6
					c0.2,0.3,0.3,0.5,0.4,0.8c0.1,0.5,0.1,1,0.1,1.4v4.2h-1.9v-3.8c0-0.5,0-1-0.1-1.4c-0.1-0.2-0.2-0.4-0.4-0.5
					c-0.2-0.1-0.4-0.2-0.7-0.2c-0.3,0-0.6,0.1-0.9,0.2c-0.3,0.2-0.4,0.4-0.5,0.7c-0.1,0.4-0.2,0.9-0.2,1.4v3.6H217v-9.9H218.9z"/>
				<path class="st2" d="M226.9,102.2l-1.7-0.3c0.1-0.6,0.5-1.2,1-1.6c0.6-0.4,1.4-0.5,2.1-0.5c0.6,0,1.3,0.1,1.9,0.3
					c0.4,0.2,0.7,0.4,0.9,0.8c0.2,0.5,0.3,1.1,0.3,1.7v2.2c0,0.5,0,0.9,0.1,1.4c0.1,0.3,0.2,0.7,0.3,1h-1.9
					c-0.1-0.2-0.1-0.4-0.2-0.6c0-0.1-0.1-0.2-0.1-0.2c-0.3,0.3-0.6,0.5-1,0.7c-0.4,0.2-0.8,0.2-1.2,0.2c-0.6,0-1.3-0.2-1.8-0.6
					c-0.4-0.4-0.7-0.9-0.6-1.5c0-0.4,0.1-0.8,0.3-1.1c0.2-0.3,0.5-0.6,0.8-0.7c0.5-0.2,1-0.4,1.5-0.4c0.6-0.1,1.2-0.3,1.9-0.5v-0.2
					c0-0.3-0.1-0.6-0.3-0.8c-0.3-0.2-0.7-0.3-1-0.2c-0.3,0-0.6,0.1-0.8,0.2C227.2,101.7,227,101.9,226.9,102.2z M229.5,103.7
					c-0.4,0.1-0.8,0.2-1.2,0.3c-0.3,0.1-0.7,0.2-1,0.3c-0.2,0.1-0.4,0.4-0.4,0.7c0,0.3,0.1,0.5,0.3,0.7c0.2,0.2,0.5,0.3,0.8,0.3
					c0.4,0,0.7-0.1,1-0.3c0.2-0.2,0.4-0.4,0.4-0.6c0.1-0.3,0.1-0.6,0.1-0.9L229.5,103.7z"/>
				<path class="st2" d="M239.8,107.2h-1.9v-3.7c0-0.5,0-1-0.1-1.5c-0.1-0.2-0.2-0.4-0.4-0.5c-0.2-0.1-0.4-0.2-0.7-0.2
					c-0.3,0-0.6,0.1-0.9,0.3c-0.3,0.2-0.4,0.4-0.5,0.7c-0.1,0.5-0.2,1.1-0.1,1.7v3.2h-1.9V100h1.8v1c0.5-0.8,1.4-1.2,2.4-1.2
					c0.4,0,0.8,0.1,1.1,0.2c0.3,0.1,0.6,0.3,0.8,0.6c0.2,0.2,0.3,0.5,0.4,0.8c0.1,0.4,0.1,0.9,0.1,1.3L239.8,107.2z"/>
				<path class="st2" d="M248.2,107.2h-1.9v-3.7c0-0.5,0-1-0.1-1.5c-0.1-0.2-0.2-0.4-0.4-0.5c-0.2-0.1-0.4-0.2-0.7-0.2
					c-0.3,0-0.6,0.1-0.9,0.3c-0.3,0.2-0.4,0.4-0.5,0.7c-0.1,0.5-0.2,1.1-0.1,1.7v3.2h-1.9V100h1.8v1c0.8-1.1,2.3-1.5,3.5-1
					c0.3,0.1,0.6,0.3,0.8,0.6c0.2,0.2,0.3,0.5,0.4,0.8c0.1,0.4,0.1,0.9,0.1,1.3L248.2,107.2z"/>
				<path class="st2" d="M254.3,104.9l1.9,0.3c-0.2,0.6-0.6,1.2-1.2,1.6c-0.6,0.4-1.3,0.6-2,0.6c-1.1,0.1-2.1-0.4-2.8-1.2
					c-0.5-0.7-0.7-1.6-0.7-2.5c-0.1-1,0.3-2,0.9-2.8c0.6-0.7,1.5-1,2.4-1c1,0,1.9,0.3,2.5,1.1c0.7,0.9,1,2.1,0.9,3.2h-4.8
					c0,0.5,0.1,0.9,0.5,1.3c0.3,0.3,0.7,0.5,1.1,0.5c0.3,0,0.5-0.1,0.8-0.2C254.1,105.5,254.2,105.2,254.3,104.9z M254.4,103
					c0-0.5-0.1-0.9-0.4-1.2c-0.3-0.3-0.6-0.4-1-0.4c-0.4,0-0.7,0.2-1,0.4c-0.3,0.3-0.4,0.8-0.4,1.2H254.4z"/>
				<path class="st2" d="M257.9,107.2v-9.9h1.9v9.9H257.9z"/>
				<path class="st2" d="M261,105.1l1.9-0.3c0.1,0.3,0.2,0.6,0.5,0.8c0.3,0.2,0.6,0.3,1,0.3c0.4,0,0.8-0.1,1.1-0.3
					c0.2-0.1,0.3-0.3,0.2-0.5c0-0.1,0-0.3-0.1-0.4c-0.2-0.1-0.4-0.2-0.6-0.2c-1-0.2-2-0.5-2.9-0.9c-0.6-0.4-0.9-1-0.9-1.6
					c0-0.6,0.3-1.2,0.7-1.6c0.7-0.5,1.5-0.7,2.3-0.6c0.8-0.1,1.5,0.1,2.2,0.5c0.5,0.3,0.9,0.8,1,1.4l-1.8,0.3
					c-0.1-0.3-0.2-0.5-0.4-0.7c-0.3-0.2-0.6-0.2-0.9-0.2c-0.4,0-0.7,0-1.1,0.2c-0.1,0.1-0.2,0.2-0.2,0.4c0,0.1,0.1,0.3,0.2,0.3
					c0.6,0.3,1.2,0.4,1.8,0.5c0.8,0.1,1.5,0.4,2.1,0.8c0.4,0.4,0.6,0.9,0.6,1.4c0,0.7-0.3,1.3-0.8,1.7c-0.7,0.5-1.6,0.8-2.5,0.7
					c-0.8,0-1.6-0.2-2.3-0.6C261.5,106.4,261.2,105.8,261,105.1z"/>
			</g>
		</g>
		<g>
			<defs>
				<rect id="SVGID_11_" x="204" y="110.3" width="103.8" height="9.7"/>
			</defs>
			<clipPath id="SVGID_12_">
				<use xlink:href="#SVGID_11_"  style="overflow:visible;"/>
			</clipPath>
			<g class="st11">
				<path class="st2" d="M216,123.8h-2.2l-0.9-2.2h-4l-0.8,2.2H206l3.9-9.9h2.1L216,123.8z M212.3,119.9l-1.4-3.7l-1.3,3.7H212.3z"
					/>
				<path class="st2" d="M221.6,123.8v-1.1c-0.3,0.4-0.6,0.7-1,0.9c-0.4,0.2-0.9,0.3-1.4,0.3c-0.5,0-0.9-0.1-1.3-0.3
					c-0.4-0.2-0.7-0.5-0.8-0.9c-0.2-0.5-0.3-1-0.3-1.6v-4.5h1.9v3.3c0,0.6,0,1.2,0.1,1.9c0.1,0.2,0.2,0.4,0.4,0.5
					c0.2,0.1,0.5,0.2,0.7,0.2c0.3,0,0.6-0.1,0.9-0.3c0.2-0.2,0.4-0.4,0.5-0.7c0.1-0.6,0.2-1.3,0.1-1.9v-3h1.9v7.2L221.6,123.8z"/>
				<path class="st2" d="M228.8,116.6v1.5h-1.3v2.9c0,0.3,0,0.7,0,1c0,0.1,0.1,0.2,0.2,0.2c0.1,0.1,0.2,0.1,0.3,0.1
					c0.3,0,0.5-0.1,0.8-0.2l0.2,1.5c-0.5,0.2-1,0.3-1.5,0.3c-0.3,0-0.6-0.1-0.9-0.2c-0.2-0.1-0.5-0.2-0.6-0.4
					c-0.1-0.2-0.2-0.5-0.3-0.8c-0.1-0.4-0.1-0.9-0.1-1.3v-3.1h-0.9v-1.5h0.9v-1.4l1.9-1.1v2.5H228.8z"/>
				<path class="st2" d="M229.7,120.1c0-0.6,0.2-1.3,0.5-1.8c0.3-0.6,0.8-1,1.3-1.3c0.6-0.3,1.2-0.5,1.9-0.5c1,0,2,0.4,2.7,1.1
					c1.4,1.5,1.4,3.9,0,5.4c-0.7,0.7-1.7,1.1-2.6,1.1c-0.7,0-1.3-0.2-1.9-0.4c-0.6-0.3-1.1-0.7-1.4-1.3
					C229.8,121.6,229.7,120.8,229.7,120.1z M231.7,120.2c0,0.6,0.1,1.2,0.5,1.6c0.6,0.7,1.7,0.8,2.3,0.2c0.1,0,0.1-0.1,0.2-0.2
					c0.4-0.5,0.5-1.1,0.5-1.7c0-0.6-0.1-1.2-0.5-1.6c-0.6-0.7-1.7-0.8-2.3-0.2c-0.1,0-0.1,0.1-0.2,0.2
					C231.8,119,231.6,119.6,231.7,120.2L231.7,120.2z"/>
				<path class="st2" d="M239.7,123.8v-8.2h-2.9v-1.7h7.9v1.7h-2.9v8.2H239.7z"/>
				<path class="st2" d="M246.3,118.8l-1.7-0.3c0.1-0.6,0.5-1.2,1-1.6c0.6-0.4,1.4-0.5,2.1-0.5c0.6,0,1.3,0.1,1.9,0.3
					c0.4,0.2,0.7,0.4,0.9,0.8c0.2,0.5,0.3,1.1,0.2,1.7v2.2c0,0.5,0,0.9,0.1,1.4c0.1,0.3,0.2,0.7,0.3,1h-1.9
					c-0.1-0.2-0.1-0.4-0.2-0.6c0-0.1-0.1-0.2-0.1-0.2c-0.3,0.3-0.6,0.5-1,0.7c-0.4,0.2-0.8,0.2-1.2,0.2c-0.6,0-1.3-0.2-1.8-0.6
					c-0.7-0.7-0.8-1.8-0.3-2.6c0.2-0.3,0.5-0.6,0.8-0.7c0.5-0.2,1-0.4,1.5-0.4c0.6-0.1,1.2-0.3,1.9-0.5V119c0-0.3-0.1-0.6-0.3-0.8
					c-0.3-0.2-0.7-0.3-1-0.2c-0.3,0-0.6,0.1-0.8,0.2C246.6,118.3,246.4,118.5,246.3,118.8z M248.8,120.4c-0.4,0.1-0.8,0.2-1.2,0.3
					c-0.3,0.1-0.7,0.2-1,0.3c-0.2,0.1-0.4,0.4-0.4,0.7c0,0.3,0.1,0.5,0.3,0.7c0.2,0.2,0.5,0.3,0.8,0.3c0.4,0,0.7-0.1,1-0.3
					c0.2-0.2,0.4-0.4,0.5-0.6c0.1-0.3,0.1-0.6,0.1-0.9L248.8,120.4z"/>
				<path class="st2" d="M252.6,123.8v-9.9h1.9v9.9H252.6z"/>
				<path class="st2" d="M256.5,123.8v-9.9h1.9v5.3l2.2-2.5h2.4l-2.5,2.6l2.6,4.6h-2l-1.8-3.2l-0.9,0.9v2.3H256.5z"/>
				<path class="st2" d="M274.6,120.2l1.9,0.6c-0.2,0.9-0.7,1.8-1.5,2.4c-0.8,0.6-1.7,0.8-2.6,0.8c-1.2,0-2.4-0.5-3.2-1.3
					c-0.9-1-1.3-2.3-1.3-3.7c-0.1-1.4,0.4-2.8,1.3-3.8c0.9-0.9,2.1-1.4,3.4-1.4c1.1-0.1,2.2,0.3,3,1.1c0.5,0.5,0.8,1.1,1,1.8l-2,0.5
					c-0.2-1-1.1-1.7-2.1-1.7c-0.7,0-1.3,0.3-1.8,0.8c-0.5,0.7-0.8,1.7-0.7,2.6c-0.1,0.9,0.1,1.9,0.7,2.7c0.4,0.5,1.1,0.8,1.8,0.8
					c0.5,0,1-0.2,1.4-0.5C274.2,121.3,274.5,120.8,274.6,120.2z"/>
				<path class="st2" d="M278.2,123.8v-9.9h2v3.9h3.9v-3.9h2v9.9h-2v-4.3h-3.9v4.3H278.2z"/>
				<path class="st2" d="M294.2,122.1v1.8h-6.7c0.1-0.7,0.3-1.3,0.6-1.9c0.6-0.9,1.3-1.7,2.1-2.4c0.6-0.5,1.1-1,1.6-1.6
					c0.2-0.3,0.4-0.7,0.4-1.2c0-0.4-0.1-0.7-0.3-1c-0.5-0.5-1.3-0.5-1.9,0c-0.3,0.3-0.4,0.8-0.4,1.2l-1.9-0.2c0-0.9,0.4-1.7,1.1-2.2
					c0.6-0.5,1.4-0.7,2.2-0.7c0.8,0,1.7,0.2,2.3,0.8c0.6,0.5,0.9,1.2,0.8,2c0,0.4-0.1,0.9-0.2,1.3c-0.2,0.5-0.4,0.9-0.8,1.3
					c-0.4,0.4-0.8,0.9-1.2,1.3c-0.6,0.6-1,0.9-1.1,1.1c-0.1,0.2-0.3,0.3-0.4,0.5L294.2,122.1z"/>
			</g>
		</g>
	</g>
</g>
<g>
	<g>
		<line class="st12" x1="405.8" y1="54" x2="405.8" y2="35.2"/>
		<g>
			<path class="st7" d="M405.8,24.5c1.9,5,5,11.3,8.4,15.1l-8.4-3l-8.4,3C400.8,35.8,404,29.5,405.8,24.5z"/>
		</g>
	</g>
</g>
<g>
	<g>
		<line class="st12" x1="405.8" y1="115.1" x2="405.8" y2="133.9"/>
		<g>
			<path class="st7" d="M405.8,144.6c-1.9-5-5-11.3-8.4-15.1l8.4,3l8.4-3C410.9,133.3,407.7,139.6,405.8,144.6z"/>
		</g>
	</g>
</g>
</svg>
