<svg id="bpx" xmlns="http://www.w3.org/2000/svg" viewBox="0 0 1014.49 732"><defs><style>.cls-1,.cls-7{fill:#fff;}.cls-1,.cls-2,.cls-3{stroke:#231f20;stroke-miterlimit:10;}.cls-1,.cls-3{stroke-width:11.44px;}.cls-2,.cls-3{fill:none;}.cls-2{stroke-linecap:round;stroke-width:22.89px;}.cls-4{fill:#00a04c;}.cls-5{fill:#248145;}.cls-6,.cls-8{fill:#231f20;}.cls-8{font-size:94.85px;font-family:Calibri-Italic, Calibri;font-style:italic;}</style></defs><g id="BPX-SideL"><polygon class="cls-1" points="1008.65 418.34 1008.65 725.5 402.79 725.5 263.86 725.5 263.86 5.78 1008.65 5.78 1008.65 418.34"/><path class="cls-2" d="M1006.47,418.34c-8.35,6.52-16.47,13-23.46,16.48-20.71,9.95-55.39,26.78-94.19,45.77-13.85,6.64-20.26-2.28-34.78,4.81s-37.19,30.21-51.62,37.19c-53.68,26.1-102.54,49.9-122.9,60-5.62,2.75-9.17,4.47-10,4.81-7.79,4-72.57,21.17-76.57,21.17H589.1s-9.85,20.14-27.47,33.3a69.26,69.26,0,0,1-9.15,5.73c-14.07,7-90.86,44.17-149.69,72.44"/><path class="cls-3" d="M678.47,581.42a1.91,1.91,0,0,1,.35-.24c3.43-1.83,31-17.84,40.86-42.8,24.14-60.87,23-115,23-115s103.91-110.66,98.19-146.48S743,247.83,743,247.83s-3.78-52.89-27.69-116.29S627.67,54,571.83,77.76c0,0-63.76,8.36-3.56,86,47.84,61.56,47.26,172.68,47.26,236.21s1.16,137.79-19.33,180.35-34.79,61.24-34.79,61.24"/><path class="cls-4" d="M610,289.61s31.09,29.76,31.09,109.79c0,29.75-9.7,56.41-17.51,73a164,164,0,0,1-8.09,15.34c-.93,1.54-1.45,2.38-1.45,2.38s8.8-93.76-4-200.52"/><path class="cls-3" d="M610,289.61s31.09,29.76,31.09,109.79c0,29.75-9.7,56.41-17.51,73a164,164,0,0,1-8.09,15.34c-.93,1.54-1.45,2.38-1.45,2.38S622.84,396.37,610,289.61Z"/><path class="cls-5" d="M657.91,211.31a98.63,98.63,0,0,1,9,6.05c5,3.69,5.52,7.36,5.52,7.36s8.16,4.15,12.45,8.79c2.55,2.76,1.17,5.69,2.94,8,2.33,3,8.56,6.25,10.7,9.58,1.78,2.78-.47,5.65,1.17,8.6,1.82,3.25,7.49,6.61,9.11,10,1.38,2.95-1.29,6,0,9.07,1.41,3.53,6.71,7.12,7.92,10.81,1.05,3.16-2,6.37-1.07,9.64s5.67,6.54,6.4,9.89c.86,4-2.34,8.08-1.71,12.23s5.15,8.4,5.56,12.68c.35,3.87-3.35,7.83-3.22,11.82.11,2.76,4.16,5.52,4.16,8.31,0,1.17,0,2.33,0,3.5-.08,4.25-4.23,8.48-4.56,12.64-.25,3.38,3.41,6.71,3,10-.6,4.9-5.34,9.7-6.25,14.43-.56,2.85,2.81,5.66,2.16,8.46-1.1,4.5-6.31,8.93-7.67,13.26-1,3.24,1.86,6.41.68,9.53-1.4,3.72-6.88,7.34-8.49,10.87-.87,1.92,2.21,3.79,1.29,5.63-1.67,3.32-7.4,6.54-9.22,9.66-1.19,2,1.56,4,.3,5.9-2,3-8,6-10.18,8.79-1,1.3,2,2.59.91,3.83l-76.23,39.8L614,490.13c1.59-2.47,3.1-5,4.57-7.62,2.36-4.17-.4-6.43.78-8.94,1-2.07,5.89-4.28,7.38-7.85,1.68-4-.75-8.15.66-12.41,1.16-3.45,6.19-7,7.14-10.57s-2.15-7.26-1.39-11c.89-4.31,5.63-8.7,6.23-13.18.51-3.74-3.06-7.53-2.74-11.36.27-3.59,4.44-7.21,4.54-10.88.06-1.93.08-3.87.08-5.83s-4-3.94-4.06-5.88c-.09-4,3.65-8,3.32-11.91s-4.77-7.93-5.32-11.81c-.63-4.3,2.59-8.55,1.71-12.7-.51-2.46-5-4.89-5.66-7.29-1-4.17,1.76-8.25.46-12.23-1-3.15-6.09-6.22-7.27-9.24-1.42-3.66,1-7.24-.61-10.71s-7.33-2.86-9.14-6.11c-1.64-2.9.65-9.7-1.12-12.41-1.11-1.73-2.25-3.41-3.44-5.06,0,0-6.43-48.76,0-54.12s47.76-19.73,47.76-19.73"/><path class="cls-3" d="M657.91,211.31a98.63,98.63,0,0,1,9,6.05c5,3.69,5.52,7.36,5.52,7.36s8.16,4.15,12.45,8.79c2.55,2.76,1.17,5.69,2.94,8,2.33,3,8.56,6.25,10.7,9.58,1.78,2.78-.47,5.65,1.17,8.6,1.82,3.25,7.49,6.61,9.11,10,1.38,2.95-1.29,6,0,9.07,1.41,3.53,6.71,7.12,7.92,10.81,1.05,3.16-2,6.37-1.07,9.64s5.67,6.54,6.4,9.89c.86,4-2.34,8.08-1.71,12.23s5.15,8.4,5.56,12.68c.35,3.87-3.35,7.83-3.22,11.82.11,2.76,4.16,5.52,4.16,8.31,0,1.17,0,2.33,0,3.5-.08,4.25-4.23,8.48-4.56,12.64-.25,3.38,3.41,6.71,3,10-.6,4.9-5.34,9.7-6.25,14.43-.56,2.85,2.81,5.66,2.16,8.46-1.1,4.5-6.31,8.93-7.67,13.26-1,3.24,1.86,6.41.68,9.53-1.4,3.72-6.88,7.34-8.49,10.87-.87,1.92,2.21,3.79,1.29,5.63-1.67,3.32-7.4,6.54-9.22,9.66-1.19,2,1.56,4,.3,5.9-2,3-8,6-10.18,8.79-1,1.3,2,2.59.91,3.83l-76.23,39.8L614,490.13c1.59-2.47,3.1-5,4.57-7.62,2.36-4.17-.4-6.43.78-8.94,1-2.07,5.89-4.28,7.38-7.85,1.68-4-.75-8.15.66-12.41,1.16-3.45,6.19-7,7.14-10.57s-2.15-7.26-1.39-11c.89-4.31,5.63-8.7,6.23-13.18.51-3.74-3.06-7.53-2.74-11.36.27-3.59,4.44-7.21,4.54-10.88.06-1.93.08-3.87.08-5.83s-4-3.94-4.06-5.88c-.09-4,3.65-8,3.32-11.91s-4.77-7.93-5.32-11.81c-.63-4.3,2.59-8.55,1.71-12.7-.51-2.46-5-4.89-5.66-7.29-1-4.17,1.76-8.25.46-12.23-1-3.15-6.09-6.22-7.27-9.24-1.42-3.66,1-7.24-.61-10.71s-7.33-2.86-9.14-6.11c-1.64-2.9.65-9.7-1.12-12.41-1.11-1.73-2.25-3.41-3.44-5.06,0,0-6.43-48.76,0-54.12S657.91,211.31,657.91,211.31Z"/><line class="cls-3" x1="684.83" y1="233.51" x2="607.33" y2="268.43"/><line class="cls-3" x1="667.02" y1="217.16" x2="607.29" y2="244.08"/><line class="cls-3" x1="613.59" y1="290.21" x2="698.47" y2="251.09"/><line class="cls-3" x1="623.79" y1="308.6" x2="708.76" y2="269.75"/><line class="cls-3" x1="631.72" y1="328.67" x2="716.63" y2="289.61"/><line class="cls-3" x1="721.97" y1="309.15" x2="636.93" y2="348.2"/><line class="cls-3" x1="725.82" y1="334.05" x2="640.53" y2="372.71"/><line class="cls-3" x1="726.75" y1="357.7" x2="641.47" y2="396.36"/><line class="cls-3" x1="725.82" y1="380.07" x2="640.53" y2="418.73"/><line class="cls-3" x1="722.09" y1="402.76" x2="634.65" y2="442.41"/><line class="cls-3" x1="714.2" y1="426.08" x2="626.77" y2="465.72"/><line class="cls-3" x1="706.81" y1="442.51" x2="619.36" y2="482.14"/><line class="cls-3" x1="697.98" y1="458.1" x2="612.33" y2="496.94"/><line class="cls-6" x1="610" y1="377.02" x2="308.4" y2="499.15"/><path class="cls-6" d="M307.66,578.18l-21.24-52.77L617.68,391.25A16.68,16.68,0,0,0,627,382.3a17.42,17.42,0,0,0,.29-13.32,17.24,17.24,0,0,0-22.48-9.51L273.73,493.59l-20.55-53.38L24.1,613.18Z"/><path class="cls-7" d="M611.31,363.93a11.4,11.4,0,0,1,4.22,22L279,522.25l20.6,51.16-255,31.48,206-155.54,19.81,51.38.12.35L607,364.77a11.77,11.77,0,0,1,4.36-.84m0-11.45a22.91,22.91,0,0,0-8.66,1.69L277,486.09l-15.74-40.85-5.46-14.17-12.12,9.16-206,155.51L3.62,621.47,46,616.24l255-31.47L315.74,583l-5.55-13.82-16.35-40.55L619.65,396.64a22.59,22.59,0,0,0,12.59-12,23.29,23.29,0,0,0,.28-17.89,22.87,22.87,0,0,0-21.21-14.24h0"/><polyline class="cls-7" points="569.81 336.11 483.7 284.84 397.65 336.26 388.13 272.53 252.81 295.32 322.9 239.4 181.23 226.3 308.69 195.92 205.67 151.12 350.02 155.93 318.35 93.64 433.77 132.12 483.51 72.12 533.36 132.04 648.73 93.37 617.17 155.72 761.5 150.66 658.57 195.65 786.06 225.8 644.44 239.12 714.6 294.94 579.23 272.38"/><polygon class="cls-3" points="569.81 336.11 483.7 284.84 397.65 336.26 388.13 272.53 252.81 295.32 322.9 239.4 181.23 226.3 308.69 195.92 205.67 151.12 350.02 155.93 318.35 93.64 433.77 132.12 483.51 72.12 533.36 132.04 648.73 93.37 617.17 155.72 761.5 150.66 658.57 195.65 786.06 225.8 644.44 239.12 714.6 294.94 579.23 272.38 569.81 336.11"/><text class="cls-8" transform="translate(341.79 238.53)">KLICK!!</text></g></svg>