<svg xmlns="http://www.w3.org/2000/svg" xmlns:xlink="http://www.w3.org/1999/xlink" width="3367.01" height="1236.88" viewBox="0 0 3367.01 1236.88"><defs><style>.a,.b,.p{opacity:1;}.a,.c,.p,.b{fill:currentColor}.d,.e{fill:#097e35;}.d,.z{opacity:0.66;}.f{fill:#366cb4;}.g{fill:#1d1d1b;}.h{fill:#010101;}.i{fill:#fcea21;}.j{isolation:isolate;}.k,.q{fill:#fff;}.l{fill:#f18619;}.m{fill:#0d8136;}.n{fill:#2b4b9b;}.o{fill:#e51d23;}.q,.r,.s{stroke:#231f20;stroke-miterlimit:10;}.q,.s{stroke-width:11.44px;}.r,.s{fill:none;}.r{stroke-linecap:round;stroke-width:22.89px;}.t{fill:#00a04c;}.u{fill:#248145;}.v{fill:#231f20;}.w{filter:url(#a);}.x{fill:#368a41;}.y{filter:url(#b);}</style><filter id="a" x="-40%" y="-40%" width="180%" height="180%" name="dropshadow-right"><feGaussianBlur stdDeviation="18" in="SourceAlpha"/><feOffset dx="60" dy="50"/><feComponentTransfer><feFuncA slope="0.4" type="linear"/></feComponentTransfer><feMerge><feMergeNode/><feMergeNode in="SourceGraphic"/></feMerge></filter><filter id="b" x="-40%" y="-40%" width="180%" height="180%" name="dropshadow-left"><feGaussianBlur stdDeviation="18" in="SourceAlpha"/><feOffset dx="-60" dy="50"/><feComponentTransfer><feFuncA slope="0.4" type="linear"/></feComponentTransfer><feMerge><feMergeNode/><feMergeNode in="SourceGraphic"/></feMerge></filter></defs><path class="a" d="M1139.23,379.41H2878c79.27,0,143.77,64.49,143.77,143.77,12.93,159.74,12.93,317.74,0,468.91,0,78.56-64.47,143.06-143.74,143.06H1139.23c-79.27,0-143.76-64.5-143.76-143.77-11.63-153.1-11.63-311,0-468.82C995.47,443.9,1060,379.41,1139.23,379.41ZM2878,1118.33A127.09,127.09,0,0,0,3005,991.38c12.91-151,12.91-308,0-467.53,0-70.67-57-127.62-127-127.62H1139.23c-70,0-126.93,56.95-126.93,126.95-11.62,157.56-11.62,314.66,0,467.57,0,70.63,57,127.58,127,127.58Z"/><g class="b"><polygon class="c" points="1953.71 983.99 1786.19 1005.58 1824.18 1031.92 1819.87 1081.57 1953.71 983.99"/><path class="c" d="M1979.18,1025.87h16v20.29a42.61,42.61,0,0,1-15.11,2.59c-6,0-10.79-1.72-13.38-5.18s-4.32-7.77-4.32-14.24q0-9.07,5.18-14.25c3.46-3.46,7.77-5.18,15.11-5.18a19.1,19.1,0,0,1,6.91.86c2.59.86,3.46.86,5.18,1.73l-3.45,7.77c-2.59-1.73-5.18-1.73-8.64-1.73a9.81,9.81,0,0,0-6.9,2.59q-2.6,2.6-2.59,7.77t2.59,7.78a7.84,7.84,0,0,0,6,2.59h4.32v-6h-6.91v-7.34Z"/><path class="c" d="M2013.72,1033.64v14.25h-10.79v-38h12.52c10.79,0,15.11,3.45,15.11,11.65,0,4.32-1.73,7.78-6,10.8l10.8,16.84h-11.66l-7.77-14.25h-1.73v-1.3Zm0-7.77h1.73c3.45,0,5.18-1.73,5.18-4.32s-1.73-3.45-5.18-3.45h-1.73Z"/><path class="c" d="M2061.64,1047.89h-22v-38h22v7.77h-12.52v6h11.66v7.77h-11.66v6.91h12.52Z"/><path class="c" d="M2090.57,1047.89h-22v-38h22v7.77h-12.52v6h11.66v7.77h-11.66v6.91h12.52Z"/><path class="c" d="M2134.18,1047.89h-13.39l-14.24-26.34h0c0,4.32.86,6.91.86,9.93v16.84h-8.64v-38h13.39l14.25,26.34h0v-26.34H2135v38h-.86Z"/><path class="c" d="M2139.36,1037.1v-7.77h15.11v7.77Z"/><path class="c" d="M2173.9,1025.87h16v20.29a42.61,42.61,0,0,1-15.11,2.59c-6,0-10.79-1.72-13.38-5.18s-4.32-7.77-4.32-14.24q0-9.07,5.18-14.25c3.45-3.46,7.77-5.18,15.11-5.18a19.1,19.1,0,0,1,6.91.86c2.59.86,3.45.86,5.18,1.73l-3.45,7.77c-2.59-1.73-5.18-1.73-8.64-1.73a9.85,9.85,0,0,0-6.91,2.59c-1.72,1.73-2.59,4.32-2.59,7.77a17.32,17.32,0,0,0,1.73,7.78c.86,1.72,3.45,2.59,6,2.59h4.32v-6H2173v-7.77h.87Z"/><path class="c" d="M2233.05,1028.46c0,6-1.73,11.66-4.32,14.25-3.45,3.45-7.77,5.18-14.25,5.18-6,0-10.79-1.73-13.38-5.18s-4.32-7.77-4.32-14.25,1.73-11.66,4.32-14.25,7.77-5.18,14.25-5.18c6,0,10.79,1.73,13.38,5.18C2232.18,1016.8,2233.05,1022.42,2233.05,1028.46Zm-25.48,0c0,6.91,2.59,10.8,7.78,10.8a7.86,7.86,0,0,0,6-2.59c1.73-1.73,1.73-4.32,1.73-7.78a17.3,17.3,0,0,0-1.73-7.77c-.86-1.72-3.45-2.59-5.18-2.59C2210.16,1017.67,2207.57,1021.55,2207.57,1028.46Z"/></g><circle class="d" cx="2653.14" cy="948.57" r="113.56"/><circle class="e" cx="2653.14" cy="948.57" r="90.35"/><circle class="d" cx="2653.14" cy="567" r="113.56"/><circle class="e" cx="2653.14" cy="567" r="90.35"/><circle class="d" cx="1365.08" cy="948.57" r="113.56"/><circle class="e" cx="1365.08" cy="948.57" r="90.35"/><circle class="d" cx="1365.08" cy="567" r="113.56"/><circle class="e" cx="1365.08" cy="567" r="90.35"/><ellipse class="f" cx="2414.91" cy="924.34" rx="35.84" ry="60.06"/><ellipse class="f" cx="2414.91" cy="590.22" rx="35.84" ry="60.06"/><ellipse class="f" cx="1603.31" cy="924.34" rx="35.84" ry="60.06"/><ellipse class="f" cx="1603.31" cy="590.22" rx="35.84" ry="60.06"/><rect class="g" x="1745.14" y="580.87" width="528.95" height="352.63" transform="translate(4019.24 1514.38) rotate(-180)"/><rect class="h" x="1745.14" y="580.87" width="528.95" height="352.63"/><rect class="i" x="1750.73" y="586.46" width="517.48" height="21.93"/><g class="j"><path class="k" d="M1783.66,661.22l8.44-.82a10.33,10.33,0,0,0,3.09,6.24,9.33,9.33,0,0,0,6.28,2c2.8,0,4.9-.59,6.32-1.77a5.3,5.3,0,0,0,2.12-4.15,3.93,3.93,0,0,0-.89-2.59,7.25,7.25,0,0,0-3.12-1.86c-1-.35-3.33-1-7-1.88-4.64-1.15-7.91-2.57-9.78-4.25a11.27,11.27,0,0,1-2.1-14.78,11.69,11.69,0,0,1,5.37-4.35,21.58,21.58,0,0,1,8.45-1.49q8.08,0,12.17,3.54a12.49,12.49,0,0,1,4.29,9.47l-8.67.38a7.34,7.34,0,0,0-2.39-4.76,8.71,8.71,0,0,0-5.49-1.45,10,10,0,0,0-5.92,1.55,3.11,3.11,0,0,0-1.37,2.67,3.31,3.31,0,0,0,1.28,2.6c1.1.92,3.75,1.88,8,2.87a41.84,41.84,0,0,1,9.36,3.1,12.06,12.06,0,0,1,4.75,4.36,12.81,12.81,0,0,1,1.71,6.84,12.65,12.65,0,0,1-2,6.92,12.33,12.33,0,0,1-5.8,4.79,24.4,24.4,0,0,1-9.34,1.56q-8.15,0-12.51-3.76T1783.66,661.22Z"/><path class="k" d="M1834,632.24V648a12.36,12.36,0,0,1,14.65-3.6,8.31,8.31,0,0,1,3.44,2.7,9.71,9.71,0,0,1,1.59,3.63,32.85,32.85,0,0,1,.42,6.18v18.25h-8.23V658.76a24.33,24.33,0,0,0-.47-6.21,4,4,0,0,0-1.66-2.1,5.29,5.29,0,0,0-3-.78,6.84,6.84,0,0,0-3.66,1,5.74,5.74,0,0,0-2.36,3,17.92,17.92,0,0,0-.75,5.94v15.58h-8.23v-43Z"/><path class="k" d="M1860.57,659.2a16.76,16.76,0,0,1,2-7.94,13.83,13.83,0,0,1,5.72-5.86,17,17,0,0,1,8.28-2,15.5,15.5,0,0,1,11.57,4.58,15.85,15.85,0,0,1,4.52,11.59,16,16,0,0,1-4.56,11.7,15.38,15.38,0,0,1-11.47,4.64,18.07,18.07,0,0,1-8.16-1.93,13.27,13.27,0,0,1-5.9-5.67A18.84,18.84,0,0,1,1860.57,659.2Zm8.43.43c0,3.09.74,5.45,2.2,7.09a7.17,7.17,0,0,0,10.83,0q2.17-2.46,2.18-7.14t-2.18-7a7.17,7.17,0,0,0-10.83,0C1869.74,654.19,1869,656.55,1869,659.63Z"/><path class="k" d="M1904.92,675.19l-9.84-31.11h8l5.83,20.39,5.36-20.39h7.94l5.18,20.39,5.95-20.39h8.11l-10,31.11h-7.91l-5.36-20-5.27,20Z"/></g><g class="j"><path class="l" d="M1793.25,737.17h-6V714.38a20.79,20.79,0,0,1-7.81,4.59v-5.49a17.3,17.3,0,0,0,5.14-2.93,11.24,11.24,0,0,0,3.81-5h4.9Z"/></g><rect class="m" x="1847.46" y="703.96" width="110.09" height="33.11"/><rect class="k" x="1956.21" y="703.96" width="2.69" height="33.11"/><rect class="i" x="1750.73" y="768.37" width="517.48" height="21.93"/><g class="j"><path class="k" d="M1781.56,842.11l8.44-.82a10.33,10.33,0,0,0,3.09,6.24,9.33,9.33,0,0,0,6.28,2c2.8,0,4.9-.59,6.32-1.77a5.28,5.28,0,0,0,2.12-4.15,4,4,0,0,0-.89-2.59,7.25,7.25,0,0,0-3.12-1.86c-1-.35-3.33-1-7-1.87-4.64-1.16-7.91-2.57-9.78-4.25a11.17,11.17,0,0,1-4-8.64,11,11,0,0,1,1.87-6.14,11.54,11.54,0,0,1,5.36-4.35,21.39,21.39,0,0,1,8.45-1.5q8.09,0,12.17,3.55a12.47,12.47,0,0,1,4.29,9.46l-8.67.38a7.39,7.39,0,0,0-2.39-4.76,8.71,8.71,0,0,0-5.49-1.45,10,10,0,0,0-5.92,1.55,3.14,3.14,0,0,0-1.37,2.67,3.31,3.31,0,0,0,1.28,2.61c1.1.92,3.75,1.87,8,2.87a41.41,41.41,0,0,1,9.36,3.09,12,12,0,0,1,4.75,4.36,12.82,12.82,0,0,1,1.71,6.85,12.62,12.62,0,0,1-2,6.91,12.22,12.22,0,0,1-5.8,4.79,24.39,24.39,0,0,1-9.34,1.57q-8.14,0-12.51-3.77T1781.56,842.11Z"/><path class="k" d="M1821.82,840.09a16.79,16.79,0,0,1,2-7.94,13.88,13.88,0,0,1,5.72-5.86,17,17,0,0,1,8.28-2,15.53,15.53,0,0,1,11.57,4.58,17.2,17.2,0,0,1,0,23.29,15.39,15.39,0,0,1-11.47,4.65,18.08,18.08,0,0,1-8.16-1.94,13.19,13.19,0,0,1-5.9-5.66A18.89,18.89,0,0,1,1821.82,840.09Zm8.43.44c0,3.08.74,5.45,2.2,7.09a7.19,7.19,0,0,0,10.83,0c1.45-1.64,2.18-4,2.18-7.15s-.73-5.39-2.18-7a7.19,7.19,0,0,0-10.83,0C1831,835.08,1830.25,837.44,1830.25,840.53Z"/><path class="k" d="M1880.85,856.09v-4.66a11.87,11.87,0,0,1-4.47,3.92,12.46,12.46,0,0,1-5.84,1.44,11.43,11.43,0,0,1-5.63-1.38,8.13,8.13,0,0,1-3.6-3.87,17.25,17.25,0,0,1-1.12-6.88V825h8.24v14.3q0,6.56.45,8a4.34,4.34,0,0,0,1.66,2.34,5,5,0,0,0,3,.87,6.48,6.48,0,0,0,3.78-1.16,5.86,5.86,0,0,0,2.29-2.87q.61-1.71.61-8.39V825h8.24v31.12Z"/><path class="k" d="M1925.32,856.09h-8.23V840.21a24.55,24.55,0,0,0-.53-6.52,4.52,4.52,0,0,0-1.71-2.3,4.89,4.89,0,0,0-2.86-.82,6.64,6.64,0,0,0-3.84,1.17,5.94,5.94,0,0,0-2.33,3.1,26.89,26.89,0,0,0-.63,7.15v14.1H1897V825h7.65v4.57a12.75,12.75,0,0,1,15.23-4.29,8.32,8.32,0,0,1,3.42,2.51,9.13,9.13,0,0,1,1.61,3.45,26,26,0,0,1,.45,5.54Z"/><path class="k" d="M1962.21,856.09h-7.65v-4.58a12.25,12.25,0,0,1-4.5,4,11.54,11.54,0,0,1-5.23,1.31,11.85,11.85,0,0,1-9.18-4.32q-3.83-4.32-3.82-12.06,0-7.9,3.72-12a12.13,12.13,0,0,1,9.4-4.11,11.62,11.62,0,0,1,9,4.33V813.14h8.24Zm-22-16.24q0,5,1.38,7.21a6.22,6.22,0,0,0,5.57,3.22,6.06,6.06,0,0,0,4.83-2.41q2-2.42,2-7.22,0-5.37-1.93-7.72a6.1,6.1,0,0,0-5-2.36,6.18,6.18,0,0,0-4.91,2.33Q1940.23,835.23,1940.23,839.85Z"/></g><g class="j"><path class="l" d="M1798.2,911.31v5.62H1777a14.68,14.68,0,0,1,2.06-6,40.43,40.43,0,0,1,6.8-7.56,43.36,43.36,0,0,0,5-5.16,6.68,6.68,0,0,0,1.24-3.7,4.22,4.22,0,0,0-1.08-3.11,4.62,4.62,0,0,0-6,0,5.92,5.92,0,0,0-1.29,3.79l-6-.61c.36-3.32,1.48-5.71,3.38-7.16a11.33,11.33,0,0,1,7.1-2.17,10.27,10.27,0,0,1,7.33,2.51,8.26,8.26,0,0,1,2.67,6.26,10.89,10.89,0,0,1-.76,4.06,16.6,16.6,0,0,1-2.42,4,37.55,37.55,0,0,1-4,4q-2.86,2.63-3.63,3.48a10.49,10.49,0,0,0-1.23,1.68Z"/></g><rect class="m" x="1847.46" y="883.87" width="110.09" height="33.11"/><rect class="k" x="1956.21" y="883.87" width="2.69" height="33.11"/><rect class="n" x="1745.14" y="754.5" width="528.95" height="5.38"/><rect class="e" x="1745.14" y="800.82" width="18.31" height="132.69"/><rect class="e" x="1745.14" y="621.81" width="18.31" height="132.69"/><rect class="o" x="2256.03" y="800.82" width="18.31" height="132.69"/><rect class="o" x="2256.03" y="621.81" width="18.31" height="132.69"/><path class="e" d="M3175.62,779.42l.88.08-1.42,15.93-.89-.08c-15.46-1.37-18.92,21.12-3.78,24.46l.84.18-3.47,15.62-.82-.18h-.05c-9.18-2-15.13,5.21-15.13,12.39a11.77,11.77,0,0,0,8.24,11.37h0l.83.29-5.41,15.06-.85-.3c-14.58-5.25-23.65,15.63-9.84,22.7l.76.39-7.32,14.23-.73-.38-.06,0c-9.61-4.93-18.19,3.06-18.19,11.33a11.86,11.86,0,0,0,5.5,9.92l.73.5-8.71,12.69c-7.21-114.26-7.43-234.31-.65-358.27a12.11,12.11,0,0,0,9.07-1.74l.73-.45,8.35,13.64-.7.44-.07,0c-11.44,7-5,23.09,6.18,23.09a13.18,13.18,0,0,0,5.4-1.22l.8-.36,6.57,14.59-.82.37c-14.13,6.36-6.15,27.67,8.69,23.16l.82-.24,4.63,15.31-.79.24-.06,0c-14,4.25-10.15,24.3,3.24,24.3a14.43,14.43,0,0,0,2.4-.21l.87-.14,2.66,15.77-.89.15c-15.28,2.58-12.95,25.2,2.53,24.61l.87,0,.61,16-.84,0h-.08c-7.89.31-11.91,6.37-11.91,12.43C3164.34,772.92,3168.06,778.73,3175.62,779.42Z"/><path class="e" d="M843.59,779.42l-.88.08,1.42,15.93.89-.08c15.45-1.37,18.92,21.12,3.78,24.46L848,820l3.47,15.62.81-.18h.06c9.18-2,15.13,5.21,15.13,12.39a11.77,11.77,0,0,1-8.24,11.37h0l-.83.29,5.41,15.06.85-.3c14.58-5.25,23.64,15.63,9.84,22.7l-.76.39L881,911.56l.74-.38.06,0c9.61-4.93,18.18,3.06,18.18,11.33a11.84,11.84,0,0,1-5.5,9.92l-.73.5,8.71,12.69c7.22-114.26,7.44-234.31.66-358.27a12.11,12.11,0,0,1-9.07-1.74l-.73-.45L885,598.77l.71.44.06,0c11.45,7,5,23.09-6.17,23.09a13.18,13.18,0,0,1-5.4-1.22l-.8-.36-6.57,14.59.82.37c14.13,6.36,6.14,27.67-8.69,23.16l-.82-.24L853.47,674l.8.24.06,0c14,4.25,10.15,24.3-3.24,24.3a14.43,14.43,0,0,1-2.4-.21l-.87-.14-2.66,15.77.89.15c15.28,2.58,13,25.2-2.53,24.61l-.87,0-.61,16,.84,0H843c7.89.31,11.91,6.37,11.91,12.43C854.87,772.92,851.15,778.73,843.59,779.42Z"/><path class="p" d="M3120.45,521.26l.06-1.87c0-129.74-105.55-235.28-235.29-235.28H1134c-129.74,0-235.3,105.54-235.3,235.28l.07,1.87c12.4,166.81,12.41,327.3,0,477l-.09,2.08c0,129.74,105.56,235.29,235.3,235.29H2885.22c129.74,0,235.29-105.55,235.29-235.29l-.08-2.08C3108,848.56,3108.05,688.07,3120.45,521.26ZM3070,1001.36c-.55,101.45-83.24,183.81-184.82,183.81H1134c-101.58,0-184.27-82.36-184.82-183.81,12.48-151.75,12.48-314.19,0-482.87C949.68,417,1032.4,334.58,1134,334.58H2885.22c101.6,0,184.33,82.41,184.82,183.91C3057.55,687.17,3057.55,849.61,3070,1001.36Z"/><polygon class="q" points="189.16 428.14 189.16 735.31 795.02 735.31 933.95 735.31 933.95 15.58 189.16 15.58 189.16 428.14"/><path class="r" d="M191.34,428.15c8.34,6.52,16.47,13,23.46,16.47,20.7,10,55.39,26.78,94.19,45.78,13.84,6.64,20.25-2.29,34.77,4.81s37.2,30.21,51.63,37.19c53.67,26.09,102.54,49.9,122.9,60,5.62,2.75,9.17,4.46,10,4.81,7.8,4,72.57,21.17,76.58,21.17h3.89s9.84,20.14,27.47,33.3a68.17,68.17,0,0,0,9.15,5.72c14.07,7,90.86,44.18,149.69,72.44"/><path class="s" d="M519.33,591.23A1.61,1.61,0,0,0,519,591c-3.43-1.83-31-17.84-40.87-42.8-24.13-60.87-23-115-23-115S351.22,322.52,356.94,286.7s97.84-29.07,97.84-29.07,3.77-52.88,27.69-116.28S570.13,63.77,626,87.57c0,0,63.76,8.36,3.56,86-47.85,61.56-47.26,172.68-47.26,236.21s-1.16,137.78,19.32,180.35,34.79,61.23,34.79,61.23"/><path class="t" d="M587.81,299.42s-31.1,29.76-31.1,109.79c0,29.75,9.71,56.4,17.51,73a168.52,168.52,0,0,0,8.09,15.33c.93,1.55,1.46,2.38,1.46,2.38s-8.8-93.76,4-200.51"/><path class="s" d="M587.81,299.42s-31.1,29.76-31.1,109.79c0,29.75,9.71,56.4,17.51,73a168.52,168.52,0,0,0,8.09,15.33c.93,1.55,1.46,2.38,1.46,2.38S575,406.17,587.81,299.42Z"/><path class="u" d="M539.9,221.12a97,97,0,0,0-9,6c-5,3.7-5.52,7.36-5.52,7.36s-8.16,4.16-12.45,8.79c-2.55,2.77-1.17,5.7-2.94,8-2.34,3-8.56,6.25-10.7,9.58-1.79,2.78.47,5.66-1.17,8.61-1.82,3.25-7.5,6.6-9.11,10-1.39,2.95,1.28,6,0,9.07-1.4,3.53-6.7,7.12-7.92,10.8-1.05,3.16,2,6.38,1.08,9.65s-5.68,6.54-6.41,9.89c-.86,4,2.35,8.08,1.72,12.22s-5.15,8.4-5.56,12.68c-.36,3.88,3.35,7.84,3.21,11.82-.1,2.76-4.15,5.53-4.15,8.31,0,1.18,0,2.34,0,3.5.08,4.26,4.24,8.48,4.57,12.65.25,3.38-3.41,6.71-3,10,.6,4.9,5.33,9.71,6.25,14.44.56,2.85-2.82,5.66-2.16,8.45,1.09,4.51,6.3,8.94,7.66,13.27,1,3.24-1.85,6.41-.67,9.53,1.39,3.72,6.88,7.34,8.49,10.87.87,1.91-2.21,3.79-1.29,5.63,1.67,3.32,7.4,6.54,9.22,9.66,1.19,2-1.57,4-.31,5.89,2,3.05,8,6,10.19,8.79,1,1.31-2,2.6-.92,3.84l76.23,39.8-1.57-20.39c-1.59-2.47-3.1-5-4.56-7.62-2.36-4.17.4-6.44-.78-8.94-1-2.07-5.89-4.28-7.38-7.85-1.69-4,.74-8.15-.67-12.41-1.15-3.46-6.19-7-7.14-10.57s2.15-7.26,1.4-11c-.89-4.31-5.63-8.71-6.24-13.18-.5-3.74,3.07-7.53,2.75-11.37-.28-3.58-4.44-7.21-4.55-10.87-.05-1.93-.08-3.88-.08-5.83s4-3.94,4.07-5.89c.09-4-3.65-8-3.32-11.9s4.77-7.93,5.32-11.81c.63-4.3-2.6-8.55-1.72-12.7.52-2.46,5-4.89,5.67-7.29,1-4.17-1.76-8.25-.46-12.24,1-3.14,6.09-6.21,7.27-9.23,1.42-3.66-1-7.25.6-10.71s7.34-2.86,9.15-6.11c1.63-2.9-.65-9.7,1.12-12.41,1.11-1.73,2.24-3.41,3.43-5.06,0,0,6.43-48.76,0-54.12s-47.75-19.73-47.75-19.73"/><path class="s" d="M539.9,221.12a97,97,0,0,0-9,6c-5,3.7-5.52,7.36-5.52,7.36s-8.16,4.16-12.45,8.79c-2.55,2.77-1.17,5.7-2.94,8-2.34,3-8.56,6.25-10.7,9.58-1.79,2.78.47,5.66-1.17,8.61-1.82,3.25-7.5,6.6-9.11,10-1.39,2.95,1.28,6,0,9.07-1.4,3.53-6.7,7.12-7.92,10.8-1.05,3.16,2,6.38,1.08,9.65s-5.68,6.54-6.41,9.89c-.86,4,2.35,8.08,1.72,12.22s-5.15,8.4-5.56,12.68c-.36,3.88,3.35,7.84,3.21,11.82-.1,2.76-4.15,5.53-4.15,8.31,0,1.18,0,2.34,0,3.5.08,4.26,4.24,8.48,4.57,12.65.25,3.38-3.41,6.71-3,10,.6,4.9,5.33,9.71,6.25,14.44.56,2.85-2.82,5.66-2.16,8.45,1.09,4.51,6.3,8.94,7.66,13.27,1,3.24-1.85,6.41-.67,9.53,1.39,3.72,6.88,7.34,8.49,10.87.87,1.91-2.21,3.79-1.29,5.63,1.67,3.32,7.4,6.54,9.22,9.66,1.19,2-1.57,4-.31,5.89,2,3.05,8,6,10.19,8.79,1,1.31-2,2.6-.92,3.84l76.23,39.8-1.57-20.39c-1.59-2.47-3.1-5-4.56-7.62-2.36-4.17.4-6.44-.78-8.94-1-2.07-5.89-4.28-7.38-7.85-1.69-4,.74-8.15-.67-12.41-1.15-3.46-6.19-7-7.14-10.57s2.15-7.26,1.4-11c-.89-4.31-5.63-8.71-6.24-13.18-.5-3.74,3.07-7.53,2.75-11.37-.28-3.58-4.44-7.21-4.55-10.87-.05-1.93-.08-3.88-.08-5.83s4-3.94,4.07-5.89c.09-4-3.65-8-3.32-11.9s4.77-7.93,5.32-11.81c.63-4.3-2.6-8.55-1.72-12.7.52-2.46,5-4.89,5.67-7.29,1-4.17-1.76-8.25-.46-12.24,1-3.14,6.09-6.21,7.27-9.23,1.42-3.66-1-7.25.6-10.71s7.34-2.86,9.15-6.11c1.63-2.9-.65-9.7,1.12-12.41,1.11-1.73,2.24-3.41,3.43-5.06,0,0,6.43-48.76,0-54.12S539.9,221.12,539.9,221.12Z"/><line class="s" x1="512.97" y1="243.31" x2="590.47" y2="278.24"/><line class="s" x1="530.79" y1="226.97" x2="590.52" y2="253.88"/><line class="s" x1="584.22" y1="300.02" x2="499.34" y2="260.9"/><line class="s" x1="574.02" y1="318.41" x2="489.04" y2="279.56"/><line class="s" x1="566.08" y1="338.48" x2="481.18" y2="299.42"/><line class="s" x1="475.83" y1="318.96" x2="560.88" y2="358"/><line class="s" x1="471.99" y1="343.86" x2="557.27" y2="382.52"/><line class="s" x1="471.05" y1="367.5" x2="556.33" y2="406.16"/><line class="s" x1="471.99" y1="389.88" x2="557.27" y2="428.54"/><line class="s" x1="475.71" y1="412.57" x2="563.16" y2="452.21"/><line class="s" x1="483.6" y1="435.89" x2="571.04" y2="475.53"/><line class="s" x1="491" y1="452.32" x2="578.45" y2="491.95"/><line class="s" x1="499.83" y1="467.9" x2="585.48" y2="506.75"/><line class="v" x1="587.81" y1="386.82" x2="889.41" y2="508.96"/><path class="v" d="M890.15,588l21.24-52.77L580.13,401.06a16.67,16.67,0,0,1-9.32-8.95,17.42,17.42,0,0,1-.28-13.32A17.23,17.23,0,0,1,593,369.28L924.07,503.39,944.62,450,1173.7,623Z"/><path class="k" d="M586.5,373.74a11.8,11.8,0,0,1,4.36.84l336.45,136.3.11-.34,19.81-51.39,206,155.54-255-31.47,20.6-51.17L582.28,395.75a11.4,11.4,0,0,1,4.22-22m0-11.45h0a22.89,22.89,0,0,0-21.22,14.24,23.27,23.27,0,0,0,.29,17.88,22.49,22.49,0,0,0,12.59,12L904,538.38l-16.34,40.56-5.55,13.81,14.77,1.82,255,31.48,42.37,5.23-34.07-25.73L954.12,450,942,440.88l-5.46,14.17L920.81,495.9,595.15,364a23,23,0,0,0-8.65-1.68"/><polyline class="k" points="628 345.92 714.1 294.65 800.15 346.07 809.67 282.33 945 305.13 874.9 249.2 1016.57 236.11 889.12 205.73 992.14 160.92 847.78 165.74 879.46 103.45 764.03 141.93 714.3 81.92 664.45 141.85 549.08 103.18 580.64 165.52 436.31 160.47 539.24 205.45 411.75 235.61 553.37 248.93 483.2 304.74 618.58 282.19"/><polygon class="s" points="628 345.92 714.1 294.65 800.15 346.07 809.67 282.33 945 305.13 874.9 249.2 1016.57 236.11 889.12 205.73 992.14 160.92 847.78 165.74 879.46 103.45 764.03 141.93 714.3 81.92 664.45 141.85 549.08 103.18 580.64 165.52 436.31 160.47 539.24 205.45 411.75 235.61 553.37 248.93 483.2 304.74 618.58 282.19 628 345.92"/><path class="v" d="M624.35,189.65a2.25,2.25,0,0,1-.49,1.3,12.42,12.42,0,0,1-1.5,1.67l-24.87,24.27,15.7,27.92a10.25,10.25,0,0,1,.58,1.28,3,3,0,0,1,.16.85,1.38,1.38,0,0,1-.19.74,1.19,1.19,0,0,1-.62.51,4.76,4.76,0,0,1-1.25.3,14.53,14.53,0,0,1-2.06.12,19.83,19.83,0,0,1-2.11-.09,6.43,6.43,0,0,1-1.3-.26,1.65,1.65,0,0,1-.74-.46,2.82,2.82,0,0,1-.44-.72l-16.39-29.92-5.93,30a1.15,1.15,0,0,1-.3.65,1.82,1.82,0,0,1-.77.44,8.67,8.67,0,0,1-1.29.27,12.91,12.91,0,0,1-1.9.12,12.73,12.73,0,0,1-1.92-.12,6.1,6.1,0,0,1-1.19-.27,1,1,0,0,1-.55-.44,1,1,0,0,1-.05-.65l11.49-57.57a1.11,1.11,0,0,1,.32-.6,1.92,1.92,0,0,1,.79-.44,8.43,8.43,0,0,1,1.3-.28,14.42,14.42,0,0,1,1.9-.11,13.93,13.93,0,0,1,1.87.11,5.87,5.87,0,0,1,1.18.28,1,1,0,0,1,.56.44,1,1,0,0,1,.09.6l-5.33,26.68,26.22-26.59a4.21,4.21,0,0,1,.81-.71,3.42,3.42,0,0,1,1-.47,9.59,9.59,0,0,1,1.41-.25,18.21,18.21,0,0,1,1.94-.09,14.37,14.37,0,0,1,2,.11,5.18,5.18,0,0,1,1.16.3,1.28,1.28,0,0,1,.58.47A1.32,1.32,0,0,1,624.35,189.65Z"/><path class="v" d="M655.93,243a5.56,5.56,0,0,1-.07.74c0,.34-.11.71-.18,1.11s-.17.8-.28,1.2a4.76,4.76,0,0,1-.44,1.11,3.13,3.13,0,0,1-.65.84,1.25,1.25,0,0,1-.83.32H626.94a3.19,3.19,0,0,1-1-.16,2.07,2.07,0,0,1-.86-.56,2.25,2.25,0,0,1-.51-1,3.22,3.22,0,0,1,.1-1.51l11.06-55.53a1.13,1.13,0,0,1,.33-.6,1.86,1.86,0,0,1,.79-.44,8.27,8.27,0,0,1,1.29-.28,14.64,14.64,0,0,1,1.9-.11,14.09,14.09,0,0,1,1.88.11,5.87,5.87,0,0,1,1.18.28.94.94,0,0,1,.55.44.78.78,0,0,1,0,.6l-10.33,51.87h21.49a.93.93,0,0,1,.86.42A2.22,2.22,0,0,1,655.93,243Z"/><path class="v" d="M672.05,247.17a1.13,1.13,0,0,1-.3.61,1.82,1.82,0,0,1-.77.44,8.67,8.67,0,0,1-1.29.27,12.91,12.91,0,0,1-1.9.12,12.71,12.71,0,0,1-1.95-.12,5.77,5.77,0,0,1-1.15-.27,1,1,0,0,1-.56-.44.85.85,0,0,1,0-.61l11.49-57.61a1,1,0,0,1,.35-.6,2.08,2.08,0,0,1,.81-.44,8.5,8.5,0,0,1,1.27-.28,14,14,0,0,1,1.88-.11,13.5,13.5,0,0,1,1.85.11,6.64,6.64,0,0,1,1.18.28,1,1,0,0,1,.58.44.78.78,0,0,1,0,.6Z"/><path class="v" d="M737.12,194.52a11.12,11.12,0,0,1-.33,2.41,7.29,7.29,0,0,1-.85,2.27c-.36.55-.74.83-1.14.83a2.46,2.46,0,0,1-1.53-.86,16.35,16.35,0,0,0-2.36-1.85,18.16,18.16,0,0,0-3.82-1.85,17.22,17.22,0,0,0-5.86-.86,16.89,16.89,0,0,0-7.08,1.46,20.32,20.32,0,0,0-5.77,3.94,27.25,27.25,0,0,0-4.51,5.72,38.24,38.24,0,0,0-3.22,6.78,43.83,43.83,0,0,0-1.92,7.16,38,38,0,0,0-.65,6.85,21.88,21.88,0,0,0,.92,6.6,13.46,13.46,0,0,0,2.69,4.88,11.07,11.07,0,0,0,4.31,3,15.4,15.4,0,0,0,5.78,1,21.17,21.17,0,0,0,6.23-.81,26.3,26.3,0,0,0,4.5-1.8c1.25-.67,2.29-1.27,3.12-1.81a4.11,4.11,0,0,1,2-.81.8.8,0,0,1,.74.37,2.19,2.19,0,0,1,.23,1.11,4.09,4.09,0,0,1-.07.67c0,.3-.1.61-.16,1s-.13.71-.21,1.11a7.29,7.29,0,0,1-.3,1.14,8.15,8.15,0,0,1-.39,1,3,3,0,0,1-.7.91,12.93,12.93,0,0,1-2,1.36,23.66,23.66,0,0,1-3.8,1.72,36.24,36.24,0,0,1-5.05,1.38,29.08,29.08,0,0,1-5.95.58,24.32,24.32,0,0,1-8.52-1.41,17.08,17.08,0,0,1-6.46-4.17,18.59,18.59,0,0,1-4.12-6.85,27.88,27.88,0,0,1-1.46-9.43,46.1,46.1,0,0,1,.92-9.05,49.4,49.4,0,0,1,2.73-9,42.93,42.93,0,0,1,4.52-8.29,33.61,33.61,0,0,1,6.3-6.83,28.36,28.36,0,0,1,8.08-4.64,27.92,27.92,0,0,1,9.86-1.69,25.12,25.12,0,0,1,6.33.77,21.57,21.57,0,0,1,5,1.92,14.77,14.77,0,0,1,3,2.06A2.86,2.86,0,0,1,737.12,194.52Z"/><path class="v" d="M787,189.65a2.25,2.25,0,0,1-.49,1.3,11.76,11.76,0,0,1-1.5,1.67l-24.87,24.27,15.7,27.92a9,9,0,0,1,.58,1.28,2.67,2.67,0,0,1,.16.85,1.38,1.38,0,0,1-.19.74,1.19,1.19,0,0,1-.62.51,4.66,4.66,0,0,1-1.25.3,14.53,14.53,0,0,1-2.06.12,19.83,19.83,0,0,1-2.11-.09,6.43,6.43,0,0,1-1.3-.26,1.65,1.65,0,0,1-.74-.46,3.14,3.14,0,0,1-.44-.72l-16.39-29.92-5.93,30a1.15,1.15,0,0,1-.3.65,1.84,1.84,0,0,1-.76.44,9.13,9.13,0,0,1-1.3.27,12.91,12.91,0,0,1-1.9.12,12.73,12.73,0,0,1-1.92-.12,5.8,5.8,0,0,1-1.18-.27,1,1,0,0,1-.56-.44,1,1,0,0,1-.05-.65L749,189.56a1.11,1.11,0,0,1,.32-.6,1.92,1.92,0,0,1,.79-.44,8.43,8.43,0,0,1,1.3-.28,14.53,14.53,0,0,1,1.9-.11,13.93,13.93,0,0,1,1.87.11,5.87,5.87,0,0,1,1.18.28,1,1,0,0,1,.56.44,1,1,0,0,1,.09.6l-5.32,26.68,26.21-26.59a4.91,4.91,0,0,1,.81-.71,3.42,3.42,0,0,1,1-.47,9.59,9.59,0,0,1,1.41-.25,18.34,18.34,0,0,1,1.94-.09,14.27,14.27,0,0,1,1.95.11,5.18,5.18,0,0,1,1.16.3,1.23,1.23,0,0,1,.58.47A1.32,1.32,0,0,1,787,189.65Z"/><path class="v" d="M801.91,241.11a10.79,10.79,0,0,1-.14,1.55,15,15,0,0,1-.39,1.81,12.78,12.78,0,0,1-.61,1.71,3.58,3.58,0,0,1-.85,1.27,3.74,3.74,0,0,1-1.67,1,8.76,8.76,0,0,1-2.64.33,9.39,9.39,0,0,1-2-.19,3.09,3.09,0,0,1-1.25-.53,1.7,1.7,0,0,1-.61-.91,4.36,4.36,0,0,1-.16-1.25,11.32,11.32,0,0,1,.12-1.48,15.32,15.32,0,0,1,.34-1.8,11.78,11.78,0,0,1,.61-1.79,4.72,4.72,0,0,1,.83-1.36,3.65,3.65,0,0,1,1.71-1,10.2,10.2,0,0,1,2.5-.25,9.86,9.86,0,0,1,2.18.2,3.2,3.2,0,0,1,1.27.58,1.88,1.88,0,0,1,.61.93A4.45,4.45,0,0,1,801.91,241.11Zm.69-10.05a1.19,1.19,0,0,1-.28.65,1.67,1.67,0,0,1-.69.46,5,5,0,0,1-1.13.28,12.77,12.77,0,0,1-1.65.09,11.46,11.46,0,0,1-1.62-.09,3.08,3.08,0,0,1-1-.28.85.85,0,0,1-.44-.46,1.19,1.19,0,0,1,0-.65l8-44.18a3.07,3.07,0,0,1,.41-1,2,2,0,0,1,.84-.67,4.74,4.74,0,0,1,1.39-.37,14.47,14.47,0,0,1,2-.12,13.94,13.94,0,0,1,2,.12,3,3,0,0,1,1.23.39,1.1,1.1,0,0,1,.53.69,2.21,2.21,0,0,1,0,1Z"/><path class="v" d="M832.8,241.11a10.79,10.79,0,0,1-.14,1.55,15,15,0,0,1-.39,1.81,12.78,12.78,0,0,1-.61,1.71,3.58,3.58,0,0,1-.85,1.27,3.74,3.74,0,0,1-1.67,1,8.76,8.76,0,0,1-2.64.33,9.39,9.39,0,0,1-2-.19,3.09,3.09,0,0,1-1.25-.53,1.7,1.7,0,0,1-.61-.91,4.36,4.36,0,0,1-.16-1.25,11.32,11.32,0,0,1,.12-1.48,15.32,15.32,0,0,1,.34-1.8,11.78,11.78,0,0,1,.61-1.79,4.72,4.72,0,0,1,.83-1.36,3.69,3.69,0,0,1,1.71-1,10.2,10.2,0,0,1,2.5-.25,9.8,9.8,0,0,1,2.18.2A3.2,3.2,0,0,1,832,239a1.88,1.88,0,0,1,.61.93A4.45,4.45,0,0,1,832.8,241.11Zm.69-10.05a1.26,1.26,0,0,1-.27.65,1.78,1.78,0,0,1-.7.46,5,5,0,0,1-1.13.28,12.77,12.77,0,0,1-1.65.09,11.46,11.46,0,0,1-1.62-.09,3.08,3.08,0,0,1-1-.28.85.85,0,0,1-.44-.46,1.19,1.19,0,0,1,0-.65l8-44.18a3.07,3.07,0,0,1,.41-1,2,2,0,0,1,.84-.67,4.74,4.74,0,0,1,1.39-.37,14.52,14.52,0,0,1,2-.12,13.89,13.89,0,0,1,2,.12,3,3,0,0,1,1.23.39,1.1,1.1,0,0,1,.53.69,2.21,2.21,0,0,1,0,1Z"/><g class="w"><path class="x" d="M1145,1006.06c31.2,8.52,62.41,17,93.56,25.64,4.08,1.14,5.44.28,6.47-3.76a303.23,303.23,0,0,1,19.88-56.09c4.23-8.85,11.86-13.91,19.59-19,40.13-26.56,76.11-58.08,110.11-92,15.41-15.37,31-30.68,44-48.18,13.28-17.86,14.89-38.93-4.81-53.3-10.49-7.65-29.19-8-42.1.68-13.23,8.9-26.1,18.35-39,27.73-5.78,4.2-11.23,8.85-16.9,13.2-.92.71-2.43,1.61-3.25,1.3-1.61-.6-.68-2.3-.57-3.58,2.79-31,13.83-60,21.62-89.79,11.54-44.07,24-87.92,36-131.87,4.57-16.73-1.58-32.65-15.46-40.25-14.92-8.18-32.57-4.51-44,9.34-3.06,3.68-4.59,8.19-5.85,12.83q-14.39,52.63-29,105.22c-.39,1.42-1.15,3.54-2.16,3.83-2,.56-1.91-1.9-2.65-3.1-7-11.43-17.31-17.68-30.59-17.19-14.81.55-25.17,8.58-31.28,22.06-.45,1-.93,2-1.35,3-1.34,3.22-2.65,6.45-4,9.66,0,0-.6,0-.62-.12-4.8-6.43-9.65-12.63-15.08-16.07-17.29-11.19-44-1-50.19,18.7-1.23,3.93-1.81,10.51-4,11.13-3.78,1.06-4.66-5.16-7.34-7.88-18.28-18.51-49.36-12.54-58.17,12-13.5,37.57-23.28,76.31-32.38,115.1-5.34,22.78-5.13,46.33,3.24,68.92,3.69,9.94,11.28,17.58,16.54,26.61a11.52,11.52,0,0,1,1.29,9.65c-5.34,19.11-10.3,38.32-15.56,57.46-1,3.58-.34,5.22,3.51,6.23,18.6,4.87,37.11,10.1,55.7,15Z"/><path class="k" d="M1357.57,532.49A34.11,34.11,0,0,1,1374,536.8c13.88,7.6,20,23.52,15.46,40.25-12,44-24.44,87.8-36,131.87-7.79,29.78-18.83,58.81-21.62,89.79-.11,1.28-1,3,.57,3.58a.92.92,0,0,0,.38.07,5.9,5.9,0,0,0,2.87-1.37c5.67-4.35,11.12-9,16.9-13.2,12.9-9.38,25.77-18.83,39-27.73a40.06,40.06,0,0,1,22.18-6.46c7.52,0,14.73,2,19.92,5.78,19.7,14.37,18.09,35.44,4.81,53.3-13,17.5-28.55,32.81-44,48.18-34,33.89-70,65.41-110.11,92-7.73,5.11-15.36,10.17-19.59,19a303.23,303.23,0,0,0-19.88,56.09c-.76,3-1.69,4.22-3.76,4.22a10.47,10.47,0,0,1-2.71-.46c-31.15-8.69-62.36-17.12-93.56-25.64L1120,999.19c-18.59-4.94-37.1-10.17-55.7-15-3.85-1-4.49-2.65-3.51-6.23,5.26-19.14,10.23-38.35,15.56-57.46a11.52,11.52,0,0,0-1.29-9.65c-5.26-9-12.85-16.67-16.54-26.61-8.37-22.59-8.58-46.14-3.24-68.92,9.1-38.79,18.88-77.53,32.38-115.1a34.14,34.14,0,0,1,32.52-22.81,35.9,35.9,0,0,1,25.65,10.84c2.47,2.51,3.41,8,6.51,8a3.14,3.14,0,0,0,.83-.12c2.21-.62,2.79-7.2,4-11.13,4.42-14.12,19.37-23.34,33.85-23.34a30,30,0,0,1,16.34,4.64c5.43,3.44,10.28,9.64,15.08,16.07,0,.08.36.13.53.13h.09c1.36-3.21,2.67-6.44,4-9.66.42-1,.9-2,1.35-3,6.11-13.48,16.47-21.51,31.28-22.06l1.44,0c12.59,0,22.4,6.21,29.15,17.22.67,1.08.7,3.18,2.13,3.18a1.74,1.74,0,0,0,.52-.08c1-.29,1.77-2.41,2.16-3.83q14.58-52.59,29-105.22c1.26-4.64,2.79-9.15,5.85-12.83,7.41-8.95,17.4-13.65,27.57-13.65m0-13.68v0c-14.42,0-28.31,6.78-38.1,18.6-4.75,5.72-7,12.29-8.52,18q-11.82,43.27-23.81,86.51a45.47,45.47,0,0,0-26-7.85c-.65,0-1.29,0-2,0-17.17.64-31.17,9.07-40,23.93a43.18,43.18,0,0,0-28.15-10c-17.85,0-34.65,9.82-43.09,24.31a49.09,49.09,0,0,0-27.77-8.56,47.7,47.7,0,0,0-45.39,31.86c-13.87,38.58-24,78.85-32.83,116.61-6.35,27.12-5.1,53,3.74,76.79,3,8,7.6,14.41,11.7,20.11,2.06,2.86,4,5.58,5.62,8.26-3,10.67-5.8,21.24-8.63,31.8q-3.36,12.6-6.79,25.17c-.57,2.07-2.29,8.35,1.33,14.63,2.41,4.17,6.41,7,11.9,8.46,10.29,2.7,20.55,5.5,30.81,8.31,8.28,2.26,16.55,4.52,24.84,6.72l24.82,6.84,22.16,6q35.7,9.72,71.36,19.59a23.6,23.6,0,0,0,6.38,1c4,0,13.67-1.41,17-14.52a288.87,288.87,0,0,1,19-53.57c2.48-5.18,7.24-8.51,14.8-13.51,37-24.51,72.69-54.28,112.22-93.7l1.82-1.81c14.92-14.88,30.36-30.26,43.46-47.89,9.9-13.32,14.23-28,12.19-41.46-1.85-12.16-8.74-22.9-19.92-31-7.44-5.43-17.38-8.41-28-8.41a53.86,53.86,0,0,0-29.81,8.79c-11.58,7.78-23,16-34,24.06,2.63-11.51,6-23,9.53-34.91,2.44-8.3,5-16.87,7.22-25.47,7.88-30.12,16.33-60.68,24.5-90.24q5.74-20.74,11.43-41.5c6.23-22.76-2.65-45.2-22.08-55.85a48.09,48.09,0,0,0-23-6Z"/></g><g class="y"><path class="x" d="M2884,1017c-31.2,8.51-62.42,17-93.57,25.64-4.08,1.13-5.43.27-6.46-3.76a304.44,304.44,0,0,0-19.88-56.09c-4.23-8.85-11.87-13.91-19.6-19-40.12-26.55-76.11-58.07-110.1-92-15.41-15.37-30.95-30.67-44-48.17-13.28-17.86-14.9-38.94,4.81-53.3,10.49-7.65,29.18-8,42.09.68,13.24,8.9,26.1,18.35,39,27.73,5.78,4.2,11.23,8.84,16.9,13.2.92.71,2.43,1.61,3.24,1.3,1.62-.6.69-2.3.57-3.58-2.79-31-13.83-60-21.62-89.79-11.54-44.08-24-87.92-36-131.88-4.58-16.73,1.57-32.64,15.46-40.25,14.91-8.17,32.56-4.51,44,9.34,3,3.69,4.58,8.19,5.85,12.84q14.39,52.63,29,105.21c.4,1.43,1.15,3.55,2.17,3.84,1.94.55,1.91-1.91,2.64-3.11,7-11.42,17.32-17.68,30.6-17.18,14.81.54,25.17,8.57,31.27,22,.45,1,.93,2,1.35,3,1.34,3.21,2.66,6.44,4,9.65,0,.05.6,0,.63-.11,4.79-6.44,9.64-12.63,15.07-16.08,17.3-11.18,44-1,50.2,18.71,1.23,3.92,1.81,10.51,4,11.12,3.78,1.06,4.66-5.15,7.34-7.87,18.27-18.52,49.36-12.55,58.17,12,13.5,37.58,23.28,76.31,32.37,115.11,5.34,22.77,5.14,46.32-3.24,68.91-3.68,10-11.27,17.58-16.53,26.62a11.5,11.5,0,0,0-1.29,9.64c5.33,19.11,10.3,38.33,15.56,57.46,1,3.59.34,5.22-3.52,6.23-18.6,4.88-37.11,10.1-55.69,15Z"/><path class="k" d="M2671.35,543.46c10.17,0,20.15,4.7,27.57,13.64,3,3.69,4.58,8.19,5.85,12.83q14.39,52.65,29,105.22c.4,1.43,1.15,3.55,2.17,3.84a2.06,2.06,0,0,0,.52.08c1.42,0,1.46-2.1,2.12-3.19,6.76-11,16.57-17.21,29.15-17.21l1.45,0c14.81.54,25.17,8.57,31.27,22,.45,1,.93,2,1.35,3,1.34,3.21,2.66,6.44,4,9.65a.16.16,0,0,0,.1,0c.16,0,.51-.06.53-.13,4.79-6.44,9.64-12.63,15.07-16.08a30,30,0,0,1,16.35-4.63c14.48,0,29.43,9.22,33.85,23.34,1.23,3.92,1.81,10.51,4,11.12a2.71,2.71,0,0,0,.82.12c3.1,0,4.05-5.48,6.52-8a35.89,35.89,0,0,1,25.64-10.85,34.15,34.15,0,0,1,32.53,22.81c13.5,37.58,23.28,76.31,32.37,115.11,5.34,22.77,5.14,46.32-3.24,68.91-3.68,10-11.27,17.58-16.53,26.62a11.5,11.5,0,0,0-1.29,9.64c5.33,19.11,10.3,38.33,15.56,57.46,1,3.59.34,5.22-3.52,6.23-18.6,4.88-37.11,10.1-55.69,15L2884,1017c-31.2,8.51-62.42,17-93.57,25.64a10.34,10.34,0,0,1-2.7.46c-2.07,0-3-1.25-3.76-4.22a304.44,304.44,0,0,0-19.88-56.09c-4.23-8.85-11.87-13.91-19.6-19-40.12-26.55-76.11-58.07-110.1-92-15.41-15.37-30.95-30.67-44-48.17-13.28-17.86-14.9-38.94,4.81-53.3,5.19-3.79,12.4-5.79,19.92-5.79a40,40,0,0,1,22.17,6.47c13.24,8.9,26.1,18.35,39,27.73,5.78,4.2,11.23,8.84,16.9,13.2a5.92,5.92,0,0,0,2.87,1.36,1.06,1.06,0,0,0,.37-.06c1.62-.6.69-2.3.57-3.58-2.79-31-13.83-60-21.62-89.79-11.54-44.08-24-87.92-36-131.88-4.58-16.73,1.57-32.64,15.46-40.25a34.18,34.18,0,0,1,16.47-4.3m0-13.68a48.06,48.06,0,0,0-23,6c-19.44,10.64-28.31,33.09-22.09,55.85q5.67,20.76,11.43,41.5c8.17,29.55,16.62,60.11,24.51,90.24,2.25,8.59,4.77,17.17,7.22,25.46,3.5,11.89,6.89,23.41,9.53,34.92-11-8-22.41-16.28-34-24.07a53.87,53.87,0,0,0-29.82-8.79c-10.6,0-20.53,3-28,8.42-11.19,8.15-18.08,18.89-19.92,31-2,13.42,2.29,28.15,12.19,41.47,13.1,17.62,28.53,33,43.46,47.88l1.82,1.82c39.52,39.41,75.18,69.18,112.21,93.69,7.57,5,12.33,8.34,14.8,13.52a287.89,287.89,0,0,1,19,53.57c3.35,13.1,13,14.52,17,14.52a23.3,23.3,0,0,0,6.38-1q35.64-9.93,71.35-19.58l22.17-6,24.82-6.84q12.43-3.32,24.83-6.73c10.26-2.8,20.52-5.61,30.82-8.3,5.48-1.44,9.49-4.29,11.89-8.46,3.63-6.29,1.9-12.57,1.34-14.63-2.31-8.38-4.55-16.78-6.8-25.17-2.83-10.57-5.65-21.13-8.62-31.8,1.6-2.69,3.55-5.4,5.62-8.27,4.1-5.69,8.75-12.14,11.7-20.1,8.83-23.83,10.09-49.67,3.73-76.8-8.85-37.76-19-78-32.82-116.6a47.72,47.72,0,0,0-45.4-31.87,49.14,49.14,0,0,0-27.76,8.56c-8.44-14.49-25.25-24.3-43.1-24.3a43.49,43.49,0,0,0-23.66,6.76,42.24,42.24,0,0,0-4.48,3.29c-8.86-14.87-22.85-23.3-40-23.93-.65,0-1.3,0-2,0a45.56,45.56,0,0,0-25.95,7.84q-12-43.23-23.8-86.5c-1.55-5.67-3.77-12.23-8.52-18-9.79-11.81-23.68-18.59-38.1-18.59v0Z"/></g><g class="z"><path class="k" d="M1259.5,897.42H1152.08V876.11l50.7-54q10.44-11.4,15.45-19.91t5-16.15q0-10.44-5.27-16.41t-15.07-6q-10.56,0-16.63,7.27t-6.08,19.1H1149a51.33,51.33,0,0,1,6.84-26.15,48.15,48.15,0,0,1,19.32-18.57,58.76,58.76,0,0,1,28.3-6.73q24.22,0,37.62,11.63t13.4,32.83a52.67,52.67,0,0,1-6,23.68q-6,12.06-20.67,28.09l-35.63,37.57h67.38Z"/></g><path class="g" d="M316.45,696.15h-31.1V576.24l-37.14,11.52v-25.3l64.91-23.25h3.33Z"/><g class="z"><path class="k" d="M2883.56,914H2776.14V892.66l50.7-54q10.44-11.42,15.45-19.91t5-16.15q0-10.44-5.27-16.41t-15.07-6q-10.56,0-16.63,7.27t-6.08,19.1H2773a51.33,51.33,0,0,1,6.84-26.15,48,48,0,0,1,19.32-18.57,58.66,58.66,0,0,1,28.31-6.73q24.21,0,37.62,11.63t13.4,32.83a52.69,52.69,0,0,1-6,23.68q-6,12-20.67,28.09l-35.63,37.56h67.38Z"/></g></svg>