<svg id="Ebene_1" data-name="Ebene 1" xmlns="http://www.w3.org/2000/svg" xmlns:xlink="http://www.w3.org/1999/xlink" viewBox="0 0 176.05 82.61"><defs><style>.cls-1,.cls-12,.cls-2,.cls-6,.cls-8{fill:none;}.cls-2,.cls-6,.cls-8{stroke:#231f20;}.cls-2{stroke-linecap:round;}.cls-12,.cls-14,.cls-16,.cls-2,.cls-6,.cls-8{stroke-miterlimit:10;}.cls-12,.cls-2,.cls-8{stroke-width:2px;}.cls-15,.cls-16,.cls-3{fill:#231f20;}.cls-4{clip-path:url(#clip-path);}.cls-5{fill:#00a04c;}.cls-7{fill:#3b443f;}.cls-9{fill:#238540;}.cls-10{fill:#0fa54d;}.cls-11{fill:#2b76bb;}.cls-12{stroke:#2b76bb;}.cls-13{fill:#248145;}.cls-14{fill:#fff;stroke:#1d1d1b;}.cls-15{font-size:8.29px;font-family:Calibri-Italic, Calibri;font-style:italic;}.cls-16{stroke:#fff;stroke-width:0.5px;}</style><clipPath id="clip-path"><rect class="cls-1" x="34.77" y="2.4" width="134.24" height="79.13"/></clipPath></defs><title>bpx_setup1</title><line class="cls-2" x1="37.76" y1="44.99" x2="24.81" y2="50.43"/><polyline class="cls-3" points="26.3 43.55 8.38 57.08 30.66 54.33"/><g id="BPX-Dynamic_Top"><g class="cls-4"><g class="cls-4"><path class="cls-5" d="M121.74,48.83s2.12,2,2.12,7.48a12,12,0,0,1-1.19,5c-.23.49-.44.85-.55,1a1.43,1.43,0,0,0-.1.16,71.71,71.71,0,0,0-.28-13.66"/><path class="cls-6" d="M121.74,48.83s2.12,2,2.12,7.48a12,12,0,0,1-1.19,5c-.23.49-.44.85-.55,1a1.43,1.43,0,0,0-.1.16A71.71,71.71,0,0,0,121.74,48.83Z"/><path class="cls-7" d="M53.23,44.72c1.6-.55,2.25-2.88,1.44-5.2s-2.75-3.74-4.35-3.19l-2.07.9,2.91,8.4"/><path class="cls-6" d="M53.23,44.72c1.6-.55,2.25-2.88,1.44-5.2s-2.75-3.74-4.35-3.19l-2.07.9,2.91,8.4Z"/><path class="cls-7" d="M91.23,46.93c1.69-.58,3.74.93,4.59,3.37s.17,4.91-1.52,5.49l-2.47,1-3.08-8.86"/><path class="cls-6" d="M91.23,46.93c1.69-.58,3.74.93,4.59,3.37s.17,4.91-1.52,5.49l-2.47,1-3.08-8.86Z"/><path class="cls-7" d="M94.3,70.64c1.69-.59,2.37-3,1.52-5.49s-2.9-4-4.59-3.37l-2.13.94,3.07,8.86"/><path class="cls-6" d="M94.3,70.64c1.69-.59,2.37-3,1.52-5.49s-2.9-4-4.59-3.37l-2.13.94,3.07,8.86Z"/><path class="cls-7" d="M53.69,59.18l-2.08.72L48.7,51.51l2.08-.72c1.6-.56,3.54.87,4.35,3.19s.16,4.65-1.44,5.2"/><path class="cls-6" d="M53.69,59.18l-2.08.72L48.7,51.51l2.08-.72c1.6-.56,3.54.87,4.35,3.19S55.29,58.63,53.69,59.18Z"/><path class="cls-8" d="M108.78,3.61l53.44,11.66a13.24,13.24,0,0,1,4.07,3c3.52,3.8.51,12.21.78,16.82s1,6.76.94,10.17c0,2.27-7.77,6.82-15.38,10.74-.84.43-1.41,0-2.24.46-1,.5-2.28,1.81-3.24,2.27l-6.41,3.12c-.94.46-1.38-.15-2.37.33s-2.54,2.06-3.51,2.53l-9.06,4.42a51.64,51.64,0,0,1-5.21,1.44h-.27a6.42,6.42,0,0,1-2.5,2.65c-1.59.8-14.94,7.24-14.94,7.24a14.13,14.13,0,0,1-6.17-.7c-3.51-1.14-54-15.58-54-15.58A11,11,0,0,1,38,60.4a8.18,8.18,0,0,1-1.44-4.79c0-.79,1.38-3.75,1.38-10.36s-2.18-7.93-2.18-11.17,2.5-5.43,5.53-6.49,17.39-6.17,17.39-6.17A8.71,8.71,0,0,0,60.87,21c1.07-.38,2.34-1.39,4.15-2.08s9-3.19,9-3.19a14,14,0,0,0,2.66-.64c.58-.32.85-.9,2-1.27.42-.15,4.35-1.64,9.08-3.45,1-.38,2.33-.51,3.38-.92.53-.2.79-.67,1.32-.88,6.44-2.46,12.74-4.88,12.93-5A6.74,6.74,0,0,1,108.78,3.61Z"/><path class="cls-9" d="M52.59,40.43c.81,2.32.16,4.64-1.43,5.2s-3.55-.88-4.35-3.2-.16-4.64,1.43-5.2,3.55.88,4.35,3.2"/><path class="cls-6" d="M52.59,40.43c.81,2.32.16,4.64-1.43,5.2s-3.55-.88-4.35-3.2-.16-4.64,1.43-5.2S51.79,38.11,52.59,40.43Z"/><path class="cls-9" d="M53.05,54.7c.8,2.32.16,4.65-1.44,5.2s-3.55-.87-4.35-3.19-.16-4.65,1.44-5.2,3.54.87,4.35,3.19"/><path class="cls-6" d="M53.05,54.7c.8,2.32.16,4.65-1.44,5.2s-3.55-.87-4.35-3.19-.16-4.65,1.44-5.2S52.24,52.38,53.05,54.7Z"/><path class="cls-9" d="M93.35,51.26c.84,2.45.16,4.91-1.52,5.49s-3.75-.92-4.59-3.37-.17-4.91,1.51-5.49,3.75.92,4.6,3.37"/><path class="cls-6" d="M93.35,51.26c.84,2.45.16,4.91-1.52,5.49s-3.75-.92-4.59-3.37-.17-4.91,1.51-5.49S92.5,48.81,93.35,51.26Z"/><path class="cls-9" d="M93.69,66.09c.85,2.45.17,4.91-1.52,5.5s-3.74-.93-4.59-3.38-.17-4.9,1.52-5.49,3.74.93,4.59,3.37"/><path class="cls-6" d="M93.69,66.09c.85,2.45.17,4.91-1.52,5.5s-3.74-.93-4.59-3.38-.17-4.9,1.52-5.49S92.84,63.65,93.69,66.09Z"/><path class="cls-10" d="M51.26,40.71c.63,1.82.12,3.65-1.13,4.08s-2.79-.68-3.42-2.51-.12-3.65,1.13-4.08,2.79.69,3.42,2.51"/><path class="cls-6" d="M51.26,40.71c.63,1.82.12,3.65-1.13,4.08s-2.79-.68-3.42-2.51-.12-3.65,1.13-4.08S50.63,38.89,51.26,40.71Z"/><path class="cls-10" d="M51.8,55.13c.64,1.82.13,3.65-1.13,4.09s-2.78-.69-3.41-2.51-.13-3.65,1.13-4.09,2.78.69,3.41,2.51"/><path class="cls-6" d="M51.8,55.13c.64,1.82.13,3.65-1.13,4.09s-2.78-.69-3.41-2.51-.13-3.65,1.13-4.09S51.17,53.31,51.8,55.13Z"/><path class="cls-10" d="M92.4,66.54c.67,1.95.13,3.9-1.21,4.36s-3-.73-3.64-2.68-.14-3.89,1.2-4.35,3,.73,3.65,2.67"/><path class="cls-6" d="M92.4,66.54c.67,1.95.13,3.9-1.21,4.36s-3-.73-3.64-2.68-.14-3.89,1.2-4.35S91.72,64.6,92.4,66.54Z"/><path class="cls-10" d="M92.09,51.7c.67,1.94.13,3.89-1.21,4.36s-3-.74-3.65-2.68S87.1,49.49,88.44,49s3,.74,3.65,2.68"/><path class="cls-6" d="M92.09,51.7c.67,1.94.13,3.89-1.21,4.36s-3-.74-3.65-2.68S87.1,49.49,88.44,49,91.41,49.76,92.09,51.7Z"/><path class="cls-11" d="M60.31,43.36c.12,1.41-.33,2.6-1,2.66s-1.35-1-1.47-2.44.34-2.6,1-2.66,1.34,1,1.46,2.44"/><path class="cls-6" d="M60.31,43.36c.12,1.41-.33,2.6-1,2.66s-1.35-1-1.47-2.44.34-2.6,1-2.66S60.19,42,60.31,43.36Z"/><path class="cls-11" d="M85.82,50.07c.13,1.47-.35,2.71-1.06,2.78s-1.4-1.08-1.53-2.55.35-2.71,1.07-2.77,1.4,1.08,1.52,2.54"/><path class="cls-6" d="M85.82,50.07c.13,1.47-.35,2.71-1.06,2.78s-1.4-1.08-1.53-2.55.35-2.71,1.07-2.77S85.7,48.61,85.82,50.07Z"/><path class="cls-11" d="M86.11,63c.13,1.46-.35,2.7-1.07,2.77s-1.4-1.08-1.53-2.55.36-2.71,1.07-2.77S86,61.51,86.11,63"/><path class="cls-6" d="M86.11,63c.13,1.46-.35,2.7-1.07,2.77s-1.4-1.08-1.53-2.55.36-2.71,1.07-2.77S86,61.51,86.11,63Z"/><path class="cls-11" d="M60.67,55.81c.13,1.41-.33,2.6-1,2.66s-1.34-1-1.46-2.44.33-2.6,1-2.66,1.34,1,1.46,2.44"/><path class="cls-6" d="M60.67,55.81c.13,1.41-.33,2.6-1,2.66s-1.34-1-1.46-2.44.33-2.6,1-2.66S60.55,54.41,60.67,55.81Z"/><polygon class="cls-6" points="79.8 61.82 64.12 57.26 64.12 44.39 79.8 48.68 79.8 61.82"/><line class="cls-12" x1="64.7" y1="51.2" x2="79.22" y2="54.97"/><path class="cls-6" d="M99,75.1,45.27,59.9c-2-.56-3.8-2.25-3.8-3.8V36.2c0-2.55,1.73-4.3,3.8-3.8L99.49,46.78a4.43,4.43,0,0,1,3.26,4.34V71.3C102.75,73.39,101.47,75.76,99,75.1Z"/><path class="cls-6" d="M140.88,29.19a5.51,5.51,0,0,1-1.21,7.7c-2.46,1.79-4.15-.44-5.94-2.9s-3-4.21-.55-6A5.52,5.52,0,0,1,140.88,29.19Z"/><path class="cls-6" d="M154.23,23.89c1.79,2.46.19,6.83-1.48,7.42s-3.6-.71-5.4-3.16-3.55-3.94-1.09-5.74A5.9,5.9,0,0,1,154.23,23.89Z"/><path class="cls-6" d="M126.41,68.71a6.76,6.76,0,0,0,2.81-2.93,22.36,22.36,0,0,0,1.56-7.84s7.08-7.53,6.69-10-6.67-2-6.67-2a31,31,0,0,0-1.88-7.92c-1.63-4.33-6-5.29-9.78-3.66,0,0-4.34.56-.24,5.85,3.26,4.2,3.22,11.77,3.22,16.09s.07,9.39-1.32,12.29a25.64,25.64,0,0,1-2.37,4.17"/><path class="cls-13" d="M125,43.49c.17.1.39.26.61.42a.83.83,0,0,1,.37.5,3.5,3.5,0,0,1,.85.6c.18.18.08.38.2.54s.59.43.73.65,0,.39.08.59.51.45.62.69-.09.4,0,.61.46.49.54.74-.14.43-.07.66.38.44.43.67-.16.55-.11.83.35.57.37.87-.23.53-.22.8.29.38.29.57,0,.16,0,.24c0,.29-.29.58-.31.86s.24.46.21.68-.36.66-.43,1,.2.39.15.58-.43.61-.52.9.12.44,0,.65-.47.5-.57.74.14.26.08.39-.5.44-.63.66.11.27,0,.4-.55.4-.7.6.14.17.07.26l-5.2,2.71.11-1.39c.11-.17.21-.34.31-.52s0-.44,0-.61.4-.29.51-.53-.06-.56,0-.85.42-.47.49-.72-.15-.49-.1-.75.38-.59.43-.89-.21-.52-.19-.78.3-.49.31-.74v-.4c0-.13-.27-.27-.27-.4s.25-.54.22-.81-.32-.54-.36-.8.18-.59.12-.87-.35-.33-.39-.5.12-.56,0-.83-.41-.42-.49-.63.07-.49,0-.73-.5-.19-.63-.41,0-.66-.07-.85l-.24-.34s-.43-3.33,0-3.69A23.63,23.63,0,0,1,125,43.49"/><path class="cls-6" d="M125,43.49c.17.1.39.26.61.42a.83.83,0,0,1,.37.5,3.5,3.5,0,0,1,.85.6c.18.18.08.38.2.54s.59.43.73.65,0,.39.08.59.51.45.62.69-.09.4,0,.61.46.49.54.74-.14.43-.07.66.38.44.43.67-.16.55-.11.83.35.57.37.87-.23.53-.22.8.29.38.29.57,0,.16,0,.24c0,.29-.29.58-.31.86s.24.46.21.68-.36.66-.43,1,.2.39.15.58-.43.61-.52.9.12.44,0,.65-.47.5-.57.74.14.26.08.39-.5.44-.63.66.11.27,0,.4-.55.4-.7.6.14.17.07.26l-5.2,2.71.11-1.39c.11-.17.21-.34.31-.52s0-.44,0-.61.4-.29.51-.53-.06-.56,0-.85.42-.47.49-.72-.15-.49-.1-.75.38-.59.43-.89-.21-.52-.19-.78.3-.49.31-.74v-.4c0-.13-.27-.27-.27-.4s.25-.54.22-.81-.32-.54-.36-.8.18-.59.12-.87-.35-.33-.39-.5.12-.56,0-.83-.41-.42-.49-.63.07-.49,0-.73-.5-.19-.63-.41,0-.66-.07-.85l-.24-.34s-.43-3.33,0-3.69A23.63,23.63,0,0,1,125,43.49Z"/><line class="cls-6" x1="126.84" y1="45.01" x2="121.56" y2="47.39"/><line class="cls-6" x1="125.63" y1="43.89" x2="121.56" y2="45.73"/><line class="cls-6" x1="121.99" y1="48.87" x2="127.77" y2="46.21"/><line class="cls-6" x1="122.68" y1="50.12" x2="128.47" y2="47.48"/><line class="cls-6" x1="123.22" y1="51.49" x2="129.01" y2="48.83"/><line class="cls-6" x1="129.37" y1="50.16" x2="123.58" y2="52.82"/><line class="cls-6" x1="129.63" y1="51.86" x2="123.82" y2="54.49"/><line class="cls-6" x1="129.7" y1="53.47" x2="123.89" y2="56.1"/><line class="cls-6" x1="129.63" y1="54.99" x2="123.82" y2="57.63"/><line class="cls-6" x1="129.38" y1="56.54" x2="123.42" y2="59.24"/><line class="cls-6" x1="128.84" y1="58.13" x2="122.89" y2="60.83"/><line class="cls-6" x1="128.34" y1="59.25" x2="122.38" y2="61.95"/><line class="cls-6" x1="127.74" y1="60.31" x2="121.9" y2="62.95"/><path class="cls-8" d="M35.77,34.08s.42-5.57,5.32-4.28L98,44.7s8.73,2.37,8.37,19.18c-.41,18.93-10.15,15.71-10.15,15.71"/></g></g></g><polygon class="cls-14" points="44.06 41.96 36.53 37.48 29.01 41.97 28.18 36.4 16.36 38.39 22.48 33.51 10.1 32.36 21.24 29.71 12.24 25.79 24.85 26.21 22.08 20.77 32.17 24.13 36.52 18.89 40.87 24.12 50.95 20.75 48.19 26.19 60.81 25.75 51.81 29.68 62.95 32.32 50.58 33.48 56.71 38.36 44.88 36.39 44.06 41.96"/><text class="cls-15" transform="translate(23.96 33.43)">KLICK!!</text><path class="cls-16" d="M83.69,73.15a1,1,0,0,1-.38-1.92l37.58-15.35a1,1,0,0,1,.76,1.85L84.07,73.08A1,1,0,0,1,83.69,73.15Z"/><polyline class="cls-3" points="83.81 65.92 65.89 79.44 88.17 76.69"/><polygon class="cls-14" points="116.64 53.38 109.12 48.9 101.6 53.39 100.77 47.82 88.94 49.81 95.07 44.92 82.69 43.78 93.83 41.13 84.82 37.21 97.44 37.63 94.67 32.19 104.76 35.55 109.1 30.31 113.46 35.54 123.54 32.16 120.78 37.61 133.39 37.17 124.4 41.1 135.54 43.74 123.16 44.9 129.29 49.78 117.47 47.81 116.64 53.38"/><text class="cls-15" transform="translate(96.54 44.85)">KLICK!!</text></svg>