<svg id="Ebene_1" data-name="Ebene 1" xmlns="http://www.w3.org/2000/svg" xmlns:xlink="http://www.w3.org/1999/xlink" viewBox="0 0 90.19 68.98"><defs><style>.cls-1,.cls-4,.cls-5,.cls-8{fill:none;}.cls-2{clip-path:url(#clip-path);}.cls-3{fill:#00a04c;}.cls-4,.cls-5{stroke:#231f20;}.cls-4,.cls-5,.cls-8{stroke-miterlimit:10;}.cls-5,.cls-8{stroke-linecap:round;}.cls-5{stroke-width:2px;}.cls-6{fill:#248145;}.cls-10,.cls-7{fill:#231f20;}.cls-8{stroke:#fff;stroke-width:4px;}.cls-9{fill:#fff;}.cls-10{font-size:8.29px;font-family:Calibri-Italic, Calibri;font-style:italic;}</style><clipPath id="clip-path"><rect class="cls-1" x="1.77" y="2.54" width="85.05" height="63.91"/></clipPath></defs><title>bpx_click2</title><g id="BPX-SideL"><g class="cls-2"><g class="cls-2"><path class="cls-3" d="M37.41,27.84s-2.72,2.6-2.72,9.59a15.43,15.43,0,0,0,1.53,6.38c.3.63.56,1.09.71,1.34s.13.21.13.21a92.34,92.34,0,0,1,.35-17.52"/><path class="cls-4" d="M37.41,27.84s-2.72,2.6-2.72,9.59a15.43,15.43,0,0,0,1.53,6.38c.3.63.56,1.09.71,1.34s.13.21.13.21A92.34,92.34,0,0,1,37.41,27.84Z"/><path class="cls-5" d="M2.77,39.08a11.6,11.6,0,0,0,2.05,1.44l8.23,4c1.21.59,1.77-.19,3,.43s3.26,2.63,4.51,3.24l11.62,5.67a67.29,67.29,0,0,0,6.68,1.84h.34a8.31,8.31,0,0,0,3.21,3.41c1.23.62,7.94,3.86,13.07,6.34"/><path class="cls-4" d="M31.43,53.34a8.75,8.75,0,0,1-3.61-3.76,28.76,28.76,0,0,1-2-10s-9.09-9.67-8.58-12.8,8.55-2.55,8.55-2.55A39.87,39.87,0,0,1,28.2,14c2.09-5.54,7.67-6.78,12.54-4.69,0,0,5.58.72.31,7.51-4.17,5.38-4.12,15.09-4.12,20.64s-.1,12,1.68,15.76a33,33,0,0,0,3,5.35"/><path class="cls-6" d="M33.22,21a7.52,7.52,0,0,0-.78.52,1.1,1.1,0,0,0-.48.65,4.62,4.62,0,0,0-1.09.76c-.22.25-.1.5-.26.71s-.75.54-.93.83,0,.5-.1.75-.66.58-.8.88.11.52,0,.79-.58.63-.69.95.17.56.09.84-.49.57-.56.87.21.7.15,1.06-.45.74-.48,1.11.29.69.28,1-.36.49-.36.73v.31c0,.37.37.74.4,1.1s-.3.59-.26.88.46.84.54,1.26c.05.25-.24.49-.19.74s.55.78.67,1.16-.16.56-.06.83.61.64.75,1-.2.33-.12.49.65.57.81.84-.14.35,0,.52.7.52.89.77-.17.22-.08.33l6.66,3.48-.13-1.78c-.14-.22-.27-.44-.4-.67s0-.56-.07-.78-.52-.37-.65-.68.07-.72,0-1.09-.54-.61-.63-.92.19-.64.12-1-.49-.76-.54-1.15.27-.66.24-1-.39-.63-.4-1v-.51c0-.17.35-.34.35-.51,0-.35-.32-.7-.29-1s.42-.69.47-1S35,33.32,35.06,33s.44-.43.49-.64-.15-.72,0-1.07.53-.54.64-.81-.09-.63.05-.93.64-.25.8-.54-.06-.84.1-1.08a4.27,4.27,0,0,1,.3-.44s.56-4.26,0-4.73A30.89,30.89,0,0,0,33.22,21"/><path class="cls-4" d="M33.22,21a7.52,7.52,0,0,0-.78.52,1.1,1.1,0,0,0-.48.65,4.62,4.62,0,0,0-1.09.76c-.22.25-.1.5-.26.71s-.75.54-.93.83,0,.5-.1.75-.66.58-.8.88.11.52,0,.79-.58.63-.69.95.17.56.09.84-.49.57-.56.87.21.7.15,1.06-.45.74-.48,1.11.29.69.28,1-.36.49-.36.73v.31c0,.37.37.74.4,1.1s-.3.59-.26.88.46.84.54,1.26c.05.25-.24.49-.19.74s.55.78.67,1.16-.16.56-.06.83.61.64.75,1-.2.33-.12.49.65.57.81.84-.14.35,0,.52.7.52.89.77-.17.22-.08.33l6.66,3.48-.13-1.78c-.14-.22-.27-.44-.4-.67s0-.56-.07-.78-.52-.37-.65-.68.07-.72,0-1.09-.54-.61-.63-.92.19-.64.12-1-.49-.76-.54-1.15.27-.66.24-1-.39-.63-.4-1v-.51c0-.17.35-.34.35-.51,0-.35-.32-.7-.29-1s.42-.69.47-1S35,33.32,35.06,33s.44-.43.49-.64-.15-.72,0-1.07.53-.54.64-.81-.09-.63.05-.93.64-.25.8-.54-.06-.84.1-1.08a4.27,4.27,0,0,1,.3-.44s.56-4.26,0-4.73A30.89,30.89,0,0,0,33.22,21Z"/><line class="cls-4" x1="30.87" y1="22.93" x2="37.64" y2="25.99"/><line class="cls-4" x1="32.43" y1="21.51" x2="37.65" y2="23.86"/><line class="cls-4" x1="37.1" y1="27.89" x2="29.68" y2="24.47"/><line class="cls-4" x1="36.2" y1="29.5" x2="28.78" y2="26.1"/><line class="cls-4" x1="35.51" y1="31.25" x2="28.09" y2="27.84"/><line class="cls-4" x1="27.63" y1="29.54" x2="35.06" y2="32.96"/><line class="cls-4" x1="27.29" y1="31.72" x2="34.74" y2="35.1"/><line class="cls-4" x1="27.21" y1="33.79" x2="34.66" y2="37.16"/><line class="cls-4" x1="27.29" y1="35.74" x2="34.74" y2="39.12"/><line class="cls-4" x1="27.61" y1="37.72" x2="35.26" y2="41.19"/><line class="cls-4" x1="28.3" y1="39.76" x2="35.94" y2="43.23"/><line class="cls-4" x1="28.95" y1="41.2" x2="36.59" y2="44.66"/><line class="cls-4" x1="29.72" y1="42.56" x2="37.21" y2="45.95"/><rect class="cls-4" x="2.58" y="3.04" width="65.08" height="62.89"/><line class="cls-7" x1="37.41" y1="35.47" x2="63.76" y2="46.15"/><line class="cls-8" x1="37.41" y1="35.47" x2="63.76" y2="46.15"/><line class="cls-5" x1="37.3" y1="35.33" x2="70.39" y2="48.73"/><polyline class="cls-7" points="68.9 41.86 86.81 55.38 64.54 52.63"/><polyline class="cls-9" points="40.92 31.9 48.45 27.42 55.96 31.91 56.8 26.34 68.62 28.34 62.5 23.45 74.88 22.3 63.74 19.65 72.74 15.73 60.13 16.16 62.89 10.71 52.81 14.07 48.46 8.83 44.11 14.07 34.02 10.69 36.78 16.14 24.17 15.7 33.16 19.63 22.02 22.26 34.4 23.43 28.27 28.3 40.1 26.33"/><polygon class="cls-4" points="40.92 31.9 48.45 27.42 55.96 31.91 56.8 26.34 68.62 28.34 62.5 23.45 74.88 22.3 63.74 19.65 72.74 15.73 60.13 16.16 62.89 10.71 52.81 14.07 48.46 8.83 44.11 14.07 34.02 10.69 36.78 16.14 24.17 15.7 33.16 19.63 22.02 22.26 34.4 23.43 28.27 28.3 40.1 26.33 40.92 31.9"/></g><text class="cls-10" transform="translate(35.94 23.37)">KLICK!!</text></g></g></svg>