<svg id="Ebene_1" data-name="Ebene 1" xmlns="http://www.w3.org/2000/svg" viewBox="0 0 2235.96 1125.12"><defs><style>.cls-1{fill:#f5f5f5;stroke:#666;}.cls-1,.cls-15,.cls-3,.cls-4,.cls-8{stroke-width:4px;}.cls-2,.cls-4{fill:#fff;}.cls-10,.cls-11,.cls-2,.cls-8,.cls-9{stroke:#000;}.cls-3{fill:#9cf;}.cls-3,.cls-4,.cls-5{stroke:#007fff;}.cls-10,.cls-14,.cls-5,.cls-8,.cls-9{fill:none;}.cls-10,.cls-11,.cls-14,.cls-5,.cls-8,.cls-9{stroke-miterlimit:10;}.cls-14,.cls-5{stroke-width:3px;stroke-dasharray:9 9;}.cls-15,.cls-6{fill:#d5e8d4;}.cls-14,.cls-15,.cls-6{stroke:#82b366;}.cls-7{fill:#ffe6cc;stroke:#d79b00;}.cls-9{stroke-width:2px;stroke-dasharray:6 6;}.cls-10,.cls-11{stroke-width:7px;}.cls-12{fill:#97d077;}.cls-13{fill:#ea6b66;}</style></defs><title>dect</title><rect class="cls-1" x="74.98" y="794.06" width="350" height="310"/><path d="M209.48,953.36H201v6.34h9.9v2.86H197.4V941.94h13.38v2.89H201v5.73h8.5Z"/><path d="M220.28,955.18h-7.43v-2.77h7.43Z"/><path d="M240,962.56h-3.59l-9.19-14.63v14.63H223.6V941.94h3.58l9.22,14.69V941.94H240Z"/><path d="M250.75,962.84a7.08,7.08,0,0,1-5.3-2.06,7.41,7.41,0,0,1-2-5.48v-.43a9.21,9.21,0,0,1,.89-4.1,6.81,6.81,0,0,1,2.48-2.81,6.54,6.54,0,0,1,3.57-1,6,6,0,0,1,4.84,2,8.44,8.44,0,0,1,1.7,5.65V956h-10a4.61,4.61,0,0,0,1.27,3,3.8,3.8,0,0,0,2.8,1.11,4.67,4.67,0,0,0,3.85-1.91L256.7,960a6.18,6.18,0,0,1-2.45,2.14A7.82,7.82,0,0,1,250.75,962.84Zm-.41-13.12a2.89,2.89,0,0,0-2.29,1,5.09,5.09,0,0,0-1.11,2.76h6.54v-.26a4.25,4.25,0,0,0-.92-2.61,2.87,2.87,0,0,0-2.22-.89Z"/><path d="M264,943.56v3.72h2.71v2.55H264v8.55a1.87,1.87,0,0,0,.35,1.27,1.6,1.6,0,0,0,1.24.39,4.87,4.87,0,0,0,1.2-.15v2.67a9.14,9.14,0,0,1-2.27.32q-4,0-4-4.37v-8.68H258v-2.55h2.52v-3.72Z"/><path d="M273.17,959.81h8.16v2.75H268.9v-2.25l7.77-10.3H269v-2.77h12v2.18Z"/><path d="M291,962.84a7.12,7.12,0,0,1-5.3-2.06,7.5,7.5,0,0,1-2-5.48v-.43a9.07,9.07,0,0,1,.88-4.1A6.71,6.71,0,0,1,287,948a6.54,6.54,0,0,1,3.57-1,6,6,0,0,1,4.83,2,8.43,8.43,0,0,1,1.71,5.65V956h-10a4.56,4.56,0,0,0,1.27,3,3.79,3.79,0,0,0,2.79,1.11,4.67,4.67,0,0,0,3.85-1.91l1.86,1.76a6.14,6.14,0,0,1-2.46,2.14A7.8,7.8,0,0,1,291,962.84Zm-.41-13.12a2.89,2.89,0,0,0-2.28,1,5.18,5.18,0,0,0-1.12,2.76h6.56v-.26a4.14,4.14,0,0,0-.92-2.61,2.86,2.86,0,0,0-2.24-.89Z"/><rect class="cls-1" x="74.98" y="194.06" width="350" height="310"/><path d="M224.58,341.94v13.78a6.7,6.7,0,0,1-2.11,5.2,9.21,9.21,0,0,1-11.22,0,6.72,6.72,0,0,1-2.08-5.24V341.94h3.57v13.79a4.4,4.4,0,0,0,1,3.16,4.12,4.12,0,0,0,3.08,1.09c2.76,0,4.14-1.46,4.14-4.36V341.94Z"/><path d="M233.19,341.94l5.95,15.81,5.93-15.81h4.63v20.62h-3.57v-6.8l.36-9.09-6.09,15.89h-2.57l-6.07-15.87.35,9.07v6.8h-3.56V341.94Z"/><path d="M269,344.83h-6.43v17.73H259V344.83h-6.37v-2.89H269Z"/><path d="M282.38,357.25a2.5,2.5,0,0,0-1-2.1,11.47,11.47,0,0,0-3.45-1.48,16.52,16.52,0,0,1-4-1.67,5.29,5.29,0,0,1-2.82-4.62,5,5,0,0,1,2-4.11,8.22,8.22,0,0,1,5.37-1.61,8.72,8.72,0,0,1,3.83.79,6.25,6.25,0,0,1,2.65,2.26,5.79,5.79,0,0,1,1,3.25h-3.58a3.21,3.21,0,0,0-1-2.53,4.1,4.1,0,0,0-2.9-.87,4.34,4.34,0,0,0-2.73.75,2.48,2.48,0,0,0-1,2.1,2.26,2.26,0,0,0,1.05,1.89,12.38,12.38,0,0,0,3.45,1.47,15.89,15.89,0,0,1,3.87,1.63,6.2,6.2,0,0,1,2.14,2.09,5.47,5.47,0,0,1,.68,2.77,4.91,4.91,0,0,1-2,4.1,8.53,8.53,0,0,1-5.36,1.52,10,10,0,0,1-4.11-.82,7.06,7.06,0,0,1-2.92-2.29,5.65,5.65,0,0,1-1-3.4h3.58a3.3,3.3,0,0,0,1.17,2.72,5.06,5.06,0,0,0,3.32,1,4.37,4.37,0,0,0,2.81-.76A2.43,2.43,0,0,0,282.38,357.25Z"/><rect class="cls-2" x="721.98" y="345.06" width="60" height="60"/><rect class="cls-2" x="781.98" y="345.06" width="60" height="60"/><rect class="cls-2" x="841.98" y="345.06" width="60" height="60"/><rect class="cls-2" x="901.98" y="345.06" width="60" height="60"/><rect class="cls-2" x="901.98" y="405.06" width="60" height="60"/><rect class="cls-2" x="961.98" y="345.06" width="60" height="60"/><rect class="cls-2" x="1021.98" y="345.06" width="60" height="60"/><rect class="cls-2" x="1081.98" y="345.06" width="60" height="60"/><rect class="cls-2" x="1141.98" y="345.06" width="60" height="60"/><rect class="cls-2" x="1201.98" y="345.06" width="60" height="60"/><rect class="cls-2" x="1261.98" y="345.06" width="60" height="60"/><rect class="cls-2" x="1321.98" y="345.06" width="60" height="60"/><rect class="cls-2" x="1381.98" y="345.06" width="60" height="60"/><rect class="cls-2" x="1441.98" y="345.06" width="60" height="60"/><rect class="cls-2" x="1501.98" y="345.06" width="60" height="60"/><rect class="cls-2" x="1561.98" y="345.06" width="60" height="60"/><rect class="cls-2" x="1621.98" y="345.06" width="60" height="60"/><rect class="cls-2" x="1681.98" y="345.06" width="60" height="60"/><rect class="cls-2" x="1741.98" y="345.06" width="60" height="60"/><rect class="cls-2" x="1801.98" y="345.06" width="60" height="60"/><rect class="cls-2" x="1861.98" y="345.06" width="60" height="60"/><rect class="cls-2" x="1921.98" y="345.06" width="60" height="60"/><rect class="cls-2" x="1981.98" y="345.06" width="60" height="60"/><rect class="cls-2" x="2041.98" y="345.06" width="60" height="60"/><rect class="cls-2" x="2101.98" y="345.06" width="60" height="60"/><rect class="cls-2" x="721.98" y="405.06" width="60" height="60"/><rect class="cls-2" x="781.98" y="405.06" width="60" height="60"/><rect class="cls-2" x="961.98" y="405.06" width="60" height="60"/><rect class="cls-2" x="1021.98" y="405.06" width="60" height="60"/><rect class="cls-2" x="1081.98" y="405.06" width="60" height="60"/><rect class="cls-2" x="1141.98" y="405.06" width="60" height="60"/><rect class="cls-2" x="1201.98" y="405.06" width="60" height="60"/><rect class="cls-2" x="1261.98" y="405.06" width="60" height="60"/><rect class="cls-2" x="1321.98" y="405.06" width="60" height="60"/><rect class="cls-2" x="1381.98" y="405.06" width="60" height="60"/><rect class="cls-2" x="1441.98" y="405.06" width="60" height="60"/><rect class="cls-2" x="1501.98" y="405.06" width="60" height="60"/><rect class="cls-2" x="1561.98" y="405.06" width="60" height="60"/><rect class="cls-2" x="1621.98" y="405.06" width="60" height="60"/><rect class="cls-2" x="1681.98" y="405.06" width="60" height="60"/><rect class="cls-2" x="1741.98" y="405.06" width="60" height="60"/><rect class="cls-2" x="1801.98" y="405.06" width="60" height="60"/><rect class="cls-2" x="1861.98" y="405.06" width="60" height="60"/><rect class="cls-2" x="1921.98" y="405.06" width="60" height="60"/><rect class="cls-2" x="1981.98" y="405.06" width="60" height="60"/><rect class="cls-2" x="2041.98" y="405.06" width="60" height="60"/><rect class="cls-2" x="2101.98" y="405.06" width="60" height="60"/><rect class="cls-2" x="721.98" y="465.06" width="60" height="60"/><rect class="cls-2" x="781.98" y="465.06" width="60" height="60"/><rect class="cls-2" x="841.98" y="465.06" width="60" height="60"/><rect class="cls-2" x="901.98" y="465.06" width="60" height="60"/><rect class="cls-2" x="961.98" y="465.06" width="60" height="60"/><rect class="cls-2" x="1021.98" y="465.06" width="60" height="60"/><rect class="cls-2" x="1081.98" y="465.06" width="60" height="60"/><rect class="cls-2" x="1141.98" y="465.06" width="60" height="60"/><rect class="cls-2" x="1201.98" y="465.06" width="60" height="60"/><rect class="cls-2" x="1261.98" y="465.06" width="60" height="60"/><rect class="cls-2" x="1321.98" y="465.06" width="60" height="60"/><rect class="cls-2" x="1381.98" y="465.06" width="60" height="60"/><rect class="cls-2" x="1441.98" y="465.06" width="60" height="60"/><rect class="cls-2" x="1501.98" y="465.06" width="60" height="60"/><rect class="cls-2" x="1561.98" y="465.06" width="60" height="60"/><rect class="cls-2" x="1621.98" y="465.06" width="60" height="60"/><rect class="cls-2" x="1681.98" y="465.06" width="60" height="60"/><rect class="cls-2" x="1741.98" y="465.06" width="60" height="60"/><rect class="cls-2" x="1801.98" y="465.06" width="60" height="60"/><rect class="cls-2" x="1861.98" y="465.06" width="60" height="60"/><rect class="cls-2" x="1921.98" y="465.06" width="60" height="60"/><rect class="cls-2" x="1981.98" y="465.06" width="60" height="60"/><rect class="cls-2" x="2041.98" y="465.06" width="60" height="60"/><rect class="cls-2" x="2101.98" y="465.06" width="60" height="60"/><rect class="cls-2" x="721.98" y="525.06" width="60" height="60"/><rect class="cls-2" x="781.98" y="525.06" width="60" height="60"/><rect class="cls-2" x="841.98" y="525.06" width="60" height="60"/><rect class="cls-2" x="901.98" y="525.06" width="60" height="60"/><rect class="cls-2" x="961.98" y="525.06" width="60" height="60"/><rect class="cls-2" x="1021.98" y="525.06" width="60" height="60"/><rect class="cls-2" x="1081.98" y="525.06" width="60" height="60"/><rect class="cls-2" x="1141.98" y="525.06" width="60" height="60"/><rect class="cls-2" x="1201.98" y="525.06" width="60" height="60"/><rect class="cls-2" x="1261.98" y="525.06" width="60" height="60"/><rect class="cls-2" x="1321.98" y="525.06" width="60" height="60"/><rect class="cls-2" x="1381.98" y="525.06" width="60" height="60"/><rect class="cls-2" x="1441.98" y="525.06" width="60" height="60"/><rect class="cls-2" x="1501.98" y="525.06" width="60" height="60"/><rect class="cls-2" x="1561.98" y="525.06" width="60" height="60"/><rect class="cls-2" x="1621.98" y="525.06" width="60" height="60"/><rect class="cls-2" x="1681.98" y="525.06" width="60" height="60"/><rect class="cls-2" x="1741.98" y="525.06" width="60" height="60"/><rect class="cls-2" x="1801.98" y="525.06" width="60" height="60"/><rect class="cls-2" x="1861.98" y="525.06" width="60" height="60"/><rect class="cls-2" x="1921.98" y="525.06" width="60" height="60"/><rect class="cls-2" x="1981.98" y="525.06" width="60" height="60"/><rect class="cls-2" x="2041.98" y="525.06" width="60" height="60"/><rect class="cls-2" x="2101.98" y="525.06" width="60" height="60"/><rect class="cls-2" x="721.98" y="585.06" width="60" height="60"/><rect class="cls-2" x="781.98" y="585.06" width="60" height="60"/><rect class="cls-2" x="841.98" y="585.06" width="60" height="60"/><rect class="cls-2" x="901.98" y="585.06" width="60" height="60"/><rect class="cls-2" x="961.98" y="585.06" width="60" height="60"/><rect class="cls-2" x="1081.98" y="585.06" width="60" height="60"/><rect class="cls-2" x="1141.98" y="585.06" width="60" height="60"/><rect class="cls-2" x="1201.98" y="585.06" width="60" height="60"/><rect class="cls-2" x="1261.98" y="585.06" width="60" height="60"/><rect class="cls-2" x="1321.98" y="585.06" width="60" height="60"/><rect class="cls-2" x="1381.98" y="585.06" width="60" height="60"/><rect class="cls-2" x="1441.98" y="585.06" width="60" height="60"/><rect class="cls-2" x="1501.98" y="585.06" width="60" height="60"/><rect class="cls-2" x="1561.98" y="585.06" width="60" height="60"/><rect class="cls-2" x="1621.98" y="585.06" width="60" height="60"/><rect class="cls-2" x="1681.98" y="585.06" width="60" height="60"/><rect class="cls-2" x="1741.98" y="585.06" width="60" height="60"/><rect class="cls-2" x="1801.98" y="585.06" width="60" height="60"/><rect class="cls-2" x="1861.98" y="585.06" width="60" height="60"/><rect class="cls-2" x="1921.98" y="585.06" width="60" height="60"/><rect class="cls-2" x="1981.98" y="585.06" width="60" height="60"/><rect class="cls-2" x="2041.98" y="585.06" width="60" height="60"/><rect class="cls-2" x="2101.98" y="585.06" width="60" height="60"/><rect class="cls-2" x="721.98" y="645.06" width="60" height="60"/><rect class="cls-2" x="781.98" y="645.06" width="60" height="60"/><rect class="cls-2" x="841.98" y="645.06" width="60" height="60"/><rect class="cls-2" x="901.98" y="645.06" width="60" height="60"/><rect class="cls-2" x="961.98" y="645.06" width="60" height="60"/><rect class="cls-2" x="1021.98" y="645.06" width="60" height="60"/><rect class="cls-2" x="1081.98" y="645.06" width="60" height="60"/><rect class="cls-2" x="1141.98" y="645.06" width="60" height="60"/><rect class="cls-2" x="1201.98" y="645.06" width="60" height="60"/><rect class="cls-2" x="1261.98" y="645.06" width="60" height="60"/><rect class="cls-2" x="1321.98" y="645.06" width="60" height="60"/><rect class="cls-2" x="1381.98" y="645.06" width="60" height="60"/><rect class="cls-2" x="1441.98" y="645.06" width="60" height="60"/><rect class="cls-2" x="1501.98" y="645.06" width="60" height="60"/><rect class="cls-2" x="1561.98" y="645.06" width="60" height="60"/><rect class="cls-2" x="1621.98" y="645.06" width="60" height="60"/><rect class="cls-2" x="1681.98" y="645.06" width="60" height="60"/><rect class="cls-2" x="1741.98" y="645.06" width="60" height="60"/><rect class="cls-2" x="1801.98" y="645.06" width="60" height="60"/><rect class="cls-2" x="1861.98" y="645.06" width="60" height="60"/><rect class="cls-2" x="1921.98" y="645.06" width="60" height="60"/><rect class="cls-2" x="1981.98" y="645.06" width="60" height="60"/><rect class="cls-2" x="2041.98" y="645.06" width="60" height="60"/><rect class="cls-2" x="2101.98" y="645.06" width="60" height="60"/><rect class="cls-2" x="721.98" y="705.06" width="60" height="60"/><rect class="cls-2" x="781.98" y="705.06" width="60" height="60"/><rect class="cls-2" x="841.98" y="705.06" width="60" height="60"/><rect class="cls-2" x="901.98" y="705.06" width="60" height="60"/><rect class="cls-2" x="961.98" y="705.06" width="60" height="60"/><rect class="cls-2" x="1021.98" y="705.06" width="60" height="60"/><rect class="cls-2" x="1081.98" y="705.06" width="60" height="60"/><rect class="cls-2" x="1141.98" y="705.06" width="60" height="60"/><rect class="cls-2" x="1201.98" y="705.06" width="60" height="60"/><rect class="cls-2" x="1261.98" y="705.06" width="60" height="60"/><rect class="cls-2" x="1321.98" y="705.06" width="60" height="60"/><rect class="cls-2" x="1381.98" y="705.06" width="60" height="60"/><rect class="cls-2" x="1441.98" y="705.06" width="60" height="60"/><rect class="cls-2" x="1501.98" y="705.06" width="60" height="60"/><rect class="cls-2" x="1561.98" y="705.06" width="60" height="60"/><rect class="cls-2" x="1621.98" y="705.06" width="60" height="60"/><rect class="cls-2" x="1681.98" y="705.06" width="60" height="60"/><rect class="cls-2" x="1741.98" y="705.06" width="60" height="60"/><rect class="cls-2" x="1801.98" y="705.06" width="60" height="60"/><rect class="cls-2" x="1861.98" y="705.06" width="60" height="60"/><rect class="cls-2" x="1921.98" y="705.06" width="60" height="60"/><rect class="cls-2" x="1981.98" y="705.06" width="60" height="60"/><rect class="cls-2" x="2041.98" y="705.06" width="60" height="60"/><rect class="cls-2" x="2101.98" y="705.06" width="60" height="60"/><rect class="cls-2" x="721.98" y="765.06" width="60" height="60"/><rect class="cls-2" x="781.98" y="765.06" width="60" height="60"/><rect class="cls-2" x="841.98" y="765.06" width="60" height="60"/><rect class="cls-2" x="901.98" y="765.06" width="60" height="60"/><rect class="cls-2" x="961.98" y="765.06" width="60" height="60"/><rect class="cls-2" x="1021.98" y="765.06" width="60" height="60"/><rect class="cls-2" x="1081.98" y="765.06" width="60" height="60"/><rect class="cls-2" x="1141.98" y="765.06" width="60" height="60"/><rect class="cls-2" x="1201.98" y="765.06" width="60" height="60"/><rect class="cls-2" x="1261.98" y="765.06" width="60" height="60"/><rect class="cls-2" x="1321.98" y="765.06" width="60" height="60"/><rect class="cls-2" x="1381.98" y="765.06" width="60" height="60"/><rect class="cls-2" x="1441.98" y="765.06" width="60" height="60"/><rect class="cls-2" x="1501.98" y="765.06" width="60" height="60"/><rect class="cls-2" x="1561.98" y="765.06" width="60" height="60"/><rect class="cls-2" x="1621.98" y="765.06" width="60" height="60"/><rect class="cls-2" x="1681.98" y="765.06" width="60" height="60"/><rect class="cls-2" x="1741.98" y="765.06" width="60" height="60"/><rect class="cls-2" x="1801.98" y="765.06" width="60" height="60"/><rect class="cls-2" x="1861.98" y="765.06" width="60" height="60"/><rect class="cls-2" x="1921.98" y="765.06" width="60" height="60"/><rect class="cls-2" x="1981.98" y="765.06" width="60" height="60"/><rect class="cls-2" x="2041.98" y="765.06" width="60" height="60"/><rect class="cls-2" x="2101.98" y="765.06" width="60" height="60"/><rect class="cls-2" x="721.98" y="825.06" width="60" height="60"/><rect class="cls-2" x="781.98" y="825.06" width="60" height="60"/><rect class="cls-2" x="841.98" y="825.06" width="60" height="60"/><rect class="cls-2" x="901.98" y="825.06" width="60" height="60"/><rect class="cls-2" x="961.98" y="825.06" width="60" height="60"/><rect class="cls-2" x="1021.98" y="825.06" width="60" height="60"/><rect class="cls-2" x="1081.98" y="825.06" width="60" height="60"/><rect class="cls-2" x="1141.98" y="825.06" width="60" height="60"/><rect class="cls-2" x="1201.98" y="825.06" width="60" height="60"/><rect class="cls-2" x="1261.98" y="825.06" width="60" height="60"/><rect class="cls-2" x="1321.98" y="825.06" width="60" height="60"/><rect class="cls-2" x="1381.98" y="825.06" width="60" height="60"/><rect class="cls-2" x="1441.98" y="825.06" width="60" height="60"/><rect class="cls-2" x="1501.98" y="825.06" width="60" height="60"/><rect class="cls-2" x="1561.98" y="825.06" width="60" height="60"/><rect class="cls-2" x="1621.98" y="825.06" width="60" height="60"/><rect class="cls-2" x="1681.98" y="825.06" width="60" height="60"/><rect class="cls-2" x="1741.98" y="825.06" width="60" height="60"/><rect class="cls-2" x="1801.98" y="825.06" width="60" height="60"/><rect class="cls-2" x="1861.98" y="825.06" width="60" height="60"/><rect class="cls-2" x="1921.98" y="825.06" width="60" height="60"/><rect class="cls-2" x="2041.98" y="825.06" width="60" height="60"/><rect class="cls-2" x="2101.98" y="825.06" width="60" height="60"/><rect class="cls-2" x="721.98" y="885.06" width="60" height="60"/><rect class="cls-2" x="781.98" y="885.06" width="60" height="60"/><rect class="cls-2" x="841.98" y="885.06" width="60" height="60"/><rect class="cls-2" x="901.98" y="885.06" width="60" height="60"/><rect class="cls-2" x="961.98" y="885.06" width="60" height="60"/><rect class="cls-2" x="1021.98" y="885.06" width="60" height="60"/><rect class="cls-2" x="1081.98" y="885.06" width="60" height="60"/><rect class="cls-2" x="1141.98" y="885.06" width="60" height="60"/><rect class="cls-2" x="1201.98" y="885.06" width="60" height="60"/><rect class="cls-2" x="1261.98" y="885.06" width="60" height="60"/><rect class="cls-2" x="1321.98" y="885.06" width="60" height="60"/><rect class="cls-2" x="1381.98" y="885.06" width="60" height="60"/><rect class="cls-2" x="1441.98" y="885.06" width="60" height="60"/><rect class="cls-2" x="1501.98" y="885.06" width="60" height="60"/><rect class="cls-2" x="1561.98" y="885.06" width="60" height="60"/><rect class="cls-2" x="1621.98" y="885.06" width="60" height="60"/><rect class="cls-2" x="1681.98" y="885.06" width="60" height="60"/><rect class="cls-2" x="1741.98" y="885.06" width="60" height="60"/><rect class="cls-2" x="1801.98" y="885.06" width="60" height="60"/><rect class="cls-2" x="1861.98" y="885.06" width="60" height="60"/><rect class="cls-2" x="1921.98" y="885.06" width="60" height="60"/><rect class="cls-2" x="1981.98" y="885.06" width="60" height="60"/><rect class="cls-2" x="2041.98" y="885.06" width="60" height="60"/><rect class="cls-2" x="2101.98" y="885.06" width="60" height="60"/><rect class="cls-3" x="1143.98" y="21.06" width="340" height="130"/><path d="M1194.77,91H1190v9.57h-4.32V75.68h8.75q4.3,0,6.64,1.93a6.84,6.84,0,0,1,2.35,5.59,7.1,7.1,0,0,1-1.21,4.19A7.72,7.72,0,0,1,1198.8,90l5.59,10.36v.22h-4.63ZM1190,87.5h4.44a4.93,4.93,0,0,0,3.42-1.1,3.86,3.86,0,0,0,1.23-3,4.12,4.12,0,0,0-1.13-3.09,4.85,4.85,0,0,0-3.4-1.13H1190Z"/><path d="M1218.29,100.56a6.55,6.55,0,0,1-.48-1.73,7,7,0,0,1-9.4.48,5.12,5.12,0,0,1-1.76-3.93,5.25,5.25,0,0,1,2.2-4.54,10.6,10.6,0,0,1,6.28-1.58h2.54V88.05a3.23,3.23,0,0,0-.8-2.3,3.19,3.19,0,0,0-2.44-.86,3.72,3.72,0,0,0-2.33.71,2.18,2.18,0,0,0-.9,1.8H1207a4.65,4.65,0,0,1,1-2.84,6.63,6.63,0,0,1,2.75-2.08,9.5,9.5,0,0,1,3.87-.75,7.73,7.73,0,0,1,5.17,1.63,5.84,5.84,0,0,1,2,4.59v8.34a9.45,9.45,0,0,0,.7,4v.27Zm-4.56-3A4.79,4.79,0,0,0,1216,97a3.89,3.89,0,0,0,1.63-1.61V91.88h-2.19a6.18,6.18,0,0,0-3.47.8,2.61,2.61,0,0,0-1.17,2.27,2.44,2.44,0,0,0,.8,1.91A3.11,3.11,0,0,0,1213.73,97.56Z"/><path d="M1230.48,84.09a6.5,6.5,0,0,1,5.15-2.36q5.91,0,6,6.75v12.08h-4.15V88.63a3.69,3.69,0,0,0-.82-2.71,3.4,3.4,0,0,0-2.44-.79,4,4,0,0,0-3.73,2.22v13.21h-4.15V74.31h4.14Z"/><path d="M1249.86,82.07,1250,84a6.64,6.64,0,0,1,5.33-2.27q3.72,0,5.08,2.83a6.53,6.53,0,0,1,5.67-2.83,5.76,5.76,0,0,1,4.56,1.69,7.55,7.55,0,0,1,1.53,5v12.14H1268v-12a3.67,3.67,0,0,0-.76-2.58,3.38,3.38,0,0,0-2.55-.82,3.42,3.42,0,0,0-2.32.76,4,4,0,0,0-1.25,2v12.64H1257V88.39c-.06-2.18-1.17-3.26-3.33-3.26a3.66,3.66,0,0,0-3.54,2v13.43h-4.15V82.07Z"/><path d="M1284.73,100.9a8.62,8.62,0,0,1-6.4-2.48,9,9,0,0,1-2.45-6.63v-.51a10.94,10.94,0,0,1,1.07-5,8.13,8.13,0,0,1,3-3.39,7.92,7.92,0,0,1,4.31-1.21,7.28,7.28,0,0,1,5.84,2.41c1.37,1.6,2.06,3.88,2.06,6.82v1.67h-12.09a5.57,5.57,0,0,0,1.53,3.62,4.63,4.63,0,0,0,3.38,1.34,5.65,5.65,0,0,0,4.65-2.31l2.24,2.14a7.54,7.54,0,0,1-3,2.57A9.45,9.45,0,0,1,1284.73,100.9Zm-.5-15.84a3.45,3.45,0,0,0-2.75,1.2,6.17,6.17,0,0,0-1.35,3.33h7.92v-.31a5.14,5.14,0,0,0-1.11-3.15A3.46,3.46,0,0,0,1284.23,85.06Z"/><path d="M1299.4,82.07l.12,2.13a6.63,6.63,0,0,1,5.38-2.47q5.77,0,5.88,6.61v12.22h-4.15v-12a3.87,3.87,0,0,0-.76-2.61,3.21,3.21,0,0,0-2.49-.84,4,4,0,0,0-3.74,2.27v13.18h-4.16V82.07Z"/><path d="M1324.13,90.44a26.33,26.33,0,0,1,1.06-7.49,20.8,20.8,0,0,1,3.11-6.34,12.31,12.31,0,0,1,4.35-3.92l.82,2.42a12.68,12.68,0,0,0-3.91,5.58,24.71,24.71,0,0,0-1.63,8.59v1.47a27.13,27.13,0,0,0,1.46,9.24,13.69,13.69,0,0,0,4.1,6.18l-.82,2.3a12.28,12.28,0,0,1-4.35-3.94,20.35,20.35,0,0,1-3.11-6.34A26.77,26.77,0,0,1,1324.13,90.44Z"/><path d="M1347.48,100.56h-4.13v-20l-6.11,2.08V79.16l9.71-3.57h.53Z"/><path d="M1372.48,90.08q0,5.37-2,8.1a8.25,8.25,0,0,1-11.65.59c-.19-.17-.37-.35-.54-.53q-2-2.67-2.09-7.87v-4.3c0-3.58.67-6.27,2-8s3.38-2.68,6.13-2.68a7.21,7.21,0,0,1,6.09,2.61q2,2.61,2.06,7.83Zm-4.15-4.64a10.59,10.59,0,0,0-1-5.14,3.65,3.65,0,0,0-5.08-1,3.54,3.54,0,0,0-.92.89,9.84,9.84,0,0,0-1,4.83v5.64a10.85,10.85,0,0,0,1,5.2,3.57,3.57,0,0,0,6,.13,10.18,10.18,0,0,0,1-5Z"/><path d="M1389.38,82.07l.12,1.93a6.64,6.64,0,0,1,5.33-2.27q3.72,0,5.08,2.83a6.53,6.53,0,0,1,5.67-2.83,5.76,5.76,0,0,1,4.56,1.69,7.42,7.42,0,0,1,1.53,5v12.14h-4.19v-12a3.68,3.68,0,0,0-.77-2.58,3.38,3.38,0,0,0-2.55-.82,3.42,3.42,0,0,0-2.32.76,4,4,0,0,0-1.25,2V100.6h-4.11V88.39c0-2.17-1.17-3.26-3.33-3.26a3.66,3.66,0,0,0-3.54,2v13.43h-4.13V82.07Z"/><path d="M1426.48,95.56a1.9,1.9,0,0,0-.91-1.7,9.65,9.65,0,0,0-3-1,15.63,15.63,0,0,1-3.53-1.13c-2.08-1-3.11-2.45-3.11-4.36a4.93,4.93,0,0,1,2-4,8,8,0,0,1,5.13-1.6,8.2,8.2,0,0,1,5.36,1.64,5.2,5.2,0,0,1,2,4.25h-4.15a2.58,2.58,0,0,0-.89-2,3.38,3.38,0,0,0-2.36-.79,3.63,3.63,0,0,0-2.23.63,2,2,0,0,0-.86,1.69,1.68,1.68,0,0,0,.8,1.49,11.28,11.28,0,0,0,3.25,1.07,14.89,14.89,0,0,1,3.83,1.28,5.39,5.39,0,0,1,2.07,1.78,4.61,4.61,0,0,1,.68,2.53,4.81,4.81,0,0,1-2.07,4,8.79,8.79,0,0,1-5.42,1.55,9.49,9.49,0,0,1-4-.82,6.76,6.76,0,0,1-2.77-2.25,5.33,5.33,0,0,1-1-3.1h4a3,3,0,0,0,1.11,2.27,4.32,4.32,0,0,0,2.72.79,4.23,4.23,0,0,0,2.5-.62A1.94,1.94,0,0,0,1426.48,95.56Z"/><path d="M1442.35,90.72a25.91,25.91,0,0,1-1,7.32,21.17,21.17,0,0,1-3.16,6.43,12.42,12.42,0,0,1-4.43,4l-.82-2.3a13.28,13.28,0,0,0,4.06-6.06,27,27,0,0,0,1.5-9.31v-.39a27.64,27.64,0,0,0-1.3-8.66,15.22,15.22,0,0,0-3.73-6.26l-.53-.48.82-2.32a12.16,12.16,0,0,1,4.24,3.76,20.39,20.39,0,0,1,3.15,6,26,26,0,0,1,1.23,6.89Z"/><rect class="cls-4" x="803.98" y="21.06" width="340" height="130"/><rect class="cls-4" x="1820.98" y="21.06" width="340" height="130"/><rect class="cls-4" x="1480.98" y="21.06" width="340" height="130"/><path class="cls-5" d="M2162,266.06l-686-110"/><path class="cls-5" d="M722,266.06l424-112"/><rect class="cls-6" x="721.98" y="525.06" width="120" height="60"/><path d="M734.19,560.31V545.38h4.41a5.69,5.69,0,0,1,3.64,1,3.53,3.53,0,0,1,1.24,2.92,3.33,3.33,0,0,1-.63,2,3.39,3.39,0,0,1-1.73,1.22,3.51,3.51,0,0,1,2.09,1.28,3.62,3.62,0,0,1,.8,2.3,3.9,3.9,0,0,1-1.28,3.09,5.23,5.23,0,0,1-3.55,1.11Zm1.26-8.23h3.44a3.85,3.85,0,0,0,2.45-.75,2.54,2.54,0,0,0,.87-2.08,2.5,2.5,0,0,0-.9-2.12,4.41,4.41,0,0,0-2.71-.68h-3.12Zm0,1.06v6.1h3.78a3.79,3.79,0,0,0,2.57-.82,2.91,2.91,0,0,0,1-2.29,2.73,2.73,0,0,0-.91-2.18,3.58,3.58,0,0,0-2.51-.81Z"/><path d="M751.17,560.56a4.91,4.91,0,0,1-2.56-.7,4.84,4.84,0,0,1-1.78-2,6,6,0,0,1-.63-2.79v-.44a6.36,6.36,0,0,1,.62-2.88,4.9,4.9,0,0,1,1.72-2,4.27,4.27,0,0,1,2.4-.73,4,4,0,0,1,3.21,1.38,5.57,5.57,0,0,1,1.18,3.77v.69h-7.91v.23a4.62,4.62,0,0,0,1.08,3.14,3.45,3.45,0,0,0,2.72,1.26,4,4,0,0,0,1.74-.36,3.91,3.91,0,0,0,1.37-1.15l.77.59A4.49,4.49,0,0,1,751.17,560.56Zm-.23-10.46a3,3,0,0,0-2.33,1,4.69,4.69,0,0,0-1.15,2.73h6.65v-.13a4.07,4.07,0,0,0-.91-2.61,2.8,2.8,0,0,0-2.26-1Z"/><path d="M759,549.22v1.89a4.24,4.24,0,0,1,1.56-1.56,4,4,0,0,1,2.06-.54,3.29,3.29,0,0,1,2.65,1,4.54,4.54,0,0,1,.88,3v7.28h-1.22V553a3.33,3.33,0,0,0-.63-2.22,2.46,2.46,0,0,0-2-.72,3,3,0,0,0-2,.71,4.15,4.15,0,0,0-1.29,1.92v7.6h-1.22V549.22Z"/><path d="M776.6,558.91a4,4,0,0,1-3.53,1.61,3.44,3.44,0,0,1-2.7-1,4.45,4.45,0,0,1-.94-3v-7.21h1.22v7.06c0,2.11.85,3.17,2.56,3.17a3.15,3.15,0,0,0,3.37-2.21v-8h1.23v11.09h-1.19Z"/><path d="M783,546.37v2.85h2.29v1H783v7.4a2.32,2.32,0,0,0,.33,1.38,1.3,1.3,0,0,0,1.11.45c.33,0,.67-.05,1-.1v1a4.21,4.21,0,0,1-1.32.18,2.19,2.19,0,0,1-1.83-.74,3.46,3.46,0,0,1-.58-2.16v-7.4h-2v-1h2v-2.85Z"/><path d="M788.77,559.27H796v1h-8.73v-.9l6.73-9.13h-6.5v-1.06h8.07v.92Z"/><path d="M802.57,560.56a4.87,4.87,0,0,1-2.55-.7,4.65,4.65,0,0,1-1.78-2,5.89,5.89,0,0,1-.64-2.79v-.44a6.5,6.5,0,0,1,.62-2.88,4.86,4.86,0,0,1,1.73-2,4.27,4.27,0,0,1,2.4-.73,4,4,0,0,1,3.2,1.38,5.63,5.63,0,0,1,1.19,3.77v.69h-7.92v.23a4.62,4.62,0,0,0,1.08,3.14,3.46,3.46,0,0,0,2.73,1.26,4,4,0,0,0,1.73-.36,3.81,3.81,0,0,0,1.37-1.15l.77.59A4.49,4.49,0,0,1,802.57,560.56Zm-.22-10.46a3,3,0,0,0-2.33,1,4.7,4.7,0,0,0-1.16,2.73h6.62v-.13a4.06,4.06,0,0,0-.92-2.61,2.82,2.82,0,0,0-2.21-1Z"/><path d="M814.36,550.26a4.57,4.57,0,0,0-.83-.07,3,3,0,0,0-1.95.64,3.53,3.53,0,0,0-1.13,1.86v7.62h-1.22V549.22h1.25V551a3.27,3.27,0,0,1,3.13-2,2.06,2.06,0,0,1,.81.13Z"/><path d="M830,556.12h-6.78l-1.54,4.19h-1.32L826,545.38h1.2l5.65,14.93h-1.34Zm-6.39-1.07h6l-3-8.13Z"/><rect class="cls-6" x="961.98" y="585.06" width="120" height="60"/><path d="M973.92,622.81V607.88h4.41a5.69,5.69,0,0,1,3.64,1,3.5,3.5,0,0,1,1.24,2.92,3.33,3.33,0,0,1-.63,2,3.39,3.39,0,0,1-1.73,1.22,3.6,3.6,0,0,1,2.89,3.58,3.89,3.89,0,0,1-1.27,3.09,5.31,5.31,0,0,1-3.56,1.11Zm1.26-8.25h3.45a3.9,3.9,0,0,0,2.44-.75,2.54,2.54,0,0,0,.87-2.08,2.5,2.5,0,0,0-.9-2.12,4.41,4.41,0,0,0-2.71-.68h-3.15Zm0,1.06v6.1H979a3.79,3.79,0,0,0,2.57-.82,2.85,2.85,0,0,0,1-2.29,2.73,2.73,0,0,0-.91-2.18,3.61,3.61,0,0,0-2.5-.81Z"/><path d="M990.9,623a5,5,0,0,1-2.56-.7,4.84,4.84,0,0,1-1.78-2,6,6,0,0,1-.63-2.79v-.44a6.5,6.5,0,0,1,.62-2.88,4.86,4.86,0,0,1,1.73-2,4.27,4.27,0,0,1,2.4-.73,4,4,0,0,1,3.2,1.38,5.63,5.63,0,0,1,1.19,3.77v.69h-7.92v.24a4.62,4.62,0,0,0,1.08,3.14A3.45,3.45,0,0,0,991,622a4,4,0,0,0,1.74-.36,3.91,3.91,0,0,0,1.37-1.15l.77.59A4.51,4.51,0,0,1,990.9,623Zm-.22-10.46a3.06,3.06,0,0,0-2.34,1,4.69,4.69,0,0,0-1.15,2.73h6.66v-.13a4.06,4.06,0,0,0-.92-2.61A2.82,2.82,0,0,0,990.68,612.56Z"/><path d="M998.73,611.72v1.89a4.48,4.48,0,0,1,1.56-1.56,4,4,0,0,1,2.06-.54,3.36,3.36,0,0,1,2.66,1,4.54,4.54,0,0,1,.88,3v7.28h-1.22v-7.23a3.44,3.44,0,0,0-.63-2.22,2.49,2.49,0,0,0-2-.72,3,3,0,0,0-2,.71,4.1,4.1,0,0,0-1.3,1.92v7.6h-1.22V611.72Z"/><path d="M1016.34,621.41a4,4,0,0,1-3.54,1.61,3.48,3.48,0,0,1-2.7-1,4.52,4.52,0,0,1-.94-3v-7.21h1.22v7.06c0,2.11.85,3.17,2.56,3.17a3.15,3.15,0,0,0,3.38-2.21v-8h1.23v11.09h-1.19Z"/><path d="M1022.75,608.87v2.85h2.3v1h-2.3v7.4a2.32,2.32,0,0,0,.33,1.38,1.3,1.3,0,0,0,1.11.45c.33,0,.67-.05,1-.1v1a4.15,4.15,0,0,1-1.31.18,2.21,2.21,0,0,1-1.84-.74,3.52,3.52,0,0,1-.57-2.16v-7.4h-2v-1h2v-2.85Z"/><path d="M1028.48,621.77h7.21v1H1027v-.9l6.72-9.13h-6.52v-1.06h8.07v.92Z"/><path d="M1042.31,623a4.91,4.91,0,0,1-2.56-.7,4.78,4.78,0,0,1-1.78-2,6.14,6.14,0,0,1-.64-2.79v-.44a6.5,6.5,0,0,1,.62-2.88,5,5,0,0,1,1.73-2,4.27,4.27,0,0,1,2.4-.73,4,4,0,0,1,3.21,1.38,5.61,5.61,0,0,1,1.19,3.8v.69h-7.92v.21a4.63,4.63,0,0,0,1.09,3.14,3.45,3.45,0,0,0,2.72,1.26,4,4,0,0,0,1.74-.36,3.91,3.91,0,0,0,1.37-1.15l.76.59A4.48,4.48,0,0,1,1042.31,623Zm-.23-10.46a3,3,0,0,0-2.33,1,4.69,4.69,0,0,0-1.15,2.73h6.65v-.13a4.07,4.07,0,0,0-.91-2.61A2.84,2.84,0,0,0,1042.08,612.56Z"/><path d="M1054.09,612.76a3.83,3.83,0,0,0-.83-.07,3,3,0,0,0-1.94.64,3.44,3.44,0,0,0-1.13,1.86v7.62H1049V611.72h1.2v1.76a3.25,3.25,0,0,1,3.12-2,2.06,2.06,0,0,1,.81.13Z"/><path d="M1061.63,622.81V607.88H1066a5.69,5.69,0,0,1,3.64,1,3.5,3.5,0,0,1,1.24,2.92,3.29,3.29,0,0,1-2.36,3.24,3.62,3.62,0,0,1,2.9,3.58,3.9,3.9,0,0,1-1.28,3.09,5.29,5.29,0,0,1-3.55,1.11Zm1.26-8.23h3.45a3.91,3.91,0,0,0,2.45-.75,2.56,2.56,0,0,0,.86-2.08,2.5,2.5,0,0,0-.9-2.12A4.34,4.34,0,0,0,1066,609h-3.15Zm0,1.06v6.1h3.79a3.79,3.79,0,0,0,2.57-.82,2.88,2.88,0,0,0,.94-2.29,2.75,2.75,0,0,0-.9-2.18,3.58,3.58,0,0,0-2.51-.81Z"/><rect class="cls-6" x="1201.98" y="885.06" width="120" height="60"/><path d="M1213.53,922.81V907.88h4.41a5.69,5.69,0,0,1,3.64,1,3.48,3.48,0,0,1,1.24,2.92,3.33,3.33,0,0,1-.63,2,3.42,3.42,0,0,1-1.72,1.22,3.63,3.63,0,0,1,2.89,3.58,3.9,3.9,0,0,1-1.28,3.09,5.23,5.23,0,0,1-3.55,1.11Zm1.27-8.23h3.44a3.91,3.91,0,0,0,2.45-.75,2.56,2.56,0,0,0,.86-2.08,2.52,2.52,0,0,0-.89-2.12,4.42,4.42,0,0,0-2.72-.68h-3.14Zm0,1.06v6.1h3.78a3.79,3.79,0,0,0,2.57-.82,2.91,2.91,0,0,0,.95-2.29,2.76,2.76,0,0,0-.91-2.18,3.58,3.58,0,0,0-2.51-.81Z"/><path d="M1230.48,923a4.69,4.69,0,0,1-4.34-2.7,6.14,6.14,0,0,1-.64-2.79v-.44a6.5,6.5,0,0,1,.62-2.88,5,5,0,0,1,1.73-2,4.27,4.27,0,0,1,2.4-.73,4,4,0,0,1,3.21,1.38,5.57,5.57,0,0,1,1.18,3.77v.69h-7.91v.24a4.62,4.62,0,0,0,1.08,3.14,3.45,3.45,0,0,0,2.72,1.26,4,4,0,0,0,1.74-.36,3.91,3.91,0,0,0,1.37-1.15l.76.59A4.48,4.48,0,0,1,1230.48,923Zm-.23-10.46a3,3,0,0,0-2.33,1,4.69,4.69,0,0,0-1.15,2.73h6.71v-.13a4.07,4.07,0,0,0-.91-2.61,2.85,2.85,0,0,0-2.28-1Z"/><path d="M1238.34,911.72l.05,1.89a4.29,4.29,0,0,1,1.55-1.56,4,4,0,0,1,2.06-.54,3.34,3.34,0,0,1,2.66,1,4.54,4.54,0,0,1,.88,3v7.28h-1.22v-7.23a3.44,3.44,0,0,0-.63-2.22,2.44,2.44,0,0,0-2-.72,3,3,0,0,0-2,.71,4.15,4.15,0,0,0-1.29,1.92v7.6h-1.22V911.72Z"/><path d="M1256,921.41a4,4,0,0,1-3.54,1.61,3.41,3.41,0,0,1-2.69-1,4.48,4.48,0,0,1-1-3v-7.21h1.22v7.06c0,2.11.86,3.17,2.57,3.17a3.15,3.15,0,0,0,3.37-2.21v-8h1.23v11.09h-1.19Z"/><path d="M1262.36,908.87v2.85h2.3v1h-2.3v7.4a2.24,2.24,0,0,0,.34,1.38,1.3,1.3,0,0,0,1.11.45c.33,0,.67-.05,1-.1l.06,1a4.21,4.21,0,0,1-1.32.18,2.2,2.2,0,0,1-1.83-.74,3.4,3.4,0,0,1-.58-2.16v-7.4h-2v-1h2v-2.85Z"/><path d="M1268.12,921.77h7.21v1h-8.73v-.9l6.73-9.13h-6.52v-1.06h8.07v.92Z"/><path d="M1281.92,923a5,5,0,0,1-2.56-.7,4.69,4.69,0,0,1-1.77-2,5.89,5.89,0,0,1-.64-2.79v-.44a6.5,6.5,0,0,1,.62-2.88,4.86,4.86,0,0,1,1.73-2,4.27,4.27,0,0,1,2.4-.73,4,4,0,0,1,3.2,1.38,5.63,5.63,0,0,1,1.19,3.77v.69h-7.92v.24a4.62,4.62,0,0,0,1.08,3.14A3.44,3.44,0,0,0,1282,922a4,4,0,0,0,1.74-.36,3.91,3.91,0,0,0,1.37-1.15l.77.59A4.51,4.51,0,0,1,1281.92,923Zm-.22-10.46a3.06,3.06,0,0,0-2.34,1,4.69,4.69,0,0,0-1.15,2.73h6.66v-.13a4.06,4.06,0,0,0-.92-2.61A2.82,2.82,0,0,0,1281.7,912.56Z"/><path d="M1293.71,912.76a4.57,4.57,0,0,0-.83-.07,3,3,0,0,0-2,.64,3.53,3.53,0,0,0-1.13,1.86v7.62h-1.22V911.72h1.2v1.76a3.27,3.27,0,0,1,3.13-2,2.06,2.06,0,0,1,.81.13Z"/><path d="M1311.82,918.15a5.3,5.3,0,0,1-1.69,3.61,5.56,5.56,0,0,1-3.81,1.26,5.23,5.23,0,0,1-2.93-.83,5.53,5.53,0,0,1-2-2.36,8.5,8.5,0,0,1-.71-3.48v-1.94a8.56,8.56,0,0,1,.7-3.53,5.75,5.75,0,0,1,8.79-1.91,5.45,5.45,0,0,1,1.61,3.58h-1.27c-.32-2.54-1.69-3.81-4.13-3.81a3.9,3.9,0,0,0-3.24,1.52,6.55,6.55,0,0,0-1.2,4.2v1.82a6.6,6.6,0,0,0,1.17,4.13,3.79,3.79,0,0,0,3.17,1.54,4.24,4.24,0,0,0,3-1,4.63,4.63,0,0,0,1.24-2.85Z"/><rect class="cls-6" x="1201.98" y="585.06" width="120" height="60"/><path d="M1213.48,622.81V607.88h4.41a5.69,5.69,0,0,1,3.64,1,3.48,3.48,0,0,1,1.24,2.92,3.33,3.33,0,0,1-.63,2,3.39,3.39,0,0,1-1.73,1.22,3.6,3.6,0,0,1,2.89,3.58,3.89,3.89,0,0,1-1.27,3.09,5.31,5.31,0,0,1-3.56,1.11Zm1.26-8.23h3.45a3.9,3.9,0,0,0,2.44-.75,2.54,2.54,0,0,0,.87-2.08,2.5,2.5,0,0,0-.9-2.12,4.41,4.41,0,0,0-2.71-.68h-3.15Zm0,1.06v6.1h3.74a3.79,3.79,0,0,0,2.57-.82,2.91,2.91,0,0,0,1-2.29,2.73,2.73,0,0,0-.91-2.18,3.61,3.61,0,0,0-2.5-.81Z"/><path d="M1230.48,623a5,5,0,0,1-2.56-.7,4.84,4.84,0,0,1-1.78-2,6,6,0,0,1-.66-2.76v-.44a6.36,6.36,0,0,1,.62-2.88,4.86,4.86,0,0,1,1.73-2,4.19,4.19,0,0,1,2.4-.73,4,4,0,0,1,3.2,1.38,5.57,5.57,0,0,1,1.18,3.77v.69h-7.91v.21a4.62,4.62,0,0,0,1.08,3.14,3.45,3.45,0,0,0,2.72,1.26,4,4,0,0,0,1.74-.36,3.91,3.91,0,0,0,1.37-1.15l.77.59A4.5,4.5,0,0,1,1230.48,623Zm-.22-10.46a3.06,3.06,0,0,0-2.34,1,4.69,4.69,0,0,0-1.15,2.73h6.65v-.13a4.05,4.05,0,0,0-.94-2.6,2.81,2.81,0,0,0-2.24-1Z"/><path d="M1238.29,611.72v1.89a4.48,4.48,0,0,1,1.56-1.56,4,4,0,0,1,2.06-.54,3.29,3.29,0,0,1,2.65,1,4.48,4.48,0,0,1,.89,3v7.28h-1.22v-7.23a3.44,3.44,0,0,0-.63-2.22,2.49,2.49,0,0,0-2-.72,3,3,0,0,0-2,.71,4.1,4.1,0,0,0-1.3,1.92v7.6h-1.22V611.72Z"/><path d="M1255.9,621.41a4,4,0,0,1-3.54,1.61,3.48,3.48,0,0,1-2.7-1,4.52,4.52,0,0,1-.94-3v-7.21h1.22v7.06c0,2.11.85,3.17,2.56,3.17a3.17,3.17,0,0,0,3.38-2.21v-8h1.23v11.09h-1.19Z"/><path d="M1262.31,608.87v2.85h2.29v1h-2.29v7.4a2.32,2.32,0,0,0,.33,1.38,1.3,1.3,0,0,0,1.11.45c.33,0,.67-.05,1-.1v1a4.15,4.15,0,0,1-1.31.18,2.21,2.21,0,0,1-1.84-.74,3.52,3.52,0,0,1-.57-2.16v-7.4h-2v-1h2v-2.85Z"/><path d="M1268.06,621.77h7.21v1h-8.73v-.9l6.73-9.13h-6.52v-1.06h8.07v.92Z"/><path d="M1281.87,623a4.69,4.69,0,0,1-4.34-2.7,6.14,6.14,0,0,1-.64-2.79v-.44a6.5,6.5,0,0,1,.62-2.88,5,5,0,0,1,1.73-2,4.27,4.27,0,0,1,2.4-.73,4,4,0,0,1,3.21,1.38,5.68,5.68,0,0,1,1.18,3.77v.69h-7.92v.24a4.62,4.62,0,0,0,1.08,3.14,3.46,3.46,0,0,0,2.73,1.26,4,4,0,0,0,1.74-.36,3.87,3.87,0,0,0,1.36-1.15l.77.59A4.48,4.48,0,0,1,1281.87,623Zm-.23-10.46a3,3,0,0,0-2.33,1,4.7,4.7,0,0,0-1.16,2.73h6.66v-.13a4.18,4.18,0,0,0-.91-2.61A2.84,2.84,0,0,0,1281.64,612.56Z"/><path d="M1293.65,612.76a4.57,4.57,0,0,0-.83-.07,3,3,0,0,0-1.94.64,3.51,3.51,0,0,0-1.14,1.86v7.62h-1.26V611.72h1.2v1.76a3.27,3.27,0,0,1,3.13-2,2.06,2.06,0,0,1,.81.13Z"/><path d="M1301.19,622.81V607.88h4.18a6.43,6.43,0,0,1,3.29.84,5.81,5.81,0,0,1,2.27,2.39,7.67,7.67,0,0,1,.81,3.55V616a7.67,7.67,0,0,1-.81,3.55,5.77,5.77,0,0,1-2.28,2.39,6.76,6.76,0,0,1-3.38.84Zm1.26-13.86v12.79h2.83a4.89,4.89,0,0,0,3.79-1.56,6,6,0,0,0,1.42-4.23v-1.32a5.94,5.94,0,0,0-1.4-4.12,4.76,4.76,0,0,0-3.7-1.56Z"/><rect class="cls-7" x="1921.98" y="405.06" width="120" height="60"/><path d="M1934.19,442.81V427.88h4.41a5.75,5.75,0,0,1,3.64,1,3.53,3.53,0,0,1,1.24,2.92,3.33,3.33,0,0,1-.63,2,3.39,3.39,0,0,1-1.73,1.22,3.51,3.51,0,0,1,2.09,1.28,3.62,3.62,0,0,1,.8,2.3,3.9,3.9,0,0,1-1.28,3.09,5.23,5.23,0,0,1-3.55,1.11Zm1.29-8.25h3.44a3.85,3.85,0,0,0,2.45-.75,2.53,2.53,0,0,0,.86-2.08,2.49,2.49,0,0,0-.89-2.12,4.41,4.41,0,0,0-2.71-.68h-3.15Zm0,1.06v6.1h3.78a3.79,3.79,0,0,0,2.57-.82,2.91,2.91,0,0,0,1-2.29,2.73,2.73,0,0,0-.91-2.18,3.58,3.58,0,0,0-2.51-.81Z"/><path d="M1951.17,443a4.91,4.91,0,0,1-2.56-.7,4.78,4.78,0,0,1-1.78-1.95,6,6,0,0,1-.63-2.79v-.44a6.36,6.36,0,0,1,.62-2.88,4.9,4.9,0,0,1,1.72-2,4.27,4.27,0,0,1,2.4-.73,4,4,0,0,1,3.21,1.38,5.57,5.57,0,0,1,1.18,3.77v.69h-7.91v.19a4.62,4.62,0,0,0,1.08,3.14,3.45,3.45,0,0,0,2.72,1.26,4,4,0,0,0,1.74-.36,3.91,3.91,0,0,0,1.37-1.15l.77.59A4.51,4.51,0,0,1,1951.17,443Zm-.23-10.46a3,3,0,0,0-2.33,1,4.69,4.69,0,0,0-1.15,2.73h6.65v-.13a4.07,4.07,0,0,0-.91-2.61A2.84,2.84,0,0,0,1950.94,432.56Z"/><path d="M1959,431.72v1.89a4.24,4.24,0,0,1,1.56-1.56,4,4,0,0,1,2.06-.54,3.29,3.29,0,0,1,2.65,1,4.54,4.54,0,0,1,.88,3v7.28h-1.22v-7.23a3.33,3.33,0,0,0-.63-2.22,2.44,2.44,0,0,0-2-.72,3,3,0,0,0-2,.71,4.15,4.15,0,0,0-1.29,1.92v7.6h-1.22V431.72Z"/><path d="M1976.6,441.41a4,4,0,0,1-3.53,1.61,3.44,3.44,0,0,1-2.7-1,4.42,4.42,0,0,1-.94-3v-7.21h1.22v7.06c0,2.11.85,3.17,2.56,3.17a3.15,3.15,0,0,0,3.37-2.21v-8h1.23v11.09h-1.19Z"/><path d="M1983,428.87v2.85h2.29v1H1983v7.4a2.32,2.32,0,0,0,.33,1.38,1.3,1.3,0,0,0,1.11.45c.33,0,.67-.05,1-.1v1a4.21,4.21,0,0,1-1.32.18,2.2,2.2,0,0,1-1.83-.74,3.46,3.46,0,0,1-.58-2.16v-7.4h-2v-1h2v-2.85Z"/><path d="M1988.77,441.77H1996v1h-8.73v-.9l6.73-9.13h-6.5v-1.06h8.07v.92Z"/><path d="M2002.57,443a4.87,4.87,0,0,1-2.55-.7,4.65,4.65,0,0,1-1.78-1.95,5.89,5.89,0,0,1-.64-2.79v-.44a6.5,6.5,0,0,1,.62-2.88,4.86,4.86,0,0,1,1.73-2,4.27,4.27,0,0,1,2.4-.73,4,4,0,0,1,3.2,1.38,5.63,5.63,0,0,1,1.19,3.77v.69h-7.92v.19a4.62,4.62,0,0,0,1.08,3.14,3.46,3.46,0,0,0,2.73,1.26,4,4,0,0,0,1.73-.36,3.81,3.81,0,0,0,1.37-1.15l.77.59A4.51,4.51,0,0,1,2002.57,443Zm-.22-10.46a3,3,0,0,0-2.33,1,4.7,4.7,0,0,0-1.16,2.73h6.62v-.13a4.06,4.06,0,0,0-.92-2.61A2.8,2.8,0,0,0,2002.35,432.56Z"/><path d="M2014.36,432.76a4.57,4.57,0,0,0-.83-.07,3,3,0,0,0-2,.64,3.53,3.53,0,0,0-1.13,1.86v7.62h-1.22V431.72h1.2v1.76a3.27,3.27,0,0,1,3.13-2,2.06,2.06,0,0,1,.81.13Z"/><path d="M2030,438.62h-6.78l-1.54,4.19h-1.32l5.65-14.93h1.2l5.65,14.93h-1.34Zm-6.39-1.07h6l-3-8.13Z"/><rect class="cls-7" x="1441.98" y="885.06" width="120" height="60"/><path d="M1453.19,922.81V907.88h4.41a5.69,5.69,0,0,1,3.64,1,3.48,3.48,0,0,1,1.24,2.92,3.33,3.33,0,0,1-.63,2,3.39,3.39,0,0,1-1.73,1.22,3.6,3.6,0,0,1,2.89,3.58,3.89,3.89,0,0,1-1.27,3.09,5.29,5.29,0,0,1-3.55,1.11Zm1.29-8.25h3.45a3.82,3.82,0,0,0,2.44-.75,2.54,2.54,0,0,0,.87-2.08,2.5,2.5,0,0,0-.9-2.12,4.41,4.41,0,0,0-2.71-.68h-3.15Zm0,1.06v6.1h3.79a3.77,3.77,0,0,0,2.56-.82,2.85,2.85,0,0,0,1-2.29,2.75,2.75,0,0,0-.9-2.18,3.68,3.68,0,0,0-2.51-.81Z"/><path d="M1470.17,923a4.87,4.87,0,0,1-2.55-.7,4.65,4.65,0,0,1-1.78-2,5.89,5.89,0,0,1-.64-2.79v-.44a6.5,6.5,0,0,1,.62-2.88,4.86,4.86,0,0,1,1.73-2,4.27,4.27,0,0,1,2.4-.73,4,4,0,0,1,3.2,1.38,5.63,5.63,0,0,1,1.19,3.77v.69h-7.92v.24a4.62,4.62,0,0,0,1.08,3.14,3.46,3.46,0,0,0,2.73,1.26,4,4,0,0,0,1.73-.36,3.81,3.81,0,0,0,1.37-1.15l.77.59A4.51,4.51,0,0,1,1470.17,923Zm-.22-10.46a3,3,0,0,0-2.33,1,4.7,4.7,0,0,0-1.16,2.73h6.66v-.13a4.06,4.06,0,0,0-.92-2.61A2.82,2.82,0,0,0,1470,912.56Z"/><path d="M1478,911.72v1.89a4.48,4.48,0,0,1,1.56-1.56,4,4,0,0,1,2.06-.54,3.34,3.34,0,0,1,2.66,1,4.54,4.54,0,0,1,.88,3v7.28h-1.22v-7.23a3.44,3.44,0,0,0-.63-2.22,2.49,2.49,0,0,0-2-.72,3,3,0,0,0-2,.71,4.1,4.1,0,0,0-1.3,1.92v7.6h-1.22V911.72Z"/><path d="M1495.61,921.41a4,4,0,0,1-3.54,1.61,3.48,3.48,0,0,1-2.7-1,4.52,4.52,0,0,1-.94-3v-7.21h1.22v7.06c0,2.11.86,3.17,2.56,3.17a3.15,3.15,0,0,0,3.38-2.21v-8h1.23v11.09h-1.19Z"/><path d="M1502,908.87v2.85h2.3v1H1502v7.4a2.32,2.32,0,0,0,.33,1.38,1.32,1.32,0,0,0,1.12.45c.33,0,.67-.05,1-.1v1a4.15,4.15,0,0,1-1.31.18,2.21,2.21,0,0,1-1.84-.74,3.52,3.52,0,0,1-.57-2.16v-7.4h-2v-1h2v-2.85Z"/><path d="M1507.77,921.77H1515v1h-8.72v-.9l6.72-9.13h-6.5v-1.06h8.07v.92Z"/><path d="M1521.58,923a4.91,4.91,0,0,1-2.56-.7,4.84,4.84,0,0,1-1.78-2,6,6,0,0,1-.63-2.79v-.44a6.36,6.36,0,0,1,.62-2.88,4.9,4.9,0,0,1,1.72-2,4.27,4.27,0,0,1,2.4-.73,4,4,0,0,1,3.21,1.38,5.57,5.57,0,0,1,1.18,3.77v.69h-7.91v.24a4.62,4.62,0,0,0,1.08,3.14,3.45,3.45,0,0,0,2.72,1.26,4,4,0,0,0,1.74-.36,3.91,3.91,0,0,0,1.37-1.15l.77.59A4.51,4.51,0,0,1,1521.58,923Zm-.23-10.46a3,3,0,0,0-2.33,1,4.69,4.69,0,0,0-1.15,2.73h6.61v-.13a4.07,4.07,0,0,0-.91-2.61A2.83,2.83,0,0,0,1521.35,912.56Z"/><path d="M1533.36,912.76a3.83,3.83,0,0,0-.83-.07,3,3,0,0,0-1.94.64,3.44,3.44,0,0,0-1.13,1.86v7.62h-1.22V911.72h1.2v1.76a3.25,3.25,0,0,1,3.12-2,2.06,2.06,0,0,1,.81.13Z"/><path d="M1551.48,918.15a5.36,5.36,0,0,1-1.69,3.61A5.56,5.56,0,0,1,1546,923a5.28,5.28,0,0,1-2.94-.83,5.46,5.46,0,0,1-2-2.36,8.19,8.19,0,0,1-.71-3.48v-1.94a8.37,8.37,0,0,1,.7-3.53,5.31,5.31,0,0,1,2-2.37,5.48,5.48,0,0,1,3-.83,5,5,0,0,1,5.43,4.53c0,.11,0,.23,0,.35h-1.28c-.31-2.54-1.68-3.81-4.13-3.81a3.91,3.91,0,0,0-3.23,1.52,6.56,6.56,0,0,0-1.21,4.2v1.82a6.61,6.61,0,0,0,1.18,4.13A3.79,3.79,0,0,0,1546,922a4.24,4.24,0,0,0,3-1,4.47,4.47,0,0,0,1.24-2.85Z"/><path class="cls-8" d="M1442,335.06v670"/><rect class="cls-7" x="2041.98" y="585.06" width="120" height="60"/><path d="M2053.58,624.56V609.63h4.4a5.69,5.69,0,0,1,3.64,1,3.48,3.48,0,0,1,1.24,2.92,3.33,3.33,0,0,1-.63,2,3.42,3.42,0,0,1-1.72,1.22,3.63,3.63,0,0,1,2.89,3.58,3.9,3.9,0,0,1-1.28,3.09,5.23,5.23,0,0,1-3.55,1.11Zm1.26-8.23h3.44a3.91,3.91,0,0,0,2.45-.75,2.56,2.56,0,0,0,.86-2.08,2.52,2.52,0,0,0-.89-2.12,4.42,4.42,0,0,0-2.72-.68h-3.14Zm0,1.06v6.1h3.78a3.79,3.79,0,0,0,2.57-.82,2.91,2.91,0,0,0,1-2.29,2.73,2.73,0,0,0-.91-2.18,3.58,3.58,0,0,0-2.51-.81Z"/><path d="M2070.56,624.77a4.69,4.69,0,0,1-4.34-2.7,6,6,0,0,1-.63-2.79v-.44a6.49,6.49,0,0,1,.61-2.88,5,5,0,0,1,1.73-2,4.27,4.27,0,0,1,2.4-.73,4,4,0,0,1,3.21,1.38,5.57,5.57,0,0,1,1.18,3.77v.69h-7.91v.23a4.62,4.62,0,0,0,1.08,3.14,3.45,3.45,0,0,0,2.72,1.26,4,4,0,0,0,1.74-.36,3.91,3.91,0,0,0,1.37-1.15l.77.59A4.53,4.53,0,0,1,2070.56,624.77Zm-.23-10.46a3,3,0,0,0-2.33,1,4.69,4.69,0,0,0-1.15,2.73h6.63v-.13a4.07,4.07,0,0,0-.91-2.61A2.83,2.83,0,0,0,2070.33,614.31Z"/><path d="M2078.38,613.47v1.89a4.29,4.29,0,0,1,1.55-1.56,4,4,0,0,1,2.06-.54,3.34,3.34,0,0,1,2.66,1,4.54,4.54,0,0,1,.88,3v7.3h-1.22v-7.29a3.33,3.33,0,0,0-.63-2.22,2.44,2.44,0,0,0-2-.72,3,3,0,0,0-2,.71,4.15,4.15,0,0,0-1.29,1.92v7.6h-1.22V613.47Z"/><path d="M2096,623.16a4,4,0,0,1-3.54,1.61,3.41,3.41,0,0,1-2.69-1,4.48,4.48,0,0,1-1-3v-7.21H2090v7c0,2.11.86,3.17,2.57,3.17a3.15,3.15,0,0,0,3.37-2.21v-8h1.23v11H2096Z"/><path d="M2102.4,610.62v2.85h2.3v1h-2.3v7.4a2.33,2.33,0,0,0,.34,1.38,1.3,1.3,0,0,0,1.11.45c.33,0,.67-.05,1-.1l.06,1a4.21,4.21,0,0,1-1.32.18,2.2,2.2,0,0,1-1.83-.74,3.4,3.4,0,0,1-.58-2.16v-7.4h-2v-1h2v-2.85Z"/><path d="M2108.16,623.56h7.21v1h-8.73v-.9l6.73-9.13h-6.52v-1.06h8.07v.92Z"/><path d="M2122,624.77a5,5,0,0,1-2.56-.7,4.69,4.69,0,0,1-1.77-2,5.89,5.89,0,0,1-.64-2.79v-.44a6.5,6.5,0,0,1,.62-2.88,4.86,4.86,0,0,1,1.73-2,4.27,4.27,0,0,1,2.4-.73,4,4,0,0,1,3.2,1.38,5.63,5.63,0,0,1,1.19,3.77v.69h-7.92v.23a4.62,4.62,0,0,0,1.08,3.14,3.44,3.44,0,0,0,2.72,1.26,4,4,0,0,0,1.74-.36,3.91,3.91,0,0,0,1.37-1.15l.77.59A4.49,4.49,0,0,1,2122,624.77Zm-.22-10.46a3.06,3.06,0,0,0-2.34,1,4.69,4.69,0,0,0-1.15,2.73h6.66v-.13a4.06,4.06,0,0,0-.92-2.61A2.82,2.82,0,0,0,2121.74,614.31Z"/><path d="M2133.75,614.56a4.57,4.57,0,0,0-.83-.07,3,3,0,0,0-2,.64,3.53,3.53,0,0,0-1.13,1.86v7.57h-1.22V613.47h1.2v1.76a3.27,3.27,0,0,1,3.13-2,2.06,2.06,0,0,1,.81.13Z"/><path d="M2141.29,624.56V609.63h4.41a5.69,5.69,0,0,1,3.64,1,3.5,3.5,0,0,1,1.24,2.92,3.33,3.33,0,0,1-.63,2,3.39,3.39,0,0,1-1.73,1.22,3.6,3.6,0,0,1,2.89,3.58,3.89,3.89,0,0,1-1.27,3.09,5.31,5.31,0,0,1-3.56,1.11Zm1.26-8.23H2146a3.82,3.82,0,0,0,2.48-.77,2.54,2.54,0,0,0,.87-2.08,2.5,2.5,0,0,0-.9-2.12,4.41,4.41,0,0,0-2.71-.68h-3.15Zm0,1.06v6.1h3.78a3.79,3.79,0,0,0,2.57-.82,2.91,2.91,0,0,0,.95-2.29,2.73,2.73,0,0,0-.91-2.18,3.61,3.61,0,0,0-2.5-.81Z"/><rect class="cls-7" x="1681.98" y="585.06" width="120" height="60"/><path d="M1693.48,622.81V607.88h4.41a5.69,5.69,0,0,1,3.64,1,3.48,3.48,0,0,1,1.24,2.92,3.33,3.33,0,0,1-.63,2,3.39,3.39,0,0,1-1.73,1.22,3.6,3.6,0,0,1,2.89,3.58,3.89,3.89,0,0,1-1.27,3.09,5.31,5.31,0,0,1-3.56,1.11Zm1.26-8.23h3.45a3.9,3.9,0,0,0,2.44-.75,2.54,2.54,0,0,0,.87-2.08,2.5,2.5,0,0,0-.9-2.12,4.41,4.41,0,0,0-2.71-.68h-3.15Zm0,1.06v6.1h3.74a3.79,3.79,0,0,0,2.57-.82,2.91,2.91,0,0,0,1-2.29,2.73,2.73,0,0,0-.91-2.18,3.61,3.61,0,0,0-2.5-.81Z"/><path d="M1710.48,623a5,5,0,0,1-2.56-.7,4.84,4.84,0,0,1-1.78-2,6,6,0,0,1-.66-2.76v-.44a6.36,6.36,0,0,1,.62-2.88,4.86,4.86,0,0,1,1.73-2,4.19,4.19,0,0,1,2.4-.73,4,4,0,0,1,3.2,1.38,5.57,5.57,0,0,1,1.18,3.77v.69h-7.91v.21a4.62,4.62,0,0,0,1.08,3.14,3.45,3.45,0,0,0,2.72,1.26,4,4,0,0,0,1.74-.36,3.91,3.91,0,0,0,1.37-1.15l.77.59A4.5,4.5,0,0,1,1710.48,623Zm-.22-10.46a3.06,3.06,0,0,0-2.34,1,4.69,4.69,0,0,0-1.15,2.73h6.65v-.13a4.05,4.05,0,0,0-.94-2.6,2.81,2.81,0,0,0-2.24-1Z"/><path d="M1718.29,611.72v1.89a4.48,4.48,0,0,1,1.56-1.56,4,4,0,0,1,2.06-.54,3.29,3.29,0,0,1,2.65,1,4.48,4.48,0,0,1,.89,3v7.28h-1.22v-7.23a3.44,3.44,0,0,0-.63-2.22,2.49,2.49,0,0,0-2-.72,3,3,0,0,0-2,.71,4.1,4.1,0,0,0-1.3,1.92v7.6h-1.22V611.72Z"/><path d="M1735.9,621.41a4,4,0,0,1-3.54,1.61,3.48,3.48,0,0,1-2.7-1,4.52,4.52,0,0,1-.94-3v-7.21h1.22v7.06c0,2.11.85,3.17,2.56,3.17a3.17,3.17,0,0,0,3.38-2.21v-8h1.23v11.09h-1.19Z"/><path d="M1742.31,608.87v2.85h2.29v1h-2.29v7.4a2.32,2.32,0,0,0,.33,1.38,1.3,1.3,0,0,0,1.11.45c.33,0,.67-.05,1-.1v1a4.15,4.15,0,0,1-1.31.18,2.21,2.21,0,0,1-1.84-.74,3.52,3.52,0,0,1-.57-2.16v-7.4h-2v-1h2v-2.85Z"/><path d="M1748.06,621.77h7.21v1h-8.73v-.9l6.73-9.13h-6.52v-1.06h8.07v.92Z"/><path d="M1761.87,623a4.69,4.69,0,0,1-4.34-2.7,6.14,6.14,0,0,1-.64-2.79v-.44a6.5,6.5,0,0,1,.62-2.88,5,5,0,0,1,1.73-2,4.27,4.27,0,0,1,2.4-.73,4,4,0,0,1,3.21,1.38,5.68,5.68,0,0,1,1.18,3.77v.69h-7.92v.24a4.62,4.62,0,0,0,1.08,3.14,3.46,3.46,0,0,0,2.73,1.26,4,4,0,0,0,1.74-.36,3.87,3.87,0,0,0,1.36-1.15l.77.59A4.48,4.48,0,0,1,1761.87,623Zm-.23-10.46a3,3,0,0,0-2.33,1,4.7,4.7,0,0,0-1.16,2.73h6.66v-.13a4.18,4.18,0,0,0-.91-2.61A2.84,2.84,0,0,0,1761.64,612.56Z"/><path d="M1773.65,612.76a4.57,4.57,0,0,0-.83-.07,3,3,0,0,0-1.94.64,3.51,3.51,0,0,0-1.14,1.86v7.62h-1.26V611.72h1.2v1.76a3.27,3.27,0,0,1,3.13-2,2.06,2.06,0,0,1,.81.13Z"/><path d="M1781.19,622.81V607.88h4.18a6.43,6.43,0,0,1,3.29.84,5.81,5.81,0,0,1,2.27,2.39,7.67,7.67,0,0,1,.81,3.55V616a7.67,7.67,0,0,1-.81,3.55,5.77,5.77,0,0,1-2.28,2.39,6.76,6.76,0,0,1-3.38.84Zm1.26-13.86v12.79h2.83a4.89,4.89,0,0,0,3.79-1.56,6,6,0,0,0,1.42-4.23v-1.32a5.94,5.94,0,0,0-1.4-4.12,4.76,4.76,0,0,0-3.7-1.56Z"/><path class="cls-9" d="M722,265.06v80"/><path class="cls-9" d="M642,345.06h80"/><path class="cls-9" d="M2162,265.06v80"/><path class="cls-9" d="M722,944.73v80"/><path class="cls-9" d="M2161.65,945.73v80"/><path class="cls-9" d="M642,945h80"/><path class="cls-10" d="M744.56,303.08l1392.84,2"/><path class="cls-11" d="M734.81,303.07l13-6.48-3.26,6.49,3.24,6.51Z"/><path class="cls-11" d="M2147.15,305.05l-13,6.48,3.26-6.49-3.24-6.51Z"/><path d="M1356.87,246.24h-14.34v-2.45l7.1-7.75a16.94,16.94,0,0,0,2.19-2.86,4.6,4.6,0,0,0,.65-2.31,3.51,3.51,0,0,0-.85-2.46,3,3,0,0,0-2.31-.93,3.41,3.41,0,0,0-2.68,1.05,4.12,4.12,0,0,0-1,2.89h-3.56a6.94,6.94,0,0,1,.88-3.51,6.07,6.07,0,0,1,2.54-2.43,8.08,8.08,0,0,1,3.8-.86,7.19,7.19,0,0,1,4.9,1.56,5.38,5.38,0,0,1,1.79,4.31,7.42,7.42,0,0,1-.9,3.35,19.19,19.19,0,0,1-3,4l-5.21,5.58h9.9Z"/><path d="M1371.77,238.64h2.65v2.85h-2.65v4.75h-3.56v-4.75H1359l-.11-2.16,9.2-14.42h3.68Zm-9.14,0h5.58v-8.91l-.26.47Z"/><path d="M1388.61,243.28H1400v3h-15.87v-2.4l11-15.94h-11v-3h15.45v2.35Z"/><path d="M1410,246.56a7.38,7.38,0,0,1-5.49-2.13,7.73,7.73,0,0,1-2.1-5.67v-.44a9.47,9.47,0,0,1,.92-4.25,6.87,6.87,0,0,1,2.57-2.9,6.68,6.68,0,0,1,3.69-1,6.25,6.25,0,0,1,5,2.06,8.78,8.78,0,0,1,1.77,5.85v1.43H1406a4.76,4.76,0,0,0,1.31,3.11,4,4,0,0,0,2.89,1.14,4.86,4.86,0,0,0,4-2l1.92,1.83a6.46,6.46,0,0,1-2.54,2.21A8.18,8.18,0,0,1,1410,246.56Zm-.43-13.58a3,3,0,0,0-2.36,1,5.27,5.27,0,0,0-1.15,2.86h6.78v-.28a4.42,4.42,0,0,0-1-2.7,3,3,0,0,0-2.32-.91Z"/><path d="M1419.24,226.27a1.9,1.9,0,0,1,.52-1.36,2.34,2.34,0,0,1,3,0,1.85,1.85,0,0,1,.52,1.36,1.88,1.88,0,0,1-.52,1.35,2.37,2.37,0,0,1-3,0A1.89,1.89,0,0,1,1419.24,226.27Zm3.78,20h-3.54V230.39H1423Z"/><path d="M1431.48,226.56v3.85h2.8v2.64h-2.8v8.84a2,2,0,0,0,.36,1.32,1.65,1.65,0,0,0,1.28.4,5.19,5.19,0,0,0,1.24-.15v2.76a9.24,9.24,0,0,1-2.34.33q-4.1,0-4.1-4.52v-9h-2.61v-2.64h2.61v-3.83Z"/><path d="M1446.06,241.93a1.62,1.62,0,0,0-.79-1.45,8.24,8.24,0,0,0-2.6-.88,13.22,13.22,0,0,1-3-1,4,4,0,0,1-2.66-3.74,4.22,4.22,0,0,1,1.72-3.43,6.9,6.9,0,0,1,4.4-1.37,7.14,7.14,0,0,1,4.59,1.4,4.48,4.48,0,0,1,1.75,3.65h-3.56a2.2,2.2,0,0,0-.76-1.7,2.88,2.88,0,0,0-2-.69,3.1,3.1,0,0,0-1.91.55,1.67,1.67,0,0,0-.74,1.45,1.44,1.44,0,0,0,.69,1.27,9.38,9.38,0,0,0,2.78.92,12.72,12.72,0,0,1,3.29,1.09,4.7,4.7,0,0,1,1.77,1.54,3.9,3.9,0,0,1,.58,2.16,4.16,4.16,0,0,1-1.77,3.47,7.63,7.63,0,0,1-4.65,1.32,8.26,8.26,0,0,1-3.47-.7,5.72,5.72,0,0,1-2.37-1.93,4.57,4.57,0,0,1-.85-2.65H1440a2.49,2.49,0,0,0,1,1.94,3.73,3.73,0,0,0,2.33.68,3.59,3.59,0,0,0,2.14-.54A1.67,1.67,0,0,0,1446.06,241.93Z"/><path d="M1459.32,243.69a3.19,3.19,0,0,0,2.21-.78,2.63,2.63,0,0,0,.94-1.91h3.35a5.26,5.26,0,0,1-.92,2.76,6.2,6.2,0,0,1-2.34,2,7.12,7.12,0,0,1-3.2.74,6.75,6.75,0,0,1-5.27-2.15,8.53,8.53,0,0,1-1.95-5.95V238a8.38,8.38,0,0,1,1.93-5.8,6.68,6.68,0,0,1,5.28-2.17,6.48,6.48,0,0,1,4.6,1.65,5.88,5.88,0,0,1,1.87,4.32h-3.34a3.29,3.29,0,0,0-.93-2.24,3,3,0,0,0-2.22-.88,3.12,3.12,0,0,0-2.67,1.26,6.45,6.45,0,0,0-1,3.8v.58a6.48,6.48,0,0,0,.93,3.84A3.12,3.12,0,0,0,1459.32,243.69Z"/><path d="M1472.17,232.12a5.55,5.55,0,0,1,4.41-2c3.38,0,5.09,1.92,5.14,5.78v10.36h-3.56V236a3.17,3.17,0,0,0-.71-2.33,2.89,2.89,0,0,0-2.09-.68,3.42,3.42,0,0,0-3.19,1.91v11.32h-3.56v-22.5h3.56Z"/><path d="M1489.25,246.24h-3.56v-22.5h3.56Z"/><path d="M1493.28,226.27a1.9,1.9,0,0,1,.52-1.36,2.33,2.33,0,0,1,3,0,1.85,1.85,0,0,1,.53,1.36,1.81,1.81,0,0,1-.53,1.35,2.35,2.35,0,0,1-3,0A1.89,1.89,0,0,1,1493.28,226.27Zm3.78,20h-3.58V230.39H1497Z"/><path d="M1505.55,226.56v3.85h2.8v2.64h-2.8v8.84a2,2,0,0,0,.36,1.32,1.65,1.65,0,0,0,1.28.4,5.19,5.19,0,0,0,1.24-.15v2.76a9.24,9.24,0,0,1-2.34.33c-2.73,0-4.09-1.51-4.1-4.52v-9h-2.61v-2.64H1502v-3.83Z"/><path d="M1515,243.4h8.46v2.84h-12.86v-2.33l8-10.65h-7.89v-2.87h12.41v2.26Z"/><path d="M1533.48,246.56a7.37,7.37,0,0,1-5.48-2.13,7.68,7.68,0,0,1-2.11-5.67v-.44a9.47,9.47,0,0,1,.92-4.25,7,7,0,0,1,2.57-2.9,6.68,6.68,0,0,1,3.69-1,6.25,6.25,0,0,1,5,2.06,8.78,8.78,0,0,1,1.77,5.85v1.43h-10.36a4.83,4.83,0,0,0,1.31,3.11,4,4,0,0,0,2.9,1.14,4.82,4.82,0,0,0,4-2l1.92,1.83a6.46,6.46,0,0,1-2.54,2.21A7.94,7.94,0,0,1,1533.48,246.56Zm-.42-13.58a3,3,0,0,0-2.37,1,5.27,5.27,0,0,0-1.15,2.86h6.78v-.28a4.36,4.36,0,0,0-1-2.7A3,3,0,0,0,1533,233Z"/><path class="cls-10" d="M747.56,1011.09l659.84.94"/><path class="cls-11" d="M737.81,1011.07l13-6.48-3.26,6.5,3.24,6.5Z"/><path class="cls-11" d="M1417.15,1012.05l-13,6.48,3.26-6.5-3.24-6.5Z"/><path class="cls-12" d="M1013.25,976.78v13.78a6.7,6.7,0,0,1-2.11,5.2,9.21,9.21,0,0,1-11.22,0,6.71,6.71,0,0,1-2.08-5.24V976.78h3.57v13.78a4.4,4.4,0,0,0,1.05,3.16,4,4,0,0,0,3.08,1.09c2.76,0,4.14-1.46,4.14-4.36V976.78Z"/><path class="cls-12" d="M1030.15,989.89a9.11,9.11,0,0,1-1.61,5.68,5.58,5.58,0,0,1-8.33.46v7.26h-3.44V982.08h3.17l.14,1.56a5,5,0,0,1,4.12-1.84,5.19,5.19,0,0,1,4.4,2.08,9.4,9.4,0,0,1,1.59,5.8Zm-3.42-.29a6.45,6.45,0,0,0-.92-3.64,3,3,0,0,0-2.61-1.35,3.15,3.15,0,0,0-3,1.74v6.8a3.18,3.18,0,0,0,3.06,1.79,3,3,0,0,0,2.57-1.33,7,7,0,0,0,.9-4.05Z"/><path class="cls-12" d="M1036.72,997.4h-3.44V975.65h3.44Z"/><path class="cls-12" d="M1040.48,978.1a1.79,1.79,0,0,1,.5-1.32,2.25,2.25,0,0,1,2.88,0,1.84,1.84,0,0,1,.51,1.32,1.77,1.77,0,0,1-.51,1.29,2,2,0,0,1-1.44.52,1.87,1.87,0,0,1-1.44-.52A1.72,1.72,0,0,1,1040.48,978.1Zm3.65,19.3h-3.44V982.08h3.44Z"/><path class="cls-12" d="M1051.07,982.08l.1,1.77a5.48,5.48,0,0,1,4.46-2c3.19,0,4.82,1.82,4.87,5.47v10.13h-3.44v-9.93a3.17,3.17,0,0,0-.63-2.16,2.66,2.66,0,0,0-2.06-.7,3.29,3.29,0,0,0-3.1,1.89v10.9h-3.44V982.08Z"/><path class="cls-12" d="M1069,990.83l-1.5,1.57v5H1064V975.65h3.44V988.2l1.08-1.35,4.23-4.77h4.14l-5.7,6.38,6.31,8.94h-4Z"/><path class="cls-12" d="M1086.41,989a21.38,21.38,0,0,1,.88-6.21,17,17,0,0,1,2.58-5.26,10.28,10.28,0,0,1,3.59-3.25l.68,2a10.38,10.38,0,0,0-3.23,4.62,20.35,20.35,0,0,0-1.35,7.11v1.22a22.7,22.7,0,0,0,1.21,7.66,11.34,11.34,0,0,0,3.39,5.11l-.68,1.92a10.36,10.36,0,0,1-3.6-3.27,17,17,0,0,1-2.58-5.25A22.74,22.74,0,0,1,1086.41,989Z"/><path class="cls-12" d="M1097.17,987.18l1.12-10.4h11.08v3h-8.22l-.56,4.92a6.35,6.35,0,0,1,3.22-.82,5.72,5.72,0,0,1,4.59,1.89,7.43,7.43,0,0,1,1.63,5.07,6.89,6.89,0,0,1-1.81,5,6.63,6.63,0,0,1-5,1.86,7,7,0,0,1-4.7-1.6,5.82,5.82,0,0,1-2-4.24h3.32a3.73,3.73,0,0,0,1.08,2.3,3.3,3.3,0,0,0,2.29.8,3,3,0,0,0,2.47-1.14,4.84,4.84,0,0,0,.89-3.08,4.32,4.32,0,0,0-1-3,3.38,3.38,0,0,0-2.69-1.1,4.26,4.26,0,0,0-1.58.25,4.16,4.16,0,0,0-1.42,1Z"/><path class="cls-12" d="M1123.41,982.08l.1,1.6a5.52,5.52,0,0,1,4.42-1.88,4.25,4.25,0,0,1,4.21,2.35,5.42,5.42,0,0,1,4.7-2.35,4.74,4.74,0,0,1,3.77,1.4,6.14,6.14,0,0,1,1.27,4.13V997.4h-3.4v-10a3.11,3.11,0,0,0-.64-2.14,2.8,2.8,0,0,0-2.11-.68,2.83,2.83,0,0,0-1.92.63,3.29,3.29,0,0,0-1,1.65v10.51h-3.44v-10a2.43,2.43,0,0,0-2.76-2.71,3,3,0,0,0-2.93,1.69v11.1h-3.44V982.08Z"/><path class="cls-12" d="M1154,993.24a1.54,1.54,0,0,0-.76-1.4,7.46,7.46,0,0,0-2.51-.85,13,13,0,0,1-2.93-.94,3.91,3.91,0,0,1-2.58-3.61,4,4,0,0,1,1.67-3.31,6.51,6.51,0,0,1,4.25-1.33,6.88,6.88,0,0,1,4.44,1.35,4.34,4.34,0,0,1,1.69,3.53h-3.44a2.13,2.13,0,0,0-.74-1.65,2.77,2.77,0,0,0-1.95-.66,3,3,0,0,0-1.85.53,1.63,1.63,0,0,0-.72,1.4,1.4,1.4,0,0,0,.67,1.23,9.35,9.35,0,0,0,2.69.89,12.39,12.39,0,0,1,3.18,1.06,4.29,4.29,0,0,1,1.71,1.48,3.66,3.66,0,0,1,.56,2.09,4,4,0,0,1-1.71,3.35,7.26,7.26,0,0,1-4.49,1.28,7.93,7.93,0,0,1-3.36-.68,5.49,5.49,0,0,1-2.29-1.87,4.36,4.36,0,0,1-.82-2.56h3.34a2.43,2.43,0,0,0,.92,1.88,4.26,4.26,0,0,0,4.32.14A1.63,1.63,0,0,0,1154,993.24Z"/><path class="cls-12" d="M1167,989.24a21.87,21.87,0,0,1-.86,6.07,17.42,17.42,0,0,1-2.62,5.33,10.35,10.35,0,0,1-3.67,3.32l-.68-1.92a10.78,10.78,0,0,0,3.36-5,22.49,22.49,0,0,0,1.24-7.71V989a22.67,22.67,0,0,0-1.07-7.17,12.67,12.67,0,0,0-3.09-5.19l-.44-.4.68-1.93a10.12,10.12,0,0,1,3.51,3.12,16.93,16.93,0,0,1,2.61,5,21.32,21.32,0,0,1,1,5.71Z"/><path class="cls-10" d="M1474.56,1012.09l659.84.94"/><path class="cls-11" d="M1464.81,1012.07l13-6.48-3.26,6.5,3.24,6.5Z"/><path class="cls-11" d="M2144.15,1013.05l-13,6.48,3.26-6.5-3.24-6.5Z"/><path class="cls-13" d="M1706.63,998.4V977.78h6.09a9.56,9.56,0,0,1,4.85,1.22,8.29,8.29,0,0,1,3.28,3.46,11.07,11.07,0,0,1,1.16,5.12v1a10.88,10.88,0,0,1-1.17,5.16,8.34,8.34,0,0,1-3.33,3.43,10,10,0,0,1-5,1.2Zm3.58-17.73v14.89h2.34a5.42,5.42,0,0,0,4.33-1.76,7.75,7.75,0,0,0,1.53-5.07v-1.17a7.82,7.82,0,0,0-1.46-5.13,5.14,5.14,0,0,0-4.23-1.77Z"/><path class="cls-13" d="M1724.6,990.56a9.08,9.08,0,0,1,.88-4,6.52,6.52,0,0,1,2.51-2.77,7,7,0,0,1,3.71-1,6.69,6.69,0,0,1,5,2,7.83,7.83,0,0,1,2.09,5.3v.8a9.07,9.07,0,0,1-.87,4,6.54,6.54,0,0,1-2.49,2.77,7.14,7.14,0,0,1-3.74,1,6.65,6.65,0,0,1-5.19-2.16,8.23,8.23,0,0,1-2-5.75Zm3.44.29a6.17,6.17,0,0,0,1,3.71,3.41,3.41,0,0,0,4.78.65,4,4,0,0,0,.65-.65,7,7,0,0,0,1-4,6.06,6.06,0,0,0-1-3.68,3.37,3.37,0,0,0-4.72-.67,3.27,3.27,0,0,0-.67.67,6.68,6.68,0,0,0-1,4Z"/><path class="cls-13" d="M1755.21,993.66l2.44-10.58H1761l-4.18,15.32H1754l-3.29-10.52-3.23,10.52h-2.83l-4.17-15.32h3.35l2.48,10.46,3.15-10.46h2.59Z"/><path class="cls-13" d="M1766.48,983.08l.1,1.77a5.48,5.48,0,0,1,4.46-2c3.19,0,4.82,1.82,4.87,5.47v10.13h-3.43v-9.93a3.17,3.17,0,0,0-.63-2.16,2.66,2.66,0,0,0-2.06-.7,3.29,3.29,0,0,0-3.1,1.89v10.9h-3.44V983.08Z"/><path class="cls-13" d="M1783.1,998.4h-3.45V976.65h3.45Z"/><path class="cls-13" d="M1786.85,979.1a1.79,1.79,0,0,1,.5-1.32,2.24,2.24,0,0,1,2.88,0,1.84,1.84,0,0,1,.51,1.32,1.77,1.77,0,0,1-.51,1.29,2.26,2.26,0,0,1-2.88,0A1.78,1.78,0,0,1,1786.85,979.1Zm3.65,19.3h-3.44V983.08h3.42Z"/><path class="cls-13" d="M1797.48,983.08l.1,1.77a5.48,5.48,0,0,1,4.46-2c3.19,0,4.82,1.82,4.87,5.47v10.13h-3.43v-9.93a3.17,3.17,0,0,0-.63-2.16,2.66,2.66,0,0,0-2.06-.7,3.29,3.29,0,0,0-3.1,1.89v10.9h-3.44V983.08Z"/><path class="cls-13" d="M1815.35,991.83l-1.53,1.57v5h-3.44V976.65h3.44V989.2l1.08-1.35,4.23-4.77h4.14l-5.7,6.38,6.31,8.94h-4Z"/><path class="cls-13" d="M1832.78,990a21.73,21.73,0,0,1,.88-6.21,17.18,17.18,0,0,1,2.58-5.26,10.28,10.28,0,0,1,3.59-3.25l.68,2a10.51,10.51,0,0,0-3.23,4.62,20.35,20.35,0,0,0-1.35,7.11v1.22a22.7,22.7,0,0,0,1.21,7.66,11.34,11.34,0,0,0,3.39,5.11l-.68,1.92a10.36,10.36,0,0,1-3.6-3.27,17,17,0,0,1-2.58-5.25A22.74,22.74,0,0,1,1832.78,990Z"/><path class="cls-13" d="M1843.54,988.18l1.12-10.4h11.08v3h-8.26l-.56,4.92a6.39,6.39,0,0,1,3.23-.82,5.73,5.73,0,0,1,4.58,1.89,7.43,7.43,0,0,1,1.63,5.07,6.89,6.89,0,0,1-1.81,5,6.63,6.63,0,0,1-5,1.86,7,7,0,0,1-4.69-1.6,5.78,5.78,0,0,1-2-4.24h3.32a3.73,3.73,0,0,0,1.08,2.3,3.34,3.34,0,0,0,2.3.8,3,3,0,0,0,2.47-1.14,4.91,4.91,0,0,0,.88-3.08,4.3,4.3,0,0,0-1-3,3.38,3.38,0,0,0-2.69-1.1,4.26,4.26,0,0,0-1.58.25,4.16,4.16,0,0,0-1.42,1Z"/><path class="cls-13" d="M1869.78,983.08l.1,1.6a5.52,5.52,0,0,1,4.42-1.88,4.25,4.25,0,0,1,4.21,2.35,5.42,5.42,0,0,1,4.7-2.35,4.74,4.74,0,0,1,3.77,1.4,6.14,6.14,0,0,1,1.27,4.13V998.4h-3.44v-10a3,3,0,0,0-.64-2.14,2.76,2.76,0,0,0-2.11-.68,2.83,2.83,0,0,0-1.92.63,3.29,3.29,0,0,0-1,1.65v10.51h-3.44v-10a2.46,2.46,0,0,0-2.15-2.72,2.49,2.49,0,0,0-.61,0,3,3,0,0,0-2.93,1.69v11.1h-3.44V983.08Z"/><path class="cls-13" d="M1900.37,994.24a1.54,1.54,0,0,0-.76-1.4,7.46,7.46,0,0,0-2.51-.85,13,13,0,0,1-2.93-.94,3.91,3.91,0,0,1-2.58-3.61,4,4,0,0,1,1.67-3.31,6.51,6.51,0,0,1,4.25-1.33,6.88,6.88,0,0,1,4.44,1.35,4.34,4.34,0,0,1,1.69,3.53h-3.44a2.13,2.13,0,0,0-.74-1.65,2.81,2.81,0,0,0-2-.66,3,3,0,0,0-1.85.53,1.62,1.62,0,0,0-.71,1.4,1.37,1.37,0,0,0,.66,1.23,9.46,9.46,0,0,0,2.69.89,12.39,12.39,0,0,1,3.18,1.06,4.29,4.29,0,0,1,1.71,1.48,3.66,3.66,0,0,1,.56,2.09,4,4,0,0,1-1.71,3.35,7.26,7.26,0,0,1-4.49,1.28,7.88,7.88,0,0,1-3.35-.68,5.46,5.46,0,0,1-2.3-1.87,4.36,4.36,0,0,1-.82-2.56h3.34a2.47,2.47,0,0,0,.92,1.88,4.26,4.26,0,0,0,4.32.14A1.61,1.61,0,0,0,1900.37,994.24Z"/><path class="cls-13" d="M1913.38,990.24a21.87,21.87,0,0,1-.86,6.07,17.42,17.42,0,0,1-2.62,5.33,10.35,10.35,0,0,1-3.67,3.32l-.68-1.92a10.92,10.92,0,0,0,3.37-5,22.48,22.48,0,0,0,1.23-7.71V990a22.63,22.63,0,0,0-1.07-7.17,12.67,12.67,0,0,0-3.09-5.19l-.44-.4.68-1.93a10.12,10.12,0,0,1,3.51,3.12,16.93,16.93,0,0,1,2.61,5,21.32,21.32,0,0,1,1,5.71Z"/><path class="cls-10" d="M655,907.48V382.64"/><path class="cls-11" d="M655,917.23l-6.5-13,6.5,3.25,6.5-3.25Z"/><path class="cls-11" d="M655,372.89l6.5,13-6.5-3.25-6.5,3.25Z"/><path d="M602.48,781v3.52H585.35l1.78,5.23h-3l-3.06-8.32V781Z"/><path d="M593.48,759.56c3.07,0,5.39.57,6.94,1.72a6.11,6.11,0,0,1,2.33,5.24,6.19,6.19,0,0,1-2.27,5.21c-1.52,1.16-3.77,1.75-6.75,1.79H590c-3.07,0-5.37-.58-6.9-1.72a7.16,7.16,0,0,1-.39-10.13,3.51,3.51,0,0,1,.33-.34q2.24-1.73,6.71-1.77Zm-4,3.56a8.93,8.93,0,0,0-4.41.82,3.13,3.13,0,0,0-.86,4.35,3.08,3.08,0,0,0,.79.82,8.36,8.36,0,0,0,4.14.87H594a9.38,9.38,0,0,0,4.46-.84,2.81,2.81,0,0,0,1.46-2.62,2.77,2.77,0,0,0-1.35-2.54,8.76,8.76,0,0,0-4.24-.86Z"/><path d="M584.14,733.56v6.65h18.34v3.67H584.14v6.6h-3V733.56Z"/><path d="M589.88,723.61a7.81,7.81,0,0,0-.11,1.45,3.26,3.26,0,0,0,1.87,3.29h10.84v3.56H586.63v-3.35l1.77-.09a4,4,0,0,1-2.06-3.58,3.58,3.58,0,0,1,.2-1.26Z"/><path d="M582.48,719.91a1.7,1.7,0,0,1-1.23-.49,1.78,1.78,0,0,1-.5-1.35,1.83,1.83,0,0,1,.5-1.37,1.8,1.8,0,0,1,2.46,0,1.91,1.91,0,0,1,.5,1.37,1.78,1.78,0,0,1-.5,1.35A1.71,1.71,0,0,1,582.48,719.91Zm0-6.69a1.76,1.76,0,0,1-1.23-.49,2.12,2.12,0,0,1,0-2.72,1.77,1.77,0,0,1,2.47,0,2.14,2.14,0,0,1,0,2.72A1.78,1.78,0,0,1,582.48,713.22Zm20-1.48a5.81,5.81,0,0,1-1.48.41,5.54,5.54,0,0,1,1.77,4.16,5.63,5.63,0,0,1-1.36,3.9,4.39,4.39,0,0,1-3.37,1.5,4.49,4.49,0,0,1-3.89-1.88,9.1,9.1,0,0,1-1.35-5.38v-2.18h-1a2.81,2.81,0,0,0-2,.68,2.67,2.67,0,0,0-.74,2.1,3.12,3.12,0,0,0,.61,2,1.9,1.9,0,0,0,1.54.78v3.56a4,4,0,0,1-2.44-.87,5.8,5.8,0,0,1-1.78-2.35,8.22,8.22,0,0,1-.64-3.32,6.57,6.57,0,0,1,1.4-4.43,5,5,0,0,1,3.93-1.7h7.15a8.11,8.11,0,0,0,3.41-.6h.24Zm-2.56,3.91a3.91,3.91,0,0,0-.52-2,3.42,3.42,0,0,0-1.37-1.4h-3v1.92a5.18,5.18,0,0,0,.69,3,2.24,2.24,0,0,0,2,1,2.05,2.05,0,0,0,1.63-.68,2.66,2.66,0,0,0,.57-1.84Z"/><path d="M594.48,705.45a9.39,9.39,0,0,1-5.9-1.73,5.55,5.55,0,0,1-2.2-4.61,5.18,5.18,0,0,1,1.89-4.26l-1.6-.16v-3.21H602a6.36,6.36,0,0,1,4.92,1.94,7.4,7.4,0,0,1,1.8,5.23,8.55,8.55,0,0,1-.72,3.41,6.17,6.17,0,0,1-1.9,2.53L604,702.9a5.08,5.08,0,0,0,2-4,4,4,0,0,0-1-2.8,3.68,3.68,0,0,0-2.82-1h-1.07a5.22,5.22,0,0,1,1.71,4.1,5.6,5.6,0,0,1-2.21,4.55A9.67,9.67,0,0,1,594.48,705.45Zm.31-3.54a6.46,6.46,0,0,0,3.75-1,3.14,3.14,0,0,0,1.37-2.7,3.42,3.42,0,0,0-1.84-3.19h-7a3.35,3.35,0,0,0-1.8,3.16,3.16,3.16,0,0,0,1.39,2.73,7.24,7.24,0,0,0,4.09,1Z"/><path d="M602.77,680.69a7.41,7.41,0,0,1-2.13,5.49,7.73,7.73,0,0,1-5.67,2.1h-.44a9.6,9.6,0,0,1-4.25-.92,6.93,6.93,0,0,1-2.9-2.57,6.77,6.77,0,0,1-1-3.69,6.25,6.25,0,0,1,2.06-5,8.67,8.67,0,0,1,5.85-1.77h1.43v10.36a4.76,4.76,0,0,0,3.11-1.31,4,4,0,0,0,1.14-2.89,4.83,4.83,0,0,0-2-4l1.81-1.93A6.46,6.46,0,0,1,602,677.1,8.1,8.1,0,0,1,602.77,680.69Zm-13.58.43a3,3,0,0,0,1,2.36,5.27,5.27,0,0,0,2.86,1.15v-6.78h-.27a4.36,4.36,0,0,0-2.7,1,3,3,0,0,0-.89,2.27Z"/><path d="M589.88,663.12a8.77,8.77,0,0,0-.11,1.45,3.26,3.26,0,0,0,1.87,3.3h10.84v3.56H586.63V668l1.77-.09a4,4,0,0,1-2.06-3.57,3.36,3.36,0,0,1,.2-1.26Z"/><path d="M602.48,659.18H589.27v2.38h-2.64v-2.42h-1.45a5.46,5.46,0,0,1-4.07-1.46,5.64,5.64,0,0,1-1.44-4.11,8.38,8.38,0,0,1,.27-2l2.78.09a6.2,6.2,0,0,0-.12,1.36,2.29,2.29,0,0,0,2,2.56,2.73,2.73,0,0,0,.64,0h1.41v-3.22h2.64v3.22h13.21Z"/><path d="M589.88,641.35a7.81,7.81,0,0,0-.11,1.45,3.28,3.28,0,0,0,1.87,3.3h10.84v3.56H586.63v-3.4l1.77-.09a4,4,0,0,1-2.06-3.57,3.36,3.36,0,0,1,.2-1.26Z"/><path d="M602.77,632a7.41,7.41,0,0,1-2.13,5.49,7.73,7.73,0,0,1-5.67,2.1h-.44a9.6,9.6,0,0,1-4.25-.92,6.93,6.93,0,0,1-2.9-2.57,6.77,6.77,0,0,1-1-3.69,6.25,6.25,0,0,1,2.06-5,8.67,8.67,0,0,1,5.85-1.77h1.43V636a4.76,4.76,0,0,0,3.11-1.31,4,4,0,0,0,1.14-2.89,4.83,4.83,0,0,0-2-4l1.83-1.92a6.46,6.46,0,0,1,2.21,2.54A7.9,7.9,0,0,1,602.77,632Zm-13.58.43a3,3,0,0,0,1,2.36,5.27,5.27,0,0,0,2.86,1.15v-6.78h-.27a4.27,4.27,0,0,0-2.7,1,3,3,0,0,0-.89,2.32Z"/><path d="M594.42,623.37a9.41,9.41,0,0,1-5.9-1.7,5.52,5.52,0,0,1-2.18-4.6,5.16,5.16,0,0,1,1.86-4.2l-1.57-.21V609.5h21.94v3.56h-7.44a5.28,5.28,0,0,1,1.64,4,5.49,5.49,0,0,1-2.22,4.56A9.84,9.84,0,0,1,594.42,623.37Zm.31-3.56a6.68,6.68,0,0,0,3.82-1,3.09,3.09,0,0,0,1.38-2.66,3.36,3.36,0,0,0-1.8-3.13h-7.21a3.36,3.36,0,0,0-1.73,3.1,3.12,3.12,0,0,0,1.37,2.68A7.25,7.25,0,0,0,594.73,619.81Z"/><path d="M600.93,595.91a5.54,5.54,0,0,1,1.84,4.46,4.89,4.89,0,0,1-1.51,3.9,6.4,6.4,0,0,1-4.36,1.33H586.63V602h10.23c2,0,3-.84,3-2.51A3.51,3.51,0,0,0,598,596H586.63v-3.56h15.85v3.36Z"/><path d="M602.77,581.72a7.37,7.37,0,0,1-2.13,5.48,7.73,7.73,0,0,1-5.67,2.1h-.44a9.59,9.59,0,0,1-4.25-.91,7,7,0,0,1-2.9-2.57,6.77,6.77,0,0,1-1-3.69,6.25,6.25,0,0,1,2.06-5,8.79,8.79,0,0,1,5.85-1.76h1.43v10.36a4.82,4.82,0,0,0,3.11-1.32,4,4,0,0,0,1.14-2.89,4.82,4.82,0,0,0-2-4l1.83-1.92a6.39,6.39,0,0,1,2.21,2.54A7.9,7.9,0,0,1,602.77,581.72Zm-13.58.42a3,3,0,0,0,1,2.37,5.43,5.43,0,0,0,2.86,1.15v-6.79h-.27a4.3,4.3,0,0,0-2.7,1,3,3,0,0,0-.89,2.27Z"/><path d="M586.63,569.14l1.83-.1a5.71,5.71,0,0,1-2.12-4.61q0-4.95,5.67-5h10.47V563H592.21a3.3,3.3,0,0,0-2.23.65,2.7,2.7,0,0,0-.73,2.13,3.43,3.43,0,0,0,2,3.21h11.23v3.56H586.63Z"/><path d="M599.64,551.81v-8.44h2.84v12.87h-2.33l-10.65-8v7.9h-2.87V543.68h2.26Z"/><path d="M602.77,533.4a7.37,7.37,0,0,1-2.13,5.48A7.73,7.73,0,0,1,595,541h-.44a9.59,9.59,0,0,1-4.25-.91,7,7,0,0,1-2.9-2.57,6.77,6.77,0,0,1-1-3.69,6.25,6.25,0,0,1,2.06-5,8.79,8.79,0,0,1,5.85-1.76h1.43V537.4a4.76,4.76,0,0,0,3.11-1.31A4,4,0,0,0,600,533.2a4.82,4.82,0,0,0-2-4l1.83-1.92a6.39,6.39,0,0,1,2.21,2.54A7.9,7.9,0,0,1,602.77,533.4Zm-13.58.42a3,3,0,0,0,1,2.37,5.43,5.43,0,0,0,2.86,1.15v-6.78h-.27a4.3,4.3,0,0,0-2.7,1,3,3,0,0,0-.89,2.26Z"/><path d="M586.63,520.82l1.83-.1a5.71,5.71,0,0,1-2.12-4.61q0-5,5.67-5h10.47v3.56H592.21a3.2,3.2,0,0,0-2.23.65,2.7,2.7,0,0,0-.73,2.13,3.43,3.43,0,0,0,2,3.21h11.23v3.56H586.63Z"/><path class="cls-14" d="M642,346.06l-218,158"/><path class="cls-14" d="M642,944.06l-216-150"/><rect class="cls-15" x="74.98" y="504.06" width="350" height="290"/><path d="M108,662.56V641.94h6.09a9.56,9.56,0,0,1,4.85,1.22,8.29,8.29,0,0,1,3.28,3.46,11.07,11.07,0,0,1,1.16,5.12v1a10.88,10.88,0,0,1-1.17,5.16,8.34,8.34,0,0,1-3.33,3.43,10,10,0,0,1-5,1.2Zm3.58-17.73V659.7h2.34a5.4,5.4,0,0,0,4.32-1.76,7.71,7.71,0,0,0,1.54-5.07v-1.14a8,8,0,0,0-1.46-5.17,5.14,5.14,0,0,0-4.23-1.77Z"/><path d="M139.13,653.36h-8.47v6.34h9.9v2.86H127.08V641.94h13.4v2.89h-9.8v5.73h8.47Z"/><path d="M159.36,655.85a7.48,7.48,0,0,1-2.44,5.15,8.33,8.33,0,0,1-5.65,1.84,8.08,8.08,0,0,1-4.34-1.16,7.68,7.68,0,0,1-2.9-3.33,12,12,0,0,1-1.06-5v-1.93a11.94,11.94,0,0,1,1-5.14,7.74,7.74,0,0,1,3-3.43,8.31,8.31,0,0,1,4.51-1.19,8,8,0,0,1,5.45,1.9,7.76,7.76,0,0,1,2.43,5.23h-3.57a5.09,5.09,0,0,0-1.31-3.23,4.32,4.32,0,0,0-3-1,4.18,4.18,0,0,0-3.59,1.71,8.54,8.54,0,0,0-1.28,5v1.83a9,9,0,0,0,1.2,5.1,4,4,0,0,0,3.5,1.75,4.69,4.69,0,0,0,3.17-.94,5,5,0,0,0,1.35-3.16Z"/><path d="M177.19,644.83h-6.43v17.73H167.2V644.83h-6.37v-2.89h16.36Z"/><path d="M198.48,653.82h-8.29v8.74H186.6V641.94h13.1v2.89h-9.51V651h8.29Z"/><path d="M210,650.38a9.33,9.33,0,0,0-1.4-.11,3.16,3.16,0,0,0-3.19,1.81v10.48h-3.44V647.24h3.29l.08,1.71a3.85,3.85,0,0,1,3.46-2,3.13,3.13,0,0,1,1.21.19Z"/><path d="M219,662.84a7.1,7.1,0,0,1-5.31-2.06,7.5,7.5,0,0,1-2-5.48v-.43a9.21,9.21,0,0,1,.89-4.1,6.67,6.67,0,0,1,2.48-2.81,6.54,6.54,0,0,1,3.57-1,6,6,0,0,1,4.83,2,8.43,8.43,0,0,1,1.71,5.65V656h-10a4.56,4.56,0,0,0,1.27,3,3.79,3.79,0,0,0,2.79,1.11,4.67,4.67,0,0,0,3.85-1.91L225,660a6.14,6.14,0,0,1-2.46,2.14A7.76,7.76,0,0,1,219,662.84Zm-.41-13.12a2.89,2.89,0,0,0-2.29,1,5.09,5.09,0,0,0-1.11,2.76h6.55v-.26a4.14,4.14,0,0,0-.92-2.61,2.84,2.84,0,0,0-2.23-.89Z"/><path d="M227.33,654.77a9,9,0,0,1,1.64-5.7,5.31,5.31,0,0,1,4.45-2.11,5,5,0,0,1,4.06,1.79l.2-1.51h3.06v21.21H237.3v-7.19a5.17,5.17,0,0,1-3.91,1.58,5.28,5.28,0,0,1-4.4-2.14A9.5,9.5,0,0,1,227.33,654.77Zm3.44.3a6.4,6.4,0,0,0,.93,3.69,3,3,0,0,0,2.57,1.34,3.27,3.27,0,0,0,3-1.75v-7a3.25,3.25,0,0,0-3-1.67,3,3,0,0,0-2.59,1.31,7,7,0,0,0-.91,4.08Z"/><path d="M253.87,661.06a5.33,5.33,0,0,1-4.3,1.78,4.74,4.74,0,0,1-3.78-1.46,6.2,6.2,0,0,1-1.28-4.21v-9.93H248v9.88c0,2,.81,2.92,2.42,2.92a3.41,3.41,0,0,0,3.39-1.8v-11h3.44v15.32H254Z"/><path d="M267.6,662.84a7.1,7.1,0,0,1-5.31-2.06,7.5,7.5,0,0,1-2-5.48v-.43a9.21,9.21,0,0,1,.89-4.1,6.62,6.62,0,0,1,2.48-2.81,6.54,6.54,0,0,1,3.57-1,6,6,0,0,1,4.83,2,8.43,8.43,0,0,1,1.71,5.65V656h-10a4.56,4.56,0,0,0,1.27,3,3.79,3.79,0,0,0,2.79,1.11,4.72,4.72,0,0,0,3.86-1.91l1.85,1.76a6.14,6.14,0,0,1-2.46,2.14A7.76,7.76,0,0,1,267.6,662.84Zm-.42-13.12a2.89,2.89,0,0,0-2.28,1,5.09,5.09,0,0,0-1.11,2.76h6.55v-.26a4.14,4.14,0,0,0-.92-2.61,2.86,2.86,0,0,0-2.24-.89Z"/><path d="M279.75,647.24l.1,1.77a5.46,5.46,0,0,1,4.46-2c3.19,0,4.81,1.82,4.87,5.48v10.12h-3.44v-9.93a3.17,3.17,0,0,0-.63-2.16,2.66,2.66,0,0,0-2.06-.7,3.29,3.29,0,0,0-3.1,1.89v10.9h-3.47V647.24Z"/><path d="M296.48,659.81h8.16v2.75H292.23v-2.25L300,650h-7.63v-2.77h12v2.18Z"/><path d="M321,655.06a9.17,9.17,0,0,1-1.59,5.67,5.17,5.17,0,0,1-4.38,2.11,5,5,0,0,1-4.19-1.94l-.17,1.66h-3.12V640.81H311v7.9a5,5,0,0,1,4-1.75,5.19,5.19,0,0,1,4.4,2.08,9.32,9.32,0,0,1,1.6,5.82Zm-3.44-.3a6.52,6.52,0,0,0-.88-3.74,2.91,2.91,0,0,0-2.54-1.25,3.2,3.2,0,0,0-3.15,2v6.31a3.24,3.24,0,0,0,3.17,2,3,3,0,0,0,2.5-1.2,6.39,6.39,0,0,0,.9-3.64Z"/><path d="M333.18,662.56a5.15,5.15,0,0,1-.39-1.43,5.37,5.37,0,0,1-4,1.71,5.45,5.45,0,0,1-3.77-1.31,4.24,4.24,0,0,1-1.46-3.26,4.36,4.36,0,0,1,1.82-3.76,8.8,8.8,0,0,1,5.2-1.31h2.11v-1a2.68,2.68,0,0,0-.66-1.9,2.6,2.6,0,0,0-2-.71,3,3,0,0,0-1.92.58,1.82,1.82,0,0,0-.75,1.5h-3.44a3.87,3.87,0,0,1,.83-2.36,5.59,5.59,0,0,1,2.27-1.72,7.85,7.85,0,0,1,3.21-.62,6.38,6.38,0,0,1,4.29,1.35,4.79,4.79,0,0,1,1.64,3.8V659a7.64,7.64,0,0,0,.59,3.3v.23Zm-3.78-2.48a4,4,0,0,0,1.92-.49,3.39,3.39,0,0,0,1.35-1.33v-2.89h-1.85a5.09,5.09,0,0,0-2.88.66,2.18,2.18,0,0,0-1,1.89,2,2,0,0,0,.66,1.57A2.56,2.56,0,0,0,329.4,660.08Z"/><path d="M343.06,647.24l.1,1.77a5.46,5.46,0,0,1,4.46-2c3.19,0,4.81,1.82,4.87,5.48v10.12h-3.44v-9.93a3.17,3.17,0,0,0-.63-2.16,2.66,2.66,0,0,0-2.06-.7,3.29,3.29,0,0,0-3.1,1.89v10.9h-3.45V647.24Z"/><path d="M355.48,654.79a9.09,9.09,0,0,1,1.65-5.69,5.22,5.22,0,0,1,4.4-2.14,5,5,0,0,1,3.94,1.69v-7.84h3.44v21.75h-3.12l-.17-1.59a5.08,5.08,0,0,1-4.12,1.87,5.25,5.25,0,0,1-4.35-2.16A9.45,9.45,0,0,1,355.48,654.79Zm3.44.29a6.33,6.33,0,0,0,.9,3.65,2.94,2.94,0,0,0,2.56,1.31,3.27,3.27,0,0,0,3.1-1.88v-6.55a3.23,3.23,0,0,0-3.06-1.84,2.9,2.9,0,0,0-2.58,1.33,7.09,7.09,0,0,0-.91,4Z"/><rect class="cls-4" x="463.98" y="21.06" width="340" height="130"/><path d="M127,689h-9.31v8.12h10.7v1.42H116V678.65h12.31v1.43H117.68v7.48H127Z"/><path d="M145.78,678.65v13.59a6.94,6.94,0,0,1-.89,3.5,5.81,5.81,0,0,1-2.47,2.29,8.11,8.11,0,0,1-3.66.8,7.24,7.24,0,0,1-5-1.71,6.33,6.33,0,0,1-2-4.75V678.65h1.72v13.47a5.14,5.14,0,0,0,1.44,3.9,6.15,6.15,0,0,0,7.78,0,5.23,5.23,0,0,0,1.43-3.89V678.65Z"/><path d="M149.83,697.56a1.17,1.17,0,0,1,.3-.82,1.17,1.17,0,0,1,2,.82,1,1,0,0,1-.31.78,1.17,1.17,0,0,1-.86.31,1.13,1.13,0,0,1-.86-.31A1.08,1.08,0,0,1,149.83,697.56Zm0-12.62a1.23,1.23,0,0,1,.31-.82,1.17,1.17,0,0,1,2,.82,1,1,0,0,1-.31.78,1.17,1.17,0,0,1-.86.31,1.13,1.13,0,0,1-.86-.31,1.08,1.08,0,0,1-.29-.76Z"/><path d="M170.55,698.56h-1.64V680.62l-5.42,2v-1.53l6.78-2.53h.28Z"/><path d="M190.32,683.78a4.61,4.61,0,0,1-.9,2.77,5.44,5.44,0,0,1-2.38,1.8,5.66,5.66,0,0,1,2.76,1.9,4.7,4.7,0,0,1,1,3,5.08,5.08,0,0,1-1.74,4.06,7.85,7.85,0,0,1-9.21,0,5.08,5.08,0,0,1-1.73-4.06,4.86,4.86,0,0,1,1-3,5.58,5.58,0,0,1,2.74-1.91,5.16,5.16,0,0,1-2.35-1.8,4.68,4.68,0,0,1-.88-2.77,5.09,5.09,0,0,1,1.59-3.94,6.81,6.81,0,0,1,8.45,0A5.05,5.05,0,0,1,190.32,683.78Zm-1.12,9.52a4,4,0,0,0-1.33-3.06,5.41,5.41,0,0,0-6.77,0,4,4,0,0,0-1.31,3.08,3.85,3.85,0,0,0,1.27,3,5.78,5.78,0,0,0,6.85,0A3.82,3.82,0,0,0,189.2,693.3Zm-.52-9.53a3.81,3.81,0,0,0-1.18-2.85,4.59,4.59,0,0,0-6,0,3.77,3.77,0,0,0-1.16,2.89,3.65,3.65,0,0,0,1.14,2.75,4.81,4.81,0,0,0,6,0,3.65,3.65,0,0,0,1.2-2.79Z"/><path d="M206,683.78a4.53,4.53,0,0,1-.91,2.77,5.37,5.37,0,0,1-2.38,1.8,5.87,5.87,0,0,1,2.77,1.9,4.7,4.7,0,0,1,1,3,5.08,5.08,0,0,1-1.74,4.06,7.85,7.85,0,0,1-9.21,0,5.08,5.08,0,0,1-1.73-4.06,4.84,4.84,0,0,1,1-3,5.51,5.51,0,0,1,2.73-1.91,5.23,5.23,0,0,1-2.35-1.8,4.67,4.67,0,0,1-.87-2.77,5.09,5.09,0,0,1,1.59-3.94,6.81,6.81,0,0,1,8.45,0A5.05,5.05,0,0,1,206,683.78Zm-1.12,9.52a4,4,0,0,0-1.33-3.06,5.4,5.4,0,0,0-6.77,0,4,4,0,0,0-1.31,3.08,3.8,3.8,0,0,0,1.27,3,5.78,5.78,0,0,0,6.85,0A3.82,3.82,0,0,0,204.86,693.3Zm-.52-9.53a3.82,3.82,0,0,0-1.19-2.85,4.59,4.59,0,0,0-6,0,3.76,3.76,0,0,0-1.15,2.89,3.61,3.61,0,0,0,1.15,2.81,4.81,4.81,0,0,0,6,0,3.66,3.66,0,0,0,1.19-2.85Z"/><path d="M221.91,690.26a11,11,0,0,1-1.55,6.39,5.85,5.85,0,0,1-9.08,0,10.66,10.66,0,0,1-1.61-6.22V686.9q0-4.2,1.56-6.36a5.89,5.89,0,0,1,8.29-.83,5.53,5.53,0,0,1,.77.76,10.4,10.4,0,0,1,1.62,6.14Zm-1.64-3.57a9.66,9.66,0,0,0-1.12-5.17,4.11,4.11,0,0,0-5.73-1,4.06,4.06,0,0,0-1,1,9.35,9.35,0,0,0-1.15,5.05v3.91a9.75,9.75,0,0,0,1.15,5.21,4,4,0,0,0,5.54,1.14,4.12,4.12,0,0,0,1.14-1.14,9.81,9.81,0,0,0,1.14-5.17Z"/><path d="M237.86,690.47h-6.55v-1.38h6.55Z"/><path d="M255.23,698.56h-1.65V680.62l-5.41,2v-1.53l6.78-2.51h.28Z"/><path d="M273.48,689.35a6.21,6.21,0,0,1-2.17,2,5.93,5.93,0,0,1-2.82.71,5.22,5.22,0,0,1-3-.88,5.62,5.62,0,0,1-2-2.42,7.85,7.85,0,0,1-.71-3.37,8.38,8.38,0,0,1,.75-3.59,5.92,5.92,0,0,1,2.12-2.5,6.11,6.11,0,0,1,7.8,1.2,9.42,9.42,0,0,1,1.67,6V688c0,3.59-.76,6.29-2.3,8.09s-3.86,2.71-7,2.71h-.34v-1.42h.58a7.33,7.33,0,0,0,5.43-2A8.75,8.75,0,0,0,273.48,689.35Zm-4.78,1.27a4.81,4.81,0,0,0,2.94-1,5.25,5.25,0,0,0,1.85-2.53v-.94a7.68,7.68,0,0,0-1.26-4.7,4.06,4.06,0,0,0-3.41-1.67,3.91,3.91,0,0,0-3.19,1.56,6.08,6.08,0,0,0-1.24,3.94,6,6,0,0,0,1.19,3.8A3.79,3.79,0,0,0,268.7,690.62Z"/><path d="M290.93,690.26a11,11,0,0,1-1.55,6.39,5.84,5.84,0,0,1-8.22.85,5.69,5.69,0,0,1-.85-.85,10.59,10.59,0,0,1-1.62-6.22v-3.57q0-4.2,1.56-6.36a5.9,5.9,0,0,1,8.3-.83,5.53,5.53,0,0,1,.77.76,10.46,10.46,0,0,1,1.61,6.14Zm-1.64-3.57a9.66,9.66,0,0,0-1.12-5.17,4.11,4.11,0,0,0-5.73-1,4.06,4.06,0,0,0-1,1,9.35,9.35,0,0,0-1.15,5.05v3.91a9.75,9.75,0,0,0,1.15,5.21,4,4,0,0,0,5.54,1.14,4.12,4.12,0,0,0,1.14-1.14,9.81,9.81,0,0,0,1.14-5.17Z"/><path d="M306.59,690.26a11,11,0,0,1-1.55,6.39,5.85,5.85,0,0,1-9.08,0,10.66,10.66,0,0,1-1.61-6.22V686.9q0-4.2,1.56-6.36a5.89,5.89,0,0,1,8.29-.83,5.53,5.53,0,0,1,.77.76,10.4,10.4,0,0,1,1.62,6.14ZM305,686.69a9.77,9.77,0,0,0-1.12-5.17,4.11,4.11,0,0,0-5.73-1,4.06,4.06,0,0,0-1,1,9.32,9.32,0,0,0-1.15,5v3.91a9.75,9.75,0,0,0,1.15,5.21,3.75,3.75,0,0,0,3.36,1.8,3.7,3.7,0,0,0,3.31-1.76,9.7,9.7,0,0,0,1.15-5.17Z"/><path d="M320.06,678.65l7.34,17.57,7.37-17.57H337v19.91h-1.68v-8.67l.14-8.88-7.41,17.55h-1.3l-7.38-17.49.13,8.77v8.72h-1.68V678.65Z"/><path d="M357,698.56h-1.7V689H343.88v9.54H342.2V678.65h1.68v8.91h11.37v-8.95H357Z"/><path d="M362.85,697.18h9.63v1.38H360.82v-1.2l9-12.17h-8.69v-1.42h10.76V685Z"/><path d="M627.48,749.47a22.19,22.19,0,0,1-5.79-.77,19,19,0,0,1-5.21-2.24,9.93,9.93,0,0,1-3.34-3.17l1.1-.4a8.19,8.19,0,0,0,1.88,1.79,14.75,14.75,0,0,0,2.92,1.59,21.07,21.07,0,0,0,3.81,1.12,24.06,24.06,0,0,0,4.79.44,23.7,23.7,0,0,0,5.5-.65,18.89,18.89,0,0,0,4.65-1.79,9.4,9.4,0,0,0,3-2.5l1.06.4a10.31,10.31,0,0,1-3.36,3.21,18.67,18.67,0,0,1-5.1,2.22A23.13,23.13,0,0,1,627.48,749.47Z"/><path d="M615.31,739.36a1.06,1.06,0,0,1,1.1-1.13,1,1,0,0,1,1.07.92.74.74,0,0,1,0,.21,1.1,1.1,0,0,1-.31.82,1.11,1.11,0,0,1-.78.29,1.16,1.16,0,0,1-.78-.29A1.09,1.09,0,0,1,615.31,739.36Zm5.38-.8h16.55a4.45,4.45,0,0,1,3.13,1,3.72,3.72,0,0,1,1.08,2.9,4.1,4.1,0,0,1-.25,1.43h-1.34a4.68,4.68,0,0,0,.17-1.23c0-1.63-.93-2.44-2.8-2.44H620.69Z"/><path d="M635.75,728.21a6.5,6.5,0,0,1-.93,3.41,6.3,6.3,0,0,1-2.59,2.37,8,8,0,0,1-3.72.85h-.59a8.77,8.77,0,0,1-3.84-.83,6.59,6.59,0,0,1-2.69-2.3,5.64,5.64,0,0,1-1-3.2,5.38,5.38,0,0,1,1.84-4.28,7.46,7.46,0,0,1,5-1.57h.91v10.55h.34a6.2,6.2,0,0,0,4.19-1.44,4.62,4.62,0,0,0,1.67-3.63,5.31,5.31,0,0,0-.48-2.32,5.08,5.08,0,0,0-1.53-1.82l.78-1A6,6,0,0,1,635.75,728.21Zm-13.94.3a4.11,4.11,0,0,0,1.35,3.11,6.31,6.31,0,0,0,3.64,1.54v-8.88h-.18a5.42,5.42,0,0,0-3.47,1.22,3.73,3.73,0,0,0-1.34,3.06Z"/><path d="M634.37,707.19a4.33,4.33,0,0,0-1-2.86,3.4,3.4,0,0,0-2.5-1.25v-1.52a4.47,4.47,0,0,1,2.47.84,5.22,5.22,0,0,1,1.74,2.07,6.31,6.31,0,0,1,.63,2.77,5.76,5.76,0,0,1-2,4.62,8.2,8.2,0,0,1-5.44,1.7h-.49a9.36,9.36,0,0,1-3.87-.77,5.9,5.9,0,0,1-2.6-2.19,6,6,0,0,1-.92-3.34,5.72,5.72,0,0,1,1.45-4,5.29,5.29,0,0,1,3.84-1.7v1.57a4.25,4.25,0,0,0-2.27,7.56,7.2,7.2,0,0,0,4.48,1.23h.48a7.09,7.09,0,0,0,4.42-1.23A4.14,4.14,0,0,0,634.37,707.19Z"/><path d="M635.48,688.9a8,8,0,0,1-2.06.31,5.91,5.91,0,0,1,1.73,2.2,6.84,6.84,0,0,1,.6,2.82,5,5,0,0,1-1.19,3.45,3.87,3.87,0,0,1-3,1.32,4,4,0,0,1-3.42-1.79,8.64,8.64,0,0,1-1.26-5v-3H625.2a3.22,3.22,0,0,0-2.5,1,4,4,0,0,0-.91,2.85,4.45,4.45,0,0,0,.88,2.83,2.6,2.6,0,0,0,2.1,1.12v1.64a3.8,3.8,0,0,1-3-1.64,6.29,6.29,0,0,1-1.3-4,5.72,5.72,0,0,1,1.24-3.9,4.48,4.48,0,0,1,3.45-1.47h7a8.82,8.82,0,0,0,3.22-.45h.1ZM634.3,694a5.49,5.49,0,0,0-.79-2.93,4.66,4.66,0,0,0-2.12-1.88h-3.25v2.92A7.31,7.31,0,0,0,629,696a2.71,2.71,0,0,0,2.39,1.38,2.62,2.62,0,0,0,2.06-.92,3.51,3.51,0,0,0,.82-2.4Z"/><path d="M634.48,683.39a1.18,1.18,0,0,1-.82-.31,1.08,1.08,0,0,1-.33-.85,1.1,1.1,0,0,1,.33-.86,1.13,1.13,0,0,1,.82-.32,1,1,0,0,1,.78.32,1.33,1.33,0,0,1,0,1.71A1,1,0,0,1,634.48,683.39Z"/><path d="M635.48,662.39V664H617.54l2,5.41H618l-2.53-6.78v-.27Z"/><path d="M616.48,642.22l19,8.51v1.71L617,644v11.32h-1.4V642.22Z"/><path d="M635.48,626.5V639h-1.26l-7.74-6.82a17.25,17.25,0,0,0-3.22-2.35,5.37,5.37,0,0,0-2.48-.66,4,4,0,0,0-3,1.11,4.11,4.11,0,0,0-1.11,3,4.25,4.25,0,0,0,1.31,3.31,4.62,4.62,0,0,0,3.34,1.24v1.63a6.32,6.32,0,0,1-3.07-.76,5.47,5.47,0,0,1-2.16-2.16,6.37,6.37,0,0,1-.79-3.19,6,6,0,0,1,1.44-4.28,5.07,5.07,0,0,1,3.91-1.53,6.5,6.5,0,0,1,3,.86,22.42,22.42,0,0,1,4.13,3.06l6.28,5.55V626.5Z"/><path d="M620.7,611.72a4.53,4.53,0,0,1,2.77.9,5.44,5.44,0,0,1,1.8,2.38,5.79,5.79,0,0,1,1.9-2.76,4.7,4.7,0,0,1,3-1,5.08,5.08,0,0,1,4.06,1.74,7.85,7.85,0,0,1,0,9.21,5.1,5.1,0,0,1-4.06,1.73,5,5,0,0,1-3-1,5.58,5.58,0,0,1-1.91-2.74,5.24,5.24,0,0,1-1.8,2.36,4.67,4.67,0,0,1-2.77.87,5.09,5.09,0,0,1-3.94-1.59,6.81,6.81,0,0,1,0-8.45A5.05,5.05,0,0,1,620.7,611.72Zm0,1.64a3.78,3.78,0,0,0-2.85,1.19,4.56,4.56,0,0,0,0,6,3.77,3.77,0,0,0,2.89,1.16,3.65,3.65,0,0,0,2.74-1.15,4.3,4.3,0,0,0,1.07-3,4.34,4.34,0,0,0-1.07-3,3.62,3.62,0,0,0-2.79-1.2Zm9.53-.52a4,4,0,0,0-3.06,1.33,5.41,5.41,0,0,0,0,6.77,4,4,0,0,0,3.08,1.31,3.84,3.84,0,0,0,3-1.27,5.78,5.78,0,0,0,0-6.85,3.8,3.8,0,0,0-3-1.29Z"/><path d="M628,597.35l1.8,1.88h5.65v1.64h-21v-1.64h13.44l-1.67-1.55L620.69,592V590l6.23,6.27,8.56-6.82v2Z"/><path d="M635.48,572v1.69h-9.54v11.38h9.54v1.68H615.57v-1.68h8.91V573.71h-9V572Z"/><path d="M634.1,566.26v-9.61h1.38v11.64h-1.2l-12.17-9V568h-1.42V557.25h1.23Z"/><path d="M627.65,548.83a22,22,0,0,1,5.83.73,18.26,18.26,0,0,1,5.09,2.2A10.43,10.43,0,0,1,642,555l-1.06.4a8.78,8.78,0,0,0-3-2.48,18.28,18.28,0,0,0-4.69-1.8,23.63,23.63,0,0,0-5.8-.66,21.82,21.82,0,0,0-5.46.66,19,19,0,0,0-4.71,1.81,9,9,0,0,0-3,2.47l-1-.4a10.12,10.12,0,0,1,3.36-3.18,18.58,18.58,0,0,1,5.13-2.23A22.8,22.8,0,0,1,627.65,548.83Z"/><path d="M1356.67,277.2a21.77,21.77,0,0,1,.77-5.79,18.84,18.84,0,0,1,2.24-5.14,9.93,9.93,0,0,1,3.17-3.34l.4,1.11a7.76,7.76,0,0,0-1.79,1.87,14.75,14.75,0,0,0-1.59,2.92,21.07,21.07,0,0,0-1.12,3.81,23.34,23.34,0,0,0-.44,4.79,22.67,22.67,0,0,0,.65,5.5,18.5,18.5,0,0,0,1.79,4.65,9.27,9.27,0,0,0,2.5,3l-.4,1.06a10.41,10.41,0,0,1-3.21-3.36,18.67,18.67,0,0,1-2.22-5.1A23.18,23.18,0,0,1,1356.67,277.2Z"/><path d="M1367.72,270.45V287a4.45,4.45,0,0,1-1,3.13,3.73,3.73,0,0,1-2.9,1.08,4.1,4.1,0,0,1-1.43-.25v-1.34a4.62,4.62,0,0,0,1.23.17c1.63,0,2.44-.93,2.44-2.8V270.45Zm-.8-5.38a1.08,1.08,0,0,1,.83.32,1.12,1.12,0,0,1,.3.78,1,1,0,0,1-.9,1.09h-.23a1.08,1.08,0,0,1-.82-.31,1.11,1.11,0,0,1-.29-.78,1.16,1.16,0,0,1,.29-.78A1,1,0,0,1,1366.92,265.07Z"/><path d="M1378.21,285.56a6.33,6.33,0,0,1-5.78-3.52,8,8,0,0,1-.85-3.72v-.59a8.63,8.63,0,0,1,.83-3.84,6.59,6.59,0,0,1,2.3-2.69,5.64,5.64,0,0,1,3.2-1,5.38,5.38,0,0,1,4.28,1.84,7.46,7.46,0,0,1,1.57,5V278h-10.55v.32a6.22,6.22,0,0,0,1.44,4.19,4.62,4.62,0,0,0,3.63,1.67,5.45,5.45,0,0,0,2.32-.48,5.08,5.08,0,0,0,1.82-1.53l1,.78A6,6,0,0,1,1378.21,285.56Zm-.3-13.94a4.09,4.09,0,0,0-3.11,1.35,6.31,6.31,0,0,0-1.54,3.64h8.88v-.18a5.4,5.4,0,0,0-1.22-3.47,3.73,3.73,0,0,0-3-1.4Z"/><path d="M1399.48,284.13a4.33,4.33,0,0,0,2.86-1,3.4,3.4,0,0,0,1.25-2.5h1.57a4.58,4.58,0,0,1-.84,2.47,5.29,5.29,0,0,1-2.07,1.74,6.31,6.31,0,0,1-2.77.63,5.74,5.74,0,0,1-4.62-2,8.2,8.2,0,0,1-1.7-5.44v-.47a9.2,9.2,0,0,1,.77-3.87,5.9,5.9,0,0,1,2.19-2.6,6,6,0,0,1,3.34-.92,5.72,5.72,0,0,1,4,1.45,5.28,5.28,0,0,1,1.68,3.82h-1.57a4.25,4.25,0,0,0-7.56-2.27,7.12,7.12,0,0,0-1.23,4.48v.48a7.09,7.09,0,0,0,1.23,4.42A4.13,4.13,0,0,0,1399.48,284.13Z"/><path d="M1417.94,285.24a7.56,7.56,0,0,1-.31-2.06,5.91,5.91,0,0,1-2.2,1.73,6.87,6.87,0,0,1-2.82.6,4.93,4.93,0,0,1-3.45-1.19,3.88,3.88,0,0,1-1.32-3,4,4,0,0,1,1.8-3.42,8.62,8.62,0,0,1,5-1.26h3V275a3.26,3.26,0,0,0-1-2.5,4.13,4.13,0,0,0-2.86-.91,4.43,4.43,0,0,0-2.83.88,2.62,2.62,0,0,0-1.12,2.11h-1.64a3.82,3.82,0,0,1,1.64-3.05,6.28,6.28,0,0,1,4-1.3,5.74,5.74,0,0,1,3.9,1.24,4.48,4.48,0,0,1,1.47,3.45v7a8.82,8.82,0,0,0,.45,3.22v.16Zm-5.14-1.18a5.49,5.49,0,0,0,2.93-.79,4.71,4.71,0,0,0,1.88-2.12V277.9h-2.92a7.31,7.31,0,0,0-3.83.89,2.71,2.71,0,0,0-1.38,2.39,2.64,2.64,0,0,0,.92,2.06A3.49,3.49,0,0,0,1412.8,284.06Z"/><path d="M1423.59,284.26a1.12,1.12,0,0,1,.31-.82,1.08,1.08,0,0,1,.85-.33,1.11,1.11,0,0,1,.86.33,1.17,1.17,0,0,1,.32.82,1,1,0,0,1-.32.78,1.13,1.13,0,0,1-.86.31,1.11,1.11,0,0,1-.85-.31A1,1,0,0,1,1423.59,284.26Z"/><path d="M1447.3,278.83h3.11v1.38h-3.11v5h-1.64v-5h-9.36v-.93l9.21-14h1.79Zm-9,0h7.35V267.45l-.72,1.26Z"/><path d="M1460.53,285.24h-1.64V267.3l-5.42,2v-1.53l6.78-2.51h.28Z"/><path d="M1480.83,266.28l-8.5,19h-1.71l8.45-18.51h-11.32v-1.4h13.08Z"/><path d="M1501,283.37a5.34,5.34,0,0,1-4.72,2.14,4.59,4.59,0,0,1-3.59-1.37,6,6,0,0,1-1.26-4.07v-9.62H1493v9.42q0,4.2,3.42,4.22a4.31,4.31,0,0,0,4.49-2.94v-10.7h1.64v14.79H1501Z"/><path d="M1515.82,281.48a2.32,2.32,0,0,0-1-2,7.39,7.39,0,0,0-3-1.16,13.62,13.62,0,0,1-3-1,4,4,0,0,1-1.62-1.32,3.3,3.3,0,0,1-.52-1.88,3.47,3.47,0,0,1,1.46-2.89,5.86,5.86,0,0,1,3.75-1.15,6.06,6.06,0,0,1,4,1.23,3.92,3.92,0,0,1,1.49,3.19h-1.64a2.63,2.63,0,0,0-1.08-2.16,4.92,4.92,0,0,0-5.34-.14,2.19,2.19,0,0,0-1,1.86,2,2,0,0,0,.81,1.72,8.7,8.7,0,0,0,3,1.11,14.19,14.19,0,0,1,3.22,1.08,4.26,4.26,0,0,1,1.6,1.38,3.67,3.67,0,0,1,.52,2,3.56,3.56,0,0,1-1.51,3,7.67,7.67,0,0,1-8.19-.13,3.85,3.85,0,0,1-1.61-3.16h1.65a2.79,2.79,0,0,0,1.21,2.23,4.93,4.93,0,0,0,2.94.8,4.74,4.74,0,0,0,2.76-.75A2.25,2.25,0,0,0,1515.82,281.48Z"/><path d="M1526.17,277.41a22.66,22.66,0,0,1-.75,5.79,18.26,18.26,0,0,1-2.2,5.09,10.23,10.23,0,0,1-3.23,3.38l-.4-1.06a9,9,0,0,0,2.48-3,17.58,17.58,0,0,0,1.8-4.69,24.63,24.63,0,0,0,.66-5.8,22.79,22.79,0,0,0-.66-5.46,18.9,18.9,0,0,0-1.81-4.7,9.08,9.08,0,0,0-2.47-3l.4-1a10.25,10.25,0,0,1,3.19,3.36,18.86,18.86,0,0,1,2.22,5.13A22.62,22.62,0,0,1,1526.17,277.41Z"/></svg>