<svg xmlns="http://www.w3.org/2000/svg" viewBox="0 0 64 64"><path d="M62.423,17.094l-30-14c-0.268-0.125-0.578-0.125-0.846,0l-30,14C1.225,17.258,1,17.611,1,18 s0.225,0.742,0.577,0.906l30,14C31.711,32.969,31.855,33,32,33s0.289-0.031,0.423-0.094L43,27.97V53.68l-4.814,6.739 c-0.217,0.305-0.247,0.705-0.075,1.039C38.282,61.791,38.625,62,39,62h10c0.375,0,0.718-0.209,0.889-0.542 c0.171-0.334,0.142-0.734-0.075-1.039L45,53.68V27.037l17.423-8.131C62.775,18.742,63,18.389,63,18S62.775,17.258,62.423,17.094z"></path> <path d="M41,31.111l-7.731,3.608C32.875,34.902,32.436,35,32,35s-0.875-0.098-1.27-0.281L11,25.511 V42c0,5.607,9.224,10,21,10c3.244,0,6.283-0.343,9-0.944V31.111z"></path> <path d="M47,28.311v20.748c3.726-1.796,6-4.277,6-7.059V25.51L47,28.311z"></path></svg>