<svg xmlns="http://www.w3.org/2000/svg" xmlns:xlink="http://www.w3.org/1999/xlink" width="480.61" height="146.49" viewBox="0 0 480.61 146.49"><defs><style>.a{fill:none;}.b{fill:#1d1d1b;}.c{fill:#0e6e31;}.d{fill:#356cb4;}.e{fill:#34b44a;}.f{fill:#fff;}.g{fill:#fe0;}.h{fill:#f4e724;}.i{clip-path:url(#a);}.j{fill:#007d00;}.k{clip-path:url(#b);}.l{clip-path:url(#c);}.m{fill:#002dff;}.n{filter:url(#d);}.o{fill:#368a41;}</style><clipPath id="a"><rect class="a" x="104.31" y="93.09" width="63.24" height="14.87"/></clipPath><clipPath id="b"><rect class="a" x="104.31" y="57.53" width="63.24" height="14.87"/></clipPath><clipPath id="c"><rect class="a" x="104.31" y="22.23" width="63.24" height="14.87"/></clipPath><filter id="d" x="-40%" y="-40%" width="180%" height="180%" name="dropshadow-right_mcx"><feGaussianBlur stdDeviation="3" in="SourceAlpha"/><feOffset dx="5" dy="5"/><feComponentTransfer><feFuncA slope="0.45" type="linear"/></feComponentTransfer><feMerge><feMergeNode/><feMergeNode in="SourceGraphic"/></feMerge></filter></defs><path class="b" d="M433.05,58.14c0,4.81-2.3,1.85-3.26,5.83s2.4,2.77-.09,6.67-3,.58-5.74,3.41.65,3.58-3.41,5.75-2.6-1-6.67.08-1.14,3.26-5.83,3.26S406,81,402.23,79.88s-2.53,2.3-6.68-.08S395,77,392.19,74.11s-3.29.5-5.79-3.47.54-3-.08-6.67-3.27-1-3.27-5.83,2.56-1.8,3.27-5.82-2.33-2.46.08-6.68,2.82-.72,5.74-3.4-.57-3.36,3.41-5.75,2.86,1,6.68-.08,1.22-3.26,5.82-3.26,1.87,2.09,5.83,3.26,2.42-2.35,6.67.08.42,3.08,3.41,5.75,3.41-1,5.74,3.4-.82,2.75.09,6.68,3.26,1,3.26,5.82"/><path class="b" d="M408.05,31.12a27,27,0,1,1-27,27,27.06,27.06,0,0,1,27-27m0-1.71a28.74,28.74,0,1,0,28.74,28.73,28.73,28.73,0,0,0-28.74-28.73Z"/><polyline class="c" points="356.34 65.16 343.29 71.22 347.62 71.22 347.62 76.35 365.06 76.35 365.06 71.22 369.39 71.22"/><rect class="d" x="337.57" y="81.64" width="37.54" height="23.89" rx="1.11"/><path d="M369.83,107.64h-27a7.2,7.2,0,0,1-7.18-7.19V86.73a7.19,7.19,0,0,1,7.18-7.19h27A7.19,7.19,0,0,1,377,86.73v13.72A7.2,7.2,0,0,1,369.83,107.64Zm-27-25.54a4.63,4.63,0,0,0-4.62,4.63v13.72a4.63,4.63,0,0,0,4.62,4.63h27a4.63,4.63,0,0,0,4.62-4.63V86.73a4.63,4.63,0,0,0-4.62-4.63Z"/><path class="c" d="M369.38,48.26h-.07a3.26,3.26,0,1,1,0-6.52h2.95A6,6,0,0,0,361.43,43h-19a2,2,0,1,0,0,4h19a6,6,0,0,0,10.83,1.28"/><rect class="d" x="337.57" y="10.25" width="37.54" height="23.8" rx="1.11"/><path d="M369.83,36.2h-27A7.19,7.19,0,0,1,335.67,29V15.29a7.19,7.19,0,0,1,7.18-7.18h27A7.19,7.19,0,0,1,377,15.29V29A7.19,7.19,0,0,1,369.83,36.2Zm-27-25.53a4.62,4.62,0,0,0-4.62,4.62V29a4.62,4.62,0,0,0,4.62,4.62h27A4.62,4.62,0,0,0,374.45,29V15.29a4.62,4.62,0,0,0-4.62-4.62Z"/><rect class="e" x="266.46" y="81.64" width="37.54" height="23.89" rx="1.11"/><rect class="d" x="266.46" y="45.93" width="37.54" height="23.89" rx="1.11"/><rect class="d" x="266.46" y="10.25" width="37.54" height="23.8" rx="1.11"/><path d="M298.72,107.64h-27a7.2,7.2,0,0,1-7.18-7.19V86.73a7.19,7.19,0,0,1,7.18-7.19h27a7.19,7.19,0,0,1,7.18,7.19v13.72A7.2,7.2,0,0,1,298.72,107.64Zm-27-25.54a4.63,4.63,0,0,0-4.62,4.63v13.72a4.63,4.63,0,0,0,4.62,4.63h27a4.63,4.63,0,0,0,4.62-4.63V86.73a4.63,4.63,0,0,0-4.62-4.63Z"/><path d="M298.72,71.92h-27a7.19,7.19,0,0,1-7.18-7.19V51a7.19,7.19,0,0,1,7.18-7.18h27A7.19,7.19,0,0,1,305.9,51V64.73A7.19,7.19,0,0,1,298.72,71.92Zm-27-25.54A4.63,4.63,0,0,0,267.12,51V64.73a4.63,4.63,0,0,0,4.62,4.63h27a4.63,4.63,0,0,0,4.62-4.63V51a4.63,4.63,0,0,0-4.62-4.63Z"/><path d="M298.72,36.2h-27A7.19,7.19,0,0,1,264.56,29V15.29a7.19,7.19,0,0,1,7.18-7.18h27a7.19,7.19,0,0,1,7.18,7.18V29A7.19,7.19,0,0,1,298.72,36.2Zm-27-25.53a4.62,4.62,0,0,0-4.62,4.62V29a4.62,4.62,0,0,0,4.62,4.62h27A4.62,4.62,0,0,0,303.34,29V15.29a4.62,4.62,0,0,0-4.62-4.62Z"/><rect class="d" x="33.74" y="81.64" width="37.54" height="23.89" rx="1.11"/><rect class="e" x="33.74" y="45.93" width="37.54" height="23.89" rx="1.11"/><rect class="d" x="33.74" y="9.56" width="37.54" height="25.19" rx="1.11"/><path d="M66,107.64H39a7.2,7.2,0,0,1-7.18-7.19V86.73A7.19,7.19,0,0,1,39,79.54H66a7.2,7.2,0,0,1,7.19,7.19v13.72A7.2,7.2,0,0,1,66,107.64ZM39,82.1a4.64,4.64,0,0,0-4.62,4.63v13.72A4.64,4.64,0,0,0,39,105.08H66a4.64,4.64,0,0,0,4.63-4.63V86.73A4.64,4.64,0,0,0,66,82.1Z"/><path d="M66,71.92H39a7.19,7.19,0,0,1-7.18-7.19V51A7.19,7.19,0,0,1,39,43.83H66A7.2,7.2,0,0,1,73.19,51V64.73A7.2,7.2,0,0,1,66,71.92ZM39,46.38A4.64,4.64,0,0,0,34.4,51V64.73A4.64,4.64,0,0,0,39,69.36H66a4.64,4.64,0,0,0,4.63-4.63V51A4.64,4.64,0,0,0,66,46.38Z"/><path d="M66,36.2H39A7.19,7.19,0,0,1,31.84,29V15.29A7.19,7.19,0,0,1,39,8.11H66a7.2,7.2,0,0,1,7.19,7.18V29A7.2,7.2,0,0,1,66,36.2ZM39,10.67a4.63,4.63,0,0,0-4.62,4.62V29A4.63,4.63,0,0,0,39,33.64H66A4.63,4.63,0,0,0,70.63,29V15.29A4.63,4.63,0,0,0,66,10.67Z"/><rect x="97.76" y="4.54" width="142.22" height="106.66" rx="5.52"/><rect class="e" x="172.42" y="79.54" width="63.72" height="28.1"/><path class="b" d="M177.11,98V88.27H180a4.48,4.48,0,0,1,2.27.57,3.79,3.79,0,0,1,1.54,1.63,5.06,5.06,0,0,1,.55,2.4v.49a5.23,5.23,0,0,1-.55,2.42,3.88,3.88,0,0,1-1.56,1.6,4.68,4.68,0,0,1-2.33.57Zm1.68-8.32v7h1.1a2.53,2.53,0,0,0,2-.83,3.62,3.62,0,0,0,.72-2.38v-.54a3.65,3.65,0,0,0-.69-2.4,2.38,2.38,0,0,0-2-.83Z"/><path class="b" d="M185.85,88.89a.86.86,0,0,1,.24-.62.89.89,0,0,1,.67-.24.92.92,0,0,1,.68.24.86.86,0,0,1,.24.62.84.84,0,0,1-.24.61.92.92,0,0,1-.68.24.89.89,0,0,1-.67-.24A.84.84,0,0,1,185.85,88.89ZM187.56,98H186V90.76h1.61Z"/><path class="b" d="M193.09,92.23a4.65,4.65,0,0,0-.66,0,1.49,1.49,0,0,0-1.5.85V98h-1.61V90.76h1.54l0,.8a1.83,1.83,0,0,1,1.62-.94,1.53,1.53,0,0,1,.57.1Z"/><path class="b" d="M197.15,98.08a3.37,3.37,0,0,1-2.49-1,3.51,3.51,0,0,1-.95-2.58v-.2a4.23,4.23,0,0,1,.41-1.92,3.14,3.14,0,0,1,1.17-1.32,3,3,0,0,1,1.67-.48,2.83,2.83,0,0,1,2.27.94,3.94,3.94,0,0,1,.8,2.65v.66h-4.69a2.08,2.08,0,0,0,.59,1.4,1.78,1.78,0,0,0,1.31.52,2.2,2.2,0,0,0,1.81-.89l.87.83a2.94,2.94,0,0,1-1.15,1A3.7,3.7,0,0,1,197.15,98.08ZM197,91.92a1.38,1.38,0,0,0-1.08.47,2.46,2.46,0,0,0-.52,1.29h3.08v-.12a2,2,0,0,0-.43-1.22A1.36,1.36,0,0,0,197,91.92Z"/><path class="b" d="M204.24,96.79a1.46,1.46,0,0,0,1-.35,1.21,1.21,0,0,0,.42-.87h1.52a2.31,2.31,0,0,1-.42,1.25,2.64,2.64,0,0,1-1.06.92,3.13,3.13,0,0,1-1.45.34,3.07,3.07,0,0,1-2.39-1,3.91,3.91,0,0,1-.89-2.7v-.17a3.85,3.85,0,0,1,.88-2.63,3,3,0,0,1,2.39-1,2.93,2.93,0,0,1,2.09.75,2.67,2.67,0,0,1,.85,2h-1.52a1.5,1.5,0,0,0-.42-1,1.36,1.36,0,0,0-1-.4,1.42,1.42,0,0,0-1.21.57,2.88,2.88,0,0,0-.43,1.72v.26a3,3,0,0,0,.42,1.75A1.43,1.43,0,0,0,204.24,96.79Z"/><path class="b" d="M210.44,89v1.75h1.27V92h-1.27v4a.87.87,0,0,0,.16.59.72.72,0,0,0,.58.19,2.78,2.78,0,0,0,.57-.07v1.25a4.12,4.12,0,0,1-1.07.15c-1.24,0-1.86-.68-1.86-2V92h-1.18V90.76h1.18V89Z"/><path class="b" d="M223.9,96.69a3.14,3.14,0,0,1-1.45,1,5.86,5.86,0,0,1-2.12.35,4.12,4.12,0,0,1-2.15-.55A3.64,3.64,0,0,1,216.73,96a5.43,5.43,0,0,1-.52-2.39V92.8a5.13,5.13,0,0,1,1-3.43,3.64,3.64,0,0,1,2.93-1.23,3.86,3.86,0,0,1,2.56.8,3.42,3.42,0,0,1,1.15,2.3h-1.65a1.86,1.86,0,0,0-2-1.75,2,2,0,0,0-1.72.82,4.22,4.22,0,0,0-.61,2.39v.74a3.86,3.86,0,0,0,.67,2.43,2.17,2.17,0,0,0,1.83.87,2.41,2.41,0,0,0,1.84-.59V94.26h-2V93h3.67Z"/><path class="b" d="M225.29,94.29a4.25,4.25,0,0,1,.42-1.91,3,3,0,0,1,1.18-1.3,3.32,3.32,0,0,1,1.74-.46,3.15,3.15,0,0,1,2.36.94,3.67,3.67,0,0,1,1,2.49v.38a4.31,4.31,0,0,1-.41,1.9,2.93,2.93,0,0,1-1.17,1.29,3.3,3.3,0,0,1-1.76.46,3.12,3.12,0,0,1-2.43-1,3.89,3.89,0,0,1-.92-2.7Zm1.62.14a2.82,2.82,0,0,0,.46,1.73,1.6,1.6,0,0,0,2.55,0,3.19,3.19,0,0,0,.45-1.86,2.87,2.87,0,0,0-.47-1.73,1.58,1.58,0,0,0-2.53,0A3.14,3.14,0,0,0,226.91,94.43Z"/><path class="e" d="M235.09,80.48l.09,26-61.63.09-.09-26.1h61.63m.09-3.41H173.46a3.32,3.32,0,0,0-3.31,3.32v26.19a3.31,3.31,0,0,0,3.31,3.31h61.72a3.32,3.32,0,0,0,3.32-3.31V80.39a3.32,3.32,0,0,0-3.32-3.32Z"/><rect class="e" x="127.76" y="84.62" width="22.1" height="5.16"/><rect class="f" x="149.87" y="84.62" width="1.56" height="5.16"/><rect class="g" x="99.24" y="76.8" width="68.35" height="5.1"/><path class="h" d="M106.28,86.69h.61a1.4,1.4,0,0,0,.91-.3,1,1,0,0,0,.33-.8A1,1,0,0,0,107,84.46a1.18,1.18,0,0,0-.85.3,1.05,1.05,0,0,0-.31.8H105a1.62,1.62,0,0,1,.56-1.26,2.28,2.28,0,0,1,2.84,0,1.76,1.76,0,0,1,.52,1.34,1.35,1.35,0,0,1-.28.81,1.62,1.62,0,0,1-.73.58,1.6,1.6,0,0,1,.81.56,1.49,1.49,0,0,1,.29,1,1.78,1.78,0,0,1-.56,1.37,2.12,2.12,0,0,1-1.47.5,2.16,2.16,0,0,1-1.47-.49A1.6,1.6,0,0,1,105,88.6h.83a1,1,0,0,0,.33.81,1.45,1.45,0,0,0,1.79,0,1.23,1.23,0,0,0,.31-.89,1.05,1.05,0,0,0-.35-.85,1.47,1.47,0,0,0-1-.31h-.61Z"/><g class="i"><path class="f" d="M107.9,103.46h4.59v1h-5.87V94.82h1.28Z"/><path class="f" d="M113.76,95.4a.76.76,0,0,1,.18-.51.72.72,0,0,1,.54-.2.73.73,0,0,1,.55.2.76.76,0,0,1,.19.51.74.74,0,0,1-.19.5.73.73,0,0,1-.55.2.72.72,0,0,1-.54-.2A.73.73,0,0,1,113.76,95.4Zm1.33,9.1h-1.23V97.31h1.23Z"/><path class="f" d="M116.76,100.84a4.2,4.2,0,0,1,.78-2.67,2.51,2.51,0,0,1,2.06-1,2.48,2.48,0,0,1,2.06.93l.06-.79h1.12v7a2.94,2.94,0,0,1-.83,2.2,3.07,3.07,0,0,1-2.22.8,3.68,3.68,0,0,1-1.52-.33,2.63,2.63,0,0,1-1.14-.91l.64-.74a2.41,2.41,0,0,0,1.93,1,1.87,1.87,0,0,0,1.4-.51,1.89,1.89,0,0,0,.5-1.42v-.62a2.51,2.51,0,0,1-2,.85,2.47,2.47,0,0,1-2-1A4.48,4.48,0,0,1,116.76,100.84ZM118,101a3.23,3.23,0,0,0,.5,1.91,1.61,1.61,0,0,0,1.4.7,1.79,1.79,0,0,0,1.7-1.06V99.25a1.81,1.81,0,0,0-1.69-1,1.61,1.61,0,0,0-1.4.7A3.46,3.46,0,0,0,118,101Z"/><path class="f" d="M125.92,98.18a2.63,2.63,0,0,1,2.13-1c1.52,0,2.29.86,2.3,2.58v4.75h-1.23V99.74a1.65,1.65,0,0,0-.35-1.15,1.44,1.44,0,0,0-1.09-.37,1.72,1.72,0,0,0-1.05.32,2.2,2.2,0,0,0-.71.83v5.13h-1.23V94.29h1.23Z"/><path class="f" d="M133.86,95.57v1.74h1.34v1h-1.34v4.46a1,1,0,0,0,.18.65.73.73,0,0,0,.61.22,3.33,3.33,0,0,0,.59-.08v1a3.56,3.56,0,0,1-1,.13,1.5,1.5,0,0,1-1.24-.5,2.12,2.12,0,0,1-.42-1.41V98.26h-1.31v-1h1.31V95.57Z"/></g><rect class="e" x="99.24" y="45.93" width="68.35" height="28.52"/><rect class="j" x="127.76" y="49.07" width="22.1" height="5.16"/><rect class="f" x="149.87" y="49.07" width="1.56" height="5.16"/><rect class="g" x="99.24" y="41.24" width="68.35" height="5.1"/><path class="h" d="M109.3,54.74h-4.21v-.58l2.23-2.47a6.74,6.74,0,0,0,.68-.91,1.61,1.61,0,0,0,.18-.73,1.15,1.15,0,0,0-.3-.82,1,1,0,0,0-.81-.32,1.27,1.27,0,0,0-.95.34,1.34,1.34,0,0,0-.33,1H105a1.91,1.91,0,0,1,.57-1.44,2.13,2.13,0,0,1,1.53-.54,2,2,0,0,1,1.41.47A1.57,1.57,0,0,1,109,50a3.66,3.66,0,0,1-1.2,2.25l-1.72,1.87h3.22Z"/><g class="k"><path class="b" d="M109.47,64.63a6.1,6.1,0,0,1-2.39-1.16,2.25,2.25,0,0,1-.74-1.7,2.34,2.34,0,0,1,.91-1.89,3.63,3.63,0,0,1,2.38-.75,3.9,3.9,0,0,1,1.77.39,2.85,2.85,0,0,1,1.21,1.06,2.69,2.69,0,0,1,.43,1.48h-1.28a1.77,1.77,0,0,0-.56-1.38,2.24,2.24,0,0,0-1.57-.5,2.35,2.35,0,0,0-1.48.41,1.39,1.39,0,0,0-.52,1.16,1.23,1.23,0,0,0,.5,1,5,5,0,0,0,1.71.75,7.31,7.31,0,0,1,1.88.75,2.82,2.82,0,0,1,1,1,2.41,2.41,0,0,1,.33,1.28,2.26,2.26,0,0,1-.91,1.89,4,4,0,0,1-2.46.71,4.49,4.49,0,0,1-1.86-.39,3.12,3.12,0,0,1-1.33-1,2.6,2.6,0,0,1-.47-1.51h1.28a1.67,1.67,0,0,0,.65,1.38,2.72,2.72,0,0,0,1.73.51,2.53,2.53,0,0,0,1.55-.41,1.34,1.34,0,0,0,.54-1.12,1.31,1.31,0,0,0-.5-1.1A5.58,5.58,0,0,0,109.47,64.63Z"/><path class="b" d="M114.18,65.28a4.34,4.34,0,0,1,.41-1.9,3.07,3.07,0,0,1,2.85-1.76,3.05,3.05,0,0,1,2.38,1,4,4,0,0,1,.91,2.71v.09a4.22,4.22,0,0,1-.41,1.88,3,3,0,0,1-1.15,1.3,3.16,3.16,0,0,1-1.71.47,3,3,0,0,1-2.37-1,3.88,3.88,0,0,1-.91-2.69Zm1.24.15a3.1,3.1,0,0,0,.55,1.92,1.89,1.89,0,0,0,3,0,3.43,3.43,0,0,0,.55-2.06,3.1,3.1,0,0,0-.56-1.92,1.88,1.88,0,0,0-3,0A3.39,3.39,0,0,0,115.42,65.43Z"/><path class="b" d="M126.71,68.23a2.63,2.63,0,0,1-2.11.85,2.26,2.26,0,0,1-1.75-.67,3,3,0,0,1-.61-2V61.75h1.23V66.4c0,1.09.44,1.63,1.33,1.63a1.83,1.83,0,0,0,1.87-1V61.75h1.24v7.19h-1.17Z"/><path class="b" d="M130.94,61.75l0,.9a2.61,2.61,0,0,1,2.15-1c1.52,0,2.29.85,2.3,2.57v4.75H134.2V64.18a1.62,1.62,0,0,0-.36-1.15,1.44,1.44,0,0,0-1.08-.37,1.79,1.79,0,0,0-1,.32,2.16,2.16,0,0,0-.71.84v5.12h-1.23V61.75Z"/><path class="b" d="M137,65.29a4.26,4.26,0,0,1,.79-2.67,2.67,2.67,0,0,1,4-.14V58.73h1.23V68.94h-1.13l-.06-.77a2.64,2.64,0,0,1-4.09-.12,4.28,4.28,0,0,1-.79-2.67Zm1.24.14a3.16,3.16,0,0,0,.5,1.91,1.64,1.64,0,0,0,1.4.69,1.77,1.77,0,0,0,1.7-1v-3.3a1.79,1.79,0,0,0-1.69-1,1.64,1.64,0,0,0-1.41.7A3.47,3.47,0,0,0,138.22,65.43Z"/></g><rect class="e" x="127.76" y="13.76" width="22.1" height="5.16"/><rect class="f" x="149.87" y="13.76" width="1.56" height="5.16"/><rect class="g" x="99.24" y="5.94" width="68.35" height="5.1"/><path class="h" d="M107.77,19.44H107V14l-1.64.61v-.74l2.34-.88h.12Z"/><g class="l"><path class="f" d="M109.47,29.33a6.1,6.1,0,0,1-2.39-1.16,2.25,2.25,0,0,1-.74-1.7,2.34,2.34,0,0,1,.91-1.89,3.63,3.63,0,0,1,2.38-.75,4,4,0,0,1,1.77.38,2.94,2.94,0,0,1,1.21,1.07,2.66,2.66,0,0,1,.43,1.48h-1.28a1.76,1.76,0,0,0-.56-1.38,2.25,2.25,0,0,0-1.57-.51,2.35,2.35,0,0,0-1.48.42,1.38,1.38,0,0,0-.52,1.15,1.25,1.25,0,0,0,.5,1,5,5,0,0,0,1.71.75,7.72,7.72,0,0,1,1.88.74,2.84,2.84,0,0,1,1,1,2.41,2.41,0,0,1,.33,1.28,2.24,2.24,0,0,1-.91,1.88,3.89,3.89,0,0,1-2.46.71,4.49,4.49,0,0,1-1.86-.38,3.07,3.07,0,0,1-1.33-1,2.55,2.55,0,0,1-.47-1.5h1.28a1.67,1.67,0,0,0,.65,1.38,2.72,2.72,0,0,0,1.73.51,2.53,2.53,0,0,0,1.55-.41,1.35,1.35,0,0,0,.54-1.13,1.33,1.33,0,0,0-.5-1.1A5.61,5.61,0,0,0,109.47,29.33Z"/><path class="f" d="M115.73,27.32a2.63,2.63,0,0,1,2.13-1c1.52,0,2.29.86,2.3,2.58v4.75h-1.23V28.88a1.65,1.65,0,0,0-.35-1.15,1.44,1.44,0,0,0-1.09-.37,1.79,1.79,0,0,0-1,.32,2.2,2.2,0,0,0-.71.83v5.13h-1.22V23.43h1.22Z"/><path class="f" d="M121.68,30a4.31,4.31,0,0,1,.41-1.9,3.16,3.16,0,0,1,1.16-1.31,3.19,3.19,0,0,1,1.69-.46,3,3,0,0,1,2.38,1,3.94,3.94,0,0,1,.9,2.71v.08a4.29,4.29,0,0,1-.4,1.89,3.09,3.09,0,0,1-1.15,1.3,3.19,3.19,0,0,1-1.72.46,3.06,3.06,0,0,1-2.37-1,3.93,3.93,0,0,1-.9-2.7Zm1.23.14a3.06,3.06,0,0,0,.56,1.92,1.87,1.87,0,0,0,3,0A3.31,3.31,0,0,0,127,30a3,3,0,0,0-.56-1.92,1.87,1.87,0,0,0-3,0A3.33,3.33,0,0,0,122.91,30.12Z"/><path class="f" d="M136.13,31.94l1.39-5.49h1.23l-2.1,7.19h-1l-1.75-5.45-1.7,5.45h-1l-2.09-7.19h1.22l1.42,5.38,1.68-5.38h1Z"/></g><path d="M233.94,112.48H103.81a7.33,7.33,0,0,1-7.33-7.32V10.58a7.34,7.34,0,0,1,7.33-7.32H233.94a7.34,7.34,0,0,1,7.32,7.32v94.58A7.33,7.33,0,0,1,233.94,112.48ZM103.81,5.82A4.77,4.77,0,0,0,99,10.58v94.58a4.77,4.77,0,0,0,4.77,4.76H233.94a4.76,4.76,0,0,0,4.76-4.76V10.58a4.77,4.77,0,0,0-4.76-4.76Z"/><rect class="m" x="167.59" y="5.82" width="2.56" height="104.1"/><rect class="m" x="99.04" y="38.71" width="139.66" height="2.56"/><rect class="m" x="99.04" y="74.45" width="139.66" height="2.56"/><g class="n"><path class="o" d="M119.56,131.82a2.58,2.58,0,0,1-.67-.11c-3.47-1-7-1.91-10.43-2.86l-3.24-.88-3.65-1-3.63-1-4.5-1.22a1.78,1.78,0,0,1-1.13-.77,1.75,1.75,0,0,1-.09-1.37l1-3.69c.42-1.57.85-3.14,1.28-4.71a.67.67,0,0,0-.09-.64c-.26-.45-.57-.89-.9-1.35a11.37,11.37,0,0,1-1.59-2.7,18.26,18.26,0,0,1-.51-10.65,156.39,156.39,0,0,1,4.77-16.94,6,6,0,0,1,5.7-4,6.26,6.26,0,0,1,4.44,1.87.43.43,0,0,1,0,0,6.22,6.22,0,0,1,5.91-4.12,5.36,5.36,0,0,1,2.93.84,6.63,6.63,0,0,1,1.45,1.32l.17-.37a6,6,0,0,1,5.45-3.82h.25a5.6,5.6,0,0,1,4.33,1.94q2-7.1,3.91-14.18a5.56,5.56,0,0,1,1.05-2.25,6.27,6.27,0,0,1,4.8-2.36,6.07,6.07,0,0,1,2.89.75,6,6,0,0,1,2.74,7c-.55,2-1.11,4-1.67,6.08-1.2,4.32-2.43,8.79-3.59,13.19-.32,1.24-.68,2.47-1,3.69a56.9,56.9,0,0,0-1.9,7.75c.41-.33.83-.66,1.26-1l.63-.46c1.66-1.21,3.37-2.45,5.1-3.62a6.94,6.94,0,0,1,3.8-1.11,6,6,0,0,1,3.5,1A5.88,5.88,0,0,1,150.8,94a7.23,7.23,0,0,1-1.59,5.31,62.41,62.41,0,0,1-6.26,6.89l-.27.27a104.49,104.49,0,0,1-16.25,13.57,6.48,6.48,0,0,0-2.51,2.38,42.53,42.53,0,0,0-2.84,8C120.79,131.58,120.09,131.82,119.56,131.82Z"/><path class="f" d="M136.57,57.76a5.07,5.07,0,0,1,2.41.63,5,5,0,0,1,2.26,5.89c-1.76,6.42-3.58,12.83-5.26,19.28-1.14,4.35-2.76,8.59-3.16,13.13,0,.18-.16.43.08.52h0a.82.82,0,0,0,.42-.2c.83-.64,1.63-1.32,2.47-1.93,1.89-1.37,3.77-2.75,5.71-4.06a5.85,5.85,0,0,1,3.24-.94,5,5,0,0,1,2.91.85c2.88,2.1,2.65,5.18.7,7.79a64.81,64.81,0,0,1-6.42,7,104.62,104.62,0,0,1-16.1,13.45A7.3,7.3,0,0,0,123,122a44.89,44.89,0,0,0-2.9,8.2c-.11.43-.25.62-.55.62a1.77,1.77,0,0,1-.4-.07c-4.55-1.27-9.12-2.5-13.68-3.75l-3.64-1c-2.72-.73-5.42-1.49-8.14-2.2-.57-.15-.66-.39-.52-.91.77-2.8,1.5-5.61,2.28-8.41a1.7,1.7,0,0,0-.19-1.41c-.77-1.32-1.88-2.43-2.42-3.89a17.32,17.32,0,0,1-.47-10.07,153.36,153.36,0,0,1,4.73-16.83,5,5,0,0,1,4.76-3.34,5.21,5.21,0,0,1,3.74,1.59c.37.37.5,1.17,1,1.17l.12,0c.32-.09.41-1.05.59-1.63a5.22,5.22,0,0,1,5-3.41,4.36,4.36,0,0,1,2.38.68,9.31,9.31,0,0,1,2.21,2.35s.05,0,.08,0h0c.2-.47.39-.94.59-1.42l.19-.43a5,5,0,0,1,4.58-3.23h.21a4.82,4.82,0,0,1,4.26,2.51c.1.16.1.47.31.47h.08c.14,0,.26-.35.31-.56q2.13-7.69,4.24-15.39a4.92,4.92,0,0,1,.86-1.87,5.23,5.23,0,0,1,4-2m0-2h0A7.26,7.26,0,0,0,131,58.48a6.79,6.79,0,0,0-1.25,2.63q-1.73,6.31-3.48,12.64a6.64,6.64,0,0,0-3.79-1.14h-.29a6.91,6.91,0,0,0-5.85,3.5c-.21-.17-.43-.33-.65-.48a6.41,6.41,0,0,0-3.46-1,7.39,7.39,0,0,0-6.3,3.56,7.16,7.16,0,0,0-4.06-1.26,7,7,0,0,0-6.64,4.66,153.94,153.94,0,0,0-4.8,17.05A19.13,19.13,0,0,0,91,109.88a12.36,12.36,0,0,0,1.71,2.94c.3.42.58.81.82,1.21-.44,1.56-.85,3.1-1.26,4.65-.33,1.22-.66,2.45-1,3.68a2.74,2.74,0,0,0,.2,2.13,2.7,2.7,0,0,0,1.74,1.24l4.5,1.22,3.63,1,3.63,1,3.24.88q5.22,1.42,10.44,2.87a3.62,3.62,0,0,0,.93.14,2.51,2.51,0,0,0,2.49-2.13,41.47,41.47,0,0,1,2.77-7.83,5.47,5.47,0,0,1,2.16-2,106.05,106.05,0,0,0,16.41-13.7l.27-.27a63.7,63.7,0,0,0,6.35-7,8.2,8.2,0,0,0,1.78-6.06,6.86,6.86,0,0,0-2.91-4.54,7,7,0,0,0-4.09-1.23,7.94,7.94,0,0,0-4.36,1.28c-1.69,1.14-3.36,2.35-5,3.52.39-1.68.88-3.36,1.4-5.1.35-1.21.72-2.47,1-3.73,1.15-4.4,2.39-8.87,3.58-13.19l1.68-6.07a7,7,0,0,0-3.23-8.16,7.09,7.09,0,0,0-3.37-.88Z"/></g></svg>