<svg id="Ebene_1" data-name="Ebene 1" xmlns="http://www.w3.org/2000/svg" xmlns:xlink="http://www.w3.org/1999/xlink" viewBox="0 0 3728 1490.67"><defs><style>.cls-1{fill:none;}.cls-2,.cls-4{fill:#097e35;}.cls-3{fill:currentColor;}.cls-4{isolation:isolate;opacity:0.66;}.cls-5{fill:#366cb4;}.cls-20,.cls-6{fill:currentColor;}.cls-7{fill:#010101;}.cls-8{fill:#fcea21;}.cls-9{fill:#fff;}.cls-10{fill:#f18619;}.cls-11{fill:#0d8136;}.cls-12{fill:#2b4b9b;}.cls-13{fill:#e51d23;}.cls-14{clip-path:url(#clip-path);}.cls-15{clip-path:url(#clip-path-2);}.cls-16,.cls-17{fill:#368a41;}.cls-16{fill-rule:evenodd;}.cls-18{fill:#356cb3;}.cls-19{fill:#d52426;}.cls-20{font-size:26.93px;}.cls-20,.cls-31{font-family:Roboto-Regular, Roboto;}.cls-21{fill:#1d1d1b;}.cls-22{fill:#585858;}.cls-23{fill:#bf2e18;}.cls-24{fill:#1ca638;}.cls-25{font-size:107px;font-family:Roboto-Bold, Roboto;font-weight:700;}.cls-26{letter-spacing:-0.03em;}.cls-27{letter-spacing:-0.06em;}.cls-28{font-size:67px;font-family:Roboto-Italic, Roboto;font-style:italic;}.cls-29{letter-spacing:-0.01em;}.cls-30{letter-spacing:0em;}.cls-31{font-size:42px;}.cls-32{letter-spacing:-0.01em;}</style><clipPath id="clip-path"><rect class="cls-1" x="1802.17" y="1084.07" width="3516.83" height="387.5"/></clipPath><clipPath id="clip-path-2"><rect class="cls-1" x="2082.81" y="1175.05" width="334.61" height="206.59"/></clipPath></defs><path class="cls-2" d="M1016.73,1360.61V1175.54a5.58,5.58,0,0,0,2.93-1.27l.31-.25,4.46,5.52-.31.25c-5.35,4.32.47,12.56,6.32,9l.33-.2,3.7,6-.31.19h0c-5.08,3.11-2.22,10.24,2.74,10.24a5.83,5.83,0,0,0,2.39-.54l.35-.16,2.92,6.47-.37.16c-6.26,2.82-2.72,12.27,3.86,10.27l.36-.11,2.06,6.79-.36.11h0c-6.21,1.88-4.5,10.77,1.43,10.77a6.44,6.44,0,0,0,1.07-.09l.38-.06,1.18,7-.39.06c-6.78,1.15-5.74,11.18,1.12,10.92h.38l.27,7.09h-.4a5.5,5.5,0,0,0-.28,11l.39,0-.63,7.06-.4,0c-6.85-.61-8.38,9.36-1.67,10.84l.37.08-1.54,6.93-.36-.08h0a5.44,5.44,0,0,0-6.71,5.49,5.22,5.22,0,0,0,3.65,5h0l.37.13-2.4,6.68-.37-.14c-6.47-2.32-10.48,6.93-4.37,10.07l.34.17-3.24,6.31-.33-.17h0c-4.26-2.18-8.06,1.36-8.06,5a5.28,5.28,0,0,0,2.44,4.4l.33.22-4,5.85-.33-.22c-5.67-3.89-11.9,4.05-6.77,8.63l.28.25Z"/><path d="M150,1097.35H920.87a63.81,63.81,0,0,1,63.74,63.74,1256.8,1256.8,0,0,1,0,207.89c0,34.83-28.57,63.4-63.72,63.4H150a63.78,63.78,0,0,1-63.74-63.73,1401.2,1401.2,0,0,1,0-207.84C86.27,1125.94,114.86,1097.35,150,1097.35ZM920.87,1425a56.34,56.34,0,0,0,56.31-56.3,1253.68,1253.68,0,0,0,0-207.27,56.42,56.42,0,0,0-56.31-56.58H150a56.35,56.35,0,0,0-56.28,56.29,1392.44,1392.44,0,0,0,0,207.29A56.43,56.43,0,0,0,150,1424.94Z"/><polygon class="cls-3" points="511.1 1365.38 436.83 1374.95 453.67 1386.63 451.76 1408.64 511.1 1365.38"/><path class="cls-3"" d="M522.39,1384h7.09v9a19.12,19.12,0,0,1-6.7,1.15c-2.66,0-4.79-.77-5.93-2.3a10,10,0,0,1-1.92-6.32,8.51,8.51,0,0,1,2.3-6.31c1.53-1.53,3.45-2.3,6.7-2.3a8.59,8.59,0,0,1,3.06.38,17.44,17.44,0,0,1,2.3.77l-1.53,3.44a6.34,6.34,0,0,0-3.83-.76,4.36,4.36,0,0,0-3.06,1.14,5.75,5.75,0,0,0,0,6.9,3.48,3.48,0,0,0,2.66,1.15h1.91v-2.66h-3.06V1384Z"/><path class="cls-3" d="M537.7,1387.39v6.32h-4.78v-16.84h5.55c4.78,0,6.7,1.52,6.7,5.16a5.52,5.52,0,0,1-2.66,4.79l4.78,7.46h-5.17l-3.47-6.31h-.76v-.58Zm0-3.44h.77c1.53,0,2.29-.76,2.29-1.91s-.76-1.53-2.29-1.53h-.77Z"/><path class="cls-3" d="M559,1393.71H549.2v-16.84H559v3.44H553.4V1383h5.16v3.45H553.4v3.07H559Z"/><path class="cls-3" d="M571.77,1393.71H562v-16.84h9.75v3.44h-5.55V1383h5.17v3.45h-5.17v3.07h5.55Z"/><path class="cls-3" d="M591.11,1393.71h-5.94L578.86,1382h0c0,1.91.38,3.06.38,4.4v7.48h-3.83v-16.85h5.93l6.32,11.68h0v-11.68h3.83v16.85h-.38Z"/><path class="cls-3" d="M593.4,1388.93v-3.43h6.7v3.44Z"/><path class="cls-3" d="M608.7,1384h7.09v9a19.08,19.08,0,0,1-6.7,1.15c-2.66,0-4.78-.77-5.93-2.3a10,10,0,0,1-1.92-6.32,8.51,8.51,0,0,1,2.3-6.31c1.53-1.53,3.45-2.3,6.7-2.3a8.53,8.53,0,0,1,3.06.38,17,17,0,0,1,2.3.77l-1.53,3.44a6.34,6.34,0,0,0-3.83-.76,4.36,4.36,0,0,0-3.06,1.14,4.68,4.68,0,0,0-1.15,3.45,7.9,7.9,0,0,0,.76,3.45,3,3,0,0,0,2.66,1.15h1.92v-2.66h-3.06v-3.45h.38Z"/><path class="cls-3" d="M634.94,1385.1c0,2.66-.77,5.17-1.92,6.32a8.23,8.23,0,0,1-6.31,2.29c-2.66,0-4.79-.76-5.94-2.29a10,10,0,0,1-1.91-6.32c0-2.87.77-5.17,1.91-6.31a9.19,9.19,0,0,1,6.32-2.31c2.66,0,4.78.77,5.93,2.31C634.56,1379.93,634.94,1382.42,634.94,1385.1Zm-11.29,0c0,3.06,1.14,4.79,3.44,4.79a3.5,3.5,0,0,0,2.66-1.15c.77-.77.77-1.92.77-3.45a7.66,7.66,0,0,0-.77-3.45,2.73,2.73,0,0,0-2.3-1.14c-2.66-.39-3.8,1.34-3.8,4.4Z"/><circle class="cls-4" cx="821.19" cy="1349.68" r="50.35"/><circle class="cls-2" cx="821.19" cy="1349.68" r="40.06" transform="translate(-642.61 1944.07) rotate(-80.78)"/><circle class="cls-4" cx="821.19" cy="1180.51" r="50.35"/><circle class="cls-2" cx="821.19" cy="1180.51" r="40.06" transform="translate(-516.42 1708.51) rotate(-76.72)"/><circle class="cls-4" cx="250.14" cy="1349.68" r="50.35"/><circle class="cls-2" cx="250.14" cy="1349.68" r="40.06"/><circle class="cls-4" cx="250.14" cy="1180.51" r="50.35"/><circle class="cls-2" cx="250.14" cy="1180.51" r="40.06"/><ellipse class="cls-5" cx="715.57" cy="1338.94" rx="15.89" ry="26.63"/><ellipse class="cls-5" cx="715.57" cy="1190.81" rx="15.89" ry="26.63"/><ellipse class="cls-5" cx="355.75" cy="1338.94" rx="15.89" ry="26.63"/><ellipse class="cls-5" cx="355.75" cy="1190.81" rx="15.89" ry="26.63"/><rect class="cls-6" x="418.63" y="1186.67" width="234.5" height="156.33"/><rect class="cls-7" x="418.63" y="1186.66" width="234.5" height="156.33"/><rect class="cls-8" x="421.11" y="1189.14" width="229.42" height="9.72"/><path class="cls-9" d="M435.71,1222.29l3.74-.37a4.53,4.53,0,0,0,1.37,2.77,4.19,4.19,0,0,0,2.79.89,4.28,4.28,0,0,0,2.79-.79,2.3,2.3,0,0,0,.94-1.84,1.66,1.66,0,0,0-.39-1.15,3.24,3.24,0,0,0-1.38-.82c-.45-.16-1.48-.45-3.08-.83a10.51,10.51,0,0,1-4.34-1.88,5,5,0,0,1-1.77-3.84,4.83,4.83,0,0,1,.82-2.72,5.18,5.18,0,0,1,2.38-1.93,9.56,9.56,0,0,1,3.74-.66,8,8,0,0,1,5.4,1.57,5.54,5.54,0,0,1,1.9,4.2l-3.84.17a3.31,3.31,0,0,0-1.06-2.12,4,4,0,0,0-2.44-.64,4.42,4.42,0,0,0-2.62.69,1.4,1.4,0,0,0-.61,1.18,1.46,1.46,0,0,0,.57,1.16,10,10,0,0,0,3.55,1.27,18.53,18.53,0,0,1,4.15,1.37,5.3,5.3,0,0,1,2.1,1.94,6,6,0,0,1-.15,6.1,5.45,5.45,0,0,1-2.57,2.12,10.84,10.84,0,0,1-4.14.7,8.22,8.22,0,0,1-5.55-1.68A7.19,7.19,0,0,1,435.71,1222.29Z"/><path class="cls-9" d="M458,1209.44v7a5.48,5.48,0,0,1,6.49-1.6,3.82,3.82,0,0,1,1.53,1.2,4.46,4.46,0,0,1,.7,1.61,13.93,13.93,0,0,1,.18,2.74v8.09h-3.65v-7.28a11.6,11.6,0,0,0-.21-2.76,1.87,1.87,0,0,0-.73-.93,2.4,2.4,0,0,0-1.33-.34,3.09,3.09,0,0,0-1.63.44,2.58,2.58,0,0,0-1,1.33,7.83,7.83,0,0,0-.33,2.63v6.91h-3.65v-19Z"/><path class="cls-9" d="M469.8,1221.39a7.45,7.45,0,0,1,.89-3.52,6.18,6.18,0,0,1,2.54-2.6,7.56,7.56,0,0,1,3.67-.88,6.84,6.84,0,0,1,5.13,2,7.63,7.63,0,0,1,0,10.32,6.8,6.8,0,0,1-5.08,2.06,8,8,0,0,1-3.62-.86,5.84,5.84,0,0,1-2.62-2.51A8.34,8.34,0,0,1,469.8,1221.39Zm3.74.2a4.58,4.58,0,0,0,1,3.14,3.18,3.18,0,0,0,4.49.3,2.91,2.91,0,0,0,.31-.3,4.64,4.64,0,0,0,1-3.17,4.41,4.41,0,0,0-1-3.1,3.19,3.19,0,0,0-4.5-.31,2.91,2.91,0,0,0-.3.31,4.5,4.5,0,0,0-1,3.13Z"/><path class="cls-9" d="M489.46,1228.48l-4.36-13.79h3.55l2.58,9,2.38-9h3.52l2.3,9,2.66-9h3.6l-4.44,13.79h-3.5l-2.38-8.87-2.34,8.87Z"/><path class="cls-10" d="M440,1256h-2.68v-10.11a9.31,9.31,0,0,1-3.46,2v-2.44a7.71,7.71,0,0,0,2.28-1.3,4.87,4.87,0,0,0,1.68-2.24H440Z"/><rect class="cls-11" x="463.99" y="1241.23" width="48.81" height="14.68"/><rect class="cls-9" x="512.2" y="1241.23" width="1.19" height="14.68"/><rect class="cls-8" x="421.11" y="1269.79" width="229.42" height="9.72"/><path class="cls-9" d="M434.77,1302.48l3.75-.36a4.5,4.5,0,0,0,1.37,2.76,4.12,4.12,0,0,0,2.78.89,4.25,4.25,0,0,0,2.8-.79,2.33,2.33,0,0,0,.94-1.83A1.66,1.66,0,0,0,446,1302a3.14,3.14,0,0,0-1.39-.83c-.44-.16-1.47-.44-3.07-.83a10.38,10.38,0,0,1-4.34-1.88,5,5,0,0,1-1-6.56,5.18,5.18,0,0,1,2.37-1.92,9.47,9.47,0,0,1,3.75-.67,8.09,8.09,0,0,1,5.4,1.57,5.54,5.54,0,0,1,1.9,4.2l-3.85.17a3.25,3.25,0,0,0-1-2.11,3.91,3.91,0,0,0-2.44-.65,4.36,4.36,0,0,0-2.62.7,1.37,1.37,0,0,0-.61,1.17,1.44,1.44,0,0,0,.57,1.16,10.12,10.12,0,0,0,3.55,1.27,19.61,19.61,0,0,1,4.15,1.37,5.45,5.45,0,0,1,2.1,1.94,6,6,0,0,1-.15,6.1,5.4,5.4,0,0,1-2.57,2.12,10.84,10.84,0,0,1-4.14.7,8.27,8.27,0,0,1-5.55-1.67A7.24,7.24,0,0,1,434.77,1302.48Z"/><path class="cls-9" d="M452.65,1301.59a7.44,7.44,0,0,1,.88-3.52,6.13,6.13,0,0,1,2.54-2.6,7.57,7.57,0,0,1,3.67-.89,6.85,6.85,0,0,1,5.13,2,7,7,0,0,1,2,5.13,7.11,7.11,0,0,1-2,5.19,6.83,6.83,0,0,1-5.08,2.06,8,8,0,0,1-3.62-.86,5.89,5.89,0,0,1-2.62-2.51A8.31,8.31,0,0,1,452.65,1301.59Zm3.74.19a4.54,4.54,0,0,0,1,3.14,3.19,3.19,0,0,0,4.5.31c.1-.1.21-.2.3-.31a4.69,4.69,0,0,0,1-3.17,4.55,4.55,0,0,0-1-3.1,3.19,3.19,0,0,0-4.5-.3,2.13,2.13,0,0,0-.3.3,4.44,4.44,0,0,0-1,3.13Z"/><path class="cls-9" d="M478.8,1308.68v-2.07a5.3,5.3,0,0,1-2,1.75,5.69,5.69,0,0,1-2.59.63,5.13,5.13,0,0,1-2.49-.61,3.59,3.59,0,0,1-1.6-1.71,7.63,7.63,0,0,1-.49-3.06v-8.72h3.65v6.33a16.86,16.86,0,0,0,.2,3.55,1.94,1.94,0,0,0,.73,1,2.24,2.24,0,0,0,1.33.38,2.87,2.87,0,0,0,1.68-.51,2.63,2.63,0,0,0,1-1.27,15,15,0,0,0,.27-3.72v-5.8h3.65v13.79Z"/><path class="cls-9" d="M498.51,1308.68h-3.65v-7a10.77,10.77,0,0,0-.23-2.89,2.06,2.06,0,0,0-.75-1,2.22,2.22,0,0,0-1.27-.37,3,3,0,0,0-1.7.52,2.63,2.63,0,0,0-1,1.38,11.67,11.67,0,0,0-.28,3.17v6.25h-3.66v-13.78h3.4v2a5.65,5.65,0,0,1,6.75-1.9,3.7,3.7,0,0,1,1.51,1.11,4,4,0,0,1,.72,1.53,11.9,11.9,0,0,1,.2,2.46Z"/><path class="cls-9" d="M514.86,1308.68h-3.39v-2a5.49,5.49,0,0,1-2,1.78,5,5,0,0,1-2.32.57,5.22,5.22,0,0,1-4.07-1.91,9.38,9.38,0,0,1,0-10.67,5.4,5.4,0,0,1,4.17-1.83,5.19,5.19,0,0,1,4,1.93v-6.88h3.65Zm-9.75-7.2a6.27,6.27,0,0,0,.61,3.2,2.76,2.76,0,0,0,2.47,1.43,2.69,2.69,0,0,0,2.14-1.07,5,5,0,0,0,.89-3.21,5.43,5.43,0,0,0-.86-3.42,2.72,2.72,0,0,0-2.22-1,2.75,2.75,0,0,0-2.18,1,4.94,4.94,0,0,0-.84,3.08Z"/><path class="cls-10" d="M442.15,1333.18v2.49h-9.39a6.36,6.36,0,0,1,.92-2.66,17.22,17.22,0,0,1,3-3.37,19.12,19.12,0,0,0,2.21-2.29,2.94,2.94,0,0,0,.56-1.64,1.84,1.84,0,0,0-.49-1.38,2.05,2.05,0,0,0-2.66,0,2.63,2.63,0,0,0-.57,1.68l-2.66-.26a4.38,4.38,0,0,1,1.5-3.18,4.94,4.94,0,0,1,3.15-1,4.55,4.55,0,0,1,3.25,1.11,3.63,3.63,0,0,1,1.18,2.78,4.78,4.78,0,0,1-.34,1.79,7.33,7.33,0,0,1-1.07,1.78,18.48,18.48,0,0,1-1.77,1.77c-.85.78-1.38,1.29-1.61,1.55a4.06,4.06,0,0,0-.55.74Z"/><rect class="cls-11" x="463.99" y="1321" width="48.81" height="14.68"/><rect class="cls-9" x="512.2" y="1321" width="1.19" height="14.68"/><rect class="cls-12" x="418.63" y="1263.64" width="234.5" height="2.39"/><rect class="cls-2" x="418.63" y="1284.18" width="8.12" height="58.83"/><rect class="cls-2" x="418.63" y="1204.81" width="8.12" height="58.83"/><rect class="cls-13" x="645.13" y="1284.18" width="8.12" height="58.83"/><rect class="cls-13" x="645.13" y="1204.81" width="8.12" height="58.83"/><path class="cls-2" d="M19,1273.8l-.39,0,.63,7.07.39,0c6.85-.61,8.39,9.36,1.68,10.84l-.38.08,1.54,6.93.36-.08h0a5.44,5.44,0,0,1,6.71,5.49,5.23,5.23,0,0,1-3.66,5h0l-.36.13,2.38,6.68.37-.13c6.47-2.33,10.48,6.92,4.37,10.06l-.31.19,3.24,6.31.33-.17h0c4.27-2.19,8.06,1.36,8.06,5a5.24,5.24,0,0,1-2.43,4.4l-.33.22,3.86,5.63a1351.26,1351.26,0,0,0,.28-158.85,5.33,5.33,0,0,1-4-.77l-.32-.2-3.71,6,.32.2h0c5.08,3.1,2.22,10.23-2.73,10.23a5.88,5.88,0,0,1-2.4-.54l-.35-.16-2.91,6.47.36.17c6.26,2.81,2.71,12.25-3.85,10.26l-.37-.11L23.38,1227l.35.11h0c6.21,1.88,4.5,10.77-1.44,10.77a6.32,6.32,0,0,1-1.06-.09l-.39-.07-1.18,7,.4.07c6.77,1.14,5.76,11.17-1.12,10.91h-.39l-.27,7.1h.41a5.5,5.5,0,0,1,.28,11Z"/><path class="cls-3" d="M1028.42,1159.35l0-.83a104.43,104.43,0,0,0-104.32-104.31H147.75a104.42,104.42,0,0,0-104.31,104.3l0,.83c5.5,74,5.51,145.1,0,211.47l0,.94a104.44,104.44,0,0,0,104.32,104.32H924.13a104.44,104.44,0,0,0,104.32-104.32l0-.92C1022.92,1304.45,1022.92,1233.3,1028.42,1159.35Zm-22.35,212.85a82,82,0,0,1-81.94,81.49H147.75a82,82,0,0,1-81.94-81.49c5.54-67.28,5.54-139.3,0-214.08a82,82,0,0,1,81.94-81.54H924.13a82,82,0,0,1,81.94,81.54C1000.53,1232.9,1000.53,1304.92,1006.07,1372.2Z"/><g class="cls-14"><path class="cls-6" d="M2408.68,1153.65c18.66,0,33.93,16.2,33.93,36V1365c0,19.79-15.27,36-33.93,36H2093.55c-18.65,0-33.92-16.2-33.92-36v-175.4c0-19.79,15.27-36,33.92-36h315.13m0-6.34H2093.55c-22,0-39.9,19-39.9,42.33V1365c0,23.34,17.9,42.33,39.9,42.33h315.13c22,0,39.91-19,39.91-42.33v-175.4c0-23.34-17.9-42.33-39.91-42.33"/></g><g class="cls-15"><path class="cls-16" d="M2149.31,1381.63l10.1-104.26-76.59-56.72,334.6-45.6m-221.93,153.08a23.79,23.79,0,0,0,5.47-6.24,64.71,64.71,0,0,0,5.4-11.21,55.63,55.63,0,0,0,2.24-7,8.46,8.46,0,0,0,.22-3.27,7,7,0,0,0-.68-2,3.26,3.26,0,0,0-1.91-1.7,2.47,2.47,0,0,0-1.95.11c-.53.31-.93.56-1.21.76-.62.48-2.18,1.74-4.69,3.81a26.37,26.37,0,0,0-2.8,2.56c-1.08,1.09-2.51,2.6-4.28,4.51l-1.79,2-.15.31-.08.16a3.9,3.9,0,0,0-.16,1c0,.44,0,1.06,0,1.85v.59a2.92,2.92,0,0,0,.9,1.24l.6,0,.62,0,.65-.08.65-.07.44-.94a6.31,6.31,0,0,0,.33-1.15l.08-.3.17-1a6.7,6.7,0,0,1,.85-2.4,25.44,25.44,0,0,1,2.72-2.78l1.57-1.37c.4-.3,1-.77,1.74-1.38s1.28-1,1.58-1.26a5.44,5.44,0,0,1,.65-.44,7.18,7.18,0,0,1,1.38-.87,3.49,3.49,0,0,1,1.14-.23,1.06,1.06,0,0,1,1.07.66,1.7,1.7,0,0,1,.2,1,14.5,14.5,0,0,1-.65,2.29q-.65,1.82-2.09,5.18a69.77,69.77,0,0,1-5.08,9.9,21.07,21.07,0,0,1-4.65,5.48,5,5,0,0,1-3.92,1.21,4.34,4.34,0,0,1-3.06-2.44,10.14,10.14,0,0,1-.85-2.15,17.53,17.53,0,0,1-.6-3c-.17-1.19-.29-2.76-.38-4.74v-2.92a40.9,40.9,0,0,1,.7-6.91,37.14,37.14,0,0,1,1.85-6.27,46.7,46.7,0,0,1,2.94-6.06,13.78,13.78,0,0,1,2.37-3.31,1.28,1.28,0,0,1,1.29-.15l.24.13,1.13.52.7.31h.25l.27,0,.63-.12a21.22,21.22,0,0,0,2-3.17,5,5,0,0,0-.12-2l-.75-1.07a4,4,0,0,0-2.32-1.24c-1.09-.13-2.54.5-4.33,1.85q-4,3-7.35,12.2a47.27,47.27,0,0,0-2.66,15.23c0,1.13,0,1.85,0,2.14,0,.6.06,1.31.15,2.12.17,2.09.36,3.74.56,4.88a17.39,17.39,0,0,0,.8,3,14.62,14.62,0,0,0,.92,2.11,7.22,7.22,0,0,0,4.86,4,7.61,7.61,0,0,0,6.21-1.8m25.41-19.31a2.71,2.71,0,0,0,.69-1.25c.1-.28.19-.56.28-.86a1.2,1.2,0,0,0,0-.38l-1.77-2.74-2.11-3.26a24.06,24.06,0,0,0,4.74-.7c1.68-.41,4.08-1.17,7.15-2.26,3.78-1.35,6.64-2.48,8.6-3.35a29,29,0,0,0,5.71-3.21l.6-.46c.45-.34.91-.69,1.42-1l1.53-1.13A5.6,5.6,0,0,0,2249,1287a4.2,4.2,0,0,0,.51-1.58l.09-.42a3.8,3.8,0,0,0-1.18-1.09l-.47-.26-.28.05a22,22,0,0,1-3,2.75,50.36,50.36,0,0,1-8,4.67c-1.89,1-4,1.9-6.5,2.84q-5.4,2.05-6.91,2.52a7.92,7.92,0,0,1-2.86.35l1.77-2.49c1.34-2,2.63-4,3.86-6.17a62.72,62.72,0,0,0,4.51-9.74,23.35,23.35,0,0,0,1.46-6.81,17.68,17.68,0,0,0-.29-3.75,10.32,10.32,0,0,0-1-2.92,6,6,0,0,0-3.23-3,5.55,5.55,0,0,0-4.15.21,19.63,19.63,0,0,0-4.07,2.37c-.34.26-.64.49-.86.69s-.45.4-.69.61a28.25,28.25,0,0,0-6.6,8.56,17.52,17.52,0,0,0-1.79,8.2c-.43.32-.8.63-1.12.91a9.88,9.88,0,0,0-.9.93l-.38,1.42.83,1.72,1,2c1,1.72,1.76,3.27,2.44,4.63s1.45,2.94,2.3,4.67l3.14,5.72.91,1.65.51.94.8,1.55a.77.77,0,0,0,.58.28,3.09,3.09,0,0,0,1.5-.24m-4.06-10.48-.9-1.84q-4.16-7.57-3.85-14a18.18,18.18,0,0,1,4.46-11.09,25.3,25.3,0,0,1,4.12-4.08,12.4,12.4,0,0,1,2.57-1.54,3.48,3.48,0,0,1,2.63-.09,4.08,4.08,0,0,1,2.12,1.93,8.08,8.08,0,0,1,.69,1.92,9.09,9.09,0,0,1,.24,2.37,17.79,17.79,0,0,1-1.14,5.55,66.22,66.22,0,0,1-4.05,9.13c-.63,1.24-1.38,2.57-2.27,4s-2.09,3.25-3.61,5.48l-.4.65a7,7,0,0,0-.61,1.68m43-19.33a21.19,21.19,0,0,0,2.82-2.63,29.39,29.39,0,0,0,2.73-3.56,26.45,26.45,0,0,0,2.6-4.78,15.28,15.28,0,0,0,1.09-4.34l-.08-.24-.07-.32-.1-.28-.12-.32-.45-.14a3,3,0,0,0-.78-.16l-.66,0a4.3,4.3,0,0,0-.7.85,15.59,15.59,0,0,0-.75,1.43l-1.29,3-.41,1a40,40,0,0,1-2,4,12,12,0,0,1-1.78,2.25,6.94,6.94,0,0,0-.59.57,6.73,6.73,0,0,1-1,.88q-5.61,4.26-9.52-2.85l-.4-.8c-.18-.36-.33-.69-.47-1s-.24-.59-.34-.87a5.49,5.49,0,0,1-.22-.63c1.46-1.78,2.65-3.13,3.56-4a63.78,63.78,0,0,1,4.93-4l4.48-3.62,1.24-1a11.07,11.07,0,0,0-.71-1.6l-.27-.47c-.32.17-.8.41-1.43.71a12.43,12.43,0,0,0-1.6,1c-1.07.65-2,1.24-2.75,1.76s-1.46,1-2.09,1.5a48.52,48.52,0,0,0-6.6,6,75.19,75.19,0,0,1-1.46-11.08,5.7,5.7,0,0,0-1,.61,9.69,9.69,0,0,0-1.21,1.1l-.59.75.09,2.68a49.18,49.18,0,0,0,1.39,8.85,31,31,0,0,0,2.78,7.14c1.53,2.8,3.56,4.46,6,5s5.1-.2,7.79-2.25m26.17-19.89a22.08,22.08,0,0,0,2.83-2.64,28.76,28.76,0,0,0,2.73-3.57,26.39,26.39,0,0,0,2.6-4.77,15,15,0,0,0,1.08-4.34l-.08-.24-.06-.31-.1-.28-.12-.32-.45-.15a3.86,3.86,0,0,0-.78-.16l-.66,0a4.7,4.7,0,0,0-.71.85c-.16.26-.41.75-.74,1.43l-1.29,3-.41,1a39,39,0,0,1-2.05,4,12.27,12.27,0,0,1-1.78,2.24,5.09,5.09,0,0,0-.59.58,8,8,0,0,1-1,.88q-5.61,4.26-9.52-2.85c-.09-.17-.22-.44-.4-.8s-.33-.69-.48-1-.23-.61-.33-.89a3.43,3.43,0,0,1-.21-.62,51,51,0,0,1,3.56-4,59.5,59.5,0,0,1,4.92-4l4.48-3.63,1.24-1a9.08,9.08,0,0,0-.73-1.61,4.88,4.88,0,0,0-.25-.47l-1.43.72a11.42,11.42,0,0,0-1.6,1c-1.07.66-2,1.24-2.75,1.76s-1.46,1-2.09,1.5a48.52,48.52,0,0,0-6.6,6,75.19,75.19,0,0,1-1.46-11.08,6.34,6.34,0,0,0-1,.61,9.71,9.71,0,0,0-1.21,1.11l-.59.74.09,2.69a49.35,49.35,0,0,0,1.39,8.84,31,31,0,0,0,2.79,7.15c1.52,2.79,3.54,4.45,6,5s5.09-.21,7.77-2.24m-44.43-2.67.31-.18.31-.11.36-.21.33-.26,1.2-1.68c.64-.89,1.26-1.73,1.86-2.51s1.12-1.4,1.56-1.9a27.67,27.67,0,0,1,3.92-4.06,9.32,9.32,0,0,1,2-1.16,18.86,18.86,0,0,1,2.72-.89,16.11,16.11,0,0,1,2.59-.61l.22-1.23.06-.47,0-.44-.87-.13a14.19,14.19,0,0,0-4.61-.09,8.9,8.9,0,0,0-3.62,1.72,22.89,22.89,0,0,0-2.34,2.09c-.8.8-1.83,1.91-3.1,3.3a57.83,57.83,0,0,0-4.06,5.19,16.08,16.08,0,0,0-.14,2.45l.06.8Zm63.56-11.46.31-.11a2.83,2.83,0,0,0,1-.52l.33-1.1.27-1.16a41,41,0,0,1-4.44-5.86c-1.16-1.93-2.42-4.12-3.76-6.58l-5.32-10.24c-.53-1-1-1.85-1.41-2.59a4.32,4.32,0,0,0-.94-1.32l-.14-.08-.35-.15-.27,0-.23.24-.22.29-.45.7-.25.61a5.3,5.3,0,0,0-.21,1.65c1.46,2.22,2.94,4.68,4.42,7.39.17.28.41.71.73,1.32l2.3,4.19,4.73,9.07,2.22,3.4,1.17.68Zm-37.38-8.43.31-.2.31-.1.36-.21.33-.27,1.2-1.68c.65-.88,1.26-1.72,1.86-2.5s1.11-1.41,1.56-1.89a28.26,28.26,0,0,1,3.91-4.06,9.15,9.15,0,0,1,2-1.18,21.53,21.53,0,0,1,2.72-.9,17.88,17.88,0,0,1,2.58-.58l.23-1.24.06-.48,0-.44-.86-.12a14.19,14.19,0,0,0-4.61-.09,8.54,8.54,0,0,0-3.62,1.72,22.74,22.74,0,0,0-2.34,2.08q-1.2,1.23-3.1,3.31a57.83,57.83,0,0,0-4.06,5.19,16,16,0,0,0-.14,2.45l.06.8Zm54.45-6.52q2.84-2.16,2.51-6.54a17.16,17.16,0,0,0-1-4.32,46.82,46.82,0,0,0-3-6.41l-3.36-6.69-.23-.61-.52-1.16a5.86,5.86,0,0,1,.83-2.13,7.78,7.78,0,0,0-.2-2.31c-.43-.47-1-1-1.55-1.52s-1.09-1-1.48-1.27l-.26-.11-.3-.06-.29,0-.28,0-.45.7a7.11,7.11,0,0,0-1,3.78,20.53,20.53,0,0,0,2.35,5.29l3.94,8.13.82,1.89c1.21,2.85,1.92,4.59,2.16,5.23a8.59,8.59,0,0,1,.42,1.51,3.74,3.74,0,0,1-1.35,3.9,3.38,3.38,0,0,1-1,.55,3.66,3.66,0,0,1-1.24.16,13.6,13.6,0,0,1-4.16-.92,42.57,42.57,0,0,1-6.14-3.26c-.94-.55-1.49-.9-1.67-1l-1.64-1.16a53.15,53.15,0,0,1-11.12-11l-.17-.12-.18,0-.44-.15a3.89,3.89,0,0,0-.88.55,2.8,2.8,0,0,0-1.25,2.34l.06.49,1.9,1.84c3.14,3,5.92,5.37,8.35,7.29a47.42,47.42,0,0,0,6.14,4.22,44.15,44.15,0,0,0,6.15,3,19.15,19.15,0,0,0,5.14,1.1,6.42,6.42,0,0,0,4.48-1.15"/><path class="cls-17" d="M2308,1312.5v-12.23h26.45v25.06a53.41,53.41,0,0,1-13.43,7.48,43.28,43.28,0,0,1-13.85,2q-9.87,0-16.08-3.58a23.83,23.83,0,0,1-9.64-10.62,36.69,36.69,0,0,1-3.42-16.19,35.52,35.52,0,0,1,3.74-16.74,24.9,24.9,0,0,1,11-10.81q5.64-2.85,15.16-2.85,9.18,0,13.73,1.77a17.68,17.68,0,0,1,7.56,5.47,24.89,24.89,0,0,1,4.52,9.4l-16.52,3.13a9.46,9.46,0,0,0-3.45-5.09,10.33,10.33,0,0,0-6.22-1.77,11,11,0,0,0-9,4.15q-3.35,4.15-3.34,13.13,0,9.54,3.38,13.63t9.43,4.09a17.23,17.23,0,0,0,5.48-.87,29.76,29.76,0,0,0,6-3v-5.54"/><path class="cls-17" d="M2342.45,1304.44q0-14.39,7.55-22.41t21.06-8q13.83,0,21.31,7.88t7.48,22.07q0,10.3-3.27,16.9a24.11,24.11,0,0,1-9.45,10.26q-6.16,3.68-15.39,3.67-9.39,0-15.52-3.17a24,24,0,0,1-10-10q-3.81-6.86-3.81-17.16m17.12.08q0,8.91,3.11,12.79a11.34,11.34,0,0,0,17,.08q3-3.81,3-13.67c0-5.54-1.05-9.57-3.15-12.12a10.51,10.51,0,0,0-8.57-3.84,10.18,10.18,0,0,0-8.31,3.89q-3.13,3.88-3.13,12.87"/></g><g class="cls-14"><path class="cls-17" d="M3380.51,1358.37a8.95,8.95,0,1,1-8.93-9.47,9.21,9.21,0,0,1,8.93,9.47"/><path class="cls-18" d="M3169.11,1358.37a8.95,8.95,0,1,1-8.93-9.47,9.21,9.21,0,0,1,8.93,9.47"/><path class="cls-19" d="M2957.7,1358.37a8.94,8.94,0,1,1-8.93-9.47,9.21,9.21,0,0,1,8.93,9.47"/><path class="cls-18" d="M2746.3,1358.37a8.95,8.95,0,1,1-8.93-9.47,9.21,9.21,0,0,1,8.93,9.47"/><path class="cls-17" d="M2534.9,1358.37a9,9,0,1,1-8.93-9.47,9.21,9.21,0,0,1,8.93,9.47"/></g><g class="cls-14"><text class="cls-20" transform="translate(2518.4 1397.77) scale(1 1.06)">1</text><text class="cls-20" transform="translate(3363.93 1397.77) scale(1 1.06)">5</text><text class="cls-20" transform="translate(3152.55 1397.77) scale(1 1.06)">4</text><text class="cls-20" transform="translate(2941.16 1397.77) scale(1 1.06)">3</text><text class="cls-20" transform="translate(2729.77 1397.77) scale(1 1.06)">2</text></g><path class="cls-21" d="M2692.77,1300.58c0-38.91-25.61-71.48-59.92-79.75l0,.1v-4.3c10.43-.37,18.85-9.53,18.85-20.68,0-11.38-8.78-20.69-19.5-20.69h-33c-10.73,0-19.5,9.31-19.5,20.69,0,11.15,8.42,20.31,18.86,20.68h0v4.19c-34.32,8.27-59.93,40.84-59.93,79.75,0,45.16,34.52,81.78,77.1,81.78s77.1-36.62,77.1-81.78m-136.51-.74c0-34.81,26.59-63,59.41-63s59.42,28.22,59.42,63-26.6,63-59.42,63-59.41-28.22-59.41-63"/><polyline class="cls-22" points="2630.93 1347.45 2630.93 1339.79 2640.22 1339.79 2640.22 1326.38 2657.43 1326.38 2657.43 1278.81 2576.09 1278.81 2576.09 1326.38 2595.06 1326.38 2595.06 1339.79 2604.42 1339.79 2604.42 1347.45"/><path class="cls-21" d="M2904.17,1300.58c0-38.91-25.61-71.48-59.92-79.75l0,.1v-4.3c10.43-.37,18.86-9.53,18.86-20.68,0-11.38-8.78-20.69-19.51-20.69h-33c-10.73,0-19.5,9.31-19.5,20.69,0,11.15,8.42,20.31,18.86,20.68h0v4.19c-34.31,8.27-59.93,40.84-59.93,79.75,0,45.16,34.52,81.78,77.1,81.78s77.1-36.62,77.1-81.78m-136.52-.74c0-34.81,26.6-63,59.42-63s59.41,28.22,59.41,63-26.59,63-59.41,63-59.42-28.22-59.42-63"/><polyline class="cls-22" points="2842.32 1347.45 2842.32 1339.79 2851.62 1339.79 2851.62 1326.38 2868.83 1326.38 2868.83 1278.81 2787.49 1278.81 2787.49 1326.38 2806.46 1326.38 2806.46 1339.79 2815.82 1339.79 2815.82 1347.45"/><path class="cls-21" d="M3114.92,1300.58c0-38.91-25.61-71.48-59.92-79.75l0,.1v-4.3c10.43-.37,18.86-9.53,18.86-20.68,0-11.38-8.78-20.69-19.51-20.69h-33c-10.73,0-19.5,9.31-19.5,20.69,0,11.15,8.42,20.31,18.86,20.68h0v4.29l0-.1c-34.31,8.27-59.92,40.84-59.92,79.75,0,45.16,34.52,81.78,77.1,81.78s77.1-36.62,77.1-81.78m-136.52-.74c0-34.81,26.6-63,59.42-63s59.41,28.22,59.41,63-26.59,63-59.41,63-59.42-28.22-59.42-63"/><polyline class="cls-22" points="3053.07 1347.45 3053.07 1339.79 3062.37 1339.79 3062.37 1326.38 3079.58 1326.38 3079.58 1278.81 2998.24 1278.81 2998.24 1326.38 3017.21 1326.38 3017.21 1339.79 3026.57 1339.79 3026.57 1347.45"/><path class="cls-21" d="M3325.42,1300.58c0-38.91-25.62-71.48-59.92-79.75l0,.1v-4.3c10.44-.37,18.87-9.53,18.87-20.68,0-11.38-8.78-20.69-19.51-20.69h-33c-10.73,0-19.5,9.31-19.5,20.69,0,11.15,8.42,20.31,18.86,20.68h0v4.29l0-.1c-34.31,8.27-59.92,40.84-59.92,79.75,0,45.16,34.51,81.78,77.1,81.78s77.1-36.62,77.1-81.78m-136.52-.74c0-34.81,26.6-63,59.42-63s59.41,28.22,59.41,63-26.59,63-59.41,63-59.42-28.22-59.42-63"/><polyline class="cls-22" points="3263.57 1347.45 3263.57 1339.79 3272.86 1339.79 3272.86 1326.38 3290.07 1326.38 3290.07 1278.81 3208.73 1278.81 3208.73 1326.38 3227.71 1326.38 3227.71 1339.79 3237.07 1339.79 3237.07 1347.45"/><path class="cls-21" d="M3535.91,1300.58c0-38.91-25.61-71.48-59.91-79.75l0,.1v-4.3c10.44-.37,18.86-9.53,18.86-20.68,0-11.38-8.77-20.69-19.5-20.69h-33c-10.74,0-19.51,9.31-19.51,20.69,0,11.15,8.43,20.31,18.87,20.68h0v4.29l0-.1c-34.31,8.27-59.92,40.84-59.92,79.75,0,45.16,34.51,81.78,77.1,81.78s77.09-36.62,77.09-81.78m-136.51-.74c0-34.81,26.6-63,59.42-63s59.41,28.22,59.41,63-26.6,63-59.41,63-59.42-28.22-59.42-63"/><polyline class="cls-22" points="3474.07 1347.45 3474.07 1339.79 3483.36 1339.79 3483.36 1326.38 3500.57 1326.38 3500.57 1278.81 3419.23 1278.81 3419.23 1326.38 3438.21 1326.38 3438.21 1339.79 3447.57 1339.79 3447.57 1347.45"/><path class="cls-6" d="M3647,1107.33a35,35,0,0,1,35,35v276.25a35,35,0,0,1-35,35H2036a35,35,0,0,1-35-35V1142.33a35,35,0,0,1,35-35H3647m0-18H2036a53,53,0,0,0-53,53v276.25a53,53,0,0,0,53,53H3647a53,53,0,0,0,53-53V1142.33a53,53,0,0,0-53-53Z"/><rect class="cls-23" x="2588" y="634.67" width="18" height="520"/><rect class="cls-23" x="2315.47" y="120.33" width="18" height="125"/><rect class="cls-24" x="2628" y="634.67" width="18" height="520"/><rect class="cls-24" x="2358.81" y="120.33" width="18" height="125"/><polygon class="cls-24" points="790.13 1054.21 772.13 1054.21 772.13 778.33 2104.81 778.33 2104.81 634.67 2122.81 634.67 2122.81 796.33 790.13 796.33 790.13 1054.21"/><polygon class="cls-23" points="747.67 1054.21 729.67 1054.21 729.67 737 2065 737 2065 634.67 2083 634.67 2083 755 747.67 755 747.67 1054.21"/><text fill="currentColor" class="cls-25" transform="translate(2028.82 474.79)">Network<tspan class="cls-26" x="404.86" y="0"> </tspan><tspan class="cls-27" x="428.37" y="0">T</tspan><tspan x="488.29" y="0">AP</tspan></text><text fill="currentColor" class="cls-28" transform="translate(2100.09 85.5)">Analyse Softwa<tspan class="cls-29" x="452.38" y="0">r</tspan><tspan class="cls-30" x="474.07" y="0">e</tspan></text><text fill="currentColor" class="cls-31" transform="translate(2568.48 597.66)">Input</text><text fill="currentColor" class="cls-31" transform="translate(2028.54 597.66)">Output</text><text fill="currentColor" class="cls-31" transform="translate(2270.74 312.18)">Moni<tspan class="cls-32" x="93.99" y="0">t</tspan><tspan x="107.3" y="0">or</tspan></text><path class="cls-6" d="M2709.44,641.17H1977.5V238.83h731.94Zm-718.94-13h705.94V251.83H1990.5Z"/></svg>