<svg xmlns="http://www.w3.org/2000/svg" xmlns:xlink="http://www.w3.org/1999/xlink" width="480.61" height="172.89" viewBox="0 0 480.61 172.89"><defs><style>.a{fill:none;}.b{fill:#1d1d1b;}.c{fill:#007d00;}.d{fill:#fe0;}.e{fill:#34b44a;}.f{fill:#fff;}.g{fill:#f4e724;}.h{clip-path:url(#a);}.i{clip-path:url(#b);}.j{fill:#f20618;}.k{fill:#002dff;}.l{filter:url(#c);}.m{fill:#368a41;}</style><clipPath id="a"><rect class="a" x="177.83" y="57.53" width="63.24" height="14.87"/></clipPath><clipPath id="b"><rect class="a" x="177.83" y="22.22" width="63.24" height="14.87"/></clipPath><filter id="c" x="-40%" y="-40%" width="180%" height="180%" name="dropshadow-right_mcx"><feGaussianBlur stdDeviation="3" in="SourceAlpha"/><feOffset dx="5" dy="5"/><feComponentTransfer><feFuncA slope="0.45" type="linear"/></feComponentTransfer><feMerge><feMergeNode/><feMergeNode in="SourceGraphic"/></feMerge></filter></defs><path class="b" d="M405.94,58.14c0,4.8-2.3,1.84-3.26,5.82s2.4,2.77-.09,6.68-3,.58-5.74,3.41.64,3.57-3.41,5.74-2.6-1-6.68.09-1.14,3.26-5.82,3.26-2.05-2.14-5.83-3.26-2.52,2.29-6.67-.09-.51-2.84-3.36-5.69-3.29.51-5.79-3.46.54-3-.09-6.68-3.26-1-3.26-5.82,2.55-1.81,3.26-5.83-2.33-2.45.09-6.67,2.82-.72,5.74-3.41-.57-3.35,3.41-5.74,2.85,1,6.67-.09,1.22-3.26,5.83-3.26,1.86,2.09,5.82,3.26,2.43-2.34,6.68.09.42,3.07,3.41,5.74,3.41-.94,5.74,3.41-.83,2.75.09,6.67,3.26,1,3.26,5.83"/><path class="b" d="M380.94,31.11a27,27,0,1,1-27,27,27.06,27.06,0,0,1,27-27m0-1.7a28.73,28.73,0,1,0,28.73,28.73,28.73,28.73,0,0,0-28.73-28.73Z"/><rect class="c" x="107.26" y="81.64" width="37.54" height="23.89" rx="1.11"/><rect class="c" x="107.26" y="45.92" width="37.54" height="23.89" rx="1.11"/><rect class="d" x="107.26" y="9.55" width="37.54" height="25.19" rx="1.11"/><path d="M139.52,107.63h-27a7.19,7.19,0,0,1-7.18-7.18V86.72a7.19,7.19,0,0,1,7.18-7.18h27a7.19,7.19,0,0,1,7.18,7.18v13.73A7.19,7.19,0,0,1,139.52,107.63Zm-27-25.53a4.62,4.62,0,0,0-4.62,4.62v13.73a4.62,4.62,0,0,0,4.62,4.62h27a4.62,4.62,0,0,0,4.62-4.62V86.72a4.62,4.62,0,0,0-4.62-4.62Z"/><path d="M139.52,71.91h-27a7.19,7.19,0,0,1-7.18-7.18V51a7.19,7.19,0,0,1,7.18-7.19h27A7.19,7.19,0,0,1,146.7,51V64.73A7.19,7.19,0,0,1,139.52,71.91Zm-27-25.53A4.63,4.63,0,0,0,107.92,51V64.73a4.62,4.62,0,0,0,4.62,4.62h27a4.62,4.62,0,0,0,4.62-4.62V51a4.63,4.63,0,0,0-4.62-4.63Z"/><path d="M139.52,36.2h-27A7.2,7.2,0,0,1,105.36,29V15.29a7.2,7.2,0,0,1,7.18-7.19h27a7.2,7.2,0,0,1,7.18,7.19V29A7.2,7.2,0,0,1,139.52,36.2Zm-27-25.54a4.63,4.63,0,0,0-4.62,4.63V29a4.63,4.63,0,0,0,4.62,4.63h27A4.63,4.63,0,0,0,144.14,29V15.29a4.63,4.63,0,0,0-4.62-4.63Z"/><rect x="171.28" y="4.53" width="142.22" height="106.66" rx="5.52"/><rect class="d" x="175.03" y="79.54" width="63.72" height="28.1"/><path class="b" d="M181.25,88.16h-2v3.45h-1.14V83.08h2.83a3.4,3.4,0,0,1,2.22.65,2.39,2.39,0,0,1,.77,1.91A2.25,2.25,0,0,1,183.5,87a2.5,2.5,0,0,1-1.2.89l2,3.62v.07H183.1Zm-2-.92H181a2,2,0,0,0,1.34-.44,1.45,1.45,0,0,0,.49-1.16,1.54,1.54,0,0,0-.47-1.21A1.93,1.93,0,0,0,181,84h-1.72Z"/><path class="b" d="M188,91.73a2.79,2.79,0,0,1-2.1-.85,3.14,3.14,0,0,1-.81-2.27v-.19a3.85,3.85,0,0,1,.36-1.69,2.86,2.86,0,0,1,1-1.16,2.53,2.53,0,0,1,1.41-.42,2.36,2.36,0,0,1,1.92.82,3.56,3.56,0,0,1,.68,2.33v.45h-4.29a2.21,2.21,0,0,0,.55,1.51,1.7,1.7,0,0,0,1.33.58,1.93,1.93,0,0,0,1-.23,2.58,2.58,0,0,0,.7-.62l.66.51A2.66,2.66,0,0,1,188,91.73ZM187.84,86a1.46,1.46,0,0,0-1.11.48,2.36,2.36,0,0,0-.55,1.34h3.18v-.08a2,2,0,0,0-.45-1.28A1.32,1.32,0,0,0,187.84,86Z"/><path class="b" d="M197.05,88.51a3.81,3.81,0,0,1-.66,2.33,2.12,2.12,0,0,1-1.79.89,2.33,2.33,0,0,1-1.82-.74v3.06H191.7V85.27h1l.05.7a2.24,2.24,0,0,1,1.84-.82,2.19,2.19,0,0,1,1.81.86,3.89,3.89,0,0,1,.66,2.4ZM196,88.39a2.79,2.79,0,0,0-.46-1.7,1.47,1.47,0,0,0-1.25-.62,1.6,1.6,0,0,0-1.48.87v3a1.59,1.59,0,0,0,1.49.87,1.45,1.45,0,0,0,1.24-.62A3.08,3.08,0,0,0,196,88.39Z"/><path class="b" d="M199.61,91.61h-1.09v-9h1.09Z"/><path class="b" d="M203.42,90l1.47-4.75h1.16l-2.55,7.32c-.39,1-1,1.58-1.88,1.58l-.2,0-.41-.07V93.2l.3,0a1.41,1.41,0,0,0,.85-.22,1.57,1.57,0,0,0,.51-.82l.24-.64-2.26-6.27h1.18Z"/><path class="b" d="M216.44,88.9a3.17,3.17,0,0,1-1,2.09,3.29,3.29,0,0,1-2.24.74,3,3,0,0,1-2.42-1.09,4.34,4.34,0,0,1-.91-2.9v-.82a4.9,4.9,0,0,1,.42-2.09,3.23,3.23,0,0,1,1.21-1.39,3.36,3.36,0,0,1,1.8-.48,3.06,3.06,0,0,1,2.18.76,3.18,3.18,0,0,1,1,2.1H215.3a2.43,2.43,0,0,0-.63-1.48,1.91,1.91,0,0,0-1.37-.46,2,2,0,0,0-1.69.8A3.65,3.65,0,0,0,211,87v.82a3.71,3.71,0,0,0,.58,2.21,1.87,1.87,0,0,0,1.62.83,2.17,2.17,0,0,0,1.44-.43,2.36,2.36,0,0,0,.66-1.48Z"/><path class="b" d="M218.88,86a2.32,2.32,0,0,1,1.88-.89c1.34,0,2,.76,2,2.27v4.19H221.7v-4.2a1.47,1.47,0,0,0-.31-1,1.27,1.27,0,0,0-1-.33,1.59,1.59,0,0,0-.92.28,2,2,0,0,0-.63.74v4.52H217.8v-9h1.08Z"/><path class="b" d="M228.32,91.61a2.49,2.49,0,0,1-.15-.67,2.42,2.42,0,0,1-1.8.79,2.25,2.25,0,0,1-1.54-.53,1.74,1.74,0,0,1-.6-1.35,1.8,1.8,0,0,1,.75-1.54,3.59,3.59,0,0,1,2.12-.54h1.05v-.5a1.22,1.22,0,0,0-.34-.91,1.37,1.37,0,0,0-1-.33,1.55,1.55,0,0,0-1,.29.86.86,0,0,0-.39.71h-1.09a1.51,1.51,0,0,1,.33-.92,2.35,2.35,0,0,1,.92-.7,3.1,3.1,0,0,1,1.27-.26,2.46,2.46,0,0,1,1.71.55,2,2,0,0,1,.65,1.51v2.92a3.58,3.58,0,0,0,.22,1.39v.09Zm-1.8-.83a2,2,0,0,0,1-.26,1.56,1.56,0,0,0,.66-.69v-1.3h-.85c-1.32,0-2,.39-2,1.17a1,1,0,0,0,.34.8A1.32,1.32,0,0,0,226.52,90.78Z"/><path class="b" d="M232,85.27l0,.8a2.3,2.3,0,0,1,1.9-.92c1.34,0,2,.76,2,2.27v4.19h-1.08v-4.2a1.47,1.47,0,0,0-.31-1,1.27,1.27,0,0,0-1-.33,1.65,1.65,0,0,0-.93.28,2,2,0,0,0-.62.74v4.52h-1.08V85.27Z"/><path class="b" d="M191.39,106h-5.58v-.78l2.95-3.28a6.66,6.66,0,0,0,.9-1.21,2,2,0,0,0,.25-1,1.52,1.52,0,0,0-.4-1.1,1.4,1.4,0,0,0-1.08-.43,1.67,1.67,0,0,0-1.26.46,1.75,1.75,0,0,0-.44,1.28h-1.09a2.49,2.49,0,0,1,.76-1.9,2.79,2.79,0,0,1,2-.73,2.73,2.73,0,0,1,1.88.62,2.14,2.14,0,0,1,.69,1.67,4.87,4.87,0,0,1-1.6,3l-2.29,2.47h4.28Z"/><path class="b" d="M198.31,102.21a5.23,5.23,0,0,1-2.11-1,1.94,1.94,0,0,1-.66-1.49,2.07,2.07,0,0,1,.81-1.67,3.19,3.19,0,0,1,2.09-.66,3.45,3.45,0,0,1,1.57.34,2.59,2.59,0,0,1,1.07.94,2.4,2.4,0,0,1,.38,1.3h-1.14a1.53,1.53,0,0,0-.49-1.21,2.4,2.4,0,0,0-2.68-.08,1.22,1.22,0,0,0-.47,1,1.12,1.12,0,0,0,.44.88,4.43,4.43,0,0,0,1.51.66,7,7,0,0,1,1.66.66,2.5,2.5,0,0,1,.89.84,2.09,2.09,0,0,1,.29,1.13,2,2,0,0,1-.81,1.66,3.41,3.41,0,0,1-2.16.63,4.11,4.11,0,0,1-1.64-.34,2.67,2.67,0,0,1-1.17-.92,2.24,2.24,0,0,1-.42-1.33h1.13a1.48,1.48,0,0,0,.58,1.22,2.39,2.39,0,0,0,1.52.45,2.17,2.17,0,0,0,1.37-.37,1.19,1.19,0,0,0,.47-1,1.15,1.15,0,0,0-.44-1A4.93,4.93,0,0,0,198.31,102.21Z"/><path class="b" d="M202.46,102.78a3.76,3.76,0,0,1,.36-1.67,2.71,2.71,0,0,1,2.51-1.56,2.67,2.67,0,0,1,2.1.9,3.46,3.46,0,0,1,.8,2.38v.08a3.71,3.71,0,0,1-.36,1.66,2.69,2.69,0,0,1-1,1.15,2.82,2.82,0,0,1-1.51.41,2.66,2.66,0,0,1-2.09-.9,3.4,3.4,0,0,1-.8-2.37Zm1.09.13a2.67,2.67,0,0,0,.49,1.69,1.65,1.65,0,0,0,2.62,0,3,3,0,0,0,.48-1.81,2.71,2.71,0,0,0-.49-1.69,1.64,1.64,0,0,0-2.61,0A3,3,0,0,0,203.55,102.91Z"/><path class="b" d="M213.5,105.38a2.29,2.29,0,0,1-1.86.75,2,2,0,0,1-1.54-.59,2.61,2.61,0,0,1-.54-1.75V99.67h1.09v4.1q0,1.44,1.17,1.44a1.61,1.61,0,0,0,1.65-.93V99.67h1.09V106h-1Z"/><path class="b" d="M217.23,99.67l0,.8a2.33,2.33,0,0,1,1.9-.92c1.34,0,2,.76,2,2.27V106h-1.08v-4.2a1.47,1.47,0,0,0-.32-1,1.24,1.24,0,0,0-1-.33,1.59,1.59,0,0,0-.92.28,1.94,1.94,0,0,0-.62.74V106H216.2V99.67Z"/><path class="b" d="M222.56,102.79a3.71,3.71,0,0,1,.69-2.35,2.2,2.2,0,0,1,1.81-.89,2.23,2.23,0,0,1,1.77.76V97h1.08v9h-1l0-.68a2.21,2.21,0,0,1-1.81.8,2.14,2.14,0,0,1-1.79-.91,3.69,3.69,0,0,1-.7-2.35Zm1.08.12a2.8,2.8,0,0,0,.45,1.69,1.46,1.46,0,0,0,1.23.61,1.59,1.59,0,0,0,1.51-.93v-2.91a1.61,1.61,0,0,0-1.5-.9,1.45,1.45,0,0,0-1.24.62A3.07,3.07,0,0,0,223.64,102.91Z"/><path class="d" d="M237.71,80.47l.09,26-61.64.09-.09-26.1h61.64m.09-3.4H176.07a3.31,3.31,0,0,0-3.31,3.32v26.18a3.32,3.32,0,0,0,3.31,3.32H237.8a3.32,3.32,0,0,0,3.31-3.32V80.39a3.31,3.31,0,0,0-3.31-3.32Z"/><rect class="e" x="201.28" y="49.06" width="22.1" height="5.16"/><rect class="f" x="223.38" y="49.06" width="1.56" height="5.16"/><rect class="d" x="172.76" y="41.24" width="68.35" height="5.1"/><path class="g" d="M182.81,54.74h-4.2v-.59l2.22-2.47a4.67,4.67,0,0,0,.68-.91,1.44,1.44,0,0,0,.19-.72,1.14,1.14,0,0,0-.31-.83,1.07,1.07,0,0,0-.81-.32,1.25,1.25,0,0,0-.94.35,1.3,1.3,0,0,0-.34,1h-.81a1.88,1.88,0,0,1,.57-1.43,2.09,2.09,0,0,1,1.52-.55,2.06,2.06,0,0,1,1.42.47,1.6,1.6,0,0,1,.52,1.25,3.66,3.66,0,0,1-1.21,2.26l-1.72,1.86h3.22Z"/><g class="h"><path class="f" d="M183,64.63a6.17,6.17,0,0,1-2.39-1.16,2.22,2.22,0,0,1-.75-1.7,2.32,2.32,0,0,1,.92-1.89,3.6,3.6,0,0,1,2.37-.75,4,4,0,0,1,1.78.38,3,3,0,0,1,1.21,1.07,2.66,2.66,0,0,1,.43,1.48h-1.29a1.75,1.75,0,0,0-.55-1.38,2.26,2.26,0,0,0-1.58-.51,2.3,2.3,0,0,0-1.47.42,1.39,1.39,0,0,0-.53,1.15,1.28,1.28,0,0,0,.5,1,5,5,0,0,0,1.71.74,8.21,8.21,0,0,1,1.89.75,2.93,2.93,0,0,1,1,1,2.41,2.41,0,0,1,.33,1.28,2.26,2.26,0,0,1-.92,1.88,3.86,3.86,0,0,1-2.45.71,4.58,4.58,0,0,1-1.86-.38,3.1,3.1,0,0,1-1.34-1,2.55,2.55,0,0,1-.46-1.51h1.28a1.65,1.65,0,0,0,.65,1.39,2.72,2.72,0,0,0,1.73.51,2.55,2.55,0,0,0,1.55-.41,1.35,1.35,0,0,0,.54-1.13,1.33,1.33,0,0,0-.5-1.1A5.83,5.83,0,0,0,183,64.63Z"/><path class="f" d="M187.69,65.28a4.18,4.18,0,0,1,.42-1.9,3.09,3.09,0,0,1,1.16-1.31,3.17,3.17,0,0,1,1.69-.46,3,3,0,0,1,2.37,1,3.9,3.9,0,0,1,.91,2.71v.08a4.29,4.29,0,0,1-.4,1.89,3.09,3.09,0,0,1-1.15,1.3,3.19,3.19,0,0,1-1.72.46,3.06,3.06,0,0,1-2.37-1,3.94,3.94,0,0,1-.91-2.7Zm1.24.14a3.06,3.06,0,0,0,.56,1.92,1.87,1.87,0,0,0,3,0,3.33,3.33,0,0,0,.55-2,3,3,0,0,0-.56-1.92,1.86,1.86,0,0,0-3,0A3.33,3.33,0,0,0,188.93,65.42Z"/><path class="f" d="M200.22,68.23a2.6,2.6,0,0,1-2.1.84,2.21,2.21,0,0,1-1.75-.67,2.8,2.8,0,0,1-.61-2V61.75H197v4.64c0,1.09.44,1.64,1.33,1.64a1.83,1.83,0,0,0,1.87-1V61.75h1.23v7.19h-1.17Z"/><path class="f" d="M204.45,61.75l0,.9a2.63,2.63,0,0,1,2.15-1c1.52,0,2.29.86,2.3,2.58v4.75h-1.22V64.18a1.7,1.7,0,0,0-.36-1.15,1.42,1.42,0,0,0-1.09-.37,1.72,1.72,0,0,0-1.05.32,2.18,2.18,0,0,0-.7.83v5.13h-1.23V61.75Z"/><path class="f" d="M210.5,65.28a4.23,4.23,0,0,1,.78-2.66,2.67,2.67,0,0,1,4.06-.14V58.73h1.23V68.94h-1.13l-.06-.77a2.51,2.51,0,0,1-2,.9,2.45,2.45,0,0,1-2-1,4.22,4.22,0,0,1-.79-2.67Zm1.23.14a3.25,3.25,0,0,0,.5,1.92,1.65,1.65,0,0,0,1.4.69,1.8,1.8,0,0,0,1.71-1V63.67a1.82,1.82,0,0,0-1.7-1,1.64,1.64,0,0,0-1.41.7A3.54,3.54,0,0,0,211.73,65.42Z"/></g><rect class="e" x="201.28" y="13.76" width="22.1" height="5.16"/><rect class="f" x="223.38" y="13.76" width="1.56" height="5.16"/><rect class="d" x="172.76" y="5.93" width="68.35" height="5.1"/><path class="g" d="M181.29,19.43h-.82V14l-1.64.6v-.74l2.33-.88h.13Z"/><g class="i"><path class="f" d="M183,29.32a5.9,5.9,0,0,1-2.39-1.16,2.21,2.21,0,0,1-.75-1.7,2.35,2.35,0,0,1,.92-1.89,3.59,3.59,0,0,1,2.37-.74,3.91,3.91,0,0,1,1.78.38,2.93,2.93,0,0,1,1.21,1.07,2.66,2.66,0,0,1,.43,1.48h-1.29a1.79,1.79,0,0,0-.55-1.39,2.76,2.76,0,0,0-3.05-.08,1.38,1.38,0,0,0-.53,1.15,1.25,1.25,0,0,0,.5,1,4.77,4.77,0,0,0,1.71.75,8.21,8.21,0,0,1,1.89.75,2.9,2.9,0,0,1,1,.95,2.48,2.48,0,0,1,.33,1.29,2.26,2.26,0,0,1-.92,1.88,3.92,3.92,0,0,1-2.45.71,4.58,4.58,0,0,1-1.86-.38,3.25,3.25,0,0,1-1.34-1,2.57,2.57,0,0,1-.46-1.51h1.28a1.65,1.65,0,0,0,.65,1.39,2.72,2.72,0,0,0,1.73.51,2.49,2.49,0,0,0,1.55-.42,1.45,1.45,0,0,0,0-2.22A5.79,5.79,0,0,0,183,29.32Z"/><path class="f" d="M189.25,27.32a2.62,2.62,0,0,1,2.13-1c1.52,0,2.28.86,2.3,2.57v4.76h-1.23V28.88a1.7,1.7,0,0,0-.36-1.15,1.4,1.4,0,0,0-1.08-.37,1.83,1.83,0,0,0-1.06.31,2.29,2.29,0,0,0-.7.84v5.13H188V23.43h1.23Z"/><path class="f" d="M195.19,30a4.24,4.24,0,0,1,.42-1.9,3,3,0,0,1,2.85-1.76,3,3,0,0,1,2.37,1,3.89,3.89,0,0,1,.91,2.7v.09a4.22,4.22,0,0,1-.4,1.88,3,3,0,0,1-1.15,1.3,3.19,3.19,0,0,1-1.72.47,3,3,0,0,1-2.37-1,3.86,3.86,0,0,1-.91-2.69Zm1.24.15A3.06,3.06,0,0,0,197,32a1.88,1.88,0,0,0,3,0,3.34,3.34,0,0,0,.55-2.06,3.09,3.09,0,0,0-.56-1.91,1.79,1.79,0,0,0-1.49-.74,1.75,1.75,0,0,0-1.47.73A3.27,3.27,0,0,0,196.43,30.12Z"/><path class="f" d="M209.65,31.94l1.38-5.5h1.23l-2.09,7.2h-1l-1.75-5.45-1.7,5.45h-1l-2.08-7.2h1.22l1.42,5.39L207,26.44h1Z"/></g><rect class="d" x="243.87" y="77.07" width="34.18" height="32.82" rx="3.97"/><path d="M248.93,96.25h3.29v1h-4.55V90h1.26Z"/><path d="M253.08,90.46a.63.63,0,0,1,.17-.46.81.81,0,0,1,1,0,.63.63,0,0,1,.18.46.62.62,0,0,1-.18.46.81.81,0,0,1-1,0A.61.61,0,0,1,253.08,90.46Zm1.28,6.8h-1.21v-5.4h1.21Z"/><path d="M258.7,95.79a.54.54,0,0,0-.26-.49,3.11,3.11,0,0,0-.89-.3,5,5,0,0,1-1-.33,1.39,1.39,0,0,1-.91-1.27,1.45,1.45,0,0,1,.59-1.17,2.34,2.34,0,0,1,1.5-.47,2.42,2.42,0,0,1,1.56.48,1.52,1.52,0,0,1,.6,1.24h-1.22a.76.76,0,0,0-.25-.58,1,1,0,0,0-.69-.23,1,1,0,0,0-.65.19.57.57,0,0,0-.26.49.47.47,0,0,0,.24.43,3.13,3.13,0,0,0,1,.32,4.3,4.3,0,0,1,1.12.37,1.55,1.55,0,0,1,.6.52,1.34,1.34,0,0,1,.2.74,1.42,1.42,0,0,1-.61,1.18,2.57,2.57,0,0,1-1.58.45,2.8,2.8,0,0,1-1.18-.24,2,2,0,0,1-.81-.66,1.58,1.58,0,0,1-.29-.9h1.18a.88.88,0,0,0,.32.66,1.31,1.31,0,0,0,.8.23,1.19,1.19,0,0,0,.72-.18A.56.56,0,0,0,258.7,95.79Z"/><path d="M262.47,90.55v1.31h.95v.9h-.95v3a.67.67,0,0,0,.12.45.58.58,0,0,0,.44.14,2,2,0,0,0,.42,0v.93a2.88,2.88,0,0,1-.8.12c-.93,0-1.39-.52-1.39-1.54V92.76h-.89v-.9h.89V90.55Z"/><path d="M266.72,97.36a2.49,2.49,0,0,1-1.87-.73,2.64,2.64,0,0,1-.71-1.93v-.15a3.18,3.18,0,0,1,.31-1.44,2.4,2.4,0,0,1,.87-1,2.31,2.31,0,0,1,1.26-.36,2.12,2.12,0,0,1,1.7.71,3,3,0,0,1,.6,2v.48h-3.52a1.59,1.59,0,0,0,.45,1.06,1.32,1.32,0,0,0,1,.39,1.64,1.64,0,0,0,1.36-.67l.65.62a2.26,2.26,0,0,1-.87.75A2.66,2.66,0,0,1,266.72,97.36Zm-.14-4.62a1,1,0,0,0-.81.35,1.84,1.84,0,0,0-.39,1h2.31V94a1.49,1.49,0,0,0-.33-.92A1,1,0,0,0,266.58,92.74Z"/><path d="M271,91.86l0,.63a2,2,0,0,1,1.57-.73c1.13,0,1.7.65,1.72,1.93v3.57h-1.21v-3.5a1.11,1.11,0,0,0-.23-.76.93.93,0,0,0-.72-.24,1.16,1.16,0,0,0-1.09.66v3.84h-1.21v-5.4Z"/><path class="f" d="M292.66,94.9a2.66,2.66,0,0,1-.86,1.81,2.94,2.94,0,0,1-2,.65,2.87,2.87,0,0,1-1.53-.41,2.77,2.77,0,0,1-1-1.17,4.22,4.22,0,0,1-.37-1.76v-.68a4.3,4.3,0,0,1,.36-1.81,2.82,2.82,0,0,1,1.05-1.21,2.93,2.93,0,0,1,1.57-.42,2.84,2.84,0,0,1,1.94.65,2.75,2.75,0,0,1,.85,1.84H291.4a1.77,1.77,0,0,0-.46-1.13,1.5,1.5,0,0,0-1.07-.34,1.46,1.46,0,0,0-1.26.6,2.91,2.91,0,0,0-.45,1.76v.65a3.18,3.18,0,0,0,.42,1.79,1.38,1.38,0,0,0,1.23.62,1.65,1.65,0,0,0,1.12-.33,1.79,1.79,0,0,0,.47-1.11Z"/><path class="f" d="M296.89,97.26a1.94,1.94,0,0,1-.14-.51,2,2,0,0,1-2.74.14,1.48,1.48,0,0,1-.52-1.14,1.54,1.54,0,0,1,.65-1.33A3.13,3.13,0,0,1,296,94h.74v-.35a1,1,0,0,0-.23-.67.94.94,0,0,0-.72-.25,1.09,1.09,0,0,0-.67.2.65.65,0,0,0-.27.53h-1.21a1.37,1.37,0,0,1,.29-.83,2.06,2.06,0,0,1,.8-.61,3,3,0,0,1,1.13-.22,2.24,2.24,0,0,1,1.51.48,1.68,1.68,0,0,1,.58,1.34V96a2.67,2.67,0,0,0,.21,1.16v.09Zm-1.33-.87a1.32,1.32,0,0,0,.67-.18,1.09,1.09,0,0,0,.48-.47v-1h-.65a1.74,1.74,0,0,0-1,.23.76.76,0,0,0-.34.66.69.69,0,0,0,.23.56A.88.88,0,0,0,295.56,96.39Z"/><path class="f" d="M300.48,97.26h-1.21V89.6h1.21Z"/><path class="f" d="M303.09,97.26h-1.21V89.6h1.21Z"/><path class="j" d="M308.81,80.47l.09,26-27.46.09-.08-26.1h27.45m.09-3.4H281.36A3.32,3.32,0,0,0,278,80.39v26.18a3.32,3.32,0,0,0,3.32,3.32H308.9a3.32,3.32,0,0,0,3.32-3.32V80.39a3.32,3.32,0,0,0-3.32-3.32Z"/><path class="f" d="M260.11,62h-1.28V52.27h1.28Z"/><path class="f" d="M266.43,60a.92.92,0,0,0-.37-.78,3.67,3.67,0,0,0-1.31-.47,5.83,5.83,0,0,1-1.48-.48,2.12,2.12,0,0,1-.81-.66,1.58,1.58,0,0,1-.27-.92,1.87,1.87,0,0,1,.75-1.5,2.92,2.92,0,0,1,1.91-.61,3,3,0,0,1,2,.63,2,2,0,0,1,.76,1.62h-1.24a1.09,1.09,0,0,0-.43-.87,1.56,1.56,0,0,0-1.08-.37,1.7,1.7,0,0,0-1.05.29.94.94,0,0,0-.38.77.76.76,0,0,0,.35.67,4.5,4.5,0,0,0,1.28.43,6.83,6.83,0,0,1,1.49.49,2.22,2.22,0,0,1,.85.69,1.73,1.73,0,0,1,.27,1,1.84,1.84,0,0,1-.77,1.55,3.21,3.21,0,0,1-2,.58,3.58,3.58,0,0,1-1.53-.31,2.51,2.51,0,0,1-1-.85,2.07,2.07,0,0,1-.37-1.19h1.23a1.26,1.26,0,0,0,.49,1,2.31,2.31,0,0,0,2.34.08A.87.87,0,0,0,266.43,60Z"/><path class="f" d="M268.94,58.28a4.21,4.21,0,0,1,.42-1.9,3,3,0,0,1,2.84-1.76,3,3,0,0,1,2.38,1,3.89,3.89,0,0,1,.91,2.7v.09a4.36,4.36,0,0,1-.4,1.88,3.1,3.1,0,0,1-1.15,1.3,3.22,3.22,0,0,1-1.72.47,3,3,0,0,1-2.37-1,3.86,3.86,0,0,1-.91-2.69Zm1.24.15a3.06,3.06,0,0,0,.55,1.92,1.89,1.89,0,0,0,3,0,3.41,3.41,0,0,0,.55-2.06,3.07,3.07,0,0,0-.56-1.91,1.81,1.81,0,0,0-1.5-.74,1.77,1.77,0,0,0-1.47.73A3.34,3.34,0,0,0,270.18,58.43Z"/><path class="f" d="M278.37,62h-1.23V51.74h1.23Z"/><path class="f" d="M284.77,62a2.61,2.61,0,0,1-.17-.76,2.75,2.75,0,0,1-2.05.89,2.52,2.52,0,0,1-1.74-.6,1.93,1.93,0,0,1-.68-1.53,2,2,0,0,1,.85-1.74,4,4,0,0,1,2.4-.62h1.2V57a1.39,1.39,0,0,0-.39-1,1.54,1.54,0,0,0-1.13-.38,1.83,1.83,0,0,0-1.11.33,1,1,0,0,0-.44.81h-1.24a1.71,1.71,0,0,1,.38-1,2.71,2.71,0,0,1,1-.8,3.6,3.6,0,0,1,1.44-.29,2.87,2.87,0,0,1,1.95.62,2.26,2.26,0,0,1,.73,1.71v3.31a4,4,0,0,0,.25,1.58V62Zm-2-.94a2.17,2.17,0,0,0,1.1-.3,1.87,1.87,0,0,0,.75-.78V58.46h-1c-1.51,0-2.26.44-2.26,1.32a1.1,1.1,0,0,0,.38.9A1.48,1.48,0,0,0,282.73,61Z"/><path class="f" d="M289.41,53v1.74h1.34v1h-1.34v4.47a1,1,0,0,0,.18.65.76.76,0,0,0,.61.22,3.25,3.25,0,0,0,.58-.08v1a3.94,3.94,0,0,1-.94.13,1.52,1.52,0,0,1-1.24-.5,2.13,2.13,0,0,1-.42-1.42V55.7h-1.31v-1h1.31V53Z"/><path class="f" d="M295.17,62.08a3.13,3.13,0,0,1-2.38-1,3.58,3.58,0,0,1-.92-2.57v-.23a4.36,4.36,0,0,1,.41-1.91,3.11,3.11,0,0,1,1.14-1.31,2.86,2.86,0,0,1,1.6-.48,2.72,2.72,0,0,1,2.18.92,4.06,4.06,0,0,1,.77,2.65v.51H293.1a2.61,2.61,0,0,0,.62,1.72,1.94,1.94,0,0,0,1.51.65,2.12,2.12,0,0,0,1.11-.26,2.91,2.91,0,0,0,.79-.7l.75.58A3,3,0,0,1,295.17,62.08ZM295,55.63a1.63,1.63,0,0,0-1.25.54,2.62,2.62,0,0,0-.63,1.52h3.6V57.6a2.29,2.29,0,0,0-.5-1.45A1.52,1.52,0,0,0,295,55.63Z"/><path class="d" d="M308.81,44.8l.09,26-61.63.09-.09-26.1h61.63m.09-3.4H247.18a3.31,3.31,0,0,0-3.31,3.31V70.9a3.31,3.31,0,0,0,3.31,3.31H308.9a3.32,3.32,0,0,0,3.32-3.31V44.71a3.32,3.32,0,0,0-3.32-3.31Z"/><path d="M307.45,112.48H177.32a7.33,7.33,0,0,1-7.32-7.33V10.58a7.33,7.33,0,0,1,7.32-7.33H307.45a7.34,7.34,0,0,1,7.33,7.33v94.57A7.34,7.34,0,0,1,307.45,112.48ZM177.32,5.81a4.77,4.77,0,0,0-4.76,4.77v94.57a4.77,4.77,0,0,0,4.76,4.77H307.45a4.78,4.78,0,0,0,4.77-4.77V10.58a4.78,4.78,0,0,0-4.77-4.77Z"/><rect class="k" x="241.11" y="5.81" width="2.56" height="104.1"/><rect class="k" x="172.56" y="38.71" width="139.66" height="2.56"/><rect class="k" x="172.56" y="74.45" width="139.66" height="2.56"/><path class="f" d="M253,28.5a5.42,5.42,0,0,1-2.2-1.07,2,2,0,0,1-.69-1.56,2.16,2.16,0,0,1,.84-1.74,3.34,3.34,0,0,1,2.19-.69,3.76,3.76,0,0,1,1.64.35,2.73,2.73,0,0,1,1.11,1,2.57,2.57,0,0,1,.4,1.37H255.1a1.66,1.66,0,0,0-.52-1.28,2.14,2.14,0,0,0-1.45-.46,2.2,2.2,0,0,0-1.36.38,1.3,1.3,0,0,0-.48,1.07,1.14,1.14,0,0,0,.46.92,4.59,4.59,0,0,0,1.57.69,7.46,7.46,0,0,1,1.74.69A2.56,2.56,0,0,1,256,29a2.25,2.25,0,0,1,.3,1.18,2.11,2.11,0,0,1-.84,1.74,3.63,3.63,0,0,1-2.26.65,4.25,4.25,0,0,1-1.71-.35,3,3,0,0,1-1.23-1,2.34,2.34,0,0,1-.43-1.39H251a1.53,1.53,0,0,0,.6,1.28,2.51,2.51,0,0,0,1.59.47,2.34,2.34,0,0,0,1.43-.38,1.24,1.24,0,0,0,.49-1,1.2,1.2,0,0,0-.46-1A5.36,5.36,0,0,0,253,28.5Z"/><path class="f" d="M263.35,29.24a3.94,3.94,0,0,1-.69,2.43,2.22,2.22,0,0,1-1.88.93,2.42,2.42,0,0,1-1.89-.77V35h-1.14V25.85h1l0,.74a2.37,2.37,0,0,1,1.93-.86,2.25,2.25,0,0,1,1.88.9,4,4,0,0,1,.7,2.5Zm-1.13-.13a2.91,2.91,0,0,0-.48-1.77,1.55,1.55,0,0,0-1.31-.65,1.65,1.65,0,0,0-1.54.91v3.17a1.66,1.66,0,0,0,1.55.9,1.54,1.54,0,0,0,1.3-.64A3.2,3.2,0,0,0,262.22,29.11Z"/><path class="f" d="M267.55,32.6a2.92,2.92,0,0,1-2.2-.89,3.28,3.28,0,0,1-.84-2.36v-.21a3.86,3.86,0,0,1,.38-1.76,2.89,2.89,0,0,1,1.05-1.21,2.66,2.66,0,0,1,1.46-.44,2.45,2.45,0,0,1,2,.85,3.68,3.68,0,0,1,.72,2.44v.47h-4.49a2.39,2.39,0,0,0,.57,1.58,1.82,1.82,0,0,0,1.4.6,2,2,0,0,0,1-.24,2.5,2.5,0,0,0,.73-.65l.69.54A2.78,2.78,0,0,1,267.55,32.6Zm-.15-5.94a1.53,1.53,0,0,0-1.15.5,2.4,2.4,0,0,0-.57,1.4H269v-.09a2.22,2.22,0,0,0-.47-1.34A1.44,1.44,0,0,0,267.4,26.66Z"/><path class="f" d="M275.46,32.48a2.59,2.59,0,0,1-.16-.7,2.53,2.53,0,0,1-1.88.82,2.35,2.35,0,0,1-1.61-.56,1.76,1.76,0,0,1-.63-1.4A1.89,1.89,0,0,1,272,29a3.7,3.7,0,0,1,2.21-.57h1.11v-.52a1.27,1.27,0,0,0-.36-1,1.46,1.46,0,0,0-1.05-.35,1.6,1.6,0,0,0-1,.31.88.88,0,0,0-.41.74h-1.14a1.6,1.6,0,0,1,.35-1,2.32,2.32,0,0,1,1-.73,3.18,3.18,0,0,1,1.32-.27,2.62,2.62,0,0,1,1.79.57,2.06,2.06,0,0,1,.68,1.58v3.05a3.82,3.82,0,0,0,.23,1.45v.1Zm-1.88-.87a2,2,0,0,0,1-.27,1.79,1.79,0,0,0,.7-.72V29.26h-.89c-1.39,0-2.08.41-2.08,1.22a1,1,0,0,0,.35.83A1.37,1.37,0,0,0,273.58,31.61Z"/><path class="f" d="M280,29.41l-.71.74v2.33h-1.13V23.07h1.13v5.69l.6-.73L282,25.85h1.38l-2.58,2.77,2.87,3.86h-1.32Z"/><path class="f" d="M286.93,32.6a2.89,2.89,0,0,1-2.19-.89,3.28,3.28,0,0,1-.85-2.36v-.21a4,4,0,0,1,.38-1.76,2.89,2.89,0,0,1,1.05-1.21,2.67,2.67,0,0,1,1.47-.44,2.48,2.48,0,0,1,2,.85,3.68,3.68,0,0,1,.71,2.44v.47H285a2.29,2.29,0,0,0,.57,1.58,1.79,1.79,0,0,0,1.39.6,2,2,0,0,0,1-.24,2.5,2.5,0,0,0,.73-.65l.69.54A2.8,2.8,0,0,1,286.93,32.6Zm-.14-5.94a1.51,1.51,0,0,0-1.15.5,2.47,2.47,0,0,0-.58,1.4h3.32v-.09a2.21,2.21,0,0,0-.46-1.34A1.46,1.46,0,0,0,286.79,26.66Z"/><path class="f" d="M294.09,26.87a3.28,3.28,0,0,0-.56,0,1.48,1.48,0,0,0-1.51.94v4.71h-1.13V25.85H292l0,.77a1.76,1.76,0,0,1,1.58-.89,1.12,1.12,0,0,1,.5.09Z"/><path class="g" d="M251.45,17.45l1-3.36h1l-1.55,4.47h-1l-1.55-4.47h1Z"/><path class="g" d="M257.61,16.43a2.82,2.82,0,0,1-.23,1.16,1.78,1.78,0,0,1-.67.76,1.84,1.84,0,0,1-1,.27,2,2,0,0,1-1-.26,1.8,1.8,0,0,1-.67-.77,2.58,2.58,0,0,1-.24-1.14v-.22a2.79,2.79,0,0,1,.23-1.16,1.89,1.89,0,0,1,2.66-.77,1.74,1.74,0,0,1,.67.77,2.64,2.64,0,0,1,.24,1.16Zm-.93-.2a1.86,1.86,0,0,0-.25-1.07.82.82,0,0,0-.72-.37.83.83,0,0,0-.72.36,1.93,1.93,0,0,0-.25,1.06v.22a1.89,1.89,0,0,0,.25,1.06.83.83,0,0,0,.73.38.81.81,0,0,0,.71-.37,1.9,1.9,0,0,0,.25-1.06Z"/><path class="g" d="M259.39,17.82h2v.74h-2.87V14.09h.91Z"/><rect class="e" x="264.83" y="13.74" width="22.11" height="5.16"/><rect class="f" x="286.95" y="13.74" width="1.56" height="5.16"/><g class="l"><path class="m" d="M107,160.92a2.53,2.53,0,0,1-.67-.1c-3.45-1-6.9-1.91-10.36-2.85l-3.31-.9-3.65-1-3.64-1c-1.49-.41-3-.82-4.49-1.21a1.75,1.75,0,0,1-1.13-.77,1.78,1.78,0,0,1-.09-1.38c.34-1.23.67-2.47,1-3.71.42-1.57.84-3.13,1.27-4.69a.7.7,0,0,0-.09-.64c-.26-.45-.57-.88-.9-1.34a11.78,11.78,0,0,1-1.59-2.7A18.29,18.29,0,0,1,78.8,128a155,155,0,0,1,4.77-16.93,6,6,0,0,1,5.69-4,6.26,6.26,0,0,1,4.45,1.86v0a6.22,6.22,0,0,1,5.91-4.11,5.44,5.44,0,0,1,2.93.83A7.14,7.14,0,0,1,104,106.9l.17-.37a6,6,0,0,1,5.45-3.81h.25a5.64,5.64,0,0,1,4.33,1.94q2-7.08,3.91-14.18a5.84,5.84,0,0,1,1-2.25,6.29,6.29,0,0,1,4.8-2.35,6.07,6.07,0,0,1,2.89.75,6,6,0,0,1,2.74,7c-.55,2-1.11,4-1.67,6.08-1.2,4.32-2.43,8.79-3.59,13.19-.32,1.24-.68,2.47-1,3.71a57.72,57.72,0,0,0-1.89,7.73c.41-.33.83-.65,1.26-1l.66-.47c1.64-1.2,3.34-2.44,5.07-3.6a6.87,6.87,0,0,1,3.8-1.12,6,6,0,0,1,6,4.92,7.25,7.25,0,0,1-1.59,5.32,62.41,62.41,0,0,1-6.26,6.89l-.27.26a104.6,104.6,0,0,1-16.25,13.58,6.39,6.39,0,0,0-2.51,2.37,42.78,42.78,0,0,0-2.84,8C108.19,160.68,107.49,160.92,107,160.92Z"/><path class="f" d="M124,86.87a4.93,4.93,0,0,1,4.67,6.51c-1.76,6.43-3.58,12.84-5.26,19.28-1.14,4.36-2.76,8.6-3.17,13.13,0,.19-.15.43.09.52h0a.82.82,0,0,0,.42-.2c.83-.63,1.63-1.31,2.47-1.93,1.89-1.37,3.77-2.75,5.71-4a5.86,5.86,0,0,1,3.24-1,5,5,0,0,1,2.91.85c2.88,2.1,2.65,5.18.7,7.79a64.91,64.91,0,0,1-6.42,7,105.12,105.12,0,0,1-16.1,13.44,7.3,7.3,0,0,0-2.87,2.78,45.16,45.16,0,0,0-2.9,8.2c-.11.44-.25.62-.55.62a1.35,1.35,0,0,1-.4-.07c-4.55-1.27-9.12-2.5-13.68-3.75l-3.64-1c-2.72-.72-5.43-1.49-8.14-2.2-.57-.15-.66-.39-.52-.91.77-2.8,1.5-5.61,2.28-8.4a1.7,1.7,0,0,0-.19-1.41c-.77-1.32-1.88-2.44-2.42-3.89a17.36,17.36,0,0,1-.47-10.08,154,154,0,0,1,4.73-16.83,5,5,0,0,1,4.75-3.33A5.24,5.24,0,0,1,93,109.63c.37.37.5,1.17,1,1.17h.12c.32-.1.41-1.06.59-1.63a5.21,5.21,0,0,1,4.94-3.41,4.36,4.36,0,0,1,2.39.67,9.48,9.48,0,0,1,2.21,2.35s0,0,.08,0h0l.59-1.41c.06-.15.13-.29.19-.44a5,5,0,0,1,4.58-3.22h.21a4.83,4.83,0,0,1,4.26,2.52c.1.16.1.46.31.46h.08c.14,0,.25-.35.31-.56q2.13-7.68,4.24-15.38a4.89,4.89,0,0,1,.86-1.88,5.21,5.21,0,0,1,4-2m0-2h0a7.26,7.26,0,0,0-5.57,2.72,6.68,6.68,0,0,0-1.25,2.62q-1.73,6.33-3.48,12.65a6.65,6.65,0,0,0-3.79-1.15h-.29a6.86,6.86,0,0,0-5.85,3.5,5.72,5.72,0,0,0-.65-.48,6.34,6.34,0,0,0-3.47-1,7.4,7.4,0,0,0-6.3,3.55,7.18,7.18,0,0,0-4.06-1.25,7,7,0,0,0-6.63,4.66,153.33,153.33,0,0,0-4.8,17.05A19.18,19.18,0,0,0,78.37,139a12.51,12.51,0,0,0,1.72,2.94c.3.42.58.82.82,1.21-.44,1.56-.85,3.11-1.26,4.65-.33,1.23-.66,2.46-1,3.68a2.76,2.76,0,0,0,.2,2.14,2.71,2.71,0,0,0,1.74,1.24c1.5.39,3,.8,4.5,1.21l3.63,1,3.63,1,3.24.88q5.22,1.43,10.44,2.87a3.23,3.23,0,0,0,.93.14,2.51,2.51,0,0,0,2.49-2.12,41.47,41.47,0,0,1,2.77-7.83,5.48,5.48,0,0,1,2.16-2,105.49,105.49,0,0,0,16.41-13.7l.27-.26a64.73,64.73,0,0,0,6.35-7,8.19,8.19,0,0,0,1.78-6.06,7,7,0,0,0-7-5.77,7.86,7.86,0,0,0-4.36,1.29c-1.69,1.14-3.36,2.34-5,3.52.39-1.69.88-3.37,1.4-5.11.35-1.21.72-2.46,1-3.72,1.15-4.4,2.39-8.87,3.58-13.19l1.68-6.07a7,7,0,0,0-3.23-8.17,7.08,7.08,0,0,0-3.37-.87Z"/></g></svg>