<svg xmlns="http://www.w3.org/2000/svg" width="585.47" height="166.28" viewBox="0 0 585.47 166.28"><defs><style>.a{fill:#010101;}.b{fill:#2b4b9b;}.c{isolation:isolate;}.d{fill:#fff;}</style></defs><rect class="a" x="28.14" y="-93.18" width="528.95" height="352.63"/><rect class="b" x="28.14" y="21.68" width="528.95" height="5.38"/><rect class="b" x="28.14" y="139.22" width="528.95" height="5.38"/><g class="c"><path class="d" d="M55.45,101.63V93.34L76,85.26l-20.57-8V69L84.93,81.77v7Z"/><path class="d" d="M128,106.5h-8.23v-31a28.42,28.42,0,0,1-10.64,6.24V74.24a23.82,23.82,0,0,0,7-4,15.17,15.17,0,0,0,5.18-6.87H128Z"/><path class="d" d="M156.59,92.52,165,91.7a10.33,10.33,0,0,0,3.09,6.24,9.36,9.36,0,0,0,6.29,2c2.79,0,4.9-.59,6.31-1.77A5.26,5.26,0,0,0,182.84,94a3.91,3.91,0,0,0-.9-2.59,7.12,7.12,0,0,0-3.12-1.86c-1-.35-3.33-1-6.94-1.87q-7-1.74-9.79-4.25a11.19,11.19,0,0,1-4-8.64A11,11,0,0,1,160,68.66a11.59,11.59,0,0,1,5.36-4.35,21.39,21.39,0,0,1,8.45-1.5q8.08,0,12.17,3.55a12.51,12.51,0,0,1,4.3,9.46l-8.68.38a7.38,7.38,0,0,0-2.38-4.76,8.73,8.73,0,0,0-5.5-1.45,9.91,9.91,0,0,0-5.91,1.55,3.15,3.15,0,0,0-1.38,2.67,3.31,3.31,0,0,0,1.29,2.61c1.09.92,3.75,1.87,8,2.87a41.92,41.92,0,0,1,9.36,3.09,12,12,0,0,1,4.74,4.36,13.51,13.51,0,0,1-.33,13.76,12.26,12.26,0,0,1-5.8,4.79,24.44,24.44,0,0,1-9.35,1.57q-8.15,0-12.51-3.77T156.59,92.52Z"/><path class="d" d="M207,63.55V79.34a12.35,12.35,0,0,1,14.65-3.61,8.48,8.48,0,0,1,3.44,2.7,9.69,9.69,0,0,1,1.58,3.63,32.85,32.85,0,0,1,.42,6.18V106.5h-8.23V90.06a24,24,0,0,0-.47-6.21,4.08,4.08,0,0,0-1.65-2.1,5.39,5.39,0,0,0-3-.77,6.88,6.88,0,0,0-3.66,1,5.81,5.81,0,0,0-2.36,3,18.12,18.12,0,0,0-.74,5.93V106.5h-8.24V63.55Z"/><path class="d" d="M233.49,90.5a16.79,16.79,0,0,1,2-7.94,13.91,13.91,0,0,1,5.73-5.86,17,17,0,0,1,8.28-2,15.56,15.56,0,0,1,11.57,4.58,15.84,15.84,0,0,1,4.51,11.59,16,16,0,0,1-4.56,11.7,15.38,15.38,0,0,1-11.47,4.65,18.08,18.08,0,0,1-8.16-1.94,13.24,13.24,0,0,1-5.9-5.66A18.89,18.89,0,0,1,233.49,90.5Zm8.44.44c0,3.08.73,5.45,2.19,7.09A7.19,7.19,0,0,0,255,98q2.18-2.46,2.18-7.15t-2.18-7a7.19,7.19,0,0,0-10.83,0Q241.93,86.31,241.93,90.94Z"/><path class="d" d="M277.85,106.5,268,75.38h8l5.83,20.39,5.36-20.39h7.94l5.19,20.39,5.94-20.39h8.12l-10,31.12h-7.91l-5.36-20-5.28,20Z"/></g></svg>