<svg id="bpx" xmlns="http://www.w3.org/2000/svg" viewBox="0 0 1014.29 731.4"><defs><style>.cls-1,.cls-7{fill:#fff;}.cls-1,.cls-2,.cls-3{stroke:#231f20;stroke-miterlimit:10;}.cls-1,.cls-3{stroke-width:11.44px;}.cls-2,.cls-3{fill:none;}.cls-2{stroke-linecap:round;stroke-width:22.89px;}.cls-4{fill:#00a04c;}.cls-5{fill:#248145;}.cls-6,.cls-8{fill:#231f20;}.cls-8{font-size:94.85px;font-family:Calibri-Italic, Calibri;font-style:italic;}</style></defs><g id="BPX-SideL"><polygon class="cls-1" points="9.27 418.29 9.27 725.45 615.12 725.45 754.05 725.45 754.05 5.72 9.27 5.72 9.27 418.29"/><path class="cls-2" d="M11.44,418.29c8.35,6.52,16.47,13,23.46,16.48,20.71,10,55.39,26.77,94.19,45.77,13.85,6.64,20.26-2.29,34.78,4.81s37.19,30.21,51.62,37.19c53.68,26.1,102.54,49.9,122.9,60,5.62,2.75,9.17,4.46,10,4.81,7.79,4,72.57,21.17,76.57,21.17h3.89s9.85,20.14,27.47,33.3a67.65,67.65,0,0,0,9.16,5.72c14.06,7,90.85,44.18,149.69,72.44"/><path class="cls-3" d="M339.44,581.37a1.91,1.91,0,0,0-.35-.24c-3.43-1.83-31-17.84-40.86-42.8-24.14-60.87-23-115-23-115S171.32,312.66,177,276.84s97.84-29.07,97.84-29.07,3.78-52.88,27.7-116.28,87.66-77.58,143.51-53.78c0,0,63.75,8.36,3.55,86-47.84,61.56-47.26,172.68-47.26,236.21s-1.16,137.78,19.33,180.35,34.79,61.23,34.79,61.23"/><path class="cls-4" d="M407.91,289.56s-31.09,29.76-31.09,109.79c0,29.75,9.7,56.4,17.51,73a163.49,163.49,0,0,0,8.09,15.33c.93,1.55,1.45,2.39,1.45,2.39s-8.8-93.77,4-200.52"/><path class="cls-3" d="M407.91,289.56s-31.09,29.76-31.09,109.79c0,29.75,9.7,56.4,17.51,73a163.49,163.49,0,0,0,8.09,15.33c.93,1.55,1.45,2.39,1.45,2.39S395.07,396.31,407.91,289.56Z"/><path class="cls-5" d="M360,211.26a99.73,99.73,0,0,0-9,6c-5,3.7-5.52,7.36-5.52,7.36s-8.16,4.16-12.45,8.79c-2.55,2.77-1.16,5.7-2.94,8-2.33,3.05-8.56,6.25-10.7,9.58-1.78,2.78.47,5.66-1.17,8.61-1.82,3.25-7.49,6.6-9.11,10-1.38,2.95,1.29,6,0,9.07-1.41,3.53-6.71,7.12-7.92,10.8-1,3.16,2,6.38,1.08,9.65s-5.68,6.54-6.41,9.89c-.86,4,2.34,8.08,1.71,12.22s-5.15,8.4-5.56,12.68c-.35,3.88,3.35,7.84,3.22,11.82-.11,2.76-4.16,5.53-4.16,8.31,0,1.18,0,2.34,0,3.51.08,4.25,4.23,8.48,4.56,12.64.26,3.38-3.41,6.71-3,10,.59,4.9,5.33,9.71,6.24,14.44.56,2.85-2.81,5.66-2.16,8.45,1.1,4.51,6.31,8.94,7.67,13.27,1,3.24-1.86,6.41-.68,9.53,1.4,3.72,6.88,7.34,8.49,10.87.87,1.91-2.2,3.79-1.29,5.63,1.67,3.32,7.41,6.54,9.23,9.66,1.19,2-1.57,4-.31,5.89,2,3,8,6,10.18,8.79,1,1.31-1.95,2.6-.91,3.84l76.23,39.8-1.57-20.39c-1.59-2.47-3.1-5-4.57-7.62-2.36-4.17.4-6.44-.78-8.94-1-2.07-5.89-4.28-7.38-7.85-1.68-4,.75-8.15-.66-12.41-1.16-3.45-6.19-7-7.14-10.57s2.15-7.26,1.39-11c-.89-4.31-5.63-8.71-6.23-13.18-.51-3.74,3.06-7.53,2.74-11.37-.27-3.58-4.44-7.21-4.54-10.87-.06-1.93-.08-3.88-.08-5.83s4-3.94,4.06-5.89c.09-4-3.65-8-3.32-11.9s4.78-7.93,5.33-11.81c.62-4.3-2.6-8.55-1.72-12.7.51-2.46,5-4.89,5.66-7.29,1-4.17-1.76-8.25-.45-12.24,1-3.14,6.08-6.21,7.26-9.23,1.42-3.66-1-7.25.61-10.71s7.34-2.86,9.14-6.11c1.64-2.9-.65-9.7,1.12-12.41,1.11-1.73,2.25-3.41,3.44-5.06,0,0,6.43-48.76,0-54.12S360,211.26,360,211.26"/><path class="cls-3" d="M360,211.26a99.73,99.73,0,0,0-9,6c-5,3.7-5.52,7.36-5.52,7.36s-8.16,4.16-12.45,8.79c-2.55,2.77-1.16,5.7-2.94,8-2.33,3.05-8.56,6.25-10.7,9.58-1.78,2.78.47,5.66-1.17,8.61-1.82,3.25-7.49,6.6-9.11,10-1.38,2.95,1.29,6,0,9.07-1.41,3.53-6.71,7.12-7.92,10.8-1,3.16,2,6.38,1.08,9.65s-5.68,6.54-6.41,9.89c-.86,4,2.34,8.08,1.71,12.22s-5.15,8.4-5.56,12.68c-.35,3.88,3.35,7.84,3.22,11.82-.11,2.76-4.16,5.53-4.16,8.31,0,1.18,0,2.34,0,3.51.08,4.25,4.23,8.48,4.56,12.64.26,3.38-3.41,6.71-3,10,.59,4.9,5.33,9.71,6.24,14.44.56,2.85-2.81,5.66-2.16,8.45,1.1,4.51,6.31,8.94,7.67,13.27,1,3.24-1.86,6.41-.68,9.53,1.4,3.72,6.88,7.34,8.49,10.87.87,1.91-2.2,3.79-1.29,5.63,1.67,3.32,7.41,6.54,9.23,9.66,1.19,2-1.57,4-.31,5.89,2,3,8,6,10.18,8.79,1,1.31-1.95,2.6-.91,3.84l76.23,39.8-1.57-20.39c-1.59-2.47-3.1-5-4.57-7.62-2.36-4.17.4-6.44-.78-8.94-1-2.07-5.89-4.28-7.38-7.85-1.68-4,.75-8.15-.66-12.41-1.16-3.45-6.19-7-7.14-10.57s2.15-7.26,1.39-11c-.89-4.31-5.63-8.71-6.23-13.18-.51-3.74,3.06-7.53,2.74-11.37-.27-3.58-4.44-7.21-4.54-10.87-.06-1.93-.08-3.88-.08-5.83s4-3.94,4.06-5.89c.09-4-3.65-8-3.32-11.9s4.78-7.93,5.33-11.81c.62-4.3-2.6-8.55-1.72-12.7.51-2.46,5-4.89,5.66-7.29,1-4.17-1.76-8.25-.45-12.24,1-3.14,6.08-6.21,7.26-9.23,1.42-3.66-1-7.25.61-10.71s7.34-2.86,9.14-6.11c1.64-2.9-.65-9.7,1.12-12.41,1.11-1.73,2.25-3.41,3.44-5.06,0,0,6.43-48.76,0-54.12S360,211.26,360,211.26Z"/><line class="cls-3" x1="333.08" y1="233.45" x2="410.58" y2="268.38"/><line class="cls-3" x1="350.89" y1="217.11" x2="410.62" y2="244.02"/><line class="cls-3" x1="404.32" y1="290.16" x2="319.44" y2="251.04"/><line class="cls-3" x1="394.12" y1="308.55" x2="309.15" y2="269.7"/><line class="cls-3" x1="386.19" y1="328.62" x2="301.28" y2="289.56"/><line class="cls-3" x1="295.94" y1="309.1" x2="380.98" y2="348.14"/><line class="cls-3" x1="292.1" y1="334" x2="377.38" y2="372.66"/><line class="cls-3" x1="291.16" y1="357.65" x2="376.44" y2="396.3"/><line class="cls-3" x1="292.1" y1="380.02" x2="377.38" y2="418.68"/><line class="cls-3" x1="295.82" y1="402.71" x2="383.26" y2="442.36"/><line class="cls-3" x1="303.71" y1="426.03" x2="391.14" y2="465.67"/><line class="cls-3" x1="311.11" y1="442.46" x2="398.55" y2="482.09"/><line class="cls-3" x1="319.94" y1="458.04" x2="405.58" y2="496.89"/><line class="cls-6" x1="407.91" y1="376.96" x2="709.51" y2="499.1"/><path class="cls-6" d="M710.26,578.13l21.24-52.77L400.23,391.2a16.68,16.68,0,0,1-9.31-8.95,17.42,17.42,0,0,1-.29-13.32,17.24,17.24,0,0,1,22.48-9.51L744.18,493.53l20.55-53.37,229.08,173Z"/><path class="cls-7" d="M406.6,363.88a11.77,11.77,0,0,1,4.36.84L747.41,501l.12-.34,19.81-51.39,206,155.54-255-31.47,20.6-51.17L402.38,385.89a11.4,11.4,0,0,1,4.22-22m0-11.45h0a22.88,22.88,0,0,0-21.21,14.24,23.27,23.27,0,0,0,.28,17.88,22.52,22.52,0,0,0,12.59,12L724.07,528.52l-16.35,40.56-5.55,13.81L717,584.71l255,31.48,42.36,5.23-34.07-25.73-206-155.52L762.11,431l-5.46,14.17L740.91,486,415.26,354.11a23.05,23.05,0,0,0-8.66-1.68"/><polyline class="cls-7" points="448.1 336.06 534.21 284.79 620.26 336.21 629.78 272.48 765.11 295.27 695.01 239.34 836.68 226.25 709.22 195.87 812.24 151.06 667.89 155.88 699.57 93.59 584.14 132.07 534.4 72.06 484.55 131.99 369.18 93.32 400.75 155.66 256.41 150.61 359.34 195.59 231.85 225.75 373.47 239.07 303.31 294.88 438.68 272.33"/><polygon class="cls-3" points="448.1 336.06 534.21 284.79 620.26 336.21 629.78 272.48 765.11 295.27 695.01 239.34 836.68 226.25 709.22 195.87 812.24 151.06 667.89 155.88 699.57 93.59 584.14 132.07 534.4 72.06 484.55 131.99 369.18 93.32 400.75 155.66 256.41 150.61 359.34 195.59 231.85 225.75 373.47 239.07 303.31 294.88 438.68 272.33 448.1 336.06"/><text class="cls-8" transform="translate(391.15 238.47)">KLICK!!</text></g></svg>