<svg xmlns="http://www.w3.org/2000/svg" xmlns:xlink="http://www.w3.org/1999/xlink" width="2714.61" height="951.53" viewBox="0 0 2714.61 951.53"><defs><style>.a,.c{fill:#097e35;}.b{fill:#1e1e1c;}.c,.h{opacity:0.66;}.d{fill:#366cb4;}.e{fill:#1d1d1b;}.f{fill:#010101;}.g{fill:#fcea21;}.h,.j{isolation:isolate;}.i{fill:#fff;}.k{fill:#f18619;}.l{fill:#0d8136;}.m{fill:#2b4b9b;}.n{fill:#e51d23;}.o{fill:none;stroke:#097e35;stroke-miterlimit:10;stroke-width:6px;}.p{filter:url(#a);}.q{fill:#368a41;}.r{fill:currentColor}</style><filter id="a" x="-40%" y="-40%" width="180%" height="180%" name="dropshadow-right"><feGaussianBlur stdDeviation="18" in="SourceAlpha"/><feOffset dx="60" dy="50"/><feComponentTransfer><feFuncA slope="0.4" type="linear"/></feComponentTransfer><feMerge><feMergeNode/><feMergeNode in="SourceGraphic"/></feMerge></filter></defs><path class="a" d="M2443.35,690.87V273.41a12.67,12.67,0,0,0,6.62-2.86l.69-.55,10.05,12.45-.7.56c-12.06,9.74,1.06,28.32,14.27,20.21l.73-.45,8.36,13.64-.71.44-.06,0c-11.45,7-5,23.09,6.17,23.09a13.18,13.18,0,0,0,5.4-1.22l.8-.36,6.57,14.59-.82.37c-14.13,6.36-6.14,27.67,8.69,23.16l.82-.24,4.64,15.31-.8.24-.06,0c-14,4.25-10.15,24.3,3.24,24.3a14.43,14.43,0,0,0,2.4-.21l.87-.14,2.66,15.77-.89.15c-15.28,2.58-12.95,25.2,2.53,24.61l.87,0,.61,16-.84,0h-.08c-7.89.31-11.91,6.37-11.91,12.43,0,5.81,3.72,11.62,11.28,12.31l.88.08-1.42,15.93-.89-.08c-15.45-1.37-18.92,21.12-3.78,24.46l.84.18-3.47,15.62-.81-.18H2516c-9.18-2-15.13,5.21-15.13,12.39a11.77,11.77,0,0,0,8.24,11.37h0l.83.29-5.41,15.06-.85-.3c-14.58-5.25-23.64,15.63-9.84,22.7l.76.39-7.31,14.23-.74-.38-.06,0c-9.61-4.93-18.18,3.06-18.18,11.33a11.84,11.84,0,0,0,5.5,9.92l.73.5-9,13.19-.74-.5c-12.78-8.77-26.83,9.14-15.27,19.46l.64.58Z"/><path class="b" d="M488.37,97.05H2227.14c79.28,0,143.77,64.49,143.77,143.77,12.93,159.74,12.93,317.74,0,468.92,0,78.56-64.46,143-143.74,143H488.37C409.09,852.79,344.6,788.3,344.6,709,333,555.92,333,398,344.62,240.2,344.6,161.54,409.09,97.05,488.37,97.05ZM2227.14,836a127.09,127.09,0,0,0,127-127c12.91-151,12.91-308,0-467.53,0-70.67-57-127.61-127-127.61H488.37A127.08,127.08,0,0,0,361.43,240.82c-11.62,157.56-11.62,314.66,0,467.57,0,70.63,57,127.58,127,127.58Z"/><polygon class="r" points="1302.84 701.63 1135.32 723.22 1173.32 749.56 1169 799.21 1302.84 701.63"/><path class="r" d="M1328.31,743.51h16v20.3a42.88,42.88,0,0,1-15.11,2.59c-6,0-10.8-1.73-13.39-5.19s-4.32-7.77-4.32-14.24q0-9.08,5.19-14.25c3.45-3.45,7.77-5.18,15.11-5.18a19,19,0,0,1,6.9.86c2.6.87,3.46.87,5.19,1.73l-3.46,7.77c-2.59-1.73-5.18-1.73-8.63-1.73a9.85,9.85,0,0,0-6.91,2.59q-2.59,2.6-2.59,7.78t2.59,7.77a7.86,7.86,0,0,0,6,2.59h4.32v-6h-6.91v-7.34Z"/><path class="r" d="M1362.85,751.28v14.25h-10.79v-38h12.52c10.79,0,15.11,3.45,15.11,11.66,0,4.31-1.73,7.77-6,10.79l10.79,16.84h-11.66L1365,752.58h-1.73v-1.3Zm0-7.77h1.73c3.45,0,5.18-1.72,5.18-4.31s-1.73-3.46-5.18-3.46h-1.73Z"/><path class="r" d="M1410.78,765.53h-22v-38h22v7.77h-12.52v6h11.65v7.78h-11.65V756h12.52Z"/><path class="r" d="M1439.7,765.53h-22v-38h22v7.77h-12.52v6h11.66v7.78h-11.66V756h12.52Z"/><path class="r" d="M1483.31,765.53h-13.38l-14.25-26.33h0c0,4.31.86,6.9.86,9.93V766h-8.63V728h13.38l14.25,26.34h0V728h8.63v38h-.86Z"/><path class="r" d="M1488.49,754.74V747h15.11v7.77Z"/><path class="r" d="M1523,743.51h16v20.3a42.89,42.89,0,0,1-15.12,2.59c-6,0-10.79-1.73-13.38-5.19s-4.32-7.77-4.32-14.24q0-9.08,5.18-14.25c3.46-3.45,7.78-5.18,15.12-5.18a19,19,0,0,1,6.9.86c2.59.87,3.46.87,5.18,1.73l-3.45,7.77c-2.59-1.73-5.18-1.73-8.63-1.73a9.81,9.81,0,0,0-6.91,2.59q-2.6,2.6-2.59,7.78a17.32,17.32,0,0,0,1.72,7.77c.87,1.72,3.46,2.59,6,2.59h4.32v-6h-6.91v-7.77h.86Z"/><path class="r" d="M1582.18,746.1c0,6-1.73,11.66-4.32,14.25-3.45,3.45-7.77,5.18-14.24,5.18-6,0-10.8-1.72-13.39-5.18s-4.32-7.77-4.32-14.25,1.73-11.65,4.32-14.24,7.77-5.19,14.25-5.19c6,0,10.79,1.73,13.38,5.19C1581.32,734.45,1582.18,740.06,1582.18,746.1Zm-25.47,0c0,6.91,2.59,10.8,7.77,10.8a7.84,7.84,0,0,0,6-2.59c1.73-1.73,1.73-4.32,1.73-7.77a17.18,17.18,0,0,0-1.73-7.78c-.86-1.72-3.45-2.59-5.18-2.59C1559.3,735.31,1556.71,739.2,1556.71,746.1Z"/><circle class="c" cx="2002.28" cy="666.21" r="113.56"/><circle class="a" cx="2002.28" cy="666.21" r="90.35"/><circle class="c" cx="2002.28" cy="284.64" r="113.56"/><circle class="a" cx="2002.28" cy="284.64" r="90.35"/><circle class="c" cx="714.22" cy="666.21" r="113.56"/><circle class="a" cx="714.22" cy="666.21" r="90.35"/><circle class="c" cx="714.22" cy="284.64" r="113.56"/><circle class="a" cx="714.22" cy="284.64" r="90.35"/><ellipse class="d" cx="1764.05" cy="641.98" rx="35.84" ry="60.06"/><ellipse class="d" cx="1764.05" cy="307.86" rx="35.84" ry="60.06"/><ellipse class="d" cx="952.45" cy="641.98" rx="35.84" ry="60.06"/><ellipse class="a" cx="952.45" cy="307.86" rx="35.84" ry="60.06"/><rect class="e" x="1094.28" y="298.51" width="528.95" height="352.63" transform="translate(2717.5 949.66) rotate(-180)"/><rect class="f" x="1094.28" y="298.51" width="528.95" height="352.63"/><rect class="g" x="1099.87" y="304.1" width="517.48" height="21.93"/><g class="h"><path class="i" d="M1132.79,376.86l8.44-.82a10.33,10.33,0,0,0,3.09,6.24,9.34,9.34,0,0,0,6.29,2q4.19,0,6.31-1.77a5.27,5.27,0,0,0,2.12-4.15,3.88,3.88,0,0,0-.89-2.59,7.25,7.25,0,0,0-3.12-1.86q-1.53-.52-6.94-1.88-7-1.72-9.79-4.24a11.22,11.22,0,0,1-4-8.65,11,11,0,0,1,1.86-6.13,11.54,11.54,0,0,1,5.36-4.35,21.39,21.39,0,0,1,8.45-1.5q8.09,0,12.17,3.55a12.49,12.49,0,0,1,4.3,9.46l-8.68.38a7.36,7.36,0,0,0-2.38-4.76,8.76,8.76,0,0,0-5.5-1.45,10,10,0,0,0-5.92,1.55,3.15,3.15,0,0,0-1.37,2.67,3.32,3.32,0,0,0,1.29,2.61q1.63,1.36,8,2.87a41.77,41.77,0,0,1,9.36,3.09,12,12,0,0,1,4.74,4.36,13.51,13.51,0,0,1-.33,13.76,12.35,12.35,0,0,1-5.81,4.79,24.4,24.4,0,0,1-9.34,1.56q-8.14,0-12.51-3.76T1132.79,376.86Z"/><path class="i" d="M1183.16,347.88v15.79a12.35,12.35,0,0,1,14.64-3.6,8.35,8.35,0,0,1,3.45,2.7,9.85,9.85,0,0,1,1.58,3.63,32.85,32.85,0,0,1,.42,6.18v18.25H1195V374.4a24.44,24.44,0,0,0-.47-6.21,4.08,4.08,0,0,0-1.65-2.1,5.43,5.43,0,0,0-3-.77,6.88,6.88,0,0,0-3.66,1,5.83,5.83,0,0,0-2.36,3,18,18,0,0,0-.74,5.94v15.58h-8.24V347.88Z"/><path class="i" d="M1209.7,374.84a16.79,16.79,0,0,1,2-7.94,13.91,13.91,0,0,1,5.73-5.86,17,17,0,0,1,8.27-2,15.57,15.57,0,0,1,11.58,4.58,17.22,17.22,0,0,1,0,23.29,15.39,15.39,0,0,1-11.47,4.65,18.08,18.08,0,0,1-8.16-1.94,13.27,13.27,0,0,1-5.9-5.67A18.84,18.84,0,0,1,1209.7,374.84Zm8.44.44c0,3.08.73,5.45,2.19,7.09a7.19,7.19,0,0,0,10.83,0c1.45-1.64,2.18-4,2.18-7.15s-.73-5.39-2.18-7a7.19,7.19,0,0,0-10.83,0Q1218.14,370.65,1218.14,375.28Z"/><path class="i" d="M1254.05,390.83l-9.84-31.11h8l5.83,20.39,5.36-20.39h7.94l5.18,20.39,6-20.39h8.12l-10,31.11h-7.91l-5.36-20-5.28,20Z"/></g><g class="j"><path class="k" d="M1142.39,447.81h-6.05V425a20.9,20.9,0,0,1-7.81,4.58v-5.49a17.3,17.3,0,0,0,5.14-2.93,11.19,11.19,0,0,0,3.81-5.05h4.91Z"/></g><rect class="g" x="1099.87" y="486.01" width="517.48" height="21.93"/><g class="j"><path class="i" d="M1130.69,558.75l8.44-.82a10.33,10.33,0,0,0,3.09,6.24,9.34,9.34,0,0,0,6.29,2q4.18,0,6.31-1.77a5.25,5.25,0,0,0,2.12-4.14,3.91,3.91,0,0,0-.89-2.6,7.19,7.19,0,0,0-3.12-1.86c-1-.35-3.33-1-6.94-1.87q-7-1.73-9.79-4.25a11.18,11.18,0,0,1-4-8.64,11.06,11.06,0,0,1,1.86-6.14,11.66,11.66,0,0,1,5.36-4.35,21.4,21.4,0,0,1,8.45-1.49q8.08,0,12.17,3.54a12.51,12.51,0,0,1,4.3,9.46l-8.68.38a7.38,7.38,0,0,0-2.38-4.76,8.83,8.83,0,0,0-5.5-1.45,9.83,9.83,0,0,0-5.91,1.56,3.12,3.12,0,0,0-1.38,2.66,3.29,3.29,0,0,0,1.29,2.61c1.09.92,3.75,1.87,8,2.87a42.82,42.82,0,0,1,9.36,3.09,12.06,12.06,0,0,1,4.74,4.37,13.49,13.49,0,0,1-.33,13.75,12.29,12.29,0,0,1-5.81,4.79,24.2,24.2,0,0,1-9.34,1.57q-8.14,0-12.51-3.77T1130.69,558.75Z"/><path class="i" d="M1171,556.73a16.82,16.82,0,0,1,2-7.94,13.91,13.91,0,0,1,5.73-5.86,17,17,0,0,1,8.27-2,15.54,15.54,0,0,1,11.58,4.59,15.84,15.84,0,0,1,4.51,11.58,16,16,0,0,1-4.56,11.71,15.42,15.42,0,0,1-11.47,4.64,18.07,18.07,0,0,1-8.16-1.93,13.27,13.27,0,0,1-5.9-5.67A18.89,18.89,0,0,1,1171,556.73Zm8.44.44q0,4.64,2.19,7.09a7.19,7.19,0,0,0,10.83,0q2.17-2.46,2.18-7.15t-2.18-7a7.19,7.19,0,0,0-10.83,0Q1179.39,552.54,1179.39,557.17Z"/><path class="i" d="M1230,572.73v-4.66a11.87,11.87,0,0,1-4.47,3.92,12.46,12.46,0,0,1-5.84,1.44,11.43,11.43,0,0,1-5.63-1.38,8.11,8.11,0,0,1-3.6-3.86,17.33,17.33,0,0,1-1.11-6.89V541.61h8.23v14.3q0,6.57.45,8a4.45,4.45,0,0,0,1.66,2.35,5.14,5.14,0,0,0,3,.86,6.45,6.45,0,0,0,3.78-1.16,5.85,5.85,0,0,0,2.28-2.87q.62-1.71.62-8.39V541.61h8.23v31.12Z"/><path class="i" d="M1274.45,572.73h-8.23V556.85c0-3.36-.17-5.53-.53-6.52A4.56,4.56,0,0,0,1264,548a4.87,4.87,0,0,0-2.86-.82,6.59,6.59,0,0,0-3.83,1.17,5.87,5.87,0,0,0-2.33,3.11,26.8,26.8,0,0,0-.63,7.14v14.1h-8.23V541.61h7.64v4.57a12.77,12.77,0,0,1,15.24-4.29,8.37,8.37,0,0,1,3.41,2.51,9,9,0,0,1,1.61,3.45,26,26,0,0,1,.45,5.54Z"/><path class="i" d="M1311.34,572.73h-7.65v-4.57a12.43,12.43,0,0,1-4.5,4,11.48,11.48,0,0,1-5.22,1.3,11.86,11.86,0,0,1-9.19-4.32q-3.83-4.32-3.82-12.06,0-7.9,3.72-12a12.1,12.1,0,0,1,9.4-4.12,11.66,11.66,0,0,1,9,4.34V529.78h8.23Zm-22-16.23q0,5,1.37,7.2a6.24,6.24,0,0,0,5.57,3.23,6.05,6.05,0,0,0,4.83-2.42q2-2.41,2-7.22,0-5.37-1.94-7.72a6.13,6.13,0,0,0-5-2.36,6.21,6.21,0,0,0-4.91,2.33C1290,551.09,1289.37,553.41,1289.37,556.5Z"/></g><g class="j"><path class="k" d="M1147.33,623v5.62h-21.19a14.61,14.61,0,0,1,2.07-6A39.71,39.71,0,0,1,1135,615a43.83,43.83,0,0,0,5-5.16,6.67,6.67,0,0,0,1.25-3.7,4.22,4.22,0,0,0-1.09-3.11,4.61,4.61,0,0,0-6,0,5.81,5.81,0,0,0-1.29,3.79l-6-.6q.54-5,3.38-7.17a11.33,11.33,0,0,1,7.1-2.17,10.27,10.27,0,0,1,7.34,2.52,8.26,8.26,0,0,1,2.66,6.26,10.84,10.84,0,0,1-.76,4.05,16.65,16.65,0,0,1-2.42,4,38.67,38.67,0,0,1-4,4c-1.91,1.75-3.11,2.91-3.62,3.48a10.59,10.59,0,0,0-1.24,1.68Z"/></g><rect class="l" x="1196.59" y="595.51" width="110.09" height="33.11"/><rect class="i" x="1305.34" y="595.51" width="2.69" height="33.11"/><rect class="m" x="1094.28" y="472.14" width="528.95" height="5.38"/><rect class="a" x="1094.28" y="518.46" width="18.31" height="132.69"/><rect class="a" x="1094.28" y="339.45" width="18.31" height="132.69"/><rect class="n" x="1605.16" y="518.46" width="18.31" height="132.69"/><rect class="n" x="1605.16" y="339.45" width="18.31" height="132.69"/><path class="a" d="M192.86,495.05l-.88.08,1.42,15.93.89-.08c15.45-1.37,18.92,21.12,3.78,24.46l-.84.18,3.47,15.62.81-.18h.06c9.18-2,15.13,5.21,15.13,12.39a11.77,11.77,0,0,1-8.24,11.37h0l-.83.29L213,590.17l.85-.3c14.58-5.25,23.64,15.63,9.84,22.7L223,613l7.31,14.23.74-.38.06,0c9.61-4.93,18.18,3.06,18.18,11.33a11.84,11.84,0,0,1-5.5,9.92l-.73.5,8.71,12.69C259,547,259.18,426.91,252.4,303a12.11,12.11,0,0,1-9.07-1.74l-.73-.45-8.36,13.64.71.44.06,0c11.45,7,5,23.09-6.17,23.09a13.18,13.18,0,0,1-5.4-1.22l-.8-.36L216.07,351l.82.37C231,357.71,223,379,208.2,374.51l-.82-.24-4.64,15.31.8.24.06,0c14,4.25,10.15,24.3-3.24,24.3a14.43,14.43,0,0,1-2.4-.21l-.87-.14-2.66,15.77.89.15c15.28,2.58,13,25.2-2.53,24.61l-.87,0-.61,16,.84,0h.08c7.89.31,11.91,6.37,11.91,12.43C204.14,488.55,200.42,494.36,192.86,495.05Z"/><path fill="#000" d="M2469.72,236.89l.06-1.87c0-129.74-105.55-235.28-235.29-235.28H483.28C353.54-.26,248,105.28,248,235l.07,1.87c12.4,166.81,12.41,327.3,0,477L248,716c0,129.74,105.56,235.29,235.3,235.29H2234.49c129.74,0,235.29-105.55,235.29-235.29l-.08-2.08C2457.31,564.19,2457.32,403.7,2469.72,236.89ZM2419.31,717c-.55,101.45-83.24,183.81-184.82,183.81H483.28C381.7,900.8,299,818.44,298.46,717c12.48-151.75,12.48-314.19,0-482.87C299,132.62,381.67,50.21,483.28,50.21H2234.49c101.6,0,184.33,82.41,184.82,183.91C2406.82,402.8,2406.82,565.24,2419.31,717Z"/><rect class="o" x="1196.59" y="414.6" width="165.14" height="33.11"/><g class="p"><path class="q" d="M499.15,724.8c31.19,8.51,62.41,17,93.56,25.64,4.08,1.14,5.44.27,6.47-3.76a303.23,303.23,0,0,1,19.88-56.09c4.22-8.85,11.86-13.91,19.59-19,40.13-26.56,76.11-58.08,110.1-92,15.42-15.37,31-30.68,44-48.18,13.27-17.86,14.89-38.93-4.81-53.3-10.49-7.65-29.19-8-42.1.68-13.23,8.9-26.1,18.35-39,27.73-5.78,4.2-11.24,8.85-16.91,13.2-.92.71-2.42,1.61-3.24,1.3-1.62-.6-.69-2.3-.57-3.58,2.79-31,13.83-60,21.62-89.79,11.54-44.08,24-87.92,36-131.88,4.57-16.72-1.58-32.64-15.47-40.24-14.91-8.18-32.56-4.51-44,9.33-3.06,3.69-4.59,8.2-5.86,12.84q-14.37,52.64-29,105.21c-.39,1.43-1.15,3.55-2.17,3.84-1.94.56-1.9-1.9-2.64-3.1-7-11.43-17.32-17.68-30.6-17.19-14.8.55-25.16,8.57-31.27,22.06-.45,1-.93,2-1.35,3-1.34,3.22-2.66,6.44-4,9.66,0,0-.6,0-.63-.12-4.79-6.44-9.64-12.63-15.07-16.07-17.29-11.19-44-1-50.2,18.7-1.23,3.93-1.81,10.51-4,11.13-3.78,1.06-4.67-5.16-7.35-7.88-18.27-18.51-49.36-12.55-58.16,12-13.51,37.57-23.29,76.31-32.38,115.1-5.34,22.77-5.14,46.32,3.24,68.92,3.69,9.94,11.27,17.58,16.54,26.61a11.56,11.56,0,0,1,1.29,9.65c-5.34,19.11-10.31,38.32-15.56,57.45-1,3.59-.34,5.23,3.51,6.24,18.6,4.87,37.11,10.1,55.69,15Z"/><path class="i" d="M711.75,251.23a34.09,34.09,0,0,1,16.47,4.31c13.89,7.6,20,23.52,15.47,40.24-12,44-24.44,87.8-36,131.88-7.79,29.78-18.83,58.8-21.62,89.79-.12,1.28-1.05,3,.57,3.58a.9.9,0,0,0,.37.06,5.92,5.92,0,0,0,2.87-1.36c5.67-4.35,11.13-9,16.91-13.2,12.9-9.38,25.77-18.83,39-27.73A40.07,40.07,0,0,1,768,472.33c7.52,0,14.72,2,19.92,5.79,19.7,14.37,18.08,35.44,4.81,53.3-13,17.5-28.55,32.81-44,48.18-34,33.89-70,65.41-110.1,92-7.73,5.11-15.37,10.17-19.59,19a303.23,303.23,0,0,0-19.88,56.09c-.76,3-1.7,4.22-3.77,4.22a10.41,10.41,0,0,1-2.7-.46c-31.15-8.69-62.37-17.12-93.56-25.64l-24.94-6.87c-18.58-4.94-37.09-10.17-55.69-15-3.85-1-4.5-2.65-3.51-6.24,5.25-19.13,10.22-38.34,15.56-57.45a11.56,11.56,0,0,0-1.29-9.65c-5.27-9-12.85-16.67-16.54-26.61-8.38-22.6-8.58-46.15-3.24-68.92,9.09-38.79,18.87-77.53,32.38-115.1a34.14,34.14,0,0,1,32.52-22.81A35.88,35.88,0,0,1,500,407c2.48,2.51,3.42,8,6.52,8a3.14,3.14,0,0,0,.83-.12c2.2-.62,2.78-7.2,4-11.13,4.43-14.12,19.37-23.34,33.86-23.34A29.86,29.86,0,0,1,561.6,385c5.43,3.44,10.28,9.63,15.07,16.07,0,.08.37.13.54.13h.09c1.35-3.22,2.67-6.44,4-9.66.42-1,.9-2,1.35-3,6.11-13.49,16.47-21.51,31.27-22.06l1.45,0c12.58,0,22.39,6.21,29.15,17.22.66,1.08.7,3.18,2.12,3.18a1.69,1.69,0,0,0,.52-.08c1-.29,1.78-2.41,2.17-3.84q14.58-52.57,29-105.21c1.27-4.64,2.8-9.15,5.86-12.84,7.41-8.94,17.4-13.64,27.56-13.64m0-13.68v0c-14.42,0-28.31,6.78-38.1,18.6-4.74,5.72-7,12.29-8.51,18q-11.82,43.27-23.81,86.51a45.49,45.49,0,0,0-26-7.85c-.65,0-1.3,0-2,0-17.18.63-31.17,9.07-40,23.93a42.83,42.83,0,0,0-28.14-10.05c-17.85,0-34.66,9.82-43.09,24.31a49.12,49.12,0,0,0-27.77-8.56A47.72,47.72,0,0,0,429,414.29c-13.86,38.58-24,78.85-32.82,116.61-6.36,27.12-5.1,53,3.73,76.79,2.95,8,7.6,14.41,11.71,20.11,2.06,2.86,4,5.57,5.62,8.26-3,10.67-5.8,21.24-8.63,31.8-2.25,8.4-4.49,16.79-6.79,25.17-.57,2.07-2.29,8.35,1.33,14.63,2.41,4.17,6.41,7,11.9,8.46,10.29,2.7,20.55,5.5,30.81,8.3q12.4,3.41,24.84,6.73L495.51,738l22.17,6q35.7,9.72,71.36,19.59a23.58,23.58,0,0,0,6.37,1c4,0,13.68-1.42,17-14.52a288.87,288.87,0,0,1,19-53.57c2.47-5.18,7.24-8.51,14.8-13.52,37-24.5,72.69-54.27,112.21-93.69l1.83-1.82c14.92-14.87,30.36-30.26,43.46-47.88,9.9-13.32,14.22-28,12.19-41.46C814,486,807.15,475.22,796,467.07c-7.44-5.43-17.38-8.42-28-8.42a53.88,53.88,0,0,0-29.82,8.8c-11.57,7.78-22.95,16-34,24.06,2.63-11.51,6-23,9.53-34.91,2.44-8.3,5-16.88,7.22-25.47,7.88-30.12,16.33-60.68,24.5-90.24q5.73-20.75,11.43-41.5c6.22-22.76-2.65-45.2-22.08-55.85a48.13,48.13,0,0,0-23-6Z"/></g></svg>