<svg xmlns="http://www.w3.org/2000/svg" width="585.47" height="361.77" viewBox="0 0 585.47 361.77"><defs><style>.a{fill:#010101;}.b{fill:#fcea21;}.c{isolation:isolate;}.d{fill:#fff;}.e{fill:#f18619;}.f{fill:#0d8136;}.g{fill:#2b4b9b;}.h{fill:#097e35;}.i{fill:#e51d23;}.j{fill:#1d1d1b;stroke:#fdeb1d;stroke-miterlimit:10;stroke-width:6px;}</style></defs><rect class="a" x="28.14" y="4.57" width="528.95" height="352.63"/><rect class="b" x="33.73" y="10.16" width="517.48" height="21.93"/><g class="c"><path class="d" d="M62.18,83.55l8.43-.82A10.3,10.3,0,0,0,73.7,89,9.36,9.36,0,0,0,80,91c2.79,0,4.9-.6,6.31-1.78a5.26,5.26,0,0,0,2.13-4.14,3.92,3.92,0,0,0-.9-2.6,7.12,7.12,0,0,0-3.12-1.86c-1-.35-3.33-1-6.94-1.87q-7-1.73-9.79-4.25a11.18,11.18,0,0,1-4-8.64,11.06,11.06,0,0,1,1.86-6.14A11.71,11.71,0,0,1,71,55.34a21.4,21.4,0,0,1,8.45-1.49q8.09,0,12.18,3.54a12.53,12.53,0,0,1,4.29,9.46l-8.67.38a7.43,7.43,0,0,0-2.39-4.76A8.79,8.79,0,0,0,79.31,61a9.83,9.83,0,0,0-5.91,1.56A3.12,3.12,0,0,0,72,65.24a3.29,3.29,0,0,0,1.29,2.61q1.64,1.38,8,2.87a42.45,42.45,0,0,1,9.36,3.09,12.06,12.06,0,0,1,4.74,4.37,13.49,13.49,0,0,1-.33,13.75,12.26,12.26,0,0,1-5.8,4.79,24.25,24.25,0,0,1-9.35,1.57q-8.15,0-12.51-3.77T62.18,83.55Z"/><path class="d" d="M112.54,54.58V70.37a12.32,12.32,0,0,1,14.65-3.6,8.38,8.38,0,0,1,3.44,2.69,9.83,9.83,0,0,1,1.58,3.63,32.9,32.9,0,0,1,.42,6.19V97.53H124.4V81.09a24,24,0,0,0-.47-6.21,4,4,0,0,0-1.65-2.09,5.3,5.3,0,0,0-3-.78,6.8,6.8,0,0,0-3.66,1,5.75,5.75,0,0,0-2.36,3,18.16,18.16,0,0,0-.74,5.93V97.53H104.3V54.58Z"/><path class="d" d="M139.08,81.53a16.82,16.82,0,0,1,2-7.94,13.91,13.91,0,0,1,5.73-5.86,17.09,17.09,0,0,1,8.28-2,15.53,15.53,0,0,1,11.57,4.59,15.82,15.82,0,0,1,4.51,11.58,16,16,0,0,1-4.56,11.71,15.4,15.4,0,0,1-11.47,4.64A18.07,18.07,0,0,1,147,96.3a13.32,13.32,0,0,1-5.9-5.67A18.86,18.86,0,0,1,139.08,81.53Zm8.44.44q0,4.64,2.19,7.09a7.19,7.19,0,0,0,10.83,0c1.46-1.64,2.18-4,2.18-7.15s-.72-5.39-2.18-7a7.19,7.19,0,0,0-10.83,0C148.25,76.52,147.52,78.89,147.52,82Z"/><path class="d" d="M183.44,97.53l-9.85-31.12h8l5.83,20.4,5.36-20.4h7.94l5.19,20.4,5.94-20.4H220L210,97.53h-7.91l-5.36-20-5.28,20Z"/></g><g class="c"><path class="e" d="M76.25,147.87h-6V125.08a20.79,20.79,0,0,1-7.81,4.59v-5.49a17.35,17.35,0,0,0,5.14-2.94,11.17,11.17,0,0,0,3.81-5h4.91Z"/></g><rect class="f" x="130.46" y="114.66" width="110.09" height="33.11"/><rect class="d" x="239.2" y="114.66" width="2.69" height="33.11"/><rect class="b" x="33.73" y="192.07" width="517.48" height="21.93"/><g class="c"><path class="d" d="M62.18,262.28l8.43-.82a10.28,10.28,0,0,0,3.1,6.24,9.36,9.36,0,0,0,6.28,2c2.79,0,4.9-.59,6.31-1.77a5.29,5.29,0,0,0,2.13-4.15,3.89,3.89,0,0,0-.9-2.59,7,7,0,0,0-3.12-1.86c-1-.35-3.33-1-6.94-1.88q-7-1.72-9.79-4.25a11.18,11.18,0,0,1-4-8.64,11.06,11.06,0,0,1,1.86-6.14A11.71,11.71,0,0,1,71,234.06a21.61,21.61,0,0,1,8.45-1.49q8.09,0,12.18,3.54a12.56,12.56,0,0,1,4.29,9.47L87.2,246a7.34,7.34,0,0,0-2.39-4.76,8.71,8.71,0,0,0-5.49-1.45,9.94,9.94,0,0,0-5.92,1.55A3.12,3.12,0,0,0,72,244a3.29,3.29,0,0,0,1.29,2.6q1.64,1.38,8,2.87a42.45,42.45,0,0,1,9.36,3.09,12.06,12.06,0,0,1,4.74,4.37,13.51,13.51,0,0,1-.33,13.76,12.3,12.3,0,0,1-5.8,4.78A24.25,24.25,0,0,1,79.9,277q-8.15,0-12.51-3.76T62.18,262.28Z"/><path class="d" d="M102.43,260.26a16.76,16.76,0,0,1,2-7.94,13.85,13.85,0,0,1,5.73-5.86,17,17,0,0,1,8.28-2A15.53,15.53,0,0,1,130,249a15.84,15.84,0,0,1,4.51,11.59,16,16,0,0,1-4.56,11.7A15.37,15.37,0,0,1,118.51,277a18,18,0,0,1-8.15-1.93,13.29,13.29,0,0,1-5.91-5.67A18.84,18.84,0,0,1,102.43,260.26Zm8.44.43q0,4.63,2.2,7.09a7.16,7.16,0,0,0,10.82,0c1.46-1.64,2.18-4,2.18-7.14s-.72-5.39-2.18-7a7.16,7.16,0,0,0-10.82,0Q110.87,256.07,110.87,260.69Z"/><path class="d" d="M161.46,276.25v-4.66a12,12,0,0,1-4.46,3.93,12.52,12.52,0,0,1-5.85,1.43,11.38,11.38,0,0,1-5.62-1.37,8.2,8.2,0,0,1-3.61-3.87,17.28,17.28,0,0,1-1.11-6.88V245.14H149v14.3q0,6.56.46,8a4.4,4.4,0,0,0,1.65,2.34,5.07,5.07,0,0,0,3,.87,6.52,6.52,0,0,0,3.78-1.16,5.9,5.9,0,0,0,2.28-2.87c.41-1.15.62-3.94.62-8.4V245.14h8.23v31.11Z"/><path class="d" d="M205.94,276.25H197.7V260.37a24.75,24.75,0,0,0-.52-6.52,4.62,4.62,0,0,0-1.72-2.3,4.93,4.93,0,0,0-2.85-.82,6.54,6.54,0,0,0-3.84,1.18,5.9,5.9,0,0,0-2.33,3.1,26.84,26.84,0,0,0-.63,7.15v14.09h-8.23V245.14h7.64v4.57a12.46,12.46,0,0,1,10.26-5.27,12.3,12.3,0,0,1,5,1,8.35,8.35,0,0,1,3.41,2.5,9.09,9.09,0,0,1,1.61,3.46,25.17,25.17,0,0,1,.46,5.54Z"/><path class="d" d="M242.82,276.25h-7.65v-4.57a12.23,12.23,0,0,1-4.49,4,11.52,11.52,0,0,1-5.23,1.3,11.86,11.86,0,0,1-9.19-4.32q-3.82-4.32-3.82-12.05,0-7.92,3.72-12a12.15,12.15,0,0,1,9.41-4.11,11.65,11.65,0,0,1,9,4.33V233.3h8.23Zm-22-16.23q0,5,1.38,7.21a6.2,6.2,0,0,0,5.56,3.22,6.07,6.07,0,0,0,4.84-2.42c1.32-1.61,2-4,2-7.22,0-3.57-.65-6.15-1.94-7.72a6.1,6.1,0,0,0-5-2.36,6.17,6.17,0,0,0-4.9,2.33C221.51,254.61,220.85,256.94,220.85,260Z"/></g><g class="c"><path class="e" d="M81.2,324v5.61H60a14.56,14.56,0,0,1,2.07-6,40.07,40.07,0,0,1,6.8-7.56,42.83,42.83,0,0,0,5-5.17,6.65,6.65,0,0,0,1.25-3.7A4.21,4.21,0,0,0,74,304.05a4.62,4.62,0,0,0-6,.06,5.81,5.81,0,0,0-1.29,3.79l-6-.61q.54-5,3.38-7.16a11.35,11.35,0,0,1,7.1-2.17,10.26,10.26,0,0,1,7.34,2.51,8.26,8.26,0,0,1,2.67,6.26,10.9,10.9,0,0,1-.77,4.06,16.29,16.29,0,0,1-2.42,4,37.55,37.55,0,0,1-4,4q-2.85,2.63-3.62,3.48A10.31,10.31,0,0,0,69.19,324Z"/></g><rect class="f" x="130.46" y="296.57" width="110.09" height="33.11"/><rect class="d" x="239.2" y="296.57" width="2.69" height="33.11"/><rect class="g" x="28.14" y="178.2" width="528.95" height="5.38"/><rect class="h" x="28.14" y="224.52" width="18.31" height="132.69"/><rect class="h" x="28.14" y="45.51" width="18.31" height="132.69"/><rect class="i" x="539.02" y="224.52" width="18.31" height="132.69"/><rect class="i" x="539.02" y="45.51" width="18.31" height="132.69"/><rect class="j" x="86.48" y="76.55" width="412.27" height="208.68"/><g class="c"><path class="d" d="M198.47,107.29H217a36.42,36.42,0,0,1,9.53.95,16.84,16.84,0,0,1,7.56,4.62,21.86,21.86,0,0,1,4.78,8.12,36.75,36.75,0,0,1,1.64,11.84,33.06,33.06,0,0,1-1.53,10.66,22.14,22.14,0,0,1-5.37,8.85,17.77,17.77,0,0,1-7.11,4,30.49,30.49,0,0,1-9,1.06h-19Zm10.11,8.47V149h7.56a27.58,27.58,0,0,0,6.12-.48,9.3,9.3,0,0,0,4.08-2.08,10.58,10.58,0,0,0,2.65-4.84,32.82,32.82,0,0,0,1-9.18,30.12,30.12,0,0,0-1-8.92,11.43,11.43,0,0,0-2.87-4.85,9.64,9.64,0,0,0-4.68-2.36,45.88,45.88,0,0,0-8.31-.48Z"/><path class="d" d="M249,116.17v-8.88h9.61v8.88Zm0,41.22v-36.3h9.61v36.3Z"/><path class="d" d="M277.63,157.39H268v-36.3h8.92v5.17a15.47,15.47,0,0,1,4.12-4.82,7.55,7.55,0,0,1,4.15-1.17,12.2,12.2,0,0,1,6.33,1.82l-3,8.37a8.38,8.38,0,0,0-4.51-1.57,5.36,5.36,0,0,0-3.42,1.11,7.59,7.59,0,0,0-2.2,4q-.81,2.91-.8,12.17Z"/><path class="d" d="M316.69,145.84l9.57,1.61a15.67,15.67,0,0,1-5.82,8,17.11,17.11,0,0,1-10,2.75q-9.47,0-14-6.18-3.58-5-3.59-12.51,0-9,4.72-14.14a15.55,15.55,0,0,1,11.93-5.11q8.1,0,12.78,5.35T326.78,142H302.71a9.73,9.73,0,0,0,2.33,6.65,7.29,7.29,0,0,0,5.54,2.38,5.89,5.89,0,0,0,3.79-1.23A7.61,7.61,0,0,0,316.69,145.84Zm.55-9.71c-.07-2.78-.78-4.89-2.15-6.34a6.94,6.94,0,0,0-10.19.12,8.86,8.86,0,0,0-2,6.22Z"/><path class="d" d="M366.25,131.83l-9.46,1.71a7,7,0,0,0-2.17-4.28,6.61,6.61,0,0,0-4.4-1.43,7.14,7.14,0,0,0-5.72,2.48c-1.42,1.65-2.14,4.41-2.14,8.28,0,4.31.73,7.35,2.17,9.13a7.13,7.13,0,0,0,5.83,2.67,6.47,6.47,0,0,0,4.48-1.56q1.74-1.56,2.46-5.35l9.43,1.61q-1.47,6.49-5.64,9.81t-11.17,3.31q-8,0-12.7-5t-4.73-13.91q0-9,4.75-14t12.85-5q6.63,0,10.54,2.86A15.74,15.74,0,0,1,366.25,131.83Z"/><path class="d" d="M390.18,121.09v7.66h-6.56v14.63a35.52,35.52,0,0,0,.19,5.18,2.09,2.09,0,0,0,.85,1.21,2.7,2.7,0,0,0,1.62.48,12.61,12.61,0,0,0,3.87-.92l.82,7.45a19.27,19.27,0,0,1-7.59,1.43,12,12,0,0,1-4.68-.87,6.85,6.85,0,0,1-3.06-2.25,8.92,8.92,0,0,1-1.35-3.75,45.58,45.58,0,0,1-.31-6.76V128.75h-4.41v-7.66H374v-7.21l9.64-5.6v12.81Z"/><path class="d" d="M128.38,191.29H138.5v27.13a56.81,56.81,0,0,0,.37,8.38,8.15,8.15,0,0,0,3.1,4.94,10.77,10.77,0,0,0,6.68,1.86c2.87,0,5-.59,6.49-1.76a7,7,0,0,0,2.64-4.32,57.43,57.43,0,0,0,.44-8.51V191.29h10.12V217.6a68.19,68.19,0,0,1-.82,12.75,14.12,14.12,0,0,1-3,6.29,15.33,15.33,0,0,1-5.89,4.09,25.75,25.75,0,0,1-9.64,1.52q-7.19,0-10.89-1.66a15.63,15.63,0,0,1-5.86-4.31,13.74,13.74,0,0,1-2.84-5.55,61,61,0,0,1-1-12.72Z"/><path class="d" d="M175.55,231l9.64-1.47a7.06,7.06,0,0,0,2.49,4.25,8.45,8.45,0,0,0,5.27,1.45,9.5,9.5,0,0,0,5.6-1.36,3,3,0,0,0,1.27-2.57,2.52,2.52,0,0,0-.69-1.81,7.73,7.73,0,0,0-3.21-1.26q-11.62-2.57-14.73-4.68a9.37,9.37,0,0,1-4.31-8.17,10,10,0,0,1,3.73-7.93q3.72-3.21,11.55-3.22,7.46,0,11.08,2.43a12.47,12.47,0,0,1,5,7.18l-9.06,1.67a5.62,5.62,0,0,0-2.21-3.24,8,8,0,0,0-4.63-1.13q-3.79,0-5.43,1.06a2.28,2.28,0,0,0-1.1,1.95,2.12,2.12,0,0,0,1,1.74q1.31,1,9,2.7t10.72,4.27a8.9,8.9,0,0,1,3,7.15,11,11,0,0,1-4.17,8.57q-4.17,3.6-12.34,3.59-7.42,0-11.74-3A13.86,13.86,0,0,1,175.55,231Z"/><path class="d" d="M238.88,229.84l9.58,1.61a15.75,15.75,0,0,1-5.83,8,17.11,17.11,0,0,1-10,2.75q-9.47,0-14-6.18-3.59-5-3.59-12.51,0-9,4.72-14.14a15.55,15.55,0,0,1,11.93-5.11q8.1,0,12.78,5.35T249,226H224.91a9.68,9.68,0,0,0,2.32,6.65,7.29,7.29,0,0,0,5.54,2.38,5.87,5.87,0,0,0,3.79-1.23A7.61,7.61,0,0,0,238.88,229.84Zm.55-9.71c-.07-2.78-.78-4.89-2.15-6.34a6.94,6.94,0,0,0-10.19.12,8.86,8.86,0,0,0-2,6.22Z"/><path class="d" d="M266,241.39h-9.61v-36.3h8.93v5.17a15.47,15.47,0,0,1,4.11-4.82,7.56,7.56,0,0,1,4.16-1.17,12.19,12.19,0,0,1,6.32,1.82l-3,8.37a8.44,8.44,0,0,0-4.51-1.57A5.32,5.32,0,0,0,269,214a7.59,7.59,0,0,0-2.21,4q-.8,2.91-.8,12.17Z"/><path class="d" d="M317.05,241.39h-9.6V222.87q0-5.88-.62-7.61a5.3,5.3,0,0,0-2-2.68,5.69,5.69,0,0,0-3.33-1A7.75,7.75,0,0,0,297,213a6.89,6.89,0,0,0-2.71,3.62q-.74,2.26-.74,8.34v16.44H284v-36.3h8.92v5.34q4.75-6.17,12-6.16a14.45,14.45,0,0,1,5.81,1.15,9.7,9.7,0,0,1,4,2.92,10.59,10.59,0,0,1,1.88,4,29.62,29.62,0,0,1,.53,6.46Z"/><path class="d" d="M334,216.17l-8.71-1.57a13.57,13.57,0,0,1,5.06-7.8q3.58-2.52,10.66-2.53,6.42,0,9.57,1.53a9.54,9.54,0,0,1,4.43,3.86q1.27,2.34,1.28,8.59l-.1,11.21a38.72,38.72,0,0,0,.46,7.06,20.27,20.27,0,0,0,1.72,4.87h-9.5c-.25-.63-.56-1.58-.92-2.83-.16-.57-.28-.95-.34-1.13a17.45,17.45,0,0,1-5.27,3.59,15.2,15.2,0,0,1-6,1.19q-5.61,0-8.83-3a10.09,10.09,0,0,1-3.23-7.69,10.2,10.2,0,0,1,1.47-5.48,9.59,9.59,0,0,1,4.11-3.7,32.66,32.66,0,0,1,7.64-2.24,52.08,52.08,0,0,0,9.33-2.35v-1a5,5,0,0,0-1.36-3.95c-.92-.78-2.63-1.18-5.16-1.18a6.88,6.88,0,0,0-4,1A7,7,0,0,0,334,216.17ZM346.82,224a59.64,59.64,0,0,1-5.84,1.47,17.44,17.44,0,0,0-5.23,1.68,4,4,0,0,0-1.88,3.38,4.73,4.73,0,0,0,1.5,3.49,5.27,5.27,0,0,0,3.83,1.47,8.32,8.32,0,0,0,5-1.71,6.09,6.09,0,0,0,2.29-3.18,19.07,19.07,0,0,0,.37-4.68Z"/><path class="d" d="M365,205.09h8.85v5q4.75-5.78,11.31-5.78a12.14,12.14,0,0,1,6.05,1.44,11.08,11.08,0,0,1,4.21,4.34,16.65,16.65,0,0,1,5.16-4.34,12.62,12.62,0,0,1,5.91-1.44,13.2,13.2,0,0,1,6.77,1.63,10,10,0,0,1,4.14,4.77c.66,1.55,1,4.05,1,7.52v23.2h-9.61V220.65q0-5.4-1-7a4.57,4.57,0,0,0-4.1-2,6.51,6.51,0,0,0-3.79,1.23,6.86,6.86,0,0,0-2.57,3.61,26.09,26.09,0,0,0-.78,7.5v17.43H387V221.5a27.81,27.81,0,0,0-.51-6.84,4.4,4.4,0,0,0-1.59-2.29,5,5,0,0,0-2.92-.75,7,7,0,0,0-4,1.2,6.55,6.55,0,0,0-2.55,3.45,25.75,25.75,0,0,0-.77,7.49v17.63H365Z"/><path class="d" d="M449,229.84l9.57,1.61a15.69,15.69,0,0,1-5.83,8,17.07,17.07,0,0,1-10,2.75q-9.48,0-14-6.18-3.58-5-3.59-12.51,0-9,4.72-14.14a15.56,15.56,0,0,1,11.93-5.11q8.1,0,12.78,5.35T459.07,226H435a9.72,9.72,0,0,0,2.32,6.65,7.29,7.29,0,0,0,5.54,2.38,5.87,5.87,0,0,0,3.79-1.23A7.68,7.68,0,0,0,449,229.84Zm.54-9.71a9.2,9.2,0,0,0-2.15-6.34,6.93,6.93,0,0,0-10.18.12,8.87,8.87,0,0,0-2,6.22Z"/></g></svg>