<svg xmlns="http://www.w3.org/2000/svg" xmlns:xlink="http://www.w3.org/1999/xlink" viewBox="0 0 106.8 79.58"><defs><style>.a,.d,.e,.h{fill:none;}.b{clip-path:url(#a);}.c{fill:#00a04c;}.d,.e{stroke:#231f20;}.d,.e,.h{stroke-miterlimit:10;}.d{stroke-width:1.2px;}.e,.h{stroke-linecap:round;}.e{stroke-width:2.4px;}.f{fill:#248145;}.g{fill:#231f20;}.h{stroke:#fff;stroke-width:4.81px;}.i{fill:#fff;}</style><clipPath id="a"><rect class="a" x="2.1" y="1.56" width="102.61" height="76.45"/></clipPath></defs><title>bpx_volumes</title><g class="b"><path class="c" d="M61.7,31.83S65,34.94,65,43.3a18.41,18.41,0,0,1-1.84,7.64c-.36.75-.68,1.3-.86,1.6l-.15.25a109.1,109.1,0,0,0-.43-21"/><path class="d" d="M61.7,31.83S65,34.94,65,43.3a18.41,18.41,0,0,1-1.84,7.64c-.36.75-.68,1.3-.86,1.6l-.15.25A109.1,109.1,0,0,0,61.7,31.83Z"/><path class="e" d="M103.5,45.28A15.16,15.16,0,0,1,101,47L91.1,51.78c-1.46.71-2.14-.23-3.67.51S83.51,55.45,82,56.18L68,63a81,81,0,0,1-8.06,2.21H59.5a10,10,0,0,1-3.86,4.08c-1.49.74-9.58,4.61-15.78,7.58"/><path class="d" d="M91.62,2.16a8.4,8.4,0,0,1-2.17,11.35c-3.81,2.75-6.42-.67-9.2-4.44-2-2.72-3.54-4.88-2.81-6.91Z"/><path class="d" d="M68.92,62.33s3.23-1.71,4.35-4.5a34.05,34.05,0,0,0,2.42-12S86.65,34.25,86,30.5s-10.32-3.05-10.32-3.05A47.41,47.41,0,0,0,72.81,15.3c-2.52-6.63-9.25-8.11-15.13-5.61,0,0-6.72.86-.37,9,5,6.44,5,18,5,24.69s.11,14.4-2,18.85a39.09,39.09,0,0,1-3.67,6.4"/><path class="f" d="M66.76,23.64a9.92,9.92,0,0,1,.94.64,1.33,1.33,0,0,1,.58.76,5.82,5.82,0,0,1,1.31.92c.27.29.13.6.31.84s.91.65,1.13,1,0,.59.12.9.8.69,1,1.05-.13.63,0,.95.71.74.84,1.13-.21.67-.12,1,.6.68.68,1-.25.85-.18,1.28.54.88.58,1.32-.35.82-.34,1.24.44.58.44.87v.36c0,.45-.45.89-.48,1.33s.36.7.31,1c-.06.51-.56,1-.66,1.51-.05.3.3.59.23.89-.11.47-.66.93-.81,1.38s.2.67.08,1-.73.76-.9,1.13c-.09.2.23.4.14.59-.18.35-.78.69-1,1s.17.42,0,.62-.85.62-1.08.92c-.1.13.21.27.1.4l-8,4.16.17-2.13c.17-.26.33-.53.48-.8.25-.44,0-.67.08-.93s.62-.45.78-.83-.08-.85.07-1.29.65-.73.75-1.11-.22-.76-.14-1.14.59-.92.65-1.38-.32-.79-.29-1.19S65,43.37,65,43c0-.2,0-.4,0-.61s-.42-.41-.43-.61c0-.42.39-.84.35-1.25s-.5-.82-.56-1.23.28-.89.18-1.33c-.05-.25-.53-.51-.59-.76-.11-.44.18-.86,0-1.28s-.65-.65-.77-1,.11-.76-.07-1.12-.77-.3-1-.64.07-1-.12-1.3-.23-.36-.36-.53c0,0-.68-5.09,0-5.65a36.35,36.35,0,0,1,5-2.07"/><path class="d" d="M66.76,23.64a9.92,9.92,0,0,1,.94.64,1.33,1.33,0,0,1,.58.76,5.82,5.82,0,0,1,1.31.92c.27.29.13.6.31.84s.91.65,1.13,1,0,.59.12.9.8.69,1,1.05-.13.63,0,.95.71.74.84,1.13-.21.67-.12,1,.6.68.68,1-.25.85-.18,1.28.54.88.58,1.32-.35.82-.34,1.24.44.58.44.87v.36c0,.45-.45.89-.48,1.33s.36.7.31,1c-.06.51-.56,1-.66,1.51-.05.3.3.59.23.88-.11.48-.66.94-.81,1.39s.2.67.08,1-.73.76-.9,1.13c-.09.2.23.4.14.59-.18.35-.78.69-1,1s.17.42,0,.62-.85.62-1.08.92c-.1.13.21.27.1.4l-8,4.16.17-2.13c.17-.26.33-.53.48-.8.25-.44,0-.67.08-.93s.62-.45.78-.83-.08-.85.07-1.29.65-.73.75-1.11-.22-.76-.14-1.14.59-.92.65-1.38-.32-.79-.29-1.19S65,43.37,65,43c0-.2,0-.4,0-.61s-.42-.41-.43-.61c0-.42.39-.84.35-1.25s-.5-.82-.56-1.23.28-.89.18-1.33c-.05-.25-.53-.51-.59-.76-.11-.44.18-.86,0-1.28s-.65-.65-.77-1,.11-.76-.07-1.12-.77-.3-1-.64.07-1-.12-1.3-.23-.36-.36-.53c0,0-.68-5.09,0-5.65A36.35,36.35,0,0,1,66.76,23.64Z"/><line class="d" x1="69.59" y1="25.96" x2="61.42" y2="29.61"/><line class="d" x1="67.72" y1="24.25" x2="61.42" y2="27.07"/><line class="d" x1="62.08" y1="31.89" x2="71.03" y2="27.8"/><line class="d" x1="63.16" y1="33.81" x2="72.12" y2="29.75"/><line class="d" x1="63.99" y1="35.91" x2="72.95" y2="31.83"/><line class="d" x1="73.51" y1="33.87" x2="64.54" y2="37.95"/><line class="d" x1="73.91" y1="36.47" x2="64.92" y2="40.51"/><line class="d" x1="74.01" y1="38.94" x2="65.02" y2="42.98"/><line class="d" x1="73.91" y1="41.28" x2="64.92" y2="45.32"/><line class="d" x1="73.52" y1="43.65" x2="64.3" y2="47.8"/><line class="d" x1="72.69" y1="46.09" x2="63.47" y2="50.24"/><line class="d" x1="71.91" y1="47.81" x2="62.69" y2="51.95"/><line class="d" x1="70.98" y1="49.44" x2="61.95" y2="53.5"/><rect class="d" x="25.21" y="2.16" width="78.51" height="75.23"/><line class="g" x1="61.7" y1="40.96" x2="29.91" y2="53.73"/><line class="h" x1="61.7" y1="40.96" x2="29.91" y2="53.73"/><line class="e" x1="61.84" y1="40.79" x2="21.91" y2="56.82"/><polyline class="g" points="23.71 48.6 2.1 64.78 28.98 61.49"/><polyline class="i" points="57.47 36.69 48.39 31.33 39.32 36.7 38.31 30.04 24.05 32.43 31.44 26.58 16.5 25.21 29.94 22.04 19.08 17.35 34.3 17.86 30.96 11.34 43.13 15.37 48.37 9.09 53.62 15.36 65.79 11.31 62.46 17.83 77.68 17.3 66.82 22.01 80.27 25.16 65.33 26.55 72.73 32.38 58.46 30.03"/><polygon class="d" points="57.47 36.69 48.39 31.33 39.32 36.7 38.31 30.04 24.05 32.43 31.44 26.58 16.5 25.21 29.94 22.04 19.08 17.35 34.3 17.86 30.96 11.34 43.13 15.37 48.37 9.09 53.62 15.36 65.79 11.31 62.46 17.83 77.68 17.3 66.82 22.01 80.27 25.16 65.33 26.55 72.73 32.38 58.46 30.03 57.47 36.69"/></g><g class="b"><path class="g" d="M38.84,20.35a.27.27,0,0,1-.05.14,1.2,1.2,0,0,1-.16.17L36,23.2l1.66,2.92.06.13a.51.51,0,0,1,0,.09.19.19,0,0,1,0,.08.13.13,0,0,1-.07,0,.23.23,0,0,1-.13,0l-.22,0h-.22l-.14,0a.13.13,0,0,1-.07-.05.18.18,0,0,1,0-.07l-1.73-3.13-.62,3.13a.16.16,0,0,1,0,.07s0,0-.08.05l-.13,0-.2,0-.21,0-.12,0s0,0-.06-.05a.08.08,0,0,1,0-.07l1.21-6a.09.09,0,0,1,0-.06.19.19,0,0,1,.09,0,.42.42,0,0,1,.13,0l.2,0,.2,0a.35.35,0,0,1,.12,0,.09.09,0,0,1,.06,0,.07.07,0,0,1,0,.06l-.56,2.79,2.76-2.78.09-.07.11-.05.15,0h.2l.21,0a.35.35,0,0,1,.12,0,.1.1,0,0,1,.06.05A.14.14,0,0,1,38.84,20.35Z"/><path class="g" d="M42.17,25.93s0,0,0,.08,0,.07,0,.11l0,.13a.61.61,0,0,1,0,.12.27.27,0,0,1-.07.08.09.09,0,0,1-.08,0h-2.8l-.11,0a.18.18,0,0,1-.09-.06.16.16,0,0,1,0-.1.3.3,0,0,1,0-.16L40,20.34a.21.21,0,0,1,0-.06l.08,0a.49.49,0,0,1,.14,0l.2,0,.19,0a.35.35,0,0,1,.13,0,.09.09,0,0,1,.06,0,.06.06,0,0,1,0,.06l-1.09,5.43h2.27a.1.1,0,0,1,.09,0A.21.21,0,0,1,42.17,25.93Z"/><path class="g" d="M43.87,26.37a.21.21,0,0,1,0,.06l-.08.05-.13,0-.2,0-.21,0-.12,0s-.05,0-.06-.05a.06.06,0,0,1,0-.06l1.21-6a.09.09,0,0,1,0-.06.19.19,0,0,1,.09,0,.42.42,0,0,1,.13,0l.2,0,.19,0a.35.35,0,0,1,.13,0,.09.09,0,0,1,.06,0,.13.13,0,0,1,0,.06Z"/><path class="g" d="M50.72,20.86a1.29,1.29,0,0,1,0,.25.67.67,0,0,1-.09.24q-.06.09-.12.09a.24.24,0,0,1-.16-.09,1.35,1.35,0,0,0-.25-.19,2.13,2.13,0,0,0-.4-.2A2,2,0,0,0,48.3,21a2.29,2.29,0,0,0-.61.42,3,3,0,0,0-.47.59,4.21,4.21,0,0,0-.54,1.46,3.65,3.65,0,0,0-.07.72,2.09,2.09,0,0,0,.1.69,1.4,1.4,0,0,0,.28.51,1.1,1.1,0,0,0,.45.31,1.7,1.7,0,0,0,.61.11,2.1,2.1,0,0,0,.66-.09,2.31,2.31,0,0,0,.47-.18,3.78,3.78,0,0,0,.33-.19.42.42,0,0,1,.22-.09.12.12,0,0,1,.08,0,.37.37,0,0,1,0,.12.23.23,0,0,1,0,.07s0,.06,0,.1l0,.11a.27.27,0,0,1,0,.12.3.3,0,0,1,0,.1.3.3,0,0,1-.07.1,1.76,1.76,0,0,1-.22.14,3,3,0,0,1-.93.32A3.11,3.11,0,0,1,47,26.42a2,2,0,0,1-.68-.44,2,2,0,0,1-.43-.72,2.93,2.93,0,0,1-.15-1,5.26,5.26,0,0,1,.09-1,5.11,5.11,0,0,1,.29-.94,4.59,4.59,0,0,1,.48-.87,3.44,3.44,0,0,1,.66-.71,3,3,0,0,1,.85-.49,3.19,3.19,0,0,1,1-.17,2.41,2.41,0,0,1,.67.08,2.17,2.17,0,0,1,.53.2,1.76,1.76,0,0,1,.32.21A.33.33,0,0,1,50.72,20.86Z"/><path class="g" d="M56,20.35a.27.27,0,0,1,0,.14,1.2,1.2,0,0,1-.16.17L53.15,23.2l1.65,2.92.06.13a.51.51,0,0,1,0,.09.19.19,0,0,1,0,.08.13.13,0,0,1-.07,0,.23.23,0,0,1-.13,0l-.22,0h-.22l-.13,0a.16.16,0,0,1-.08-.05.18.18,0,0,1,0-.07l-1.73-3.13-.62,3.13,0,.07-.08.05-.14,0-.2,0-.2,0-.13,0s0,0-.06-.05a.08.08,0,0,1,0-.07l1.21-6a.09.09,0,0,1,0-.06.19.19,0,0,1,.09,0,.42.42,0,0,1,.13,0l.2,0,.2,0s.1,0,.12,0a.09.09,0,0,1,.06,0,.07.07,0,0,1,0,.06l-.56,2.79L55,20.35l.08-.07.11-.05.15,0h.2l.21,0a.35.35,0,0,1,.12,0,.1.1,0,0,1,.06.05A.14.14,0,0,1,56,20.35Z"/><path class="g" d="M57.55,25.73a.92.92,0,0,1,0,.16,1.06,1.06,0,0,1,0,.19,1.89,1.89,0,0,1-.06.18.5.5,0,0,1-.1.14.4.4,0,0,1-.17.1,1,1,0,0,1-.28,0l-.21,0a.32.32,0,0,1-.13-.06.16.16,0,0,1-.07-.09.57.57,0,0,1,0-.13.92.92,0,0,1,0-.16l0-.19a1.34,1.34,0,0,1,.07-.18.38.38,0,0,1,.09-.15.4.4,0,0,1,.18-.1.88.88,0,0,1,.26,0l.23,0,.13.06a.23.23,0,0,1,.07.1A.49.49,0,0,1,57.55,25.73Zm.08-1.05s0,.05,0,.07a.18.18,0,0,1-.07.05l-.12,0h-.35l-.1,0a.12.12,0,0,1-.05-.05v-.07l.84-4.62a.31.31,0,0,1,0-.1.16.16,0,0,1,.09-.07l.14,0h.43a.33.33,0,0,1,.13,0,.13.13,0,0,1,.06.07.34.34,0,0,1,0,.1Z"/><path class="g" d="M60.81,25.73a.92.92,0,0,1,0,.16,1.05,1.05,0,0,1,0,.19.48.48,0,0,1-.06.18.34.34,0,0,1-.09.14.48.48,0,0,1-.17.1,1.11,1.11,0,0,1-.28,0l-.22,0a.39.39,0,0,1-.13-.06.15.15,0,0,1-.06-.09.59.59,0,0,1,0-.13s0-.1,0-.16a1.62,1.62,0,0,1,0-.19l.06-.18a1,1,0,0,1,.09-.15.46.46,0,0,1,.18-.1,1,1,0,0,1,.27,0l.23,0,.13.06a.21.21,0,0,1,.06.1A.5.5,0,0,1,60.81,25.73Zm.07-1.05a.14.14,0,0,1,0,.07l-.08.05-.12,0h-.34l-.1,0a.08.08,0,0,1,0-.05.08.08,0,0,1,0-.07L61,20.06a1,1,0,0,1,0-.1.16.16,0,0,1,.09-.07l.15,0h.43a.4.4,0,0,1,.13,0s0,0,0,.07a.17.17,0,0,1,0,.1Z"/></g></svg>