<svg xmlns="http://www.w3.org/2000/svg" xmlns:xlink="http://www.w3.org/1999/xlink" width="480.61" height="146.49" viewBox="0 0 480.61 146.49"><defs><style>.a{fill:none;}.b{fill:#1d1d1b;}.c{fill:#0e6e31;}.d{fill:#356cb4;}.e{fill:#f20618;}.f{fill:#d42526;}.g{fill:#34b44a;}.h{fill:#fff;}.i{fill:#fe0;}.j{fill:#f4e724;}.k{clip-path:url(#a);}.l{clip-path:url(#b);}.m{clip-path:url(#c);}.n{opacity:0.33;}.o{fill:#002dff;}.p{filter:url(#d);}.q{fill:#368a41;}.r{fill:currentColor;}</style><clipPath id="a"><rect class="a" x="104.31" y="93.85" width="63.24" height="14.87"/></clipPath><clipPath id="b"><rect class="a" x="104.31" y="58.29" width="63.24" height="14.87"/></clipPath><clipPath id="c"><rect class="a" x="104.31" y="22.99" width="63.24" height="14.87"/></clipPath><filter id="d" x="-40%" y="-40%" width="180%" height="180%" name="dropshadow-right_mcx"><feGaussianBlur stdDeviation="3" in="SourceAlpha"/><feOffset dx="5" dy="5"/><feComponentTransfer><feFuncA slope="0.45" type="linear"/></feComponentTransfer><feMerge><feMergeNode/><feMergeNode in="SourceGraphic"/></feMerge></filter></defs><path class="r" d="M433.05,58.9c0,4.81-2.3,1.85-3.26,5.83s2.4,2.76-.09,6.67-3,.58-5.74,3.41.65,3.57-3.41,5.75-2.6-1-6.67.08-1.14,3.26-5.83,3.26-2.05-2.13-5.82-3.26-2.53,2.3-6.68-.08-.51-2.85-3.36-5.69-3.29.5-5.79-3.47.54-3-.09-6.67-3.26-1-3.26-5.83,2.56-1.8,3.26-5.82-2.32-2.46.09-6.68,2.82-.72,5.74-3.41-.57-3.35,3.41-5.74,2.86,1,6.68-.08,1.22-3.26,5.82-3.26,1.87,2.09,5.83,3.26,2.42-2.35,6.67.08S421,40.33,424,43s3.41-.94,5.74,3.41-.82,2.75.09,6.68,3.26,1,3.26,5.82"/><path class="r" d="M408.05,31.88a27,27,0,1,1-27,27,27.06,27.06,0,0,1,27-27m0-1.71A28.74,28.74,0,1,0,436.79,58.9a28.73,28.73,0,0,0-28.74-28.73Z"/><polyline class="c" points="356.34 65.92 343.29 71.98 347.62 71.98 347.62 77.11 365.06 77.11 365.06 71.98 369.39 71.98"/><rect class="d" x="337.57" y="82.4" width="37.54" height="23.89" rx="1.11"/><path d="M369.83,108.39h-27a7.19,7.19,0,0,1-7.18-7.18V87.49a7.19,7.19,0,0,1,7.18-7.19h27A7.19,7.19,0,0,1,377,87.49v13.72A7.19,7.19,0,0,1,369.83,108.39Zm-27-25.53a4.63,4.63,0,0,0-4.62,4.63v13.72a4.63,4.63,0,0,0,4.62,4.63h27a4.63,4.63,0,0,0,4.62-4.63V87.49a4.63,4.63,0,0,0-4.62-4.63Z"/><path class="c" d="M369.38,49h-.07a3.26,3.26,0,1,1,0-6.52h2.95a6,6,0,0,0-10.83,1.28h-19a2,2,0,1,0,0,4h19A6,6,0,0,0,372.26,49"/><rect class="d" x="337.57" y="11.01" width="37.54" height="23.8" rx="1.11"/><path d="M369.83,37h-27a7.19,7.19,0,0,1-7.18-7.18V16.05a7.19,7.19,0,0,1,7.18-7.18h27A7.19,7.19,0,0,1,377,16.05V29.78A7.19,7.19,0,0,1,369.83,37Zm-27-25.53a4.62,4.62,0,0,0-4.62,4.62V29.78a4.62,4.62,0,0,0,4.62,4.62h27a4.62,4.62,0,0,0,4.62-4.62V16.05a4.62,4.62,0,0,0-4.62-4.62Z"/><rect class="e" x="266.46" y="82.4" width="37.54" height="23.89" rx="1.11"/><rect class="d" x="266.46" y="46.69" width="37.54" height="23.89" rx="1.11"/><rect class="d" x="266.46" y="11.01" width="37.54" height="23.8" rx="1.11"/><path d="M298.72,108.4h-27a7.2,7.2,0,0,1-7.18-7.19V87.49a7.19,7.19,0,0,1,7.18-7.19h27a7.19,7.19,0,0,1,7.18,7.19v13.72A7.2,7.2,0,0,1,298.72,108.4Zm-27-25.54a4.63,4.63,0,0,0-4.62,4.63v13.72a4.63,4.63,0,0,0,4.62,4.63h27a4.63,4.63,0,0,0,4.62-4.63V87.49a4.63,4.63,0,0,0-4.62-4.63Z"/><path d="M298.72,72.68h-27a7.2,7.2,0,0,1-7.18-7.19V51.77a7.2,7.2,0,0,1,7.18-7.19h27a7.2,7.2,0,0,1,7.18,7.19V65.49A7.2,7.2,0,0,1,298.72,72.68Zm-27-25.54a4.63,4.63,0,0,0-4.62,4.63V65.49a4.63,4.63,0,0,0,4.62,4.63h27a4.63,4.63,0,0,0,4.62-4.63V51.77a4.63,4.63,0,0,0-4.62-4.63Z"/><path d="M298.72,37h-27a7.19,7.19,0,0,1-7.18-7.18V16.05a7.19,7.19,0,0,1,7.18-7.18h27a7.19,7.19,0,0,1,7.18,7.18V29.78A7.19,7.19,0,0,1,298.72,37Zm-27-25.53a4.62,4.62,0,0,0-4.62,4.62V29.78a4.62,4.62,0,0,0,4.62,4.62h27a4.62,4.62,0,0,0,4.62-4.62V16.05a4.62,4.62,0,0,0-4.62-4.62Z"/><rect class="d" x="33.74" y="82.4" width="37.54" height="23.89" rx="1.11"/><rect class="e" x="33.74" y="46.69" width="37.54" height="23.89" rx="1.11"/><rect class="d" x="33.74" y="10.32" width="37.54" height="25.19" rx="1.11"/><path d="M66,108.4H39a7.2,7.2,0,0,1-7.18-7.19V87.49A7.19,7.19,0,0,1,39,80.3H66a7.2,7.2,0,0,1,7.19,7.19v13.72A7.2,7.2,0,0,1,66,108.4ZM39,82.86a4.63,4.63,0,0,0-4.62,4.63v13.72A4.63,4.63,0,0,0,39,105.84H66a4.64,4.64,0,0,0,4.63-4.63V87.49A4.64,4.64,0,0,0,66,82.86Z"/><path d="M66,72.68H39a7.2,7.2,0,0,1-7.18-7.19V51.77A7.2,7.2,0,0,1,39,44.58H66a7.2,7.2,0,0,1,7.19,7.19V65.49A7.2,7.2,0,0,1,66,72.68ZM39,47.14a4.63,4.63,0,0,0-4.62,4.63V65.49A4.63,4.63,0,0,0,39,70.12H66a4.64,4.64,0,0,0,4.63-4.63V51.77A4.64,4.64,0,0,0,66,47.14Z"/><path d="M66,37H39a7.19,7.19,0,0,1-7.18-7.18V16.05A7.19,7.19,0,0,1,39,8.87H66a7.2,7.2,0,0,1,7.19,7.18V29.78A7.2,7.2,0,0,1,66,37ZM39,11.43a4.62,4.62,0,0,0-4.62,4.62V29.78A4.62,4.62,0,0,0,39,34.4H66a4.63,4.63,0,0,0,4.63-4.62V16.05A4.63,4.63,0,0,0,66,11.43Z"/><rect x="97.76" y="5.3" width="142.22" height="106.66" rx="5.52"/><rect class="e" x="172.42" y="80.3" width="63.72" height="28.1"/><path class="b" d="M201.09,95.56A3.51,3.51,0,0,1,199.94,98a3.91,3.91,0,0,1-2.65.86,3.76,3.76,0,0,1-2-.55,3.51,3.51,0,0,1-1.35-1.56,5.52,5.52,0,0,1-.5-2.34v-.91a5.73,5.73,0,0,1,.48-2.41,3.78,3.78,0,0,1,1.39-1.61,4,4,0,0,1,2.1-.56,3.73,3.73,0,0,1,2.58.87,3.61,3.61,0,0,1,1.14,2.45h-1.68a2.35,2.35,0,0,0-.61-1.5,2,2,0,0,0-1.43-.47,2,2,0,0,0-1.68.81,3.86,3.86,0,0,0-.6,2.35v.86a4.2,4.2,0,0,0,.56,2.39,1.86,1.86,0,0,0,1.64.83,2.16,2.16,0,0,0,1.49-.45,2.35,2.35,0,0,0,.63-1.48Z"/><path class="b" d="M206.73,98.71a2.81,2.81,0,0,1-.19-.67,2.52,2.52,0,0,1-1.88.8,2.48,2.48,0,0,1-1.77-.62,2,2,0,0,1-.69-1.52,2.05,2.05,0,0,1,.86-1.77,4.13,4.13,0,0,1,2.44-.61h1v-.48a1.24,1.24,0,0,0-.31-.89,1.26,1.26,0,0,0-1-.34,1.47,1.47,0,0,0-.91.28.86.86,0,0,0-.35.7h-1.61a1.83,1.83,0,0,1,.39-1.11,2.58,2.58,0,0,1,1.07-.8,3.65,3.65,0,0,1,1.5-.3,3.07,3.07,0,0,1,2,.64,2.28,2.28,0,0,1,.77,1.78v3.25a3.75,3.75,0,0,0,.27,1.55v.11ZM205,97.55a1.81,1.81,0,0,0,.9-.24,1.51,1.51,0,0,0,.63-.62V95.33h-.87a2.36,2.36,0,0,0-1.35.32,1,1,0,0,0-.45.88.92.92,0,0,0,.31.74A1.21,1.21,0,0,0,205,97.55Z"/><path class="b" d="M211.52,98.71H209.9V88.5h1.62Z"/><path class="b" d="M215,98.71h-1.61V88.5H215Z"/><path class="e" d="M235.09,81.24l.09,26-61.63.09-.09-26.1h61.63m.09-3.41H173.46a3.32,3.32,0,0,0-3.31,3.32v26.19a3.31,3.31,0,0,0,3.31,3.31h61.72a3.32,3.32,0,0,0,3.32-3.31V81.15a3.32,3.32,0,0,0-3.32-3.32Z"/><path class="f" d="M124.31,87.3l1.06-1.74h.95l-1.56,2.36,1.61,2.41h-.94l-1.11-1.79-1.1,1.79h-.94l1.6-2.41-1.56-2.36h1Z"/><rect class="g" x="127.76" y="85.38" width="22.1" height="5.16"/><rect class="h" x="149.87" y="85.38" width="1.56" height="5.16"/><rect class="i" x="99.24" y="77.56" width="68.35" height="5.1"/><path class="j" d="M106.28,87.45h.61a1.4,1.4,0,0,0,.91-.3,1,1,0,0,0,.33-.8A1,1,0,0,0,107,85.22a1.18,1.18,0,0,0-.85.3,1.05,1.05,0,0,0-.31.8H105a1.63,1.63,0,0,1,.56-1.26,2.28,2.28,0,0,1,2.84,0,1.76,1.76,0,0,1,.52,1.34,1.35,1.35,0,0,1-.28.81,1.62,1.62,0,0,1-.73.58,1.6,1.6,0,0,1,.81.56,1.49,1.49,0,0,1,.29,1,1.78,1.78,0,0,1-.56,1.37,2.12,2.12,0,0,1-1.47.5,2.16,2.16,0,0,1-1.47-.49,1.6,1.6,0,0,1-.57-1.29h.82a1,1,0,0,0,.34.81,1.45,1.45,0,0,0,1.79,0,1.23,1.23,0,0,0,.31-.89,1.05,1.05,0,0,0-.35-.85,1.47,1.47,0,0,0-1-.31h-.61Z"/><g class="k"><path class="h" d="M107.9,104.22h4.59v1h-5.87V95.58h1.28Z"/><path class="h" d="M113.76,96.16a.76.76,0,0,1,.18-.51.72.72,0,0,1,.54-.2.73.73,0,0,1,.55.2.76.76,0,0,1,.19.51.74.74,0,0,1-.19.5.73.73,0,0,1-.55.2.72.72,0,0,1-.54-.2A.73.73,0,0,1,113.76,96.16Zm1.33,9.1h-1.23V98.07h1.23Z"/><path class="h" d="M116.76,101.6a4.2,4.2,0,0,1,.78-2.67,2.51,2.51,0,0,1,2.06-1,2.48,2.48,0,0,1,2.06.93l.06-.79h1.12v7a2.94,2.94,0,0,1-.83,2.2,3.07,3.07,0,0,1-2.22.8,3.68,3.68,0,0,1-1.52-.33,2.63,2.63,0,0,1-1.14-.91l.64-.74a2.41,2.41,0,0,0,1.93,1,1.87,1.87,0,0,0,1.4-.51,1.89,1.89,0,0,0,.5-1.42v-.62a2.51,2.51,0,0,1-2,.85,2.47,2.47,0,0,1-2-1A4.48,4.48,0,0,1,116.76,101.6Zm1.24.14a3.23,3.23,0,0,0,.5,1.91,1.61,1.61,0,0,0,1.4.7,1.79,1.79,0,0,0,1.7-1.06V100a1.81,1.81,0,0,0-1.69-1,1.61,1.61,0,0,0-1.4.7A3.46,3.46,0,0,0,118,101.74Z"/><path class="h" d="M125.92,98.94a2.63,2.63,0,0,1,2.13-1c1.52,0,2.29.86,2.3,2.58v4.75h-1.23V100.5a1.65,1.65,0,0,0-.35-1.15,1.44,1.44,0,0,0-1.09-.37,1.72,1.72,0,0,0-1.05.32,2.2,2.2,0,0,0-.71.83v5.13h-1.23V95.05h1.23Z"/><path class="h" d="M133.86,96.33v1.74h1.34v1h-1.34v4.46a1,1,0,0,0,.18.65.73.73,0,0,0,.61.22,3.33,3.33,0,0,0,.59-.08v1a3.56,3.56,0,0,1-1,.13,1.5,1.5,0,0,1-1.24-.5,2.12,2.12,0,0,1-.42-1.41V99h-1.31v-1h1.31V96.33Z"/></g><rect class="e" x="99.24" y="46.69" width="68.31" height="28.52"/><rect class="g" x="127.76" y="49.83" width="22.1" height="5.16"/><rect class="h" x="149.87" y="49.83" width="1.56" height="5.16"/><rect class="i" x="99.24" y="42" width="68.35" height="5.1"/><path class="j" d="M109.3,55.5h-4.21v-.58l2.23-2.47a6.74,6.74,0,0,0,.68-.91,1.61,1.61,0,0,0,.18-.73,1.15,1.15,0,0,0-.3-.82,1,1,0,0,0-.81-.32,1.27,1.27,0,0,0-.95.34,1.34,1.34,0,0,0-.33,1H105a1.91,1.91,0,0,1,.57-1.44,2.13,2.13,0,0,1,1.53-.54,2,2,0,0,1,1.41.47,1.57,1.57,0,0,1,.52,1.25A3.66,3.66,0,0,1,107.8,53l-1.72,1.87h3.22Z"/><g class="l"><path class="b" d="M109.47,65.39a6.1,6.1,0,0,1-2.39-1.16,2.25,2.25,0,0,1-.74-1.7,2.34,2.34,0,0,1,.91-1.89,3.63,3.63,0,0,1,2.38-.75,3.9,3.9,0,0,1,1.77.39,2.85,2.85,0,0,1,1.21,1.06,2.69,2.69,0,0,1,.43,1.48h-1.28a1.77,1.77,0,0,0-.56-1.38,2.24,2.24,0,0,0-1.57-.5,2.35,2.35,0,0,0-1.48.41,1.39,1.39,0,0,0-.52,1.16,1.23,1.23,0,0,0,.5,1,5,5,0,0,0,1.71.75,7.31,7.31,0,0,1,1.88.75,2.82,2.82,0,0,1,1,.95,2.41,2.41,0,0,1,.33,1.28,2.26,2.26,0,0,1-.91,1.89,4,4,0,0,1-2.46.71,4.49,4.49,0,0,1-1.86-.39,3.06,3.06,0,0,1-1.33-1A2.6,2.6,0,0,1,106,66.9h1.28a1.67,1.67,0,0,0,.65,1.38,2.72,2.72,0,0,0,1.73.51,2.53,2.53,0,0,0,1.55-.41,1.33,1.33,0,0,0,.54-1.12,1.31,1.31,0,0,0-.5-1.1A5.58,5.58,0,0,0,109.47,65.39Z"/><path class="b" d="M114.18,66a4.34,4.34,0,0,1,.41-1.9,3.07,3.07,0,0,1,2.85-1.76,3,3,0,0,1,2.38,1,3.9,3.9,0,0,1,.91,2.7v.09a4.22,4.22,0,0,1-.41,1.88,3,3,0,0,1-1.15,1.3,3.16,3.16,0,0,1-1.71.47,3,3,0,0,1-2.37-1,3.88,3.88,0,0,1-.91-2.69Zm1.24.15a3.1,3.1,0,0,0,.55,1.92,1.89,1.89,0,0,0,3,0A3.43,3.43,0,0,0,119.5,66a3.1,3.1,0,0,0-.56-1.92,1.88,1.88,0,0,0-3,0A3.39,3.39,0,0,0,115.42,66.19Z"/><path class="b" d="M126.71,69a2.63,2.63,0,0,1-2.11.85,2.26,2.26,0,0,1-1.75-.67,3,3,0,0,1-.61-2V62.51h1.23v4.65c0,1.09.44,1.63,1.33,1.63a1.83,1.83,0,0,0,1.87-1.05V62.51h1.24V69.7h-1.17Z"/><path class="b" d="M130.94,62.51l0,.9a2.61,2.61,0,0,1,2.15-1c1.52,0,2.29.85,2.3,2.57V69.7H134.2V64.94a1.62,1.62,0,0,0-.36-1.15,1.44,1.44,0,0,0-1.08-.37,1.79,1.79,0,0,0-1,.32,2.16,2.16,0,0,0-.71.84V69.7h-1.23V62.51Z"/><path class="b" d="M137,66.05a4.26,4.26,0,0,1,.79-2.67,2.67,2.67,0,0,1,4-.14V59.49h1.23V69.7h-1.13l-.06-.77a2.64,2.64,0,0,1-4.09-.12,4.28,4.28,0,0,1-.79-2.67Zm1.23.14a3.16,3.16,0,0,0,.51,1.91,1.64,1.64,0,0,0,1.4.69,1.78,1.78,0,0,0,1.7-1.05v-3.3a1.79,1.79,0,0,0-1.69-1,1.64,1.64,0,0,0-1.41.7A3.47,3.47,0,0,0,138.21,66.19Z"/></g><path class="g" d="M148.87,15.52v3.16H128.76V15.52h20.11m1-1H127.76v5.16h22.11V14.52Z"/><rect class="h" x="149.87" y="14.52" width="1.56" height="5.16"/><rect class="i" x="99.24" y="6.7" width="68.35" height="5.1"/><path class="j" d="M107.77,20.2H107V14.76l-1.64.61v-.74l2.34-.88h.12Z"/><g class="m"><g class="n"><path class="h" d="M109.47,30.09a6.1,6.1,0,0,1-2.39-1.16,2.25,2.25,0,0,1-.74-1.7,2.34,2.34,0,0,1,.91-1.89,3.63,3.63,0,0,1,2.38-.75,4,4,0,0,1,1.77.38A2.94,2.94,0,0,1,112.61,26a2.66,2.66,0,0,1,.43,1.48h-1.28a1.76,1.76,0,0,0-.56-1.38,2.25,2.25,0,0,0-1.57-.51,2.35,2.35,0,0,0-1.48.42,1.38,1.38,0,0,0-.52,1.15,1.25,1.25,0,0,0,.5,1,5,5,0,0,0,1.71.75,7.72,7.72,0,0,1,1.88.74,2.84,2.84,0,0,1,1,1,2.41,2.41,0,0,1,.33,1.28,2.24,2.24,0,0,1-.91,1.88,3.89,3.89,0,0,1-2.46.71,4.49,4.49,0,0,1-1.86-.38,3,3,0,0,1-1.33-1,2.55,2.55,0,0,1-.47-1.5h1.28A1.67,1.67,0,0,0,108,33a2.72,2.72,0,0,0,1.73.51,2.53,2.53,0,0,0,1.55-.41,1.35,1.35,0,0,0,.54-1.13,1.33,1.33,0,0,0-.5-1.1A5.61,5.61,0,0,0,109.47,30.09Z"/><path class="h" d="M115.73,28.08a2.63,2.63,0,0,1,2.13-1c1.52,0,2.29.86,2.3,2.58V34.4h-1.23V29.64a1.65,1.65,0,0,0-.35-1.15,1.44,1.44,0,0,0-1.09-.37,1.79,1.79,0,0,0-1,.32,2.2,2.2,0,0,0-.71.83V34.4H114.5V24.19h1.23Z"/><path class="h" d="M121.68,30.74a4.31,4.31,0,0,1,.41-1.9,3.09,3.09,0,0,1,1.16-1.31,3.19,3.19,0,0,1,1.69-.46,3,3,0,0,1,2.38,1,3.94,3.94,0,0,1,.9,2.71v.08a4.29,4.29,0,0,1-.4,1.89,3.09,3.09,0,0,1-1.15,1.3,3.19,3.19,0,0,1-1.72.46,3.06,3.06,0,0,1-2.37-1,3.93,3.93,0,0,1-.9-2.7Zm1.23.14a3.06,3.06,0,0,0,.56,1.92,1.87,1.87,0,0,0,3,0,3.31,3.31,0,0,0,.55-2.05,3,3,0,0,0-.56-1.92,1.87,1.87,0,0,0-3,0A3.33,3.33,0,0,0,122.91,30.88Z"/><path class="h" d="M136.13,32.7l1.39-5.49h1.23l-2.1,7.19h-1L133.91,29l-1.7,5.45h-1l-2.09-7.19h1.22l1.42,5.38,1.68-5.38h1Z"/></g></g><path d="M233.93,113.24H103.81a7.33,7.33,0,0,1-7.33-7.32V11.34A7.33,7.33,0,0,1,103.81,4H233.93a7.33,7.33,0,0,1,7.33,7.32v94.58A7.33,7.33,0,0,1,233.93,113.24ZM103.81,6.58A4.77,4.77,0,0,0,99,11.34v94.58a4.77,4.77,0,0,0,4.77,4.76H233.93a4.77,4.77,0,0,0,4.77-4.76V11.34a4.77,4.77,0,0,0-4.77-4.76Z"/><rect class="o" x="167.59" y="6.58" width="2.56" height="104.1"/><rect class="o" x="99.04" y="39.47" width="139.66" height="2.56"/><rect class="o" x="99.04" y="75.21" width="139.66" height="2.56"/><g class="p"><path class="q" d="M123,132.58a2.52,2.52,0,0,1-.66-.11Q117.19,131,112,129.63l-3.31-.91-3.65-1-3.63-1-4.5-1.22a1.58,1.58,0,0,1-1.23-2.14c.34-1.23.67-2.45,1-3.68.42-1.58.84-3.15,1.28-4.72a.7.7,0,0,0-.09-.64c-.26-.45-.58-.89-.91-1.35a11.21,11.21,0,0,1-1.58-2.7,18.18,18.18,0,0,1-.51-10.65A155.67,155.67,0,0,1,99.63,82.7a6,6,0,0,1,5.7-4,6.19,6.19,0,0,1,4.44,1.87s0,0,0,0a6.21,6.21,0,0,1,5.9-4.12,5.34,5.34,0,0,1,2.93.84,6.43,6.43,0,0,1,1.46,1.32l.17-.38a6,6,0,0,1,5.44-3.81h.25a5.62,5.62,0,0,1,4.34,1.94q2-7.09,3.9-14.18a5.84,5.84,0,0,1,1-2.25,6.27,6.27,0,0,1,4.8-2.36,5.93,5.93,0,0,1,5.64,7.78c-.56,2-1.13,4.09-1.7,6.14-1.18,4.3-2.41,8.75-3.56,13.13-.32,1.24-.69,2.47-1,3.7a59.47,59.47,0,0,0-1.9,7.74c.42-.33.83-.66,1.26-1l.66-.48c1.65-1.2,3.35-2.44,5.07-3.6a6.86,6.86,0,0,1,3.8-1.11,6,6,0,0,1,3.51,1,5.91,5.91,0,0,1,2.51,3.88,7.21,7.21,0,0,1-1.6,5.31,63.34,63.34,0,0,1-6.25,6.89l-.27.27a105,105,0,0,1-16.25,13.57,6.44,6.44,0,0,0-2.52,2.38,44,44,0,0,0-2.84,8C124.25,132.34,123.56,132.58,123,132.58Z"/><path class="h" d="M140,58.52A4.93,4.93,0,0,1,144.7,65c-1.76,6.42-3.57,12.83-5.26,19.28-1.14,4.35-2.75,8.59-3.16,13.12,0,.19-.15.44.08.53h.06a.9.9,0,0,0,.42-.2c.83-.64,1.62-1.32,2.47-1.93,1.89-1.37,3.77-2.76,5.7-4.06a5.88,5.88,0,0,1,3.24-.94,5.05,5.05,0,0,1,2.92.84c2.88,2.1,2.64,5.19.7,7.8a63.9,63.9,0,0,1-6.43,7A105.59,105.59,0,0,1,129.35,120a7.11,7.11,0,0,0-2.87,2.78,44.19,44.19,0,0,0-2.91,8.2c-.11.43-.24.62-.55.62a1.8,1.8,0,0,1-.39-.07c-4.56-1.27-9.12-2.51-13.68-3.75l-3.65-1c-2.71-.73-5.42-1.49-8.14-2.2-.56-.15-.66-.39-.51-.92.77-2.79,1.49-5.6,2.27-8.4a1.67,1.67,0,0,0-.19-1.41c-.77-1.32-1.87-2.43-2.41-3.89a17.24,17.24,0,0,1-.48-10.07A150.61,150.61,0,0,1,100.58,83a5,5,0,0,1,4.75-3.34,5.23,5.23,0,0,1,3.75,1.59c.36.37.5,1.17,1,1.17l.12,0c.33-.09.41-1,.59-1.63a5.23,5.23,0,0,1,5-3.41,4.34,4.34,0,0,1,2.39.68,9.46,9.46,0,0,1,2.2,2.35l.08,0h0L121,79c.06-.14.13-.29.2-.43a5,5,0,0,1,4.57-3.23h.21a4.81,4.81,0,0,1,4.26,2.51c.1.16.11.47.32.47h.07c.15,0,.26-.36.32-.56q2.13-7.69,4.24-15.39a4.83,4.83,0,0,1,.85-1.87,5.26,5.26,0,0,1,4-2m0-2v0a7.26,7.26,0,0,0-5.57,2.72,6.76,6.76,0,0,0-1.24,2.63c-1.15,4.21-2.32,8.43-3.48,12.64a6.67,6.67,0,0,0-3.8-1.14h-.28a6.88,6.88,0,0,0-5.85,3.5,8,8,0,0,0-.66-.48,6.36,6.36,0,0,0-3.46-1,7.39,7.39,0,0,0-6.3,3.56,7.14,7.14,0,0,0-4.06-1.26,7,7,0,0,0-6.64,4.66,156.06,156.06,0,0,0-4.79,17,19.22,19.22,0,0,0,.54,11.23,12.36,12.36,0,0,0,1.71,2.94c.3.42.59.81.82,1.21-.43,1.56-.84,3.1-1.26,4.65-.33,1.22-.65,2.45-1,3.67a2.56,2.56,0,0,0,1.93,3.38c1.51.39,3,.8,4.5,1.21l3.64,1,3.63,1,3.24.88,10.43,2.86a3.32,3.32,0,0,0,.93.15,2.5,2.5,0,0,0,2.49-2.13,42.92,42.92,0,0,1,2.77-7.83,5.6,5.6,0,0,1,2.17-2A105.34,105.34,0,0,0,146.85,108l.27-.27a63.77,63.77,0,0,0,6.36-7,8.24,8.24,0,0,0,1.78-6.06,6.89,6.89,0,0,0-2.91-4.54,7,7,0,0,0-4.1-1.23,7.85,7.85,0,0,0-4.35,1.28c-1.7,1.14-3.36,2.35-5,3.52.38-1.68.88-3.36,1.39-5.1.36-1.22.73-2.47,1.06-3.73,1.15-4.4,2.38-8.87,3.58-13.19q.84-3,1.67-6.07a6.94,6.94,0,0,0-6.6-9Z"/></g></svg>