<svg xmlns="http://www.w3.org/2000/svg" xmlns:xlink="http://www.w3.org/1999/xlink" width="480.61" height="172.89" viewBox="0 0 480.61 172.89"><defs><style>.a{fill:none;}.b{fill:#1d1d1b;}.c{fill:#0e6e31;}.d{fill:#356cb4;}.e{fill:#fe0;}.f{fill:#007d00;}.g{fill:#34b44a;}.h{fill:#fff;}.i{fill:#f4e724;}.j{clip-path:url(#a);}.k{clip-path:url(#b);}.l{clip-path:url(#c);}.m{fill:#002dff;}.n{filter:url(#d);}.o{fill:#368a41;}.p{fill:currentColor;}</style><clipPath id="a"><rect class="a" x="104.31" y="93.08" width="63.24" height="14.87"/></clipPath><clipPath id="b"><rect class="a" x="104.31" y="57.53" width="63.24" height="14.87"/></clipPath><clipPath id="c"><rect class="a" x="104.31" y="22.22" width="63.24" height="14.87"/></clipPath><filter id="d" x="-40%" y="-40%" width="180%" height="180%" name="dropshadow-left_mcx"><feGaussianBlur stdDeviation="3" in="SourceAlpha"/><feOffset dx="-5" dy="5"/><feComponentTransfer><feFuncA slope="0.45" type="linear"/></feComponentTransfer><feMerge><feMergeNode/><feMergeNode in="SourceGraphic"/></feMerge></filter></defs><path class="p" d="M433.05,58.14c0,4.8-2.3,1.84-3.26,5.82s2.4,2.77-.09,6.68-3,.58-5.74,3.41.65,3.57-3.41,5.74-2.6-1-6.67.09-1.14,3.26-5.83,3.26S406,81,402.23,79.88s-2.53,2.29-6.68-.09S395,77,392.19,74.1s-3.29.51-5.79-3.46.54-3-.08-6.68-3.27-1-3.27-5.82,2.56-1.81,3.27-5.83-2.33-2.45.08-6.67,2.82-.72,5.74-3.41-.57-3.35,3.41-5.74,2.86,1,6.68-.09,1.22-3.26,5.82-3.26,1.87,2.09,5.83,3.26,2.42-2.34,6.67.09.42,3.07,3.41,5.74,3.41-.94,5.74,3.41-.82,2.75.09,6.67,3.26,1,3.26,5.83"/><path class="p" d="M408.05,31.11a27,27,0,1,1-27,27,27.07,27.07,0,0,1,27-27m0-1.7a28.73,28.73,0,1,0,28.74,28.73,28.73,28.73,0,0,0-28.74-28.73Z"/><polyline class="c" points="356.34 65.16 343.29 71.22 347.62 71.22 347.62 76.35 365.06 76.35 365.06 71.22 369.39 71.22"/><rect class="d" x="337.57" y="81.64" width="37.54" height="23.89" rx="1.11"/><path d="M369.83,107.63h-27a7.19,7.19,0,0,1-7.18-7.19V86.72a7.19,7.19,0,0,1,7.18-7.18h27A7.19,7.19,0,0,1,377,86.72v13.72A7.19,7.19,0,0,1,369.83,107.63Zm-27-25.53a4.62,4.62,0,0,0-4.62,4.62v13.72a4.63,4.63,0,0,0,4.62,4.63h27a4.63,4.63,0,0,0,4.62-4.63V86.72a4.62,4.62,0,0,0-4.62-4.62Z"/><path class="c" d="M369.38,48.25h-.07a3.26,3.26,0,1,1,0-6.52h2.95A6,6,0,0,0,361.43,43h-19a2,2,0,1,0,0,4h19a6,6,0,0,0,10.83,1.27"/><rect class="d" x="337.57" y="10.25" width="37.54" height="23.8" rx="1.11"/><path d="M369.83,36.2h-27A7.2,7.2,0,0,1,335.67,29V15.29a7.2,7.2,0,0,1,7.18-7.19h27A7.2,7.2,0,0,1,377,15.29V29A7.2,7.2,0,0,1,369.83,36.2Zm-27-25.54a4.63,4.63,0,0,0-4.62,4.63V29a4.63,4.63,0,0,0,4.62,4.63h27A4.63,4.63,0,0,0,374.45,29V15.29a4.63,4.63,0,0,0-4.62-4.63Z"/><rect class="e" x="266.46" y="81.64" width="37.54" height="23.89" rx="1.11"/><rect class="f" x="266.46" y="81.58" width="37.54" height="23.89" rx="1.11"/><rect class="d" x="266.46" y="45.92" width="37.54" height="23.89" rx="1.11"/><rect class="d" x="266.46" y="10.25" width="37.54" height="23.8" rx="1.11"/><path d="M298.72,107.63h-27a7.19,7.19,0,0,1-7.18-7.18V86.72a7.19,7.19,0,0,1,7.18-7.18h27a7.19,7.19,0,0,1,7.18,7.18v13.73A7.19,7.19,0,0,1,298.72,107.63Zm-27-25.53a4.62,4.62,0,0,0-4.62,4.62v13.73a4.62,4.62,0,0,0,4.62,4.62h27a4.62,4.62,0,0,0,4.62-4.62V86.72a4.62,4.62,0,0,0-4.62-4.62Z"/><path d="M298.72,71.91h-27a7.19,7.19,0,0,1-7.18-7.18V51a7.19,7.19,0,0,1,7.18-7.19h27A7.19,7.19,0,0,1,305.9,51V64.73A7.19,7.19,0,0,1,298.72,71.91Zm-27-25.53A4.63,4.63,0,0,0,267.12,51V64.73a4.62,4.62,0,0,0,4.62,4.62h27a4.62,4.62,0,0,0,4.62-4.62V51a4.63,4.63,0,0,0-4.62-4.63Z"/><path d="M298.72,36.2h-27A7.2,7.2,0,0,1,264.56,29V15.29a7.2,7.2,0,0,1,7.18-7.19h27a7.2,7.2,0,0,1,7.18,7.19V29A7.2,7.2,0,0,1,298.72,36.2Zm-27-25.54a4.63,4.63,0,0,0-4.62,4.63V29a4.63,4.63,0,0,0,4.62,4.63h27A4.63,4.63,0,0,0,303.34,29V15.29a4.63,4.63,0,0,0-4.62-4.63Z"/><rect class="d" x="33.74" y="81.64" width="37.54" height="23.89" rx="1.11"/><rect class="f" x="33.74" y="45.92" width="37.54" height="23.89" rx="1.11"/><rect class="e" x="33.74" y="9.55" width="37.54" height="25.19" rx="1.11"/><path d="M66,107.63H39a7.19,7.19,0,0,1-7.18-7.18V86.72A7.19,7.19,0,0,1,39,79.54H66a7.2,7.2,0,0,1,7.19,7.18v13.73A7.2,7.2,0,0,1,66,107.63ZM39,82.1a4.63,4.63,0,0,0-4.62,4.62v13.73A4.63,4.63,0,0,0,39,105.07H66a4.63,4.63,0,0,0,4.63-4.62V86.72A4.63,4.63,0,0,0,66,82.1Z"/><path d="M66,71.91H39a7.19,7.19,0,0,1-7.18-7.18V51A7.19,7.19,0,0,1,39,43.82H66A7.2,7.2,0,0,1,73.19,51V64.73A7.2,7.2,0,0,1,66,71.91ZM39,46.38A4.64,4.64,0,0,0,34.4,51V64.73A4.63,4.63,0,0,0,39,69.35H66a4.63,4.63,0,0,0,4.63-4.62V51A4.64,4.64,0,0,0,66,46.38Z"/><path d="M66,36.2H39A7.2,7.2,0,0,1,31.84,29V15.29A7.2,7.2,0,0,1,39,8.1H66a7.2,7.2,0,0,1,7.19,7.19V29A7.2,7.2,0,0,1,66,36.2ZM39,10.66a4.64,4.64,0,0,0-4.62,4.63V29A4.64,4.64,0,0,0,39,33.64H66A4.64,4.64,0,0,0,70.63,29V15.29A4.64,4.64,0,0,0,66,10.66Z"/><rect x="97.76" y="4.53" width="142.22" height="106.66" rx="5.52"/><rect class="e" x="172.42" y="79.54" width="63.72" height="28.1"/><path class="b" d="M178.64,88.16h-2v3.45H175.5V83.08h2.83a3.35,3.35,0,0,1,2.21.65,2.37,2.37,0,0,1,.78,1.91,2.25,2.25,0,0,1-.43,1.39,2.6,2.6,0,0,1-1.2.89l2,3.62v.07h-1.21Zm-2-.92h1.73a1.94,1.94,0,0,0,1.33-.44,1.46,1.46,0,0,0,.5-1.16,1.54,1.54,0,0,0-.47-1.21,2,2,0,0,0-1.36-.43h-1.73Z"/><path class="b" d="M185.36,91.73a2.79,2.79,0,0,1-2.1-.85,3.13,3.13,0,0,1-.81-2.26v-.2a3.85,3.85,0,0,1,.36-1.69,2.86,2.86,0,0,1,1-1.16,2.52,2.52,0,0,1,1.4-.42,2.34,2.34,0,0,1,1.92.82,3.5,3.5,0,0,1,.69,2.33v.45h-4.29a2.21,2.21,0,0,0,.54,1.51,1.72,1.72,0,0,0,1.34.58,2,2,0,0,0,1-.23,2.74,2.74,0,0,0,.7-.62l.66.51A2.66,2.66,0,0,1,185.36,91.73ZM185.22,86a1.46,1.46,0,0,0-1.1.48,2.29,2.29,0,0,0-.55,1.34h3.18v-.08a2,2,0,0,0-.45-1.28A1.33,1.33,0,0,0,185.22,86Z"/><path class="b" d="M194.44,88.51a3.81,3.81,0,0,1-.66,2.33,2.13,2.13,0,0,1-1.8.89,2.32,2.32,0,0,1-1.81-.74v3.06h-1.09V85.27h1l.06.7a2.24,2.24,0,0,1,1.84-.82,2.16,2.16,0,0,1,1.8.86,3.83,3.83,0,0,1,.67,2.4Zm-1.08-.12a2.86,2.86,0,0,0-.46-1.7,1.49,1.49,0,0,0-1.26-.62,1.58,1.58,0,0,0-1.47.88v3a1.59,1.59,0,0,0,1.49.87,1.45,1.45,0,0,0,1.24-.62A3.08,3.08,0,0,0,193.36,88.39Z"/><path class="b" d="M197,91.61h-1.08v-9H197Z"/><path class="b" d="M200.8,90l1.48-4.75h1.16l-2.55,7.32c-.39,1-1,1.58-1.88,1.58l-.2,0-.41-.07V93.2l.29,0a1.42,1.42,0,0,0,.86-.22,1.57,1.57,0,0,0,.51-.82l.24-.64L198,85.27h1.18Z"/><path class="b" d="M213.82,88.9a3.13,3.13,0,0,1-1,2.09,3.26,3.26,0,0,1-2.23.74,3,3,0,0,1-2.42-1.09,4.35,4.35,0,0,1-.92-2.9v-.82a4.9,4.9,0,0,1,.43-2.09,3.2,3.2,0,0,1,1.2-1.39,3.37,3.37,0,0,1,1.81-.48,3.08,3.08,0,0,1,2.18.76,3.22,3.22,0,0,1,.95,2.1h-1.13a2.49,2.49,0,0,0-.63-1.48,1.93,1.93,0,0,0-1.37-.46,2,2,0,0,0-1.69.8,3.65,3.65,0,0,0-.61,2.27v.82A3.77,3.77,0,0,0,209,90a1.87,1.87,0,0,0,1.62.82,2.21,2.21,0,0,0,1.44-.43,2.36,2.36,0,0,0,.66-1.48Z"/><path class="b" d="M216.27,86a2.32,2.32,0,0,1,1.88-.89c1.34,0,2,.76,2,2.27v4.19h-1.08v-4.2a1.47,1.47,0,0,0-.31-1,1.27,1.27,0,0,0-1-.33,1.65,1.65,0,0,0-.93.28,2,2,0,0,0-.62.74v4.52h-1.08v-9h1.08Z"/><path class="b" d="M225.71,91.61a2.49,2.49,0,0,1-.15-.67,2.44,2.44,0,0,1-1.81.79,2.24,2.24,0,0,1-1.53-.53,1.74,1.74,0,0,1-.6-1.35,1.8,1.8,0,0,1,.75-1.54,3.59,3.59,0,0,1,2.12-.54h1v-.5a1.22,1.22,0,0,0-.34-.91,1.37,1.37,0,0,0-1-.33,1.53,1.53,0,0,0-1,.29.87.87,0,0,0-.4.71h-1.09a1.54,1.54,0,0,1,.34-.92,2.35,2.35,0,0,1,.92-.7,3.05,3.05,0,0,1,1.26-.26,2.49,2.49,0,0,1,1.72.55,2,2,0,0,1,.65,1.51v2.92a3.58,3.58,0,0,0,.22,1.39v.09Zm-1.8-.83a1.88,1.88,0,0,0,1-.26,1.62,1.62,0,0,0,.66-.69v-1.3h-.85c-1.33,0-2,.39-2,1.17a1,1,0,0,0,.34.8A1.32,1.32,0,0,0,223.91,90.78Z"/><path class="b" d="M229.35,85.27l0,.8a2.29,2.29,0,0,1,1.89-.92c1.34,0,2,.76,2,2.27v4.19h-1.08v-4.2a1.47,1.47,0,0,0-.32-1,1.23,1.23,0,0,0-.95-.33,1.62,1.62,0,0,0-.93.28,1.94,1.94,0,0,0-.62.74v4.52h-1.09V85.27Z"/><path class="b" d="M188.78,106h-5.59v-.78l3-3.28a7.18,7.18,0,0,0,.9-1.21,2,2,0,0,0,.25-1,1.52,1.52,0,0,0-.4-1.1,1.4,1.4,0,0,0-1.08-.43,1.71,1.71,0,0,0-1.26.46,1.77,1.77,0,0,0-.45,1.28H183a2.49,2.49,0,0,1,.76-1.9,2.78,2.78,0,0,1,2-.73,2.69,2.69,0,0,1,1.88.63,2.11,2.11,0,0,1,.69,1.66,4.89,4.89,0,0,1-1.61,3l-2.28,2.47h4.28Z"/><path class="b" d="M195.7,102.21a5.23,5.23,0,0,1-2.11-1,1.94,1.94,0,0,1-.66-1.49,2.07,2.07,0,0,1,.81-1.67,3.17,3.17,0,0,1,2.09-.66,3.45,3.45,0,0,1,1.57.34,2.65,2.65,0,0,1,1.07.94,2.4,2.4,0,0,1,.37,1.31h-1.13a1.54,1.54,0,0,0-.49-1.22,2,2,0,0,0-1.39-.45,2,2,0,0,0-1.3.37,1.21,1.21,0,0,0-.46,1,1.12,1.12,0,0,0,.44.88,4.43,4.43,0,0,0,1.51.66,7,7,0,0,1,1.66.66,2.5,2.5,0,0,1,.89.84,2.18,2.18,0,0,1,.29,1.13,2,2,0,0,1-.81,1.66,3.42,3.42,0,0,1-2.16.63,4.08,4.08,0,0,1-1.64-.34,2.76,2.76,0,0,1-1.18-.92,2.3,2.3,0,0,1-.41-1.33h1.13a1.48,1.48,0,0,0,.57,1.22,2.4,2.4,0,0,0,1.53.45,2.19,2.19,0,0,0,1.37-.37,1.28,1.28,0,0,0,0-2A5.16,5.16,0,0,0,195.7,102.21Z"/><path class="b" d="M199.85,102.78a3.76,3.76,0,0,1,.36-1.67,2.71,2.71,0,0,1,2.51-1.56,2.68,2.68,0,0,1,2.1.9,3.46,3.46,0,0,1,.8,2.38v.08a3.71,3.71,0,0,1-.36,1.66,2.69,2.69,0,0,1-1,1.15,2.86,2.86,0,0,1-1.52.41,2.67,2.67,0,0,1-2.09-.9,3.45,3.45,0,0,1-.79-2.37Zm1.09.13a2.73,2.73,0,0,0,.48,1.69,1.66,1.66,0,0,0,2.63,0,3,3,0,0,0,.48-1.81,2.71,2.71,0,0,0-.49-1.69,1.64,1.64,0,0,0-2.61,0A3,3,0,0,0,200.94,102.91Z"/><path class="b" d="M210.89,105.38a2.29,2.29,0,0,1-1.86.75,2,2,0,0,1-1.54-.59,2.61,2.61,0,0,1-.54-1.75V99.67H208v4.1q0,1.44,1.17,1.44a1.61,1.61,0,0,0,1.65-.93V99.67h1.08V106h-1Z"/><path class="b" d="M214.62,99.67l0,.8a2.33,2.33,0,0,1,1.9-.92c1.34,0,2,.76,2,2.27V106h-1.09v-4.2a1.42,1.42,0,0,0-.31-1,1.24,1.24,0,0,0-1-.33,1.59,1.59,0,0,0-.92.28,1.86,1.86,0,0,0-.62.74V106h-1.09V99.67Z"/><path class="b" d="M220,102.79a3.71,3.71,0,0,1,.69-2.35,2.19,2.19,0,0,1,1.81-.89,2.21,2.21,0,0,1,1.76.76V97h1.09v9h-1l-.05-.68a2.21,2.21,0,0,1-1.81.8,2.16,2.16,0,0,1-1.8-.91,3.75,3.75,0,0,1-.69-2.35Zm1.08.12a2.8,2.8,0,0,0,.45,1.69,1.45,1.45,0,0,0,1.23.61,1.56,1.56,0,0,0,1.5-.93v-2.91a1.58,1.58,0,0,0-1.49-.9,1.44,1.44,0,0,0-1.24.62A3.07,3.07,0,0,0,221,102.91Z"/><path class="e" d="M235.09,80.47l.09,26-61.63.09-.09-26.1h61.63m.09-3.4H173.46a3.31,3.31,0,0,0-3.31,3.32v26.18a3.32,3.32,0,0,0,3.31,3.32h61.72a3.32,3.32,0,0,0,3.32-3.32V80.39a3.32,3.32,0,0,0-3.32-3.32Z"/><rect class="g" x="127.76" y="84.62" width="22.1" height="5.16"/><rect class="h" x="149.87" y="84.62" width="1.56" height="5.16"/><rect class="e" x="99.24" y="76.79" width="68.35" height="5.1"/><path class="i" d="M106.28,86.69h.61a1.35,1.35,0,0,0,.91-.31,1,1,0,0,0,.33-.8A1,1,0,0,0,107,84.46a1.18,1.18,0,0,0-.85.3,1.05,1.05,0,0,0-.31.8H105a1.65,1.65,0,0,1,.56-1.27,2.05,2.05,0,0,1,1.42-.5,2,2,0,0,1,1.42.48A1.74,1.74,0,0,1,109,85.6a1.4,1.4,0,0,1-.27.81,1.72,1.72,0,0,1-.74.59,1.55,1.55,0,0,1,.81.56,1.46,1.46,0,0,1,.29.94,1.75,1.75,0,0,1-.56,1.37,2.12,2.12,0,0,1-1.47.51,2.16,2.16,0,0,1-1.47-.49A1.59,1.59,0,0,1,105,88.6h.81a1,1,0,0,0,.34.81,1.26,1.26,0,0,0,.88.31,1.24,1.24,0,0,0,.9-.31,1.2,1.2,0,0,0,.32-.89,1.09,1.09,0,0,0-.35-.86,1.52,1.52,0,0,0-1-.31h-.61Z"/><g class="j"><path class="h" d="M107.9,103.45h4.59v1h-5.87V94.82h1.28Z"/><path class="h" d="M113.76,95.4a.76.76,0,0,1,.18-.51.69.69,0,0,1,.54-.21.69.69,0,0,1,.55.21.76.76,0,0,1,.19.51.71.71,0,0,1-.19.49.69.69,0,0,1-.55.2.68.68,0,0,1-.54-.2A.71.71,0,0,1,113.76,95.4Zm1.33,9.09h-1.23V97.3h1.23Z"/><path class="h" d="M116.77,100.84a4.25,4.25,0,0,1,.77-2.68,2.69,2.69,0,0,1,4.12-.06l.06-.8h1.12v7a2.92,2.92,0,0,1-.83,2.2,3,3,0,0,1-2.22.81,3.54,3.54,0,0,1-1.52-.34,2.56,2.56,0,0,1-1.14-.91l.64-.73a2.4,2.4,0,0,0,1.93,1,1.86,1.86,0,0,0,1.4-.5,1.91,1.91,0,0,0,.5-1.42v-.62a2.54,2.54,0,0,1-2,.85,2.45,2.45,0,0,1-2-1A4.38,4.38,0,0,1,116.77,100.84ZM118,101a3.23,3.23,0,0,0,.5,1.91,1.62,1.62,0,0,0,1.39.69,1.8,1.8,0,0,0,1.71-1V99.24a1.82,1.82,0,0,0-1.69-1,1.63,1.63,0,0,0-1.4.7A3.51,3.51,0,0,0,118,101Z"/><path class="h" d="M125.92,98.17a2.62,2.62,0,0,1,2.13-1c1.52,0,2.29.86,2.3,2.57v4.75h-1.23V99.74a1.63,1.63,0,0,0-.35-1.15,1.44,1.44,0,0,0-1.09-.38,1.79,1.79,0,0,0-1.05.32,2.16,2.16,0,0,0-.71.84v5.12h-1.23V94.29h1.23Z"/><path class="h" d="M133.86,95.56V97.3h1.34v1h-1.34v4.47a1,1,0,0,0,.18.65.76.76,0,0,0,.61.21,2.6,2.6,0,0,0,.59-.08v1a4,4,0,0,1-1,.13,1.53,1.53,0,0,1-1.24-.5,2.15,2.15,0,0,1-.42-1.42V98.25h-1.31v-1h1.31V95.56Z"/></g><rect class="g" x="127.76" y="49.06" width="22.1" height="5.16"/><rect class="h" x="149.87" y="49.06" width="1.56" height="5.16"/><rect class="e" x="99.24" y="41.24" width="68.35" height="5.1"/><path class="i" d="M109.3,54.74h-4.21v-.59l2.22-2.47a5.28,5.28,0,0,0,.69-.91,1.54,1.54,0,0,0,.18-.72,1.18,1.18,0,0,0-.3-.83,1.07,1.07,0,0,0-.81-.32,1.28,1.28,0,0,0-.95.35,1.33,1.33,0,0,0-.33,1H105a1.88,1.88,0,0,1,.57-1.43,2.1,2.1,0,0,1,1.53-.55,2,2,0,0,1,1.41.47A1.59,1.59,0,0,1,109,50a3.71,3.71,0,0,1-1.2,2.26l-1.72,1.86h3.22Z"/><g class="k"><path class="h" d="M109.47,64.63a6.24,6.24,0,0,1-2.39-1.16,2.25,2.25,0,0,1-.74-1.7,2.31,2.31,0,0,1,.91-1.89,3.63,3.63,0,0,1,2.38-.75,4,4,0,0,1,1.77.38,2.94,2.94,0,0,1,1.21,1.07,2.66,2.66,0,0,1,.43,1.48h-1.28a1.79,1.79,0,0,0-.56-1.39,2.29,2.29,0,0,0-1.57-.5,2.35,2.35,0,0,0-1.48.42,1.38,1.38,0,0,0-.52,1.15,1.22,1.22,0,0,0,.5,1,4.61,4.61,0,0,0,1.71.75,8.11,8.11,0,0,1,1.88.75,2.76,2.76,0,0,1,1,1,2.41,2.41,0,0,1,.33,1.28,2.24,2.24,0,0,1-.92,1.88,3.84,3.84,0,0,1-2.45.71,4.65,4.65,0,0,1-1.86-.38,3.14,3.14,0,0,1-1.33-1,2.55,2.55,0,0,1-.47-1.51h1.28a1.68,1.68,0,0,0,.65,1.39,2.72,2.72,0,0,0,1.73.51,2.53,2.53,0,0,0,1.55-.41,1.35,1.35,0,0,0,.54-1.13,1.33,1.33,0,0,0-.5-1.1A5.61,5.61,0,0,0,109.47,64.63Z"/><path class="h" d="M114.18,65.28a4.18,4.18,0,0,1,.42-1.9,3.07,3.07,0,0,1,1.15-1.31,3.22,3.22,0,0,1,1.69-.46,3,3,0,0,1,2.38,1,4,4,0,0,1,.91,2.71v.08a4.3,4.3,0,0,1-.41,1.89,3,3,0,0,1-1.15,1.3,3.15,3.15,0,0,1-1.71.46,3,3,0,0,1-2.37-1,3.89,3.89,0,0,1-.91-2.7Zm1.24.14a3.06,3.06,0,0,0,.55,1.92,1.77,1.77,0,0,0,1.49.73,1.75,1.75,0,0,0,1.48-.74,3.33,3.33,0,0,0,.56-2,3.1,3.1,0,0,0-.56-1.92,1.87,1.87,0,0,0-3,0A3.34,3.34,0,0,0,115.42,65.42Z"/><path class="h" d="M126.71,68.23a2.62,2.62,0,0,1-2.11.84,2.21,2.21,0,0,1-1.75-.67,2.9,2.9,0,0,1-.61-2V61.75h1.23v4.64c0,1.09.44,1.64,1.33,1.64a1.86,1.86,0,0,0,1.88-1V61.75h1.22v7.19h-1.17Z"/><path class="h" d="M130.94,61.75l0,.9a2.6,2.6,0,0,1,2.15-1c1.52,0,2.29.86,2.3,2.58v4.75H134.2V64.18a1.65,1.65,0,0,0-.36-1.15,1.4,1.4,0,0,0-1.08-.37,1.72,1.72,0,0,0-1,.32,2.2,2.2,0,0,0-.71.83v5.13h-1.23V61.75Z"/><path class="h" d="M137,65.28a4.23,4.23,0,0,1,.79-2.66,2.66,2.66,0,0,1,4-.14V58.73h1.23V68.94h-1.13l-.06-.77a2.66,2.66,0,0,1-4.09-.12,4.28,4.28,0,0,1-.79-2.67Zm1.23.14a3.17,3.17,0,0,0,.51,1.92,1.64,1.64,0,0,0,1.4.69,1.79,1.79,0,0,0,1.7-1V63.67a1.8,1.8,0,0,0-1.69-1,1.64,1.64,0,0,0-1.41.7A3.46,3.46,0,0,0,138.21,65.42Z"/></g><rect class="g" x="127.76" y="13.76" width="22.1" height="5.16"/><rect class="h" x="149.87" y="13.76" width="1.56" height="5.16"/><rect class="e" x="99.24" y="5.93" width="68.35" height="5.1"/><path class="i" d="M107.77,19.43H107V14l-1.64.6v-.74l2.34-.87h.12Z"/><g class="l"><path class="h" d="M109.47,29.32a6,6,0,0,1-2.39-1.16,2.23,2.23,0,0,1-.74-1.7,2.34,2.34,0,0,1,.91-1.89,3.63,3.63,0,0,1,2.38-.75,3.9,3.9,0,0,1,1.77.39,2.92,2.92,0,0,1,1.21,1.06,2.72,2.72,0,0,1,.43,1.49h-1.28a1.79,1.79,0,0,0-.56-1.39,2.29,2.29,0,0,0-1.57-.5,2.35,2.35,0,0,0-1.48.42,1.37,1.37,0,0,0-.52,1.15,1.23,1.23,0,0,0,.5,1,4.61,4.61,0,0,0,1.71.75,8.11,8.11,0,0,1,1.88.75,2.82,2.82,0,0,1,1,.95,2.45,2.45,0,0,1,.33,1.29,2.24,2.24,0,0,1-.92,1.88,3.9,3.9,0,0,1-2.45.71,4.65,4.65,0,0,1-1.86-.38,3.22,3.22,0,0,1-1.33-1,2.58,2.58,0,0,1-.47-1.51h1.28a1.68,1.68,0,0,0,.65,1.39,2.72,2.72,0,0,0,1.73.51,2.47,2.47,0,0,0,1.55-.42,1.45,1.45,0,0,0,0-2.22A5.58,5.58,0,0,0,109.47,29.32Z"/><path class="h" d="M115.73,27.32a2.63,2.63,0,0,1,2.13-1c1.52,0,2.29.86,2.3,2.57v4.76h-1.23V28.88a1.65,1.65,0,0,0-.35-1.15,1.44,1.44,0,0,0-1.09-.38,1.79,1.79,0,0,0-1,.32,2.24,2.24,0,0,0-.71.84v5.13h-1.22V23.43h1.22Z"/><path class="h" d="M121.68,30a4.24,4.24,0,0,1,.41-1.9,3.06,3.06,0,0,1,1.16-1.3,3.11,3.11,0,0,1,1.69-.46,3,3,0,0,1,2.38,1,3.93,3.93,0,0,1,.9,2.7v.09a4.22,4.22,0,0,1-.4,1.88,3,3,0,0,1-1.15,1.3,3.19,3.19,0,0,1-1.72.47,3,3,0,0,1-2.37-1,3.91,3.91,0,0,1-.9-2.69Zm1.23.15a3.06,3.06,0,0,0,.56,1.92,1.88,1.88,0,0,0,3,0A3.34,3.34,0,0,0,127,30a3,3,0,0,0-.56-1.91,1.78,1.78,0,0,0-1.49-.74,1.75,1.75,0,0,0-1.47.73A3.33,3.33,0,0,0,122.91,30.12Z"/><path class="h" d="M136.13,31.94l1.39-5.5h1.23l-2.1,7.2h-1l-1.75-5.45-1.7,5.45h-1l-2.09-7.2h1.22l1.42,5.39,1.68-5.39h1Z"/></g><path d="M233.94,112.48H103.81a7.34,7.34,0,0,1-7.33-7.33V10.58a7.34,7.34,0,0,1,7.33-7.33H233.94a7.34,7.34,0,0,1,7.32,7.33v94.57A7.34,7.34,0,0,1,233.94,112.48ZM103.81,5.81A4.78,4.78,0,0,0,99,10.58v94.57a4.78,4.78,0,0,0,4.77,4.77H233.94a4.77,4.77,0,0,0,4.76-4.77V10.58a4.77,4.77,0,0,0-4.76-4.77Z"/><rect class="m" x="167.59" y="5.81" width="2.56" height="104.1"/><rect class="m" x="99.04" y="38.71" width="139.66" height="2.56"/><rect class="m" x="99.04" y="74.45" width="139.66" height="2.56"/><g class="n"><path class="o" d="M315.66,157.09a1.65,1.65,0,0,1-1.46-1.1,42.54,42.54,0,0,0-4.23-7.37,6.36,6.36,0,0,0-2.9-1.89,105.28,105.28,0,0,1-18.43-10.43l-.3-.21a63.92,63.92,0,0,1-7.4-5.66,7.27,7.27,0,0,1-2.53-4.94,5.93,5.93,0,0,1,1.78-4.27,6.32,6.32,0,0,1,4.56-1.77,6.84,6.84,0,0,1,2.64.53c1.91.84,3.82,1.76,5.66,2.64l.71.34c.47.23.94.48,1.41.73a58.73,58.73,0,0,0-3.26-7.28c-.58-1.14-1.15-2.28-1.7-3.44-1.92-4.13-3.94-8.31-5.9-12.35q-1.37-2.82-2.73-5.67a6,6,0,0,1,1.44-7.4,5.87,5.87,0,0,1,3.75-1.35,6.32,6.32,0,0,1,4.1,1.55,5.92,5.92,0,0,1,1.44,2q3.18,6.63,6.39,13.25a5.63,5.63,0,0,1,4.16-2.73,6.42,6.42,0,0,1,1-.07,6,6,0,0,1,5.07,2.84s.19.27.23.34a6.62,6.62,0,0,1,1.21-1.57,5.53,5.53,0,0,1,3.84-1.44,6.13,6.13,0,0,1,5.43,3.08l0,0a6.26,6.26,0,0,1,5.15-2.73,6,6,0,0,1,5.21,3,154.42,154.42,0,0,1,7.73,15.81,18.18,18.18,0,0,1,1.41,10.57,11.55,11.55,0,0,1-1.07,2.94c-.24.51-.47,1-.65,1.48a.71.71,0,0,0,0,.65q1.06,2.19,2.1,4.4c.55,1.15,1.09,2.31,1.65,3.46a1.56,1.56,0,0,1-.82,2.32l-4.19,2-3.42,1.63-3.4,1.64-2.85,1.36c-3.31,1.59-6.63,3.18-9.93,4.78A2,2,0,0,1,315.66,157.09Z"/><path class="h" d="M286.77,87.2a5.42,5.42,0,0,1,3.46,1.31,5,5,0,0,1,1.18,1.7q3.45,7.19,6.93,14.37c.09.19.26.48.41.49h0c.25,0,.19-.33.26-.51a4.84,4.84,0,0,1,3.95-3.28,5.9,5.9,0,0,1,.83-.06,5,5,0,0,1,4.25,2.41l.27.4c.28.42.55.85.83,1.28h0s.08,0,.08,0a9.38,9.38,0,0,1,1.74-2.71,4.58,4.58,0,0,1,3.17-1.18,5.12,5.12,0,0,1,4.54,2.55c.28.53.54,1.46.87,1.49h.05c.52,0,.5-.88.8-1.33a5.26,5.26,0,0,1,4.34-2.32,5,5,0,0,1,4.34,2.51,153,153,0,0,1,7.69,15.7,17.37,17.37,0,0,1,1.34,10c-.27,1.53-1.16,2.83-1.68,4.26a1.71,1.71,0,0,0,.07,1.43c1.27,2.6,2.49,5.24,3.75,7.85.23.49.18.74-.34,1-2.55,1.19-5.08,2.43-7.62,3.63l-3.41,1.64q-6.39,3.06-12.78,6.15a1.24,1.24,0,0,1-.48.14c-.24,0-.38-.16-.55-.52a44.08,44.08,0,0,0-4.33-7.54,7.21,7.21,0,0,0-3.32-2.22,104.9,104.9,0,0,1-18.25-10.34,63.48,63.48,0,0,1-7.59-5.77c-2.38-2.22-3.16-5.21-.71-7.79a5.43,5.43,0,0,1,3.84-1.46,5.6,5.6,0,0,1,2.24.45c2.13.93,4.23,1.95,6.33,3,.94.46,1.85,1,2.78,1.46a1,1,0,0,0,.4.12.15.15,0,0,0,.1,0c.22-.13,0-.35,0-.53-1.22-4.38-3.57-8.27-5.47-12.35-2.82-6-5.76-12-8.64-18a5,5,0,0,1,1.17-6.19,4.89,4.89,0,0,1,3.12-1.13m0-2a6.9,6.9,0,0,0-4.38,1.57,7,7,0,0,0-1.71,8.62q1.36,2.83,2.74,5.67c1.95,4,4,8.21,5.89,12.33.55,1.18,1.14,2.34,1.71,3.47.81,1.62,1.6,3.19,2.28,4.78-1.79-.87-3.65-1.76-5.52-2.57a7.5,7.5,0,0,0-3-.62,7.39,7.39,0,0,0-5.29,2.08,6.92,6.92,0,0,0-2,5,8.2,8.2,0,0,0,2.85,5.64,64.13,64.13,0,0,0,7.5,5.75l.32.21a105.61,105.61,0,0,0,18.6,10.53,5.45,5.45,0,0,1,2.48,1.55,42.67,42.67,0,0,1,4.14,7.21,2.54,2.54,0,0,0,2.36,1.68,3.13,3.13,0,0,0,1.36-.35c3.24-1.57,6.5-3.13,9.75-4.69l3-1.45L333.2,150l3.38-1.62,4.21-2a2.72,2.72,0,0,0,1.49-1.53,2.75,2.75,0,0,0-.19-2.14c-.55-1.14-1.1-2.29-1.64-3.44-.69-1.45-1.37-2.9-2.08-4.34.17-.45.38-.89.59-1.34a12.29,12.29,0,0,0,1.16-3.2,19.19,19.19,0,0,0-1.48-11.14,155.44,155.44,0,0,0-7.79-15.91,6.94,6.94,0,0,0-6.07-3.51,7.24,7.24,0,0,0-5.06,2.08,7.3,7.3,0,0,0-5.54-2.48,6.58,6.58,0,0,0-4.54,1.72,6,6,0,0,0-.54.58,6.82,6.82,0,0,0-5.27-2.47,8.56,8.56,0,0,0-1.12.08,6.67,6.67,0,0,0-3.8,1.85c-1.92-4-3.81-7.88-5.7-11.81a6.74,6.74,0,0,0-1.7-2.36,7.41,7.41,0,0,0-4.74-1.78Z"/></g></svg>