<svg xmlns="http://www.w3.org/2000/svg" preserveAspectRatio="xMidYMid meet" viewBox="0 0 379.86 87.7"><defs><style>.a{fill:#d42526;}.b{fill:#34b44a;}.c{fill:#fff;}.d{isolation:isolate;}.e{fill:#f4e724;}.f{fill:#fe0;}.g{fill:#2800b9;}.h{fill:#4a8fbb;}</style></defs><rect fill="#000000" x="103.98" y="29.29" width="171.89" height="43.63"/><path class="a" d="M135.74,41.57l1.3-2.15h1.17l-1.92,2.91,2,3h-1.17l-1.35-2.2-1.37,2.2h-1.15l2-3-1.93-2.91h1.17Z"/><rect class="b" x="139.97" y="39.2" width="28.11" height="6.37"/><rect class="c" x="168.09" y="39.17" width="1.61" height="6.39"/><rect class="c" x="255.61" y="39.19" width="1.61" height="6.39"/><g class="d"><path class="c" d="M112.91,65.18v-12h3.53a5.53,5.53,0,0,1,2.81.71,4.77,4.77,0,0,1,1.9,2,6.31,6.31,0,0,1,.67,3v.6a6.3,6.3,0,0,1-.67,3,4.75,4.75,0,0,1-1.93,2,5.73,5.73,0,0,1-2.87.7ZM115,54.91v8.61h1.35a3.12,3.12,0,0,0,2.51-1,4.46,4.46,0,0,0,.89-2.93V58.9a4.57,4.57,0,0,0-.84-3,3,3,0,0,0-2.46-1Z"/><path class="c" d="M123.7,54a1.07,1.07,0,0,1,.29-.76,1.14,1.14,0,0,1,.84-.3,1.1,1.1,0,0,1,.83.3,1,1,0,0,1,.3.76,1,1,0,0,1-.3.76,1.1,1.1,0,0,1-.83.3,1.14,1.14,0,0,1-.84-.3A1.06,1.06,0,0,1,123.7,54Zm2.12,11.19h-2V56.3h2Z"/><path class="c" d="M132.64,58.12a5.42,5.42,0,0,0-.81-.06,1.83,1.83,0,0,0-1.85,1v6.07h-2V56.3h1.9l.05,1a2.24,2.24,0,0,1,2-1.15,1.86,1.86,0,0,1,.71.11Z"/><path class="c" d="M137.65,65.34a4.14,4.14,0,0,1-3.07-1.19A4.33,4.33,0,0,1,133.4,61v-.25a5.32,5.32,0,0,1,.51-2.37,4,4,0,0,1,1.44-1.63,3.8,3.8,0,0,1,2.07-.58,3.48,3.48,0,0,1,2.8,1.15,4.91,4.91,0,0,1,1,3.28v.8h-5.8a2.68,2.68,0,0,0,.74,1.74,2.19,2.19,0,0,0,1.62.64A2.71,2.71,0,0,0,140,62.64l1.07,1a3.54,3.54,0,0,1-1.42,1.23A4.36,4.36,0,0,1,137.65,65.34Zm-.24-7.6a1.69,1.69,0,0,0-1.32.57,3,3,0,0,0-.65,1.6h3.8v-.15a2.41,2.41,0,0,0-.53-1.51A1.67,1.67,0,0,0,137.41,57.74Z"/><path class="c" d="M146.41,63.75a1.82,1.82,0,0,0,1.24-.43,1.51,1.51,0,0,0,.52-1.08h1.88a3,3,0,0,1-.52,1.55,3.36,3.36,0,0,1-1.31,1.13,3.9,3.9,0,0,1-1.79.42,3.78,3.78,0,0,1-3-1.2,4.8,4.8,0,0,1-1.09-3.34v-.2a4.74,4.74,0,0,1,1.08-3.25,3.75,3.75,0,0,1,2.95-1.21,3.61,3.61,0,0,1,2.58.92,3.26,3.26,0,0,1,1.05,2.42h-1.88a1.83,1.83,0,0,0-.52-1.25,1.67,1.67,0,0,0-1.24-.49,1.75,1.75,0,0,0-1.5.7,3.6,3.6,0,0,0-.53,2.13v.32A3.61,3.61,0,0,0,144.9,63,1.77,1.77,0,0,0,146.41,63.75Z"/><path class="c" d="M154.05,54.14V56.3h1.57v1.48h-1.57v4.95a1.13,1.13,0,0,0,.2.74,1,1,0,0,0,.72.22,2.84,2.84,0,0,0,.7-.08v1.54a4.72,4.72,0,0,1-1.31.19c-1.54,0-2.3-.84-2.3-2.53v-5H150.6V56.3h1.46V54.14Z"/><path class="c" d="M156.52,60.66a5.14,5.14,0,0,1,.52-2.35,3.73,3.73,0,0,1,1.45-1.61,4.06,4.06,0,0,1,2.15-.56,3.89,3.89,0,0,1,2.92,1.15,4.59,4.59,0,0,1,1.21,3.07v.47a5.27,5.27,0,0,1-.51,2.35,3.79,3.79,0,0,1-1.44,1.6,4.2,4.2,0,0,1-2.17.56,3.84,3.84,0,0,1-3-1.25,4.8,4.8,0,0,1-1.13-3.33Zm2,.17a3.53,3.53,0,0,0,.56,2.14,1.85,1.85,0,0,0,1.58.78,1.82,1.82,0,0,0,1.57-.79,4,4,0,0,0,.56-2.3,3.53,3.53,0,0,0-.58-2.14,1.85,1.85,0,0,0-1.57-.78,1.81,1.81,0,0,0-1.55.77A3.91,3.91,0,0,0,158.52,60.83Z"/><path class="c" d="M171.11,58.12a5.32,5.32,0,0,0-.81-.06,1.84,1.84,0,0,0-1.85,1v6.07h-2V56.3h1.9l0,1a2.24,2.24,0,0,1,2-1.15,1.83,1.83,0,0,1,.71.11Z"/></g><g class="d"><path class="e" d="M114.51,46.21h-1V39.5l-2,.75v-.92l2.88-1.08h.16Z"/></g><path class="a" d="M223.26,41.57l1.3-2.15h1.18l-1.93,2.91,2,3h-1.17l-1.35-2.2-1.36,2.2h-1.16l2-3-1.92-2.91H222Z"/><rect class="b" x="227.5" y="39.2" width="28.11" height="6.37"/><rect class="f" x="191.5" y="29.29" width="84.37" height="5.91"/><g class="d"><path class="c" d="M209.55,61.29a4.31,4.31,0,0,1-1.41,3,4.78,4.78,0,0,1-3.28,1.07,4.64,4.64,0,0,1-2.51-.67,4.53,4.53,0,0,1-1.68-1.93,6.91,6.91,0,0,1-.61-2.9V58.73a7,7,0,0,1,.6-3,4.51,4.51,0,0,1,1.71-2,4.84,4.84,0,0,1,2.59-.69,4.61,4.61,0,0,1,3.19,1.07,4.47,4.47,0,0,1,1.4,3h-2.07a3,3,0,0,0-.75-1.86,2.48,2.48,0,0,0-1.77-.57,2.43,2.43,0,0,0-2.08,1,5,5,0,0,0-.74,2.9v1.06a5.26,5.26,0,0,0,.69,3,2.31,2.31,0,0,0,2,1,2.66,2.66,0,0,0,1.84-.55,2.89,2.89,0,0,0,.78-1.83Z"/><path class="c" d="M216.52,65.18a2.84,2.84,0,0,1-.23-.83,3.37,3.37,0,0,1-4.52.23,2.45,2.45,0,0,1-.84-1.89,2.54,2.54,0,0,1,1-2.18,5.16,5.16,0,0,1,3-.76h1.22v-.58a1.52,1.52,0,0,0-.39-1.1,1.49,1.49,0,0,0-1.17-.42,1.77,1.77,0,0,0-1.11.34,1.07,1.07,0,0,0-.44.87h-2a2.24,2.24,0,0,1,.48-1.37,3.2,3.2,0,0,1,1.32-1,4.61,4.61,0,0,1,1.86-.36,3.74,3.74,0,0,1,2.48.78,2.77,2.77,0,0,1,1,2.2v4a4.6,4.6,0,0,0,.34,1.91v.14Zm-2.2-1.44a2.2,2.2,0,0,0,1.12-.29,1.93,1.93,0,0,0,.78-.77V61h-1.08a2.91,2.91,0,0,0-1.66.39,1.25,1.25,0,0,0-.56,1.09,1.18,1.18,0,0,0,.38.91A1.48,1.48,0,0,0,214.32,63.74Z"/><path class="c" d="M222.18,56.3l0,.93a3.2,3.2,0,0,1,2.56-1.09,2.45,2.45,0,0,1,2.44,1.36A3.14,3.14,0,0,1,230,56.14a2.78,2.78,0,0,1,2.19.81,3.56,3.56,0,0,1,.74,2.39v5.84h-2V59.4a1.77,1.77,0,0,0-.37-1.24,1.61,1.61,0,0,0-1.22-.39,1.68,1.68,0,0,0-1.11.36,1.93,1.93,0,0,0-.6,1v6.09h-2V59.34a1.42,1.42,0,0,0-1.6-1.57,1.75,1.75,0,0,0-1.7,1v6.43h-2V56.3Z"/><path class="c" d="M238.83,65.34a4.14,4.14,0,0,1-3.07-1.19A4.33,4.33,0,0,1,234.58,61v-.25a5.2,5.2,0,0,1,.52-2.37,3.88,3.88,0,0,1,1.44-1.63,3.75,3.75,0,0,1,2.06-.58,3.5,3.5,0,0,1,2.81,1.15,5,5,0,0,1,1,3.28v.8h-5.8a2.68,2.68,0,0,0,.74,1.74,2.19,2.19,0,0,0,1.62.64,2.69,2.69,0,0,0,2.23-1.11l1.07,1a3.54,3.54,0,0,1-1.42,1.23A4.36,4.36,0,0,1,238.83,65.34Zm-.23-7.6a1.7,1.7,0,0,0-1.33.57,2.93,2.93,0,0,0-.64,1.6h3.79v-.15a2.41,2.41,0,0,0-.53-1.51A1.66,1.66,0,0,0,238.6,57.74Z"/><path class="c" d="M248.59,58.12a5.32,5.32,0,0,0-.81-.06,1.83,1.83,0,0,0-1.85,1v6.07h-2V56.3h1.9l0,1a2.24,2.24,0,0,1,2-1.15,1.83,1.83,0,0,1,.71.11Z"/><path class="c" d="M254.91,65.18a2.84,2.84,0,0,1-.23-.83,3.37,3.37,0,0,1-4.52.23,2.45,2.45,0,0,1-.84-1.89,2.54,2.54,0,0,1,1.05-2.18,5.16,5.16,0,0,1,3-.76h1.22v-.58a1.52,1.52,0,0,0-.39-1.1,1.49,1.49,0,0,0-1.17-.42,1.79,1.79,0,0,0-1.11.34,1.07,1.07,0,0,0-.44.87h-2a2.24,2.24,0,0,1,.48-1.37,3.2,3.2,0,0,1,1.32-1,4.61,4.61,0,0,1,1.86-.36,3.72,3.72,0,0,1,2.48.78,2.77,2.77,0,0,1,1,2.2v4a4.6,4.6,0,0,0,.34,1.91v.14Zm-2.19-1.44a2.19,2.19,0,0,0,1.11-.29,1.87,1.87,0,0,0,.78-.77V61h-1.07a2.92,2.92,0,0,0-1.67.39,1.25,1.25,0,0,0-.56,1.09,1.18,1.18,0,0,0,.38.91A1.49,1.49,0,0,0,252.72,63.74Z"/><path class="c" d="M263.67,62.77a.92.92,0,0,0-.44-.82,4.76,4.76,0,0,0-1.46-.49,7.41,7.41,0,0,1-1.7-.54,2.27,2.27,0,0,1-1.49-2.09,2.34,2.34,0,0,1,1-1.92,3.81,3.81,0,0,1,2.46-.77,4,4,0,0,1,2.57.78,2.5,2.5,0,0,1,1,2h-2a1.22,1.22,0,0,0-.43-1,1.64,1.64,0,0,0-1.13-.38,1.78,1.78,0,0,0-1.07.3,1,1,0,0,0-.41.82.8.8,0,0,0,.38.71,5.31,5.31,0,0,0,1.56.51,7.12,7.12,0,0,1,1.84.62,2.67,2.67,0,0,1,1,.85,2.26,2.26,0,0,1,.32,1.22,2.32,2.32,0,0,1-1,1.94,4.28,4.28,0,0,1-2.6.74,4.65,4.65,0,0,1-2-.39,3.2,3.2,0,0,1-1.33-1.09,2.57,2.57,0,0,1-.47-1.48h1.93a1.43,1.43,0,0,0,.54,1.09,2.07,2.07,0,0,0,1.3.38,2,2,0,0,0,1.2-.3A.93.93,0,0,0,263.67,62.77Z"/></g><g class="d"><path class="e" d="M203,43.55h1.1v.82H203v1.84h-1V44.37h-3.61v-.59l3.55-5.49H203Zm-3.47,0H202V39.67l-.12.21Z"/></g><rect class="g" x="188.35" y="29.29" width="3.15" height="43.64"/><path fill="currentColor" d="M8.87,83.5V75h2.41a3.93,3.93,0,0,1,2,.49,3.45,3.45,0,0,1,1.33,1.4A4.69,4.69,0,0,1,15,79v.55a4.56,4.56,0,0,1-.47,2.11A3.27,3.27,0,0,1,13.24,83a4.1,4.1,0,0,1-2,.49ZM10,75.89v6.69h1.19a2.57,2.57,0,0,0,2-.81,3.32,3.32,0,0,0,.72-2.3V79a3.37,3.37,0,0,0-.68-2.26,2.42,2.42,0,0,0-1.94-.82Z"/><path fill="currentColor" d="M16.57,75.48a.68.68,0,0,1,.16-.44.73.73,0,0,1,1,0,.64.64,0,0,1,.17.44.67.67,0,0,1-1.13.44A.66.66,0,0,1,16.57,75.48Zm1.17,8H16.66V77.16h1.08Z"/><path fill="currentColor" d="M23.17,81.82a.8.8,0,0,0-.33-.68,3.3,3.3,0,0,0-1.16-.42,5.84,5.84,0,0,1-1.3-.42,2,2,0,0,1-.72-.59,1.41,1.41,0,0,1-.23-.81,1.63,1.63,0,0,1,.66-1.31,2.58,2.58,0,0,1,1.69-.54,2.63,2.63,0,0,1,1.74.55A1.78,1.78,0,0,1,24.2,79H23.11a1,1,0,0,0-.38-.77,1.38,1.38,0,0,0-.95-.32,1.43,1.43,0,0,0-.93.26.8.8,0,0,0-.33.67.65.65,0,0,0,.31.59,3.79,3.79,0,0,0,1.12.38,5.54,5.54,0,0,1,1.31.44,1.86,1.86,0,0,1,.75.6,1.53,1.53,0,0,1,.24.87,1.61,1.61,0,0,1-.68,1.36,2.85,2.85,0,0,1-1.76.51,3.19,3.19,0,0,1-1.35-.27,2.18,2.18,0,0,1-.91-.75,1.76,1.76,0,0,1-.34-1H20.3a1.11,1.11,0,0,0,.44.87,1.7,1.7,0,0,0,1.07.32,1.81,1.81,0,0,0,1-.25A.77.77,0,0,0,23.17,81.82Z"/><path fill="currentColor" d="M31,80.4a3.82,3.82,0,0,1-.66,2.34,2.12,2.12,0,0,1-1.79.88,2.32,2.32,0,0,1-1.82-.73v3H25.67V77.16h1l.05.71a2.22,2.22,0,0,1,1.84-.82,2.16,2.16,0,0,1,1.81.86A3.84,3.84,0,0,1,31,80.3Zm-1.08-.12a2.82,2.82,0,0,0-.46-1.69A1.45,1.45,0,0,0,28.23,78a1.6,1.6,0,0,0-1.48.87v3a1.59,1.59,0,0,0,1.49.87,1.48,1.48,0,0,0,1.24-.62A3.12,3.12,0,0,0,29.94,80.28Z"/><path fill="currentColor" d="M33.58,83.5H32.49v-9h1.09Z"/><path fill="currentColor" d="M39.22,83.5a2.3,2.3,0,0,1-.15-.66,2.41,2.41,0,0,1-1.8.78,2.25,2.25,0,0,1-1.54-.53,1.71,1.71,0,0,1-.6-1.34,1.79,1.79,0,0,1,.75-1.54A3.52,3.52,0,0,1,38,79.66h1v-.5a1.18,1.18,0,0,0-.34-.9,1.33,1.33,0,0,0-1-.34,1.62,1.62,0,0,0-1,.29.87.87,0,0,0-.39.71H35.26a1.55,1.55,0,0,1,.33-.92,2.45,2.45,0,0,1,.92-.7,3.1,3.1,0,0,1,1.27-.25,2.51,2.51,0,0,1,1.71.54,2,2,0,0,1,.65,1.51V82a3.55,3.55,0,0,0,.22,1.39v.09Zm-1.79-.82a1.84,1.84,0,0,0,1-.27,1.49,1.49,0,0,0,.66-.68v-1.3H38.2c-1.32,0-2,.39-2,1.16a1,1,0,0,0,.34.8A1.33,1.33,0,0,0,37.43,82.68Z"/><path fill="currentColor" d="M43.82,81.92l1.48-4.76h1.16l-2.55,7.32c-.39,1.06-1,1.58-1.88,1.58h-.2L41.42,86v-.88l.29,0a1.42,1.42,0,0,0,.86-.22,1.57,1.57,0,0,0,.51-.81l.24-.65-2.26-6.27h1.18Z"/><path fill="currentColor" d="M57.12,83.5H56L51.7,76.93V83.5H50.57V75H51.7L56,81.58V75h1.11Z"/><path fill="currentColor" d="M62.87,83.5a1.94,1.94,0,0,1-.16-.66,2.41,2.41,0,0,1-1.8.78,2.25,2.25,0,0,1-1.54-.53,1.71,1.71,0,0,1-.6-1.34,1.79,1.79,0,0,1,.75-1.54,3.54,3.54,0,0,1,2.12-.55H62.7v-.5a1.22,1.22,0,0,0-.34-.9,1.35,1.35,0,0,0-1-.34,1.63,1.63,0,0,0-1,.29.87.87,0,0,0-.39.71H58.9a1.5,1.5,0,0,1,.34-.92,2.41,2.41,0,0,1,.91-.7,3.13,3.13,0,0,1,1.27-.25,2.55,2.55,0,0,1,1.72.54,2,2,0,0,1,.64,1.51V82A3.74,3.74,0,0,0,64,83.41v.09Zm-1.8-.82a1.84,1.84,0,0,0,1-.27,1.57,1.57,0,0,0,.67-.68v-1.3h-.85c-1.33,0-2,.39-2,1.16a1,1,0,0,0,.34.8A1.29,1.29,0,0,0,61.07,82.68Z"/><path fill="currentColor" d="M66.5,77.16l0,.71a2.32,2.32,0,0,1,1.88-.82,1.81,1.81,0,0,1,1.81,1,2.34,2.34,0,0,1,2-1c1.39,0,2.1.73,2.12,2.21V83.5H73.28V79.32a1.47,1.47,0,0,0-.31-1,1.4,1.4,0,0,0-1-.33,1.4,1.4,0,0,0-1.47,1.33v4.2H69.37V79.35A1.21,1.21,0,0,0,68,78a1.45,1.45,0,0,0-1.46.9V83.5H65.47V77.16Z"/><path fill="currentColor" d="M78.63,83.62a2.76,2.76,0,0,1-2.1-.85,3.13,3.13,0,0,1-.81-2.26v-.2a3.77,3.77,0,0,1,.36-1.68,2.73,2.73,0,0,1,1-1.16,2.52,2.52,0,0,1,1.4-.42,2.39,2.39,0,0,1,1.93.81,3.56,3.56,0,0,1,.68,2.33v.45H76.81a2.23,2.23,0,0,0,.54,1.52,1.75,1.75,0,0,0,1.34.58,1.86,1.86,0,0,0,1-.24,2.29,2.29,0,0,0,.7-.62l.66.52A2.67,2.67,0,0,1,78.63,83.62Zm-.14-5.68a1.48,1.48,0,0,0-1.1.47,2.39,2.39,0,0,0-.55,1.34H80v-.08a2,2,0,0,0-.45-1.28A1.35,1.35,0,0,0,78.49,77.94Z"/><path fill="currentColor" d="M294.86,43.5a3.17,3.17,0,0,1-1,2.09,3.29,3.29,0,0,1-2.24.74,3,3,0,0,1-2.42-1.09,4.34,4.34,0,0,1-.91-2.9v-.82a4.76,4.76,0,0,1,.43-2.09,3.2,3.2,0,0,1,1.2-1.39,3.36,3.36,0,0,1,1.8-.48,3,3,0,0,1,2.18.76,3.18,3.18,0,0,1,1,2.1h-1.13a2.43,2.43,0,0,0-.64-1.48,1.89,1.89,0,0,0-1.37-.46,2,2,0,0,0-1.69.8,3.72,3.72,0,0,0-.61,2.27v.82a3.84,3.84,0,0,0,.58,2.22,1.9,1.9,0,0,0,1.62.82,2.17,2.17,0,0,0,1.44-.43,2.31,2.31,0,0,0,.67-1.48Z"/><path fill="currentColor" d="M297.31,40.64a2.3,2.3,0,0,1,1.87-.89c1.34,0,2,.76,2,2.27v4.19h-1.08V42a1.47,1.47,0,0,0-.32-1,1.23,1.23,0,0,0-.95-.33,1.62,1.62,0,0,0-.93.28,1.94,1.94,0,0,0-.62.74v4.52h-1.09v-9h1.09Z"/><path fill="currentColor" d="M306.75,46.21a2.15,2.15,0,0,1-.15-.67,2.46,2.46,0,0,1-1.81.79,2.27,2.27,0,0,1-1.54-.53,1.74,1.74,0,0,1-.6-1.35,1.79,1.79,0,0,1,.76-1.54,3.56,3.56,0,0,1,2.11-.54h1.06v-.5a1.26,1.26,0,0,0-.34-.91,1.39,1.39,0,0,0-1-.33,1.58,1.58,0,0,0-1,.29.86.86,0,0,0-.39.71h-1.09a1.48,1.48,0,0,1,.34-.92A2.31,2.31,0,0,1,304,40a3.13,3.13,0,0,1,1.27-.26,2.5,2.5,0,0,1,1.72.55,2,2,0,0,1,.64,1.51v2.92a3.78,3.78,0,0,0,.22,1.39v.09Zm-1.8-.83a1.88,1.88,0,0,0,1-.26,1.62,1.62,0,0,0,.66-.69v-1.3h-.85c-1.33,0-2,.39-2,1.17a1,1,0,0,0,.34.8A1.28,1.28,0,0,0,305,45.38Z"/><path fill="currentColor" d="M310.39,39.87l0,.8a2.33,2.33,0,0,1,1.9-.92c1.34,0,2,.76,2,2.27v4.19h-1.09V42a1.42,1.42,0,0,0-.31-1,1.25,1.25,0,0,0-1-.33,1.59,1.59,0,0,0-.92.28,1.86,1.86,0,0,0-.62.74v4.52h-1.09V39.87Z"/><path fill="currentColor" d="M317,39.87l0,.8a2.33,2.33,0,0,1,1.9-.92c1.34,0,2,.76,2,2.27v4.19h-1.09V42a1.42,1.42,0,0,0-.31-1,1.24,1.24,0,0,0-1-.33,1.59,1.59,0,0,0-.92.28,1.86,1.86,0,0,0-.62.74v4.52H316V39.87Z"/><path fill="currentColor" d="M325.23,46.33a2.77,2.77,0,0,1-2.09-.85,3.13,3.13,0,0,1-.81-2.26V43a3.85,3.85,0,0,1,.36-1.69,2.78,2.78,0,0,1,1-1.16,2.52,2.52,0,0,1,1.4-.42,2.36,2.36,0,0,1,1.92.82,3.5,3.5,0,0,1,.69,2.33v.45h-4.3a2.26,2.26,0,0,0,.55,1.51,1.7,1.7,0,0,0,1.33.58,2,2,0,0,0,1-.23,2.7,2.7,0,0,0,.69-.62l.66.51A2.65,2.65,0,0,1,325.23,46.33Zm-.13-5.69a1.43,1.43,0,0,0-1.1.48,2.29,2.29,0,0,0-.55,1.34h3.17v-.08a2.08,2.08,0,0,0-.44-1.28A1.36,1.36,0,0,0,325.1,40.64Z"/><path fill="currentColor" d="M330.14,46.21h-1.09v-9h1.09Z"/><path fill="currentColor" d="M337.84,44.72l2.44-7h1.23l-3.17,8.53h-1l-3.16-8.53h1.22Z"/><path fill="currentColor" d="M341.92,43a3.7,3.7,0,0,1,.37-1.68,2.69,2.69,0,0,1,1-1.14,2.75,2.75,0,0,1,1.49-.41,2.66,2.66,0,0,1,2.09.9,3.41,3.41,0,0,1,.8,2.38v.08a3.85,3.85,0,0,1-.35,1.66,2.71,2.71,0,0,1-2.53,1.56,2.66,2.66,0,0,1-2.09-.9,3.45,3.45,0,0,1-.8-2.37Zm1.09.13a2.67,2.67,0,0,0,.49,1.69,1.56,1.56,0,0,0,1.31.64,1.53,1.53,0,0,0,1.31-.65,2.91,2.91,0,0,0,.49-1.81,2.72,2.72,0,0,0-.5-1.69,1.64,1.64,0,0,0-2.61,0A3,3,0,0,0,343,43.11Z"/><path fill="currentColor" d="M350.23,46.21h-1.08v-9h1.08Z"/><path fill="currentColor" d="M355.88,45.58a2.29,2.29,0,0,1-1.86.75,2,2,0,0,1-1.54-.59,2.58,2.58,0,0,1-.54-1.75V39.87H353V44q0,1.44,1.17,1.44a1.61,1.61,0,0,0,1.65-.93V39.87h1.08v6.34h-1Z"/><path fill="currentColor" d="M359.6,39.87l0,.7a2.35,2.35,0,0,1,1.88-.82,1.81,1.81,0,0,1,1.81,1,2.34,2.34,0,0,1,2-1c1.39,0,2.1.74,2.12,2.21v4.25h-1.08V42a1.43,1.43,0,0,0-.31-1,1.36,1.36,0,0,0-1-.34,1.45,1.45,0,0,0-1,.36,1.49,1.49,0,0,0-.46,1v4.21h-1.09V42.05a1.21,1.21,0,0,0-1.35-1.38,1.45,1.45,0,0,0-1.46.91v4.63h-1.09V39.87Z"/><path fill="currentColor" d="M371.73,46.33a2.79,2.79,0,0,1-2.1-.85,3.13,3.13,0,0,1-.81-2.26V43a3.85,3.85,0,0,1,.36-1.69,2.86,2.86,0,0,1,1-1.16,2.52,2.52,0,0,1,1.4-.42,2.37,2.37,0,0,1,1.93.82,3.56,3.56,0,0,1,.68,2.33v.45h-4.29a2.21,2.21,0,0,0,.54,1.51,1.72,1.72,0,0,0,1.34.58,2,2,0,0,0,1-.23,2.58,2.58,0,0,0,.7-.62l.66.51A2.66,2.66,0,0,1,371.73,46.33Zm-.14-5.69a1.46,1.46,0,0,0-1.1.48,2.36,2.36,0,0,0-.55,1.34h3.18v-.08a2,2,0,0,0-.45-1.28A1.33,1.33,0,0,0,371.59,40.64Z"/><path fill="currentColor" d="M15.27,42.6a3.17,3.17,0,0,1-1,2.09,3.26,3.26,0,0,1-2.23.74,3,3,0,0,1-2.43-1.09,4.4,4.4,0,0,1-.91-2.9v-.82a4.76,4.76,0,0,1,.43-2.09,3.2,3.2,0,0,1,1.2-1.39,3.37,3.37,0,0,1,1.81-.48,3.08,3.08,0,0,1,2.18.76,3.18,3.18,0,0,1,.95,2.1H14.14A2.43,2.43,0,0,0,13.5,38a1.88,1.88,0,0,0-1.36-.46,2,2,0,0,0-1.69.8,3.65,3.65,0,0,0-.62,2.27v.82a3.79,3.79,0,0,0,.58,2.21,1.89,1.89,0,0,0,1.63.83,2.16,2.16,0,0,0,1.43-.43,2.33,2.33,0,0,0,.67-1.48Z"/><path fill="currentColor" d="M17.72,39.74a2.3,2.3,0,0,1,1.87-.89c1.34,0,2,.76,2,2.27v4.19H20.54v-4.2a1.47,1.47,0,0,0-.32-1,1.23,1.23,0,0,0-.95-.33,1.55,1.55,0,0,0-.93.28,1.94,1.94,0,0,0-.62.74v4.52H16.64v-9h1.08Z"/><path fill="currentColor" d="M27.16,45.31a2.49,2.49,0,0,1-.15-.67,2.46,2.46,0,0,1-1.81.79,2.27,2.27,0,0,1-1.54-.53,1.74,1.74,0,0,1-.6-1.35A1.79,1.79,0,0,1,23.82,42a3.56,3.56,0,0,1,2.11-.55H27V41a1.22,1.22,0,0,0-.34-.91,1.39,1.39,0,0,0-1-.34,1.59,1.59,0,0,0-1,.3.86.86,0,0,0-.39.71H23.19a1.46,1.46,0,0,1,.34-.92,2.23,2.23,0,0,1,.91-.7,3.13,3.13,0,0,1,1.27-.26,2.5,2.5,0,0,1,1.72.55,2,2,0,0,1,.64,1.51v2.92a3.47,3.47,0,0,0,.23,1.38v.1Zm-1.8-.83a2,2,0,0,0,1-.26,1.68,1.68,0,0,0,.66-.69v-1.3h-.85c-1.33,0-2,.39-2,1.17a1,1,0,0,0,.34.8A1.28,1.28,0,0,0,25.36,44.48Z"/><path fill="currentColor" d="M30.8,39l0,.8a2.33,2.33,0,0,1,1.9-.92c1.34,0,2,.76,2,2.27v4.19H33.67v-4.2a1.42,1.42,0,0,0-.31-1,1.24,1.24,0,0,0-1-.33,1.52,1.52,0,0,0-.92.28,1.86,1.86,0,0,0-.62.74v4.52H29.77V39Z"/><path fill="currentColor" d="M37.42,39l0,.8a2.33,2.33,0,0,1,1.9-.92c1.34,0,2,.76,2,2.27v4.19H40.3v-4.2a1.47,1.47,0,0,0-.32-1,1.24,1.24,0,0,0-1-.33,1.52,1.52,0,0,0-.92.28,1.94,1.94,0,0,0-.62.74v4.52H36.39V39Z"/><path fill="currentColor" d="M45.65,45.43a2.79,2.79,0,0,1-2.1-.85,3.15,3.15,0,0,1-.81-2.27v-.2a3.8,3.8,0,0,1,.36-1.68,2.86,2.86,0,0,1,1-1.16,2.52,2.52,0,0,1,1.4-.42,2.35,2.35,0,0,1,1.92.82A3.5,3.5,0,0,1,48.12,42v.45h-4.3A2.26,2.26,0,0,0,44.37,44a1.7,1.7,0,0,0,1.33.58,2,2,0,0,0,1-.23,2.7,2.7,0,0,0,.69-.62l.67.51A2.67,2.67,0,0,1,45.65,45.43Zm-.14-5.69a1.44,1.44,0,0,0-1.1.48,2.29,2.29,0,0,0-.55,1.34H47v-.08a2.08,2.08,0,0,0-.44-1.28A1.36,1.36,0,0,0,45.51,39.74Z"/><path fill="currentColor" d="M50.55,45.31H49.47v-9h1.08Z"/><path fill="currentColor" d="M56.63,45.31H55.51V36.78h1.12Z"/><path fill="currentColor" d="M58.69,45.31V36.78H61.1a3.89,3.89,0,0,1,2,.49,3.31,3.31,0,0,1,1.32,1.4,4.66,4.66,0,0,1,.47,2.09v.54a4.6,4.6,0,0,1-.47,2.12,3.25,3.25,0,0,1-1.33,1.39,4.15,4.15,0,0,1-2,.5Zm1.12-7.61v6.69H61a2.57,2.57,0,0,0,2-.81,3.36,3.36,0,0,0,.72-2.31v-.49a3.35,3.35,0,0,0-.68-2.26,2.39,2.39,0,0,0-1.93-.82Z"/><path fill="currentColor" d="M15.24,11a3.17,3.17,0,0,1-1,2.09,3.28,3.28,0,0,1-2.24.73,3,3,0,0,1-2.42-1.08,4.34,4.34,0,0,1-.91-2.9V9a4.9,4.9,0,0,1,.42-2.09A3.18,3.18,0,0,1,10.3,5.54a3.36,3.36,0,0,1,1.8-.48,3.06,3.06,0,0,1,2.18.76,3.14,3.14,0,0,1,1,2.1H14.11a2.43,2.43,0,0,0-.64-1.48A1.91,1.91,0,0,0,12.1,6a2,2,0,0,0-1.69.8A3.62,3.62,0,0,0,9.8,9v.83a3.74,3.74,0,0,0,.58,2.21A1.87,1.87,0,0,0,12,12.9a2.17,2.17,0,0,0,1.44-.42A2.38,2.38,0,0,0,14.11,11Z"/><path fill="currentColor" d="M17.69,8.13a2.29,2.29,0,0,1,1.87-.88c1.34,0,2,.75,2,2.27v4.19H20.5V9.51a1.4,1.4,0,0,0-.31-1,1.24,1.24,0,0,0-1-.33,1.52,1.52,0,0,0-.92.28,1.79,1.79,0,0,0-.62.74v4.52H16.6v-9h1.09Z"/><path fill="currentColor" d="M27.13,13.71A2.09,2.09,0,0,1,27,13a2.41,2.41,0,0,1-1.8.78,2.2,2.2,0,0,1-1.54-.53A1.71,1.71,0,0,1,23,12a1.8,1.8,0,0,1,.75-1.54,3.52,3.52,0,0,1,2.12-.55H27v-.5a1.24,1.24,0,0,0-.34-.9,1.37,1.37,0,0,0-1-.34,1.62,1.62,0,0,0-1,.29.88.88,0,0,0-.39.71H23.16a1.45,1.45,0,0,1,.34-.91,2.16,2.16,0,0,1,.91-.7,3,3,0,0,1,1.27-.26,2.46,2.46,0,0,1,1.71.55A2,2,0,0,1,28,9.31v2.91a3.51,3.51,0,0,0,.22,1.39v.1Zm-1.8-.83a1.92,1.92,0,0,0,1-.26,1.64,1.64,0,0,0,.67-.69v-1.3h-.85c-1.33,0-2,.39-2,1.17a1,1,0,0,0,.34.79A1.33,1.33,0,0,0,25.33,12.88Z"/><path fill="currentColor" d="M30.76,7.37l0,.79a2.3,2.3,0,0,1,1.9-.91c1.34,0,2,.75,2,2.27v4.19H33.64V9.51a1.45,1.45,0,0,0-.31-1,1.27,1.27,0,0,0-1-.33,1.57,1.57,0,0,0-.93.28,2,2,0,0,0-.62.74v4.52H29.74V7.37Z"/><path fill="currentColor" d="M37.39,7.37l0,.79a2.3,2.3,0,0,1,1.9-.91c1.34,0,2,.75,2,2.27v4.19H40.26V9.51a1.45,1.45,0,0,0-.31-1,1.27,1.27,0,0,0-1-.33,1.57,1.57,0,0,0-.93.28,2,2,0,0,0-.62.74v4.52H36.36V7.37Z"/><path fill="currentColor" d="M45.61,13.82a2.79,2.79,0,0,1-2.1-.84,3.15,3.15,0,0,1-.8-2.27v-.2a3.77,3.77,0,0,1,.36-1.68,2.77,2.77,0,0,1,1-1.16,2.56,2.56,0,0,1,1.41-.42,2.39,2.39,0,0,1,1.92.81,3.53,3.53,0,0,1,.68,2.34v.45H43.79a2.21,2.21,0,0,0,.55,1.51,1.7,1.7,0,0,0,1.33.58,1.84,1.84,0,0,0,1-.24,2.29,2.29,0,0,0,.7-.62l.66.52A2.67,2.67,0,0,1,45.61,13.82Zm-.13-5.68a1.43,1.43,0,0,0-1.1.48A2.3,2.3,0,0,0,43.82,10H47V9.87a2.05,2.05,0,0,0-.45-1.28A1.35,1.35,0,0,0,45.48,8.14Z"/><path fill="currentColor" d="M50.52,13.71H49.43v-9h1.09Z"/><path fill="currentColor" d="M57.9,9.9a5.25,5.25,0,0,1-2.1-1,1.94,1.94,0,0,1-.66-1.5,2.07,2.07,0,0,1,.8-1.66A3.22,3.22,0,0,1,58,5.06a3.45,3.45,0,0,1,1.57.34,2.54,2.54,0,0,1,1.06.93,2.35,2.35,0,0,1,.38,1.31H59.92a1.55,1.55,0,0,0-.49-1.22A2,2,0,0,0,58,6a2.07,2.07,0,0,0-1.3.36,1.24,1.24,0,0,0-.46,1,1.09,1.09,0,0,0,.44.89,4.27,4.27,0,0,0,1.5.66,7,7,0,0,1,1.67.66,2.5,2.5,0,0,1,.89.84,2.16,2.16,0,0,1,.29,1.13,2,2,0,0,1-.81,1.66,3.48,3.48,0,0,1-2.16.62,4.07,4.07,0,0,1-1.64-.33,2.85,2.85,0,0,1-1.18-.93,2.28,2.28,0,0,1-.41-1.33H56a1.45,1.45,0,0,0,.57,1.22,2.4,2.4,0,0,0,1.53.45,2.2,2.2,0,0,0,1.36-.36,1.27,1.27,0,0,0,0-2A5.21,5.21,0,0,0,57.9,9.9Z"/><path fill="currentColor" d="M63.81,5.83V7.37H65V8.2H63.81v3.94a.84.84,0,0,0,.16.57.64.64,0,0,0,.54.19,2.41,2.41,0,0,0,.51-.07v.88a3.44,3.44,0,0,1-.83.11,1.31,1.31,0,0,1-1.09-.44,1.85,1.85,0,0,1-.37-1.24V8.2H61.57V7.37h1.16V5.83Z"/><path fill="currentColor" d="M70.17,13.71A2.49,2.49,0,0,1,70,13a2.41,2.41,0,0,1-1.8.78,2.2,2.2,0,0,1-1.54-.53,1.71,1.71,0,0,1-.6-1.34,1.8,1.8,0,0,1,.75-1.54A3.52,3.52,0,0,1,69,9.86h1v-.5a1.2,1.2,0,0,0-.34-.9,1.33,1.33,0,0,0-1-.34,1.62,1.62,0,0,0-1,.29.88.88,0,0,0-.39.71H66.21a1.5,1.5,0,0,1,.33-.91,2.26,2.26,0,0,1,.92-.7,3,3,0,0,1,1.27-.26,2.46,2.46,0,0,1,1.71.55,2,2,0,0,1,.65,1.51v2.91a3.51,3.51,0,0,0,.22,1.39v.1Zm-1.79-.83a1.92,1.92,0,0,0,1-.26,1.56,1.56,0,0,0,.66-.69v-1.3h-.85c-1.32,0-2,.39-2,1.17a1,1,0,0,0,.34.79A1.33,1.33,0,0,0,68.38,12.88Z"/><path fill="currentColor" d="M74.26,5.83V7.37h1.18V8.2H74.26v3.94a.84.84,0,0,0,.16.57.64.64,0,0,0,.54.19,2.41,2.41,0,0,0,.51-.07v.88a3.44,3.44,0,0,1-.83.11,1.34,1.34,0,0,1-1.1-.44,1.91,1.91,0,0,1-.37-1.24V8.2H72V7.37h1.15V5.83Z"/><path fill="currentColor" d="M80.62,13.08a2.32,2.32,0,0,1-1.86.74,1.94,1.94,0,0,1-1.54-.59,2.58,2.58,0,0,1-.54-1.74V7.37h1.09v4.09q0,1.44,1.17,1.44A1.62,1.62,0,0,0,80.59,12V7.37h1.09v6.34h-1Z"/><path fill="currentColor" d="M87,12a.8.8,0,0,0-.33-.68,3.23,3.23,0,0,0-1.15-.42,5.31,5.31,0,0,1-1.31-.42,1.77,1.77,0,0,1-.71-.59,1.32,1.32,0,0,1-.23-.8,1.67,1.67,0,0,1,.65-1.32,3,3,0,0,1,3.44,0A1.75,1.75,0,0,1,88,9.23H87a1,1,0,0,0-.38-.77,1.44,1.44,0,0,0-.95-.32,1.51,1.51,0,0,0-.93.26.8.8,0,0,0-.33.67.65.65,0,0,0,.31.59,3.62,3.62,0,0,0,1.12.38,5.8,5.8,0,0,1,1.32.44,2,2,0,0,1,.74.6,1.46,1.46,0,0,1,.25.87,1.63,1.63,0,0,1-.68,1.36,2.86,2.86,0,0,1-1.77.51,3.18,3.18,0,0,1-1.34-.27,2.21,2.21,0,0,1-.92-.75,1.81,1.81,0,0,1-.33-1.05h1.08a1.13,1.13,0,0,0,.44.87,1.7,1.7,0,0,0,1.07.32,1.73,1.73,0,0,0,1-.25A.77.77,0,0,0,87,12Z"/><path fill="currentColor" d="M306.57,11.12a3.17,3.17,0,0,1-1,2.09,3.28,3.28,0,0,1-2.24.73,3,3,0,0,1-2.42-1.08A4.34,4.34,0,0,1,300,10V9.14a4.9,4.9,0,0,1,.42-2.09,3.23,3.23,0,0,1,1.21-1.39,3.36,3.36,0,0,1,1.8-.48,3,3,0,0,1,2.18.76,3.14,3.14,0,0,1,1,2.1h-1.13a2.43,2.43,0,0,0-.64-1.48,1.91,1.91,0,0,0-1.37-.46,2,2,0,0,0-1.69.8,3.62,3.62,0,0,0-.61,2.26V10a3.74,3.74,0,0,0,.58,2.21,1.87,1.87,0,0,0,1.62.82,2.17,2.17,0,0,0,1.44-.42,2.33,2.33,0,0,0,.67-1.48Z"/><path fill="currentColor" d="M309,8.25a2.29,2.29,0,0,1,1.87-.88c1.34,0,2,.75,2,2.27v4.19h-1.08V9.63a1.45,1.45,0,0,0-.32-1,1.24,1.24,0,0,0-1-.33,1.52,1.52,0,0,0-.92.28,1.87,1.87,0,0,0-.62.74v4.52h-1.09v-9H309Z"/><path fill="currentColor" d="M318.46,13.83a2.09,2.09,0,0,1-.16-.67,2.41,2.41,0,0,1-1.8.78,2.2,2.2,0,0,1-1.54-.53,1.71,1.71,0,0,1-.6-1.34,1.8,1.8,0,0,1,.75-1.54,3.54,3.54,0,0,1,2.12-.55h1.06v-.5a1.24,1.24,0,0,0-.34-.9,1.36,1.36,0,0,0-1-.34,1.62,1.62,0,0,0-1,.29.88.88,0,0,0-.39.71h-1.09a1.45,1.45,0,0,1,.34-.91,2.23,2.23,0,0,1,.91-.7A3,3,0,0,1,317,7.37a2.5,2.5,0,0,1,1.72.55,2,2,0,0,1,.64,1.51v2.91a3.51,3.51,0,0,0,.22,1.39v.1Zm-1.8-.83a1.92,1.92,0,0,0,1-.26,1.64,1.64,0,0,0,.67-.69v-1.3h-.85c-1.33,0-2,.39-2,1.17a1,1,0,0,0,.34.79A1.33,1.33,0,0,0,316.66,13Z"/><path fill="currentColor" d="M322.1,7.49l0,.79a2.3,2.3,0,0,1,1.9-.91c1.34,0,2,.75,2,2.27v4.19H325V9.63a1.45,1.45,0,0,0-.31-1,1.27,1.27,0,0,0-1-.33,1.57,1.57,0,0,0-.93.28,2,2,0,0,0-.62.74v4.52h-1.08V7.49Z"/><path fill="currentColor" d="M328.72,7.49l0,.79a2.32,2.32,0,0,1,1.9-.91c1.34,0,2,.75,2,2.27v4.19h-1.09V9.63a1.45,1.45,0,0,0-.31-1,1.25,1.25,0,0,0-1-.33,1.52,1.52,0,0,0-.92.28,1.89,1.89,0,0,0-.63.74v4.52h-1.08V7.49Z"/><path fill="currentColor" d="M336.94,13.94a2.75,2.75,0,0,1-2.09-.84,3.15,3.15,0,0,1-.81-2.27v-.2A3.77,3.77,0,0,1,334.4,9a2.77,2.77,0,0,1,1-1.16,2.56,2.56,0,0,1,1.41-.42,2.39,2.39,0,0,1,1.92.81,3.53,3.53,0,0,1,.69,2.34V11h-4.3a2.26,2.26,0,0,0,.55,1.51,1.7,1.7,0,0,0,1.33.58,1.84,1.84,0,0,0,1-.24,2.29,2.29,0,0,0,.7-.62l.66.52A2.66,2.66,0,0,1,336.94,13.94Zm-.13-5.68a1.43,1.43,0,0,0-1.1.48,2.29,2.29,0,0,0-.55,1.34h3.17V10a2.11,2.11,0,0,0-.44-1.28A1.38,1.38,0,0,0,336.81,8.26Z"/><path fill="currentColor" d="M341.85,13.83h-1.09v-9h1.09Z"/><path fill="currentColor" d="M353,11.12a3.17,3.17,0,0,1-1,2.09,3.28,3.28,0,0,1-2.24.73,3,3,0,0,1-2.42-1.08,4.34,4.34,0,0,1-.91-2.9V9.14a4.9,4.9,0,0,1,.42-2.09,3.23,3.23,0,0,1,1.21-1.39,3.36,3.36,0,0,1,1.8-.48,3,3,0,0,1,2.18.76A3.14,3.14,0,0,1,353,8h-1.13a2.43,2.43,0,0,0-.64-1.48,1.91,1.91,0,0,0-1.37-.46,2,2,0,0,0-1.69.8,3.62,3.62,0,0,0-.61,2.26V10a3.74,3.74,0,0,0,.58,2.21,1.87,1.87,0,0,0,1.62.82,2.17,2.17,0,0,0,1.44-.42,2.33,2.33,0,0,0,.67-1.48Z"/><path fill="currentColor" d="M354.08,10.6a3.83,3.83,0,0,1,.36-1.68,2.86,2.86,0,0,1,1-1.15,2.77,2.77,0,0,1,1.49-.4,2.68,2.68,0,0,1,2.1.9,3.44,3.44,0,0,1,.8,2.38v.08a3.74,3.74,0,0,1-.36,1.66,2.61,2.61,0,0,1-1,1.14,2.77,2.77,0,0,1-1.52.41,2.66,2.66,0,0,1-2.08-.89,3.41,3.41,0,0,1-.8-2.38Zm1.09.13a2.75,2.75,0,0,0,.48,1.69,1.66,1.66,0,0,0,2.63,0,3,3,0,0,0,.48-1.81,2.69,2.69,0,0,0-.49-1.69A1.58,1.58,0,0,0,357,8.26a1.55,1.55,0,0,0-1.29.64A2.91,2.91,0,0,0,355.17,10.73Z"/><path fill="currentColor" d="M362.38,13.83H361.3v-9h1.08Z"/><path fill="currentColor" d="M363.83,10.6a3.7,3.7,0,0,1,.37-1.68,2.72,2.72,0,0,1,1-1.15,2.75,2.75,0,0,1,1.49-.4,2.66,2.66,0,0,1,2.09.9,3.4,3.4,0,0,1,.8,2.38v.08a3.88,3.88,0,0,1-.35,1.66,2.86,2.86,0,0,1-4.62.66,3.46,3.46,0,0,1-.8-2.38Zm1.09.13a2.69,2.69,0,0,0,.49,1.69,1.65,1.65,0,0,0,2.62,0,2.93,2.93,0,0,0,.49-1.81,2.7,2.7,0,0,0-.5-1.69,1.64,1.64,0,0,0-2.61,0A3,3,0,0,0,364.92,10.73Z"/><path fill="currentColor" d="M374,8.46a3.12,3.12,0,0,0-.54,0,1.41,1.41,0,0,0-1.44.91v4.5H371V7.49H372v.73a1.69,1.69,0,0,1,1.52-.85,1.19,1.19,0,0,1,.48.08Z"/><polygon class="h" points="134.74 36.31 136.74 36.31 136.74 9.52 92.23 9.52 92.23 11.52 134.74 11.52 134.74 36.31"/><polygon class="h" points="232.69 9.52 232.69 32.25 234.69 32.25 234.69 11.52 295.35 11.52 295.35 9.52 232.69 9.52"/><rect class="h" x="69.4" y="41.37" width="37.07" height="2"/><rect class="h" x="260.49" y="41.39" width="24.25" height="2"/><polygon class="h" points="234.98 79.43 142.67 79.43 142.67 68.31 140.67 68.31 140.67 79.43 84.66 79.43 84.66 81.43 141.67 81.43 142.67 81.43 236.98 81.43 236.98 68.31 234.98 68.31 234.98 79.43"/></svg>