<svg xmlns="http://www.w3.org/2000/svg" xmlns:xlink="http://www.w3.org/1999/xlink" width="480.61" height="117" viewBox="0 0 480.61 117"><defs><style>.a{fill:none;}.b{fill:#1d1d1b;}.c{fill:#0e6e31;}.d{fill:#356cb4;}.e{fill:#fe0;}.f{fill:#fff;}.g{fill:#f20618;}.h{fill:#34b44a;}.i{fill:#f4e724;}.j{clip-path:url(#a);}.k{clip-path:url(#b);}.l{clip-path:url(#c);}.m{fill:#002dff;}.p{fill:currentColor;}</style><clipPath id="a"><rect class="a" x="104.3" y="93.35" width="63.24" height="14.87"/></clipPath><clipPath id="b"><rect class="a" x="104.3" y="57.8" width="63.24" height="14.87"/></clipPath><clipPath id="c"><rect class="a" x="104.3" y="22.49" width="63.24" height="14.87"/></clipPath></defs><path class="p" d="M433.05,58.14c0,4.81-2.3,1.85-3.26,5.83s2.4,2.77-.09,6.67-3,.58-5.74,3.41.65,3.58-3.41,5.75-2.6-1-6.67.08-1.14,3.26-5.83,3.26S406,81,402.23,79.88s-2.53,2.3-6.68-.08S395,77,392.19,74.11s-3.29.5-5.79-3.47.54-3-.09-6.67-3.26-1-3.26-5.83,2.56-1.8,3.26-5.82-2.32-2.46.09-6.68,2.82-.72,5.74-3.4-.57-3.36,3.41-5.75,2.86,1,6.68-.08,1.22-3.26,5.82-3.26,1.87,2.09,5.83,3.26,2.42-2.35,6.67.08.42,3.08,3.41,5.75,3.41-1,5.74,3.4-.82,2.75.09,6.68,3.26,1,3.26,5.82"/><path class="p" d="M408.05,31.12a27,27,0,1,1-27,27,27.06,27.06,0,0,1,27-27m0-1.71a28.74,28.74,0,1,0,28.74,28.73,28.73,28.73,0,0,0-28.74-28.73Z"/><polyline class="c" points="356.34 65.16 343.29 71.22 347.62 71.22 347.62 76.35 365.06 76.35 365.06 71.22 369.39 71.22"/><rect class="d" x="337.57" y="81.64" width="37.54" height="23.89" rx="1.11"/><path d="M369.83,107.64h-27a7.2,7.2,0,0,1-7.18-7.19V86.73a7.19,7.19,0,0,1,7.18-7.19h27A7.19,7.19,0,0,1,377,86.73v13.72A7.2,7.2,0,0,1,369.83,107.64Zm-27-25.54a4.63,4.63,0,0,0-4.62,4.63v13.72a4.63,4.63,0,0,0,4.62,4.63h27a4.63,4.63,0,0,0,4.62-4.63V86.73a4.63,4.63,0,0,0-4.62-4.63Z"/><path class="c" d="M369.38,48.26h-.07a3.26,3.26,0,1,1,0-6.52h2.94A6,6,0,0,0,361.43,43h-19a2,2,0,1,0,0,4h19a6,6,0,0,0,10.83,1.28"/><rect class="d" x="337.57" y="10.25" width="37.54" height="23.8" rx="1.11"/><path d="M369.83,36.2h-27A7.19,7.19,0,0,1,335.67,29V15.29a7.19,7.19,0,0,1,7.18-7.18h27A7.19,7.19,0,0,1,377,15.29V29A7.19,7.19,0,0,1,369.83,36.2Zm-27-25.53a4.62,4.62,0,0,0-4.62,4.62V29a4.62,4.62,0,0,0,4.62,4.62h27A4.62,4.62,0,0,0,374.45,29V15.29a4.62,4.62,0,0,0-4.62-4.62Z"/><rect class="e" x="266.46" y="81.64" width="37.54" height="23.89" rx="1.11"/><rect class="e" x="266.46" y="45.93" width="37.54" height="23.89" rx="1.11"/><rect class="d" x="266.46" y="10.25" width="37.54" height="23.8" rx="1.11"/><path d="M298.72,107.64h-27a7.2,7.2,0,0,1-7.18-7.19V86.73a7.19,7.19,0,0,1,7.18-7.19h27a7.19,7.19,0,0,1,7.18,7.19v13.72A7.2,7.2,0,0,1,298.72,107.64Zm-27-25.54a4.63,4.63,0,0,0-4.62,4.63v13.72a4.63,4.63,0,0,0,4.62,4.63h27a4.63,4.63,0,0,0,4.62-4.63V86.73a4.63,4.63,0,0,0-4.62-4.63Z"/><path d="M298.72,71.92h-27a7.19,7.19,0,0,1-7.18-7.19V51a7.19,7.19,0,0,1,7.18-7.18h27A7.19,7.19,0,0,1,305.9,51V64.73A7.19,7.19,0,0,1,298.72,71.92Zm-27-25.54A4.63,4.63,0,0,0,267.12,51V64.73a4.63,4.63,0,0,0,4.62,4.63h27a4.63,4.63,0,0,0,4.62-4.63V51a4.63,4.63,0,0,0-4.62-4.63Z"/><path d="M298.72,36.2h-27A7.19,7.19,0,0,1,264.56,29V15.29a7.19,7.19,0,0,1,7.18-7.18h27a7.19,7.19,0,0,1,7.18,7.18V29A7.19,7.19,0,0,1,298.72,36.2Zm-27-25.53a4.62,4.62,0,0,0-4.62,4.62V29a4.62,4.62,0,0,0,4.62,4.62h27A4.62,4.62,0,0,0,303.34,29V15.29a4.62,4.62,0,0,0-4.62-4.62Z"/><rect class="d" x="33.74" y="81.64" width="37.54" height="23.89" rx="1.11"/><rect class="d" x="33.74" y="45.93" width="37.54" height="23.89" rx="1.11"/><rect class="e" x="33.74" y="9.56" width="37.54" height="25.19" rx="1.11"/><path d="M66,107.64H39a7.2,7.2,0,0,1-7.18-7.19V86.73A7.19,7.19,0,0,1,39,79.54H66a7.2,7.2,0,0,1,7.19,7.19v13.72A7.2,7.2,0,0,1,66,107.64ZM39,82.1a4.63,4.63,0,0,0-4.62,4.63v13.72A4.63,4.63,0,0,0,39,105.08H66a4.64,4.64,0,0,0,4.63-4.63V86.73A4.64,4.64,0,0,0,66,82.1Z"/><path d="M66,71.92H39a7.19,7.19,0,0,1-7.18-7.19V51A7.19,7.19,0,0,1,39,43.83H66A7.2,7.2,0,0,1,73.19,51V64.73A7.2,7.2,0,0,1,66,71.92ZM39,46.38A4.63,4.63,0,0,0,34.4,51V64.73A4.63,4.63,0,0,0,39,69.36H66a4.64,4.64,0,0,0,4.63-4.63V51A4.64,4.64,0,0,0,66,46.38Z"/><path d="M66,36.2H39A7.19,7.19,0,0,1,31.84,29V15.29A7.19,7.19,0,0,1,39,8.11H66a7.2,7.2,0,0,1,7.19,7.18V29A7.2,7.2,0,0,1,66,36.2ZM39,10.67a4.62,4.62,0,0,0-4.62,4.62V29A4.62,4.62,0,0,0,39,33.64H66A4.63,4.63,0,0,0,70.63,29V15.29A4.63,4.63,0,0,0,66,10.67Z"/><rect x="97.76" y="4.54" width="142.22" height="106.66" rx="5.52"/><path class="f" d="M186.39,26.4h-1.28V16.72h1.28Z"/><path class="f" d="M192.72,24.49a.9.9,0,0,0-.38-.77,3.64,3.64,0,0,0-1.31-.48,5.83,5.83,0,0,1-1.48-.48,2,2,0,0,1-.81-.66,1.56,1.56,0,0,1-.26-.92,1.86,1.86,0,0,1,.74-1.49,2.92,2.92,0,0,1,1.91-.62,3,3,0,0,1,2,.64,2,2,0,0,1,.76,1.61h-1.24a1.09,1.09,0,0,0-.43-.87,1.6,1.6,0,0,0-1.08-.36,1.68,1.68,0,0,0-1,.29.91.91,0,0,0-.37.76.73.73,0,0,0,.35.67,4.35,4.35,0,0,0,1.27.44,6.33,6.33,0,0,1,1.49.49,2.15,2.15,0,0,1,.85.69,1.69,1.69,0,0,1,.28,1,1.85,1.85,0,0,1-.77,1.54,3.26,3.26,0,0,1-2,.58,3.65,3.65,0,0,1-1.52-.3,2.5,2.5,0,0,1-1.05-.86,2,2,0,0,1-.37-1.18h1.23a1.29,1.29,0,0,0,.49,1,1.94,1.94,0,0,0,1.22.36,2,2,0,0,0,1.12-.28A.86.86,0,0,0,192.72,24.49Z"/><path class="f" d="M195.22,22.74a4.18,4.18,0,0,1,.42-1.9,3.07,3.07,0,0,1,1.15-1.31,3.23,3.23,0,0,1,1.7-.46,3,3,0,0,1,2.37,1,3.9,3.9,0,0,1,.91,2.71v.08a4.29,4.29,0,0,1-.4,1.89,3.09,3.09,0,0,1-1.15,1.3,3.19,3.19,0,0,1-1.72.46,3,3,0,0,1-2.37-1,3.89,3.89,0,0,1-.91-2.7Zm1.24.14A3.06,3.06,0,0,0,197,24.8a1.88,1.88,0,0,0,3,0,3.31,3.31,0,0,0,.55-2.05,3.1,3.1,0,0,0-.56-1.92,1.78,1.78,0,0,0-1.49-.73,1.76,1.76,0,0,0-1.47.72A3.33,3.33,0,0,0,196.46,22.88Z"/><path class="f" d="M204.65,26.4h-1.23V16.19h1.23Z"/><path class="f" d="M211.06,26.4a2.38,2.38,0,0,1-.18-.76,2.71,2.71,0,0,1-2,.89,2.54,2.54,0,0,1-1.74-.6,2,2,0,0,1-.68-1.52,2,2,0,0,1,.85-1.75,4.07,4.07,0,0,1,2.41-.62h1.19v-.57a1.38,1.38,0,0,0-.38-1,1.54,1.54,0,0,0-1.14-.39,1.78,1.78,0,0,0-1.1.34,1,1,0,0,0-.45.8h-1.23a1.67,1.67,0,0,1,.38-1,2.58,2.58,0,0,1,1-.79,3.44,3.44,0,0,1,1.44-.3,2.82,2.82,0,0,1,2,.63,2.23,2.23,0,0,1,.73,1.71v3.31a4.19,4.19,0,0,0,.25,1.57v.11ZM209,25.46a2.14,2.14,0,0,0,1.1-.3,1.79,1.79,0,0,0,.75-.77V22.91h-1c-1.51,0-2.26.44-2.26,1.32a1.15,1.15,0,0,0,.38.91A1.53,1.53,0,0,0,209,25.46Z"/><path class="f" d="M215.69,17.47v1.74H217v.95h-1.34v4.46a1,1,0,0,0,.18.65.73.73,0,0,0,.61.22,3.13,3.13,0,0,0,.58-.08v1a3.43,3.43,0,0,1-.94.13,1.5,1.5,0,0,1-1.24-.5,2.12,2.12,0,0,1-.42-1.41V20.16h-1.31v-.95h1.31V17.47Z"/><path class="f" d="M221.45,26.53a3.15,3.15,0,0,1-2.38-1,3.56,3.56,0,0,1-.92-2.57v-.22a4.32,4.32,0,0,1,.41-1.91,3.29,3.29,0,0,1,1.15-1.32,2.85,2.85,0,0,1,1.59-.48,2.69,2.69,0,0,1,2.18.93,4,4,0,0,1,.78,2.64v.52h-4.88a2.52,2.52,0,0,0,.63,1.71,1.93,1.93,0,0,0,1.51.66,2.11,2.11,0,0,0,1.1-.27,2.63,2.63,0,0,0,.79-.7l.75.58A3,3,0,0,1,221.45,26.53Zm-.15-6.44a1.64,1.64,0,0,0-1.25.54,2.59,2.59,0,0,0-.63,1.52H223v-.1a2.38,2.38,0,0,0-.51-1.45A1.55,1.55,0,0,0,221.3,20.09Z"/><path class="e" d="M235.09,9.25l.09,26-61.63.09-.09-26.1h61.63m.09-3.4H173.46a3.31,3.31,0,0,0-3.31,3.31V35.35a3.32,3.32,0,0,0,3.31,3.32h61.72a3.32,3.32,0,0,0,3.32-3.32V9.16a3.32,3.32,0,0,0-3.32-3.31Z"/><rect class="e" x="172.8" y="44.16" width="63.41" height="27.76"/><path class="b" d="M195.64,52.13H194V55H193V47.9h2.35a2.8,2.8,0,0,1,1.85.54,2,2,0,0,1,.65,1.6,1.9,1.9,0,0,1-.36,1.15,2.11,2.11,0,0,1-1,.74l1.67,3V55h-1ZM194,51.36h1.44a1.61,1.61,0,0,0,1.11-.36,1.21,1.21,0,0,0,.42-1,1.27,1.27,0,0,0-.4-1,1.72,1.72,0,0,0-1.13-.36H194Z"/><path class="b" d="M201.24,55.1a2.28,2.28,0,0,1-1.74-.7,2.62,2.62,0,0,1-.68-1.89v-.16a3.18,3.18,0,0,1,.3-1.41,2.31,2.31,0,0,1,.84-1,2.06,2.06,0,0,1,1.17-.35,2,2,0,0,1,1.6.68,2.93,2.93,0,0,1,.57,1.94v.37h-3.57a1.89,1.89,0,0,0,.45,1.27,1.43,1.43,0,0,0,1.11.48,1.57,1.57,0,0,0,.81-.2,1.91,1.91,0,0,0,.58-.52l.56.43A2.24,2.24,0,0,1,201.24,55.1Zm-.11-4.73a1.21,1.21,0,0,0-.92.4,2,2,0,0,0-.46,1.11h2.65v-.07a1.72,1.72,0,0,0-.37-1.06A1.11,1.11,0,0,0,201.13,50.37Z"/><path class="b" d="M208.81,52.42a3.15,3.15,0,0,1-.55,1.95,1.77,1.77,0,0,1-1.49.73,1.93,1.93,0,0,1-1.52-.61V57h-.9V49.72h.82l.05.59a1.85,1.85,0,0,1,1.53-.68,1.82,1.82,0,0,1,1.51.71,3.21,3.21,0,0,1,.55,2Zm-.9-.1a2.38,2.38,0,0,0-.38-1.41,1.25,1.25,0,0,0-1.05-.52,1.35,1.35,0,0,0-1.23.73v2.52a1.33,1.33,0,0,0,1.24.73,1.19,1.19,0,0,0,1-.52A2.5,2.5,0,0,0,207.91,52.32Z"/><path class="b" d="M210.94,55H210v-7.5h.9Z"/><path class="b" d="M214.11,53.68l1.24-4h1l-2.12,6.1c-.33.88-.85,1.32-1.57,1.32h-.17l-.34-.07v-.73l.25,0a1.15,1.15,0,0,0,.71-.19,1.33,1.33,0,0,0,.42-.67l.2-.54-1.88-5.23h1Z"/><path class="b" d="M191.51,67h-.91V61l-1.82.67v-.82l2.58-1h.15Z"/><path class="b" d="M199,63.84A4.5,4.5,0,0,1,197.2,63a1.67,1.67,0,0,1-.55-1.25,1.75,1.75,0,0,1,.67-1.39,2.66,2.66,0,0,1,1.75-.55,2.93,2.93,0,0,1,1.31.28,2.1,2.1,0,0,1,.88.78,2,2,0,0,1,.32,1.09h-.94a1.29,1.29,0,0,0-.41-1,1.67,1.67,0,0,0-1.16-.37,1.73,1.73,0,0,0-1.08.3,1,1,0,0,0-.39.85.91.91,0,0,0,.37.74,3.62,3.62,0,0,0,1.25.55,5.56,5.56,0,0,1,1.39.55,2.09,2.09,0,0,1,.74.7,1.78,1.78,0,0,1,.24.94,1.67,1.67,0,0,1-.67,1.39,2.91,2.91,0,0,1-1.8.51,3.29,3.29,0,0,1-1.37-.28,2.3,2.3,0,0,1-1-.76,1.89,1.89,0,0,1-.34-1.11h.94a1.19,1.19,0,0,0,.48,1,2,2,0,0,0,1.27.38,1.89,1.89,0,0,0,1.14-.3,1,1,0,0,0,.39-.83,1,1,0,0,0-.36-.81A4.21,4.21,0,0,0,199,63.84Z"/><path class="b" d="M203.56,62.36a1.91,1.91,0,0,1,1.56-.73c1.12,0,1.68.63,1.69,1.89V67h-.9v-3.5a1.19,1.19,0,0,0-.27-.84,1,1,0,0,0-.79-.28,1.31,1.31,0,0,0-.78.24,1.52,1.52,0,0,0-.51.61V67h-.91v-7.5h.91Z"/><path class="b" d="M207.92,64.32a3,3,0,0,1,.31-1.4,2.27,2.27,0,0,1,.85-1,2.32,2.32,0,0,1,1.24-.33,2.27,2.27,0,0,1,1.75.74,2.9,2.9,0,0,1,.66,2v.06a3.26,3.26,0,0,1-.29,1.39,2.18,2.18,0,0,1-.85,1,2.29,2.29,0,0,1-1.26.34,2.2,2.2,0,0,1-1.74-.74,2.84,2.84,0,0,1-.67-2Zm.91.1a2.3,2.3,0,0,0,.41,1.42,1.31,1.31,0,0,0,1.09.53,1.29,1.29,0,0,0,1.09-.54,2.49,2.49,0,0,0,.41-1.51,2.29,2.29,0,0,0-.41-1.41,1.32,1.32,0,0,0-1.1-.54,1.3,1.3,0,0,0-1.08.53A2.48,2.48,0,0,0,208.83,64.42Z"/><path class="b" d="M218.54,65.76l1-4h.9L218.92,67h-.73l-1.28-4-1.25,4h-.74l-1.53-5.29h.9l1,4,1.23-4h.73Z"/><path class="e" d="M235.09,44.86l.09,26L173.55,71l-.09-26.1h61.63m.09-3.4H173.46a3.32,3.32,0,0,0-3.31,3.32V71a3.32,3.32,0,0,0,3.31,3.32h61.72A3.32,3.32,0,0,0,238.5,71V44.78a3.32,3.32,0,0,0-3.32-3.32Z"/><rect class="e" x="170.15" y="77.07" width="34.18" height="32.82" rx="3.97"/><path d="M175.21,96.26h3.3v1H174V90h1.26Z"/><path d="M179.36,90.47a.72.72,0,0,1,1.19-.47.66.66,0,0,1,.18.47.61.61,0,0,1-.18.45.78.78,0,0,1-1,0A.64.64,0,0,1,179.36,90.47Zm1.28,6.79h-1.21V91.87h1.21Z"/><path d="M185,95.8a.56.56,0,0,0-.27-.5,2.77,2.77,0,0,0-.89-.29,5,5,0,0,1-1-.33,1.39,1.39,0,0,1-.9-1.28,1.43,1.43,0,0,1,.58-1.16,2.36,2.36,0,0,1,1.5-.47,2.4,2.4,0,0,1,1.56.48,1.51,1.51,0,0,1,.6,1.24h-1.21a.75.75,0,0,0-.26-.58,1,1,0,0,0-.69-.23,1.09,1.09,0,0,0-.65.18.57.57,0,0,0-.25.49.49.49,0,0,0,.23.44,3.2,3.2,0,0,0,.95.31,4.57,4.57,0,0,1,1.12.37,1.64,1.64,0,0,1,.6.52,1.36,1.36,0,0,1,.2.74,1.39,1.39,0,0,1-.61,1.18,2.55,2.55,0,0,1-1.58.45,2.8,2.8,0,0,1-1.18-.24,2,2,0,0,1-.8-.65,1.52,1.52,0,0,1-.29-.91h1.17a.85.85,0,0,0,.33.66,1.22,1.22,0,0,0,.79.24,1.25,1.25,0,0,0,.73-.19A.57.57,0,0,0,185,95.8Z"/><path d="M188.75,90.56v1.31h.95v.9h-.95v3a.66.66,0,0,0,.12.44.58.58,0,0,0,.44.14,2,2,0,0,0,.42,0v.94a3.2,3.2,0,0,1-.79.11c-.94,0-1.4-.51-1.4-1.54v-3h-.89v-.9h.89V90.56Z"/><path d="M193,97.36a2.49,2.49,0,0,1-1.86-.72,2.63,2.63,0,0,1-.72-1.93v-.15a3.25,3.25,0,0,1,.31-1.45,2.42,2.42,0,0,1,.88-1,2.33,2.33,0,0,1,1.25-.35,2.1,2.1,0,0,1,1.7.7,2.93,2.93,0,0,1,.61,2V95h-3.53a1.67,1.67,0,0,0,.45,1.06,1.33,1.33,0,0,0,1,.39,1.65,1.65,0,0,0,1.36-.68l.65.63a2.23,2.23,0,0,1-.86.75A2.84,2.84,0,0,1,193,97.36Zm-.14-4.62a1.05,1.05,0,0,0-.81.35,1.87,1.87,0,0,0-.39,1H194V94a1.51,1.51,0,0,0-.32-.92A1.05,1.05,0,0,0,192.86,92.74Z"/><path d="M197.23,91.87l0,.62a2,2,0,0,1,1.57-.72c1.13,0,1.7.64,1.72,1.93v3.56h-1.21V93.77a1.15,1.15,0,0,0-.22-.76.92.92,0,0,0-.73-.25,1.16,1.16,0,0,0-1.09.66v3.84h-1.21V91.87Z"/><path class="f" d="M218.94,94.9a2.6,2.6,0,0,1-.86,1.81,2.89,2.89,0,0,1-2,.65,2.83,2.83,0,0,1-1.53-.41,2.7,2.7,0,0,1-1-1.17,4.18,4.18,0,0,1-.38-1.76v-.67a4.12,4.12,0,0,1,.37-1.81,2.69,2.69,0,0,1,1-1.21,2.93,2.93,0,0,1,1.57-.43,2.8,2.8,0,0,1,1.94.66,2.69,2.69,0,0,1,.85,1.84h-1.26a1.82,1.82,0,0,0-.45-1.13,1.52,1.52,0,0,0-1.08-.35,1.46,1.46,0,0,0-1.26.6,3,3,0,0,0-.45,1.77v.64a3.21,3.21,0,0,0,.42,1.8,1.4,1.4,0,0,0,1.23.62,1.65,1.65,0,0,0,1.12-.34,1.69,1.69,0,0,0,.47-1.11Z"/><path class="f" d="M223.17,97.26a2,2,0,0,1-.14-.5,1.87,1.87,0,0,1-1.41.6,1.89,1.89,0,0,1-1.33-.46,1.49,1.49,0,0,1-.51-1.15,1.53,1.53,0,0,1,.64-1.32,3.09,3.09,0,0,1,1.83-.46H223v-.36a.84.84,0,0,0-.94-.92,1,1,0,0,0-.68.21.63.63,0,0,0-.27.52h-1.21a1.35,1.35,0,0,1,.3-.83,2,2,0,0,1,.8-.6,2.71,2.71,0,0,1,1.13-.22,2.26,2.26,0,0,1,1.51.48,1.69,1.69,0,0,1,.57,1.33V96a2.7,2.7,0,0,0,.21,1.16v.08Zm-1.33-.87a1.46,1.46,0,0,0,.68-.17,1.18,1.18,0,0,0,.47-.47v-1h-.65a1.73,1.73,0,0,0-1,.24.73.73,0,0,0-.34.66.7.7,0,0,0,.23.55A.9.9,0,0,0,221.84,96.39Z"/><path class="f" d="M226.76,97.26h-1.21V89.61h1.21Z"/><path class="f" d="M229.37,97.26h-1.21V89.61h1.21Z"/><path class="g" d="M235.09,80.48l.09,26-27.46.09-.08-26.1h27.45m.09-3.41H207.64a3.32,3.32,0,0,0-3.32,3.32v26.19a3.32,3.32,0,0,0,3.32,3.31h27.54a3.32,3.32,0,0,0,3.32-3.31V80.39a3.32,3.32,0,0,0-3.32-3.32Z"/><rect class="h" x="127.75" y="84.89" width="22.1" height="5.16"/><rect class="f" x="149.85" y="84.89" width="1.56" height="5.16"/><rect class="e" x="99.23" y="77.06" width="68.35" height="5.1"/><path class="i" d="M106.27,87h.61a1.37,1.37,0,0,0,.91-.31,1,1,0,0,0,.33-.8A1,1,0,0,0,107,84.73a1.17,1.17,0,0,0-.84.3,1.05,1.05,0,0,0-.31.8H105a1.62,1.62,0,0,1,.56-1.27,2,2,0,0,1,1.41-.5,2,2,0,0,1,1.43.48,1.73,1.73,0,0,1,.51,1.33,1.4,1.4,0,0,1-.27.81,1.62,1.62,0,0,1-.74.59,1.48,1.48,0,0,1,1.11,1.5,1.75,1.75,0,0,1-.56,1.37,2.12,2.12,0,0,1-1.47.51,2.16,2.16,0,0,1-1.47-.49,1.63,1.63,0,0,1-.57-1.29h.82a1,1,0,0,0,.33.81,1.28,1.28,0,0,0,.89.3,1.25,1.25,0,0,0,.9-.3,1.19,1.19,0,0,0,.31-.89,1.08,1.08,0,0,0-.34-.86,1.52,1.52,0,0,0-1-.31h-.61Z"/><g class="j"><path class="f" d="M107.89,103.72h4.59v1h-5.87V95.09h1.28Z"/><path class="f" d="M113.75,95.67a.76.76,0,0,1,.18-.51.67.67,0,0,1,.54-.21.71.71,0,0,1,.55.21.76.76,0,0,1,.18.51.66.66,0,0,1-.73.69.67.67,0,0,1-.54-.2A.71.71,0,0,1,113.75,95.67Zm1.33,9.09h-1.23V97.57h1.23Z"/><path class="f" d="M116.75,101.11a4.25,4.25,0,0,1,.78-2.68,2.68,2.68,0,0,1,4.11-.06l.06-.8h1.13v7a2.92,2.92,0,0,1-.83,2.2,3,3,0,0,1-2.22.81,3.62,3.62,0,0,1-1.53-.34,2.58,2.58,0,0,1-1.13-.91l.64-.73a2.39,2.39,0,0,0,1.93,1,1.92,1.92,0,0,0,1.4-.5,2,2,0,0,0,.5-1.42v-.62a2.54,2.54,0,0,1-2,.85,2.45,2.45,0,0,1-2-1A4.45,4.45,0,0,1,116.75,101.11Zm1.24.14a3.16,3.16,0,0,0,.5,1.91,1.61,1.61,0,0,0,1.39.69,1.8,1.8,0,0,0,1.71-1V99.51a1.83,1.83,0,0,0-1.69-1,1.66,1.66,0,0,0-1.41.7A3.59,3.59,0,0,0,118,101.25Z"/><path class="f" d="M125.91,98.44a2.62,2.62,0,0,1,2.13-1c1.52,0,2.28.86,2.3,2.57v4.75h-1.23V100a1.63,1.63,0,0,0-.36-1.15,1.4,1.4,0,0,0-1.08-.38,1.79,1.79,0,0,0-1,.32,2.08,2.08,0,0,0-.71.84v5.12h-1.23V94.56h1.23Z"/><path class="f" d="M133.85,95.83v1.74h1.34v1h-1.34V103a1,1,0,0,0,.18.65.76.76,0,0,0,.61.21,2.46,2.46,0,0,0,.58-.08v1a3.87,3.87,0,0,1-.94.13,1.53,1.53,0,0,1-1.24-.5,2.13,2.13,0,0,1-.42-1.42V98.52h-1.31v-1h1.31V95.83Z"/></g><rect class="h" x="127.75" y="49.33" width="22.1" height="5.16"/><rect class="f" x="149.85" y="49.33" width="1.56" height="5.16"/><rect class="e" x="99.23" y="41.51" width="68.35" height="5.1"/><path class="i" d="M109.29,55h-4.21v-.59L107.3,52A4.67,4.67,0,0,0,108,51a1.44,1.44,0,0,0,.19-.72,1.18,1.18,0,0,0-.3-.83,1.1,1.1,0,0,0-.81-.32,1.28,1.28,0,0,0-1,.35,1.34,1.34,0,0,0-.34,1H105a1.88,1.88,0,0,1,.57-1.43,2.1,2.1,0,0,1,1.53-.55,2.05,2.05,0,0,1,1.41.47,1.59,1.59,0,0,1,.52,1.25,3.68,3.68,0,0,1-1.21,2.26l-1.72,1.86h3.23Z"/><g class="k"><path class="f" d="M109.46,64.89a6,6,0,0,1-2.39-1.16,2.19,2.19,0,0,1-.75-1.69,2.35,2.35,0,0,1,.92-1.9,3.67,3.67,0,0,1,2.37-.74,4,4,0,0,1,1.78.38,2.93,2.93,0,0,1,1.21,1.07,2.66,2.66,0,0,1,.43,1.48h-1.28a1.79,1.79,0,0,0-.56-1.39,2.76,2.76,0,0,0-3-.08,1.39,1.39,0,0,0-.53,1.15,1.25,1.25,0,0,0,.5,1,4.77,4.77,0,0,0,1.71.75,8,8,0,0,1,1.89.75,2.84,2.84,0,0,1,1,1,2.41,2.41,0,0,1,.33,1.28,2.26,2.26,0,0,1-.92,1.88,3.86,3.86,0,0,1-2.45.71,4.62,4.62,0,0,1-1.86-.38,3.08,3.08,0,0,1-1.33-1A2.49,2.49,0,0,1,106,66.4h1.28a1.68,1.68,0,0,0,.65,1.39,2.72,2.72,0,0,0,1.73.51,2.55,2.55,0,0,0,1.55-.41,1.35,1.35,0,0,0,.54-1.13,1.33,1.33,0,0,0-.5-1.1A5.92,5.92,0,0,0,109.46,64.89Z"/><path class="f" d="M114.17,65.55a4.25,4.25,0,0,1,.41-1.91,3.12,3.12,0,0,1,1.16-1.3,3.19,3.19,0,0,1,1.69-.46,3,3,0,0,1,2.38,1,3.94,3.94,0,0,1,.9,2.71v.08a4.29,4.29,0,0,1-.4,1.89,3.09,3.09,0,0,1-1.15,1.3,3.19,3.19,0,0,1-1.72.46,3,3,0,0,1-2.37-1,3.89,3.89,0,0,1-.9-2.69Zm1.23.14a3.06,3.06,0,0,0,.56,1.92,1.87,1.87,0,0,0,3,0,3.33,3.33,0,0,0,.55-2,3,3,0,0,0-.56-1.92,1.86,1.86,0,0,0-3,0A3.33,3.33,0,0,0,115.4,65.69Z"/><path class="f" d="M126.69,68.5a2.59,2.59,0,0,1-2.1.84,2.21,2.21,0,0,1-1.75-.67,2.85,2.85,0,0,1-.61-2V62h1.23v4.64c0,1.09.44,1.64,1.33,1.64a1.83,1.83,0,0,0,1.87-1V62h1.23v7.19h-1.17Z"/><path class="f" d="M130.92,62l0,.9a2.63,2.63,0,0,1,2.16-1c1.52,0,2.28.86,2.3,2.58v4.75h-1.23V64.45a1.7,1.7,0,0,0-.36-1.15,1.41,1.41,0,0,0-1.09-.37,1.76,1.76,0,0,0-1.05.32,2.18,2.18,0,0,0-.7.83v5.13h-1.23V62Z"/><path class="f" d="M137,65.55a4.17,4.17,0,0,1,.79-2.66,2.66,2.66,0,0,1,4.05-.14V59H143V69.21h-1.13l-.06-.77a2.51,2.51,0,0,1-2,.9,2.45,2.45,0,0,1-2-1,4.24,4.24,0,0,1-.79-2.67Zm1.23.14a3.17,3.17,0,0,0,.51,1.92,1.62,1.62,0,0,0,1.39.69,1.8,1.8,0,0,0,1.71-1V63.94a1.81,1.81,0,0,0-1.69-1,1.62,1.62,0,0,0-1.41.7A3.46,3.46,0,0,0,138.2,65.69Z"/></g><rect class="h" x="127.75" y="14.03" width="22.1" height="5.16"/><rect class="f" x="149.85" y="14.03" width="1.56" height="5.16"/><rect class="e" x="99.23" y="6.2" width="68.35" height="5.1"/><path class="i" d="M107.76,19.7h-.82V14.27l-1.64.6v-.74l2.33-.88h.13Z"/><g class="l"><path class="f" d="M109.46,29.59a6,6,0,0,1-2.39-1.16,2.21,2.21,0,0,1-.75-1.7,2.35,2.35,0,0,1,.92-1.89,3.61,3.61,0,0,1,2.37-.74,3.91,3.91,0,0,1,1.78.38,3,3,0,0,1,1.21,1.06A2.72,2.72,0,0,1,113,27h-1.28a1.79,1.79,0,0,0-.56-1.39,2.76,2.76,0,0,0-3-.08,1.38,1.38,0,0,0-.53,1.15,1.26,1.26,0,0,0,.5,1,5.15,5.15,0,0,0,1.71.75,8,8,0,0,1,1.89.75,2.9,2.9,0,0,1,1,.95,2.45,2.45,0,0,1,.33,1.29,2.26,2.26,0,0,1-.92,1.88,3.92,3.92,0,0,1-2.45.71,4.62,4.62,0,0,1-1.86-.38,3.15,3.15,0,0,1-1.33-1A2.51,2.51,0,0,1,106,31.1h1.28a1.68,1.68,0,0,0,.65,1.39,2.72,2.72,0,0,0,1.73.51,2.49,2.49,0,0,0,1.55-.42,1.45,1.45,0,0,0,0-2.22A5.68,5.68,0,0,0,109.46,29.59Z"/><path class="f" d="M115.72,27.58a2.65,2.65,0,0,1,2.13-1c1.52,0,2.29.86,2.3,2.57v4.76h-1.23V29.15a1.63,1.63,0,0,0-.36-1.15,1.4,1.4,0,0,0-1.08-.38,1.79,1.79,0,0,0-1,.32,2.15,2.15,0,0,0-.71.84v5.13h-1.23V23.7h1.23Z"/><path class="f" d="M121.66,30.24a4.21,4.21,0,0,1,.42-1.9,3.12,3.12,0,0,1,1.16-1.3,3.08,3.08,0,0,1,1.69-.46,3,3,0,0,1,2.37,1,3.89,3.89,0,0,1,.91,2.7v.09a4.22,4.22,0,0,1-.4,1.88,3,3,0,0,1-1.15,1.3,3.19,3.19,0,0,1-1.72.47,3,3,0,0,1-2.37-1,3.91,3.91,0,0,1-.91-2.69Zm1.24.15a3.13,3.13,0,0,0,.55,1.92,1.8,1.8,0,0,0,1.49.72,1.76,1.76,0,0,0,1.49-.73,3.34,3.34,0,0,0,.55-2.06,3.05,3.05,0,0,0-.56-1.91,1.78,1.78,0,0,0-1.49-.74,1.75,1.75,0,0,0-1.47.73A3.33,3.33,0,0,0,122.9,30.39Z"/><path class="f" d="M136.12,32.21l1.38-5.5h1.23l-2.09,7.2h-1l-1.75-5.45-1.7,5.45h-1l-2.09-7.2h1.22l1.42,5.39,1.67-5.39h1Z"/></g><rect class="m" x="167.59" y="5.82" width="2.56" height="104.1"/><rect class="m" x="99.04" y="38.71" width="139.66" height="2.56"/><rect class="m" x="99.04" y="74.45" width="139.66" height="2.56"/><path d="M233.93,112.48H103.81a7.33,7.33,0,0,1-7.33-7.32V10.58a7.34,7.34,0,0,1,7.33-7.32H233.93a7.34,7.34,0,0,1,7.33,7.32v94.58A7.33,7.33,0,0,1,233.93,112.48ZM103.81,5.82A4.77,4.77,0,0,0,99,10.58v94.58a4.77,4.77,0,0,0,4.77,4.76H233.93a4.77,4.77,0,0,0,4.77-4.76V10.58a4.77,4.77,0,0,0-4.77-4.76Z"/></svg>