<svg id="Ebene_1" data-name="Ebene 1" xmlns="http://www.w3.org/2000/svg" xmlns:xlink="http://www.w3.org/1999/xlink" viewBox="0 0 237.6 67.83"><defs><style>.cls-1{fill:none;}.cls-2{clip-path:url(#clip-path);}.cls-3{clip-path:url(#clip-path-2);}.cls-4{fill:#202020;}.cls-5{fill:#203b90;}.cls-6{fill:#dd0b15;}.cls-7{fill:#43ad4c;}.cls-8{fill:#f4e724;}.cls-12,.cls-9{font-size:5px;}.cls-11,.cls-14,.cls-9{fill:#fff;}.cls-11,.cls-12,.cls-9{font-family:Roboto-Bold, Roboto;}.cls-11,.cls-12,.cls-16,.cls-20,.cls-9{font-weight:700;}.cls-10{fill:#d52426;}.cls-11{font-size:7px;}.cls-12,.cls-13{fill:#f2e626;}.cls-15,.cls-16,.cls-17,.cls-20,.cls-21{fill:#1d1d1b;}.cls-16,.cls-17{font-size:10.94px;}.cls-16,.cls-20{font-family:Arial-BoldMT, Arial;}.cls-17,.cls-21{font-family:ArialMT, Arial;}.cls-18{clip-path:url(#clip-path-6);}.cls-19{clip-path:url(#clip-path-7);}.cls-20,.cls-21{font-size:10.94px;}</style><clipPath id="clip-path"><rect class="cls-1" x="30.13" y="6.69" width="69.31" height="52"/></clipPath><clipPath id="clip-path-2"><rect class="cls-1" x="30.13" y="6.7" width="69.31" height="52"/></clipPath><clipPath id="clip-path-6"><rect class="cls-1" x="130.53" y="6.69" width="69.31" height="52"/></clipPath><clipPath id="clip-path-7"><rect class="cls-1" x="130.53" y="6.7" width="69.31" height="52"/></clipPath></defs><title>mcx_functions_cue-rcv_hold_go</title><g id="MCX_Display-Functions-Cue_Mode-Receive_Hold"><g class="cls-2"><g class="cls-3"><path class="cls-4" d="M33,7.19a2.56,2.56,0,0,0-2.55,2.55V55.65A2.56,2.56,0,0,0,33,58.2H96.54a2.55,2.55,0,0,0,2.55-2.55V9.74a2.55,2.55,0,0,0-2.55-2.55"/><rect class="cls-5" x="30.63" y="23.69" width="68.29" height="1"/><rect class="cls-5" x="30.63" y="40.69" width="68.29" height="1"/><rect class="cls-5" x="64.27" y="7.19" width="1" height="51"/><path class="cls-6" d="M97.41,41.69H82.84a1,1,0,0,0-1,1v14a1,1,0,0,0,1,1H95.41c2.37,0,3-1.25,3-3v-12a1,1,0,0,0-1-1M97,55.33a1,1,0,0,1-1,1H84.23a1,1,0,0,1-1-1V44.06a1,1,0,0,1,1-1H96a1,1,0,0,1,1,1Z"/><path class="cls-7" d="M97.42,24.69H66.27a1,1,0,0,0-1,1v14a1,1,0,0,0,1,1H97.42a1,1,0,0,0,1-1v-14a1,1,0,0,0-1-1M67.66,39.33a1,1,0,0,1-1-1V27.06a1,1,0,0,1,1-1H96a1,1,0,0,1,1,1V38.33a1,1,0,0,1-1,1Z"/><path class="cls-8" d="M80.84,41.65H66.27a1,1,0,0,0-1,1v14a1,1,0,0,0,1,1H80.84a1,1,0,0,0,1-1v-14a1,1,0,0,0-1-1M67.66,56.29a1,1,0,0,1-1-1V44a1,1,0,0,1,1-1H79.43a1,1,0,0,1,1,1V55.29a1,1,0,0,1-1,1Z"/><rect class="cls-7" x="66.13" y="25.63" width="31.31" height="13.7"/></g><text class="cls-9" transform="translate(66.69 51.66)">Listen</text><text class="cls-9" transform="translate(70.37 34.2)">Direct GO</text><g class="cls-3"><path class="cls-10" d="M97.42,7.73H66.27a1,1,0,0,0-1,1v14a1,1,0,0,0,1,1H97.42a1,1,0,0,0,1-1v-14a1,1,0,0,0-1-1M67.66,22.37a1,1,0,0,1-1-1V10.1a1,1,0,0,1,1-1H96a1,1,0,0,1,1,1V21.37a1,1,0,0,1-1,1Z"/></g><text class="cls-9" transform="translate(69.16 17.1)">Cue Cancel</text><text class="cls-9" transform="translate(85.67 51.66)">Call</text><text class="cls-11" transform="translate(32.67 37.4)">Switcher</text><text class="cls-11" transform="translate(32.67 54.58)">User 12</text><text class="cls-12" transform="translate(32.67 29.24)">ch 14</text><text class="cls-12" transform="translate(32.67 46.25)">ch 15</text><rect class="cls-13" x="47.36" y="25.89" width="8.42" height="2.66"/><rect class="cls-14" x="55.78" y="25.89" width="0.6" height="2.66"/><text class="cls-11" transform="translate(32.67 20.87)">Director</text><g class="cls-2"><text class="cls-12" transform="translate(32.67 12.71)">ch 13</text></g><rect class="cls-13" x="47.36" y="9.36" width="8.42" height="2.66"/><rect class="cls-14" x="55.78" y="9.36" width="0.6" height="2.66"/><rect class="cls-13" x="47.36" y="42.73" width="8.42" height="2.66"/><rect class="cls-14" x="55.78" y="42.73" width="0.6" height="2.66"/><g class="cls-3"><path class="cls-15" d="M95.92,58.69H33.63a3.5,3.5,0,0,1-3.5-3.5v-45a3.5,3.5,0,0,1,3.5-3.5H95.92a3.5,3.5,0,0,1,3.5,3.5v45a3.5,3.5,0,0,1-3.5,3.5m-62.29-51a2.51,2.51,0,0,0-2.5,2.5v45a2.5,2.5,0,0,0,2.5,2.5H95.92a2.51,2.51,0,0,0,2.5-2.5v-45a2.51,2.51,0,0,0-2.5-2.5Z"/><rect class="cls-10" x="32.27" y="11.19" width="65.01" height="41.65"/><path class="cls-14" d="M96.78,52.35h-64V11.7h64Zm1-41.66h-66V53.35h66Z"/></g><text class="cls-16" transform="translate(49.31 28.28)">HOLD</text><text class="cls-17" transform="translate(38.97 42.22)">Username</text></g></g><g id="MCX_Display-Functions-Cue_Mode-Receive_Go"><g class="cls-18"><g class="cls-19"><path class="cls-4" d="M133.51,7.19A2.56,2.56,0,0,0,131,9.74V55.65a2.56,2.56,0,0,0,2.55,2.55h63.54a2.55,2.55,0,0,0,2.55-2.55V9.74a2.55,2.55,0,0,0-2.55-2.55"/><rect class="cls-5" x="131.14" y="23.69" width="68.29" height="1"/><rect class="cls-5" x="131.14" y="40.69" width="68.29" height="1"/><rect class="cls-5" x="164.78" y="7.19" width="1" height="51"/><path class="cls-6" d="M197.93,41.69H183.36a1,1,0,0,0-1,1v14a1,1,0,0,0,1,1h12.57c2.36,0,3-1.25,3-3v-12a1,1,0,0,0-1-1m-.42,13.64a1,1,0,0,1-1,1H184.74a1,1,0,0,1-1-1V44.06a1,1,0,0,1,1-1h11.77a1,1,0,0,1,1,1Z"/><path class="cls-7" d="M197.93,24.69H166.78a1,1,0,0,0-1,1v14a1,1,0,0,0,1,1h31.15a1,1,0,0,0,1-1v-14a1,1,0,0,0-1-1M168.17,39.33a1,1,0,0,1-1-1V27.06a1,1,0,0,1,1-1h28.34a1,1,0,0,1,1,1V38.33a1,1,0,0,1-1,1Z"/><path class="cls-8" d="M181.35,41.65H166.78a1,1,0,0,0-1,1v14a1,1,0,0,0,1,1h14.57a1,1,0,0,0,1-1v-14a1,1,0,0,0-1-1M168.17,56.29a1,1,0,0,1-1-1V44a1,1,0,0,1,1-1h11.77a1,1,0,0,1,1,1V55.29a1,1,0,0,1-1,1Z"/><rect class="cls-7" x="166.64" y="25.63" width="31.31" height="13.7"/></g><text class="cls-9" transform="translate(167.2 51.66)">Listen</text><text class="cls-9" transform="translate(170.88 34.2)">Direct GO</text><g class="cls-19"><path class="cls-10" d="M197.93,7.73H166.78a1,1,0,0,0-1,1v14a1,1,0,0,0,1,1h31.15a1,1,0,0,0,1-1v-14a1,1,0,0,0-1-1M168.17,22.37a1,1,0,0,1-1-1V10.1a1,1,0,0,1,1-1h28.34a1,1,0,0,1,1,1V21.37a1,1,0,0,1-1,1Z"/></g><text class="cls-9" transform="translate(169.67 17.1)">Cue Cancel</text><text class="cls-9" transform="translate(186.18 51.66)">Call</text><text class="cls-11" transform="translate(133.18 37.4)">Switcher</text><text class="cls-11" transform="translate(133.18 54.58)">User 12</text><text class="cls-12" transform="translate(133.18 29.24)">ch 14</text><text class="cls-12" transform="translate(133.18 46.25)">ch 15</text><rect class="cls-13" x="147.87" y="25.89" width="8.42" height="2.66"/><rect class="cls-14" x="156.29" y="25.89" width="0.6" height="2.66"/><text class="cls-11" transform="translate(133.18 20.87)">Director</text><g class="cls-18"><text class="cls-12" transform="translate(133.18 12.71)">ch 13</text></g><rect class="cls-13" x="147.87" y="9.36" width="8.42" height="2.66"/><rect class="cls-14" x="156.29" y="9.36" width="0.6" height="2.66"/><rect class="cls-13" x="147.87" y="42.73" width="8.42" height="2.66"/><rect class="cls-14" x="156.29" y="42.73" width="0.6" height="2.66"/><g class="cls-19"><path class="cls-15" d="M196.43,58.69H134.14a3.5,3.5,0,0,1-3.5-3.5v-45a3.5,3.5,0,0,1,3.5-3.5h62.29a3.5,3.5,0,0,1,3.5,3.5v45a3.5,3.5,0,0,1-3.5,3.5m-62.29-51a2.51,2.51,0,0,0-2.5,2.5v45a2.5,2.5,0,0,0,2.5,2.5h62.29a2.51,2.51,0,0,0,2.5-2.5v-45a2.51,2.51,0,0,0-2.5-2.5Z"/><rect class="cls-7" x="132.78" y="11.19" width="65.01" height="41.65"/><path class="cls-14" d="M197.29,52.35h-64V11.69h64Zm1-41.66h-66V53.35h66Z"/></g><text class="cls-20" transform="translate(156.81 28.28)">GO</text><text class="cls-21" transform="translate(139.48 42.22)">Username</text></g></g></svg>