<svg id="Ebene_1" data-name="Ebene 1" xmlns="http://www.w3.org/2000/svg" viewBox="0 0 138.45 52"><defs><style>.cls-1{fill:#202020;}.cls-2{fill:#203b90;}.cls-3{fill:currentColor;}.cls-4{fill:#356cb4;}.cls-5{fill:none;stroke:#1d1d1b;stroke-miterlimit:10;}.cls-6{fill:#fff;}.cls-7{opacity:0.8;}.cls-8{fill:#f9b13f;}</style></defs><path class="cls-1" d="M37.72.5a2.55,2.55,0,0,0-2.55,2.55V49a2.55,2.55,0,0,0,2.55,2.55h63.53A2.55,2.55,0,0,0,103.8,49V3.05A2.55,2.55,0,0,0,101.25.5"/><rect class="cls-2" x="35.34" y="17" width="68.29" height="1"/><rect class="cls-2" x="35.34" y="34" width="68.29" height="1"/><rect class="cls-2" x="68.98" y="0.5" width="1" height="34"/><path class="cls-3" d="M100.63,52H38.34a3.5,3.5,0,0,1-3.5-3.5V3.5A3.5,3.5,0,0,1,38.34,0h62.29a3.5,3.5,0,0,1,3.5,3.5v45a3.5,3.5,0,0,1-3.5,3.5M38.34,1a2.5,2.5,0,0,0-2.5,2.5v45a2.5,2.5,0,0,0,2.5,2.5h62.29a2.5,2.5,0,0,0,2.5-2.5V3.5a2.5,2.5,0,0,0-2.5-2.5Z"/><path class="cls-4" d="M20.08,15.35H7.73a3,3,0,0,1-3-3V5.69a3,3,0,0,1,3-3H20.08a3,3,0,0,1,3,3v6.66a3,3,0,0,1-3,3"/><rect class="cls-5" x="4.73" y="2.69" width="18.35" height="12.66" rx="3"/><path class="cls-4" d="M20.08,32.35H7.73a3,3,0,0,1-3-3V22.69a3,3,0,0,1,3-3H20.08a3,3,0,0,1,3,3v6.66a3,3,0,0,1-3,3"/><rect class="cls-5" x="4.73" y="19.69" width="18.35" height="12.66" rx="3"/><path class="cls-4" d="M20.08,49.31H7.73a3,3,0,0,1-3-3V39.65a3,3,0,0,1,3-3H20.08a3,3,0,0,1,3,3v6.66a3,3,0,0,1-3,3"/><rect class="cls-5" x="4.73" y="36.65" width="18.35" height="12.66" rx="3"/><path class="cls-4" d="M131.24,15.35H118.89a3,3,0,0,1-3-3V5.69a3,3,0,0,1,3-3h12.35a3,3,0,0,1,3,3v6.66a3,3,0,0,1-3,3"/><rect class="cls-5" x="115.89" y="2.69" width="18.35" height="12.66" rx="3"/><path class="cls-4" d="M131.24,32.35H118.89a3,3,0,0,1-3-3V22.69a3,3,0,0,1,3-3h12.35a3,3,0,0,1,3,3v6.66a3,3,0,0,1-3,3"/><rect class="cls-5" x="115.89" y="19.69" width="18.35" height="12.66" rx="3"/><path class="cls-4" d="M131.24,49.31H118.89a3,3,0,0,1-3-3V39.65a3,3,0,0,1,3-3h12.35a3,3,0,0,1,3,3v6.66a3,3,0,0,1-3,3"/><rect class="cls-5" x="115.89" y="36.65" width="18.35" height="12.66" rx="3"/><path class="cls-6" d="M54.31,43.28a.56.56,0,0,0-.2-.45,3.16,3.16,0,0,0-.74-.33,4.26,4.26,0,0,1-.85-.34,1.37,1.37,0,0,1-.84-1.23,1.2,1.2,0,0,1,.22-.72,1.53,1.53,0,0,1,.66-.49,2.4,2.4,0,0,1,.95-.18,2.21,2.21,0,0,1,1,.19,1.47,1.47,0,0,1,.65.55,1.44,1.44,0,0,1,.23.8h-1a.67.67,0,0,0-.22-.53.85.85,0,0,0-.6-.19.92.92,0,0,0-.59.16.48.48,0,0,0-.21.41.47.47,0,0,0,.25.41,2.79,2.79,0,0,0,.72.31,3.06,3.06,0,0,1,1.27.65,1.28,1.28,0,0,1,.4,1,1.21,1.21,0,0,1-.49,1,2.14,2.14,0,0,1-1.31.36,2.52,2.52,0,0,1-1-.21,1.73,1.73,0,0,1-.72-.57,1.54,1.54,0,0,1-.25-.85h1c0,.55.33.82,1,.82a1,1,0,0,0,.57-.15A.47.47,0,0,0,54.31,43.28Z"/><path class="cls-6" d="M57.67,44.65a1.73,1.73,0,0,1-1.83-1.83v-.09a2.33,2.33,0,0,1,.21-1,1.59,1.59,0,0,1,.61-.67,1.73,1.73,0,0,1,.9-.24,1.54,1.54,0,0,1,1.2.48,1.94,1.94,0,0,1,.43,1.35v.41H56.84a.92.92,0,0,0,.29.58.89.89,0,0,0,.61.22,1.05,1.05,0,0,0,.89-.42l.48.55a1.4,1.4,0,0,1-.6.49A2.07,2.07,0,0,1,57.67,44.65Zm-.11-3a.64.64,0,0,0-.48.2,1.06,1.06,0,0,0-.23.57h1.37V42.3a.73.73,0,0,0-.17-.51A.66.66,0,0,0,57.56,41.61Z"/><path class="cls-6" d="M60.94,40v.91h.63v.72h-.63v1.85a.46.46,0,0,0,.07.29.43.43,0,0,0,.31.09l.29,0v.74a2.08,2.08,0,0,1-.6.09.94.94,0,0,1-1.06-1v-2h-.54v-.72H60V40Z"/><path class="cls-6" d="M64.33,44.21a1.25,1.25,0,0,1-1,.44,1.16,1.16,0,0,1-.91-.34,1.53,1.53,0,0,1-.32-1V40.89h1v2.39c0,.38.18.58.53.58a.73.73,0,0,0,.69-.35V40.89h1v3.69h-.93Z"/><path class="cls-6" d="M69.37,42.77A2.21,2.21,0,0,1,69,44.14a1.25,1.25,0,0,1-1,.51,1.17,1.17,0,0,1-.91-.39V46H66V40.89H67l0,.36a1.13,1.13,0,0,1,.93-.43,1.28,1.28,0,0,1,1.07.5,2.33,2.33,0,0,1,.38,1.4Zm-1-.07a1.39,1.39,0,0,0-.19-.8.59.59,0,0,0-.53-.28A.65.65,0,0,0,67,42v1.51a.66.66,0,0,0,.65.37C68.14,43.86,68.38,43.47,68.38,42.7Z"/><path class="cls-6" d="M73.12,39.61l1.28,3.61,1.27-3.61H77v5H76V43.22l.1-2.34-1.34,3.7h-.7l-1.34-3.7.1,2.34v1.36h-1v-5Z"/><path class="cls-6" d="M79.55,44.65a1.73,1.73,0,0,1-1.83-1.83v-.09a2.33,2.33,0,0,1,.21-1,1.59,1.59,0,0,1,.61-.67,1.73,1.73,0,0,1,.9-.24,1.54,1.54,0,0,1,1.2.48,1.94,1.94,0,0,1,.43,1.35v.41H78.72a.92.92,0,0,0,.29.58.89.89,0,0,0,.61.22,1.05,1.05,0,0,0,.89-.42L81,44a1.4,1.4,0,0,1-.6.49A2.07,2.07,0,0,1,79.55,44.65Zm-.11-3a.64.64,0,0,0-.48.2,1.06,1.06,0,0,0-.23.57H80.1V42.3a.73.73,0,0,0-.17-.51A.66.66,0,0,0,79.44,41.61Z"/><path class="cls-6" d="M82.54,40.89l0,.42a1.3,1.3,0,0,1,1.07-.49,1.06,1.06,0,0,1,.87.34,1.67,1.67,0,0,1,.3,1v2.38h-1V42.22a.67.67,0,0,0-.14-.46.62.62,0,0,0-.45-.14.68.68,0,0,0-.63.36v2.6h-1V40.89Z"/><path class="cls-6" d="M87.77,44.21a1.25,1.25,0,0,1-1,.44,1.16,1.16,0,0,1-.91-.34,1.48,1.48,0,0,1-.32-1V40.89h1v2.39c0,.38.17.58.53.58a.73.73,0,0,0,.69-.35V40.89h1v3.69H87.8Z"/><path class="cls-6" d="M93.14,42.85H91.21v-.79h1.93Z"/><path class="cls-6" d="M95.85,42.85H93.93v-.79h1.92Z"/><path class="cls-6" d="M98.66,42.46l-2-.69v-1l3,1.25v.8l-3,1.25v-.95Z"/><g class="cls-7"><path class="cls-8" d="M76.73,24.3H80v4.55H76.73V35H71.09V28.85H59.43l-.26-3.56L71,6.56h5.7Zm-11.93,0h6.29v-10l-.38.64Z"/></g><path class="cls-6" d="M128.62,40.93v1.9h-6.24l1.7-1.7-.67-.67-2.84,2.84,2.84,2.84.67-.67-1.7-1.7h7.18V40.93Z"/><path class="cls-6" d="M121.17,9l.69.69L124.58,7v5.92h1V7l2.72,2.72L129,9l-3.89-3.9Z"/><path class="cls-6" d="M129,26l-.69-.69L125.55,28V22.11h-1V28l-2.72-2.72-.69.69,3.9,3.89Z"/></svg>