<svg xmlns="http://www.w3.org/2000/svg" width="401" height="18.69" viewBox="0 0 401 18.69"><defs><style>.a{fill:red;}.b{fill:#39b54a;}.c{fill:none;stroke:#666;stroke-miterlimit:10;stroke-width:0.25px;opacity:0.18;}</style></defs><rect class="a" x="138" y="5.35" width="25" height="8"/><rect class="b" x="163" y="5.35" width="25" height="8"/><rect class="a" x="188" y="5.35" width="25" height="8"/><rect class="b" x="213" y="5.35" width="25" height="8"/><rect class="a" x="238" y="5.35" width="25" height="8"/><rect class="b" x="263" y="5.35" width="25" height="8"/><rect class="a" x="288" y="5.35" width="25" height="8"/><rect class="b" x="313" y="5.35" width="25" height="8"/><rect class="a" x="338" y="5.35" width="25" height="8"/><rect class="b" x="363" y="5.35" width="25" height="8"/><path d="M5.9,9v2.78H5V4.62H7.59a2.62,2.62,0,0,1,1.83.6,2,2,0,0,1,.66,1.57,2,2,0,0,1-.65,1.6A2.76,2.76,0,0,1,7.58,9Zm0-.77H7.59a1.72,1.72,0,0,0,1.15-.35,1.3,1.3,0,0,0,.4-1,1.35,1.35,0,0,0-.4-1,1.6,1.6,0,0,0-1.1-.39H5.9Z"/><path d="M14.34,11.73a2.19,2.19,0,0,1-.13-.56,2,2,0,0,1-1.5.66,1.88,1.88,0,0,1-1.28-.44,1.42,1.42,0,0,1-.5-1.12A1.5,1.5,0,0,1,11.56,9a3,3,0,0,1,1.76-.45h.88V8.11a1,1,0,0,0-.28-.75,1.14,1.14,0,0,0-.84-.28,1.34,1.34,0,0,0-.81.24.71.71,0,0,0-.33.59H11a1.21,1.21,0,0,1,.28-.76,1.9,1.9,0,0,1,.76-.59,2.59,2.59,0,0,1,1.05-.21,2.09,2.09,0,0,1,1.44.46,1.63,1.63,0,0,1,.53,1.25v2.43a2.86,2.86,0,0,0,.19,1.16v.08ZM12.84,11a1.59,1.59,0,0,0,.81-.22,1.31,1.31,0,0,0,.55-.57V9.17h-.71c-1.11,0-1.66.32-1.66,1a.84.84,0,0,0,.28.66A1.11,1.11,0,0,0,12.84,11Z"/><path d="M16.52,5.05a.57.57,0,0,1,.14-.38.51.51,0,0,1,.4-.15.52.52,0,0,1,.4.15.57.57,0,0,1,.13.38.48.48,0,0,1-.53.51.51.51,0,0,1-.4-.15A.52.52,0,0,1,16.52,5.05Zm1,6.68h-.9V6.45h.9Z"/><path d="M21.5,7.26a2.15,2.15,0,0,0-.45,0,1.19,1.19,0,0,0-1.2.76v3.75H19V6.45h.87l0,.61a1.4,1.4,0,0,1,1.26-.71.87.87,0,0,1,.4.07Z"/><path d="M22.33,5.05a.57.57,0,0,1,.14-.38.51.51,0,0,1,.4-.15.52.52,0,0,1,.4.15.57.57,0,0,1,.13.38.48.48,0,0,1-.53.51.51.51,0,0,1-.4-.15A.52.52,0,0,1,22.33,5.05Zm1,6.68h-.9V6.45h.9Z"/><path d="M25.61,6.45l0,.66a1.91,1.91,0,0,1,1.58-.76c1.12,0,1.68.63,1.69,1.89v3.49H28V8.23a1.24,1.24,0,0,0-.26-.84,1.06,1.06,0,0,0-.8-.27,1.27,1.27,0,0,0-.77.23,1.58,1.58,0,0,0-.52.62v3.76h-.9V6.45Z"/><path d="M30.06,9a3.11,3.11,0,0,1,.57-2,2,2,0,0,1,3,0l.05-.58h.82V11.6a2.13,2.13,0,0,1-.61,1.62,2.25,2.25,0,0,1-1.63.59,2.79,2.79,0,0,1-1.12-.24,2,2,0,0,1-.83-.67l.47-.54a1.77,1.77,0,0,0,1.42.71,1.35,1.35,0,0,0,1-.37,1.39,1.39,0,0,0,.37-1V11.2a1.84,1.84,0,0,1-1.48.63,1.81,1.81,0,0,1-1.5-.75A3.29,3.29,0,0,1,30.06,9Zm.91.11a2.4,2.4,0,0,0,.36,1.4,1.2,1.2,0,0,0,1,.51,1.31,1.31,0,0,0,1.25-.78V7.87a1.33,1.33,0,0,0-1.24-.75,1.19,1.19,0,0,0-1,.51A2.56,2.56,0,0,0,31,9.15Z"/><path d="M39.21,6.45l0,.66a1.93,1.93,0,0,1,1.59-.76q1.66,0,1.68,1.89v3.49h-.9V8.23a1.19,1.19,0,0,0-.26-.84,1.06,1.06,0,0,0-.8-.27,1.27,1.27,0,0,0-.77.23,1.66,1.66,0,0,0-.52.62v3.76h-.9V6.45Z"/><path d="M43.64,9a3.19,3.19,0,0,1,.3-1.4A2.26,2.26,0,0,1,46,6.35a2.22,2.22,0,0,1,1.74.75,2.88,2.88,0,0,1,.67,2v.07a3.11,3.11,0,0,1-.3,1.38,2.25,2.25,0,0,1-.84,1,2.43,2.43,0,0,1-1.27.34,2.23,2.23,0,0,1-1.74-.75,2.89,2.89,0,0,1-.66-2Zm.91.11a2.29,2.29,0,0,0,.4,1.41,1.33,1.33,0,0,0,1.09.53,1.31,1.31,0,0,0,1.1-.54A2.47,2.47,0,0,0,47.54,9a2.23,2.23,0,0,0-.41-1.41,1.37,1.37,0,0,0-2.17,0A2.44,2.44,0,0,0,44.55,9.15Z"/><path d="M50.81,5.17V6.45h1v.7h-1v3.28a.69.69,0,0,0,.13.47.54.54,0,0,0,.45.16,2.26,2.26,0,0,0,.43-.06v.73a2.47,2.47,0,0,1-.7.1,1.11,1.11,0,0,1-.91-.37,1.54,1.54,0,0,1-.31-1V7.15h-1v-.7h1V5.17Z"/><path d="M59.79,9.15a3.15,3.15,0,0,1-.56,1.94,1.76,1.76,0,0,1-1.49.74,1.94,1.94,0,0,1-1.51-.61v2.54h-.91V6.45h.83l0,.58a1.88,1.88,0,0,1,1.53-.68,1.8,1.8,0,0,1,1.51.72,3.18,3.18,0,0,1,.56,2ZM58.88,9a2.38,2.38,0,0,0-.38-1.41,1.22,1.22,0,0,0-1-.51,1.32,1.32,0,0,0-1.23.72v2.53a1.33,1.33,0,0,0,1.24.72,1.23,1.23,0,0,0,1-.51A2.63,2.63,0,0,0,58.88,9Z"/><path d="M60.69,9A3.06,3.06,0,0,1,61,7.64a2.37,2.37,0,0,1,3.84-.54,2.87,2.87,0,0,1,.66,2v.07a3.25,3.25,0,0,1-.29,1.38,2.27,2.27,0,0,1-.85,1,2.37,2.37,0,0,1-1.26.34,2.21,2.21,0,0,1-1.74-.75,2.89,2.89,0,0,1-.67-2Zm.91.11A2.29,2.29,0,0,0,62,10.56a1.31,1.31,0,0,0,1.09.53,1.29,1.29,0,0,0,1.09-.54A2.46,2.46,0,0,0,64.6,9a2.29,2.29,0,0,0-.41-1.41,1.38,1.38,0,0,0-2.18,0A2.51,2.51,0,0,0,61.6,9.15Z"/><path d="M69.71,10.33a.67.67,0,0,0-.27-.57,2.68,2.68,0,0,0-1-.35,4.41,4.41,0,0,1-1.08-.35,1.59,1.59,0,0,1-.6-.49,1.15,1.15,0,0,1-.19-.67,1.35,1.35,0,0,1,.55-1.1,2.12,2.12,0,0,1,1.4-.45A2.22,2.22,0,0,1,70,6.81,1.49,1.49,0,0,1,70.57,8h-.91a.82.82,0,0,0-.32-.64,1.17,1.17,0,0,0-.79-.27,1.18,1.18,0,0,0-.77.22.66.66,0,0,0-.28.56.55.55,0,0,0,.26.49,3.1,3.1,0,0,0,.93.32,4.88,4.88,0,0,1,1.1.36,1.6,1.6,0,0,1,.62.5,1.23,1.23,0,0,1,.21.73,1.34,1.34,0,0,1-.57,1.13,2.35,2.35,0,0,1-1.47.43,2.63,2.63,0,0,1-1.12-.23,1.91,1.91,0,0,1-.77-.62,1.55,1.55,0,0,1-.27-.88h.9a.94.94,0,0,0,.36.72,1.67,1.67,0,0,0,1.72.06A.63.63,0,0,0,69.71,10.33Z"/><path d="M74.87,10.33a.65.65,0,0,0-.28-.57,2.55,2.55,0,0,0-1-.35,4.51,4.51,0,0,1-1.09-.35A1.48,1.48,0,0,1,72,8.57a1.15,1.15,0,0,1-.2-.67,1.38,1.38,0,0,1,.55-1.1,2.17,2.17,0,0,1,1.41-.45,2.19,2.19,0,0,1,1.45.46A1.46,1.46,0,0,1,75.72,8h-.91a.81.81,0,0,0-.31-.64,1.17,1.17,0,0,0-.79-.27,1.23,1.23,0,0,0-.78.22.68.68,0,0,0-.27.56.53.53,0,0,0,.26.49,3.1,3.1,0,0,0,.93.32A4.88,4.88,0,0,1,75,9a1.68,1.68,0,0,1,.62.5,1.3,1.3,0,0,1,.2.73,1.35,1.35,0,0,1-.56,1.13,2.35,2.35,0,0,1-1.47.43,2.68,2.68,0,0,1-1.13-.23,1.88,1.88,0,0,1-.76-.62,1.49,1.49,0,0,1-.28-.88h.91a.88.88,0,0,0,.36.72,1.4,1.4,0,0,0,.9.27,1.45,1.45,0,0,0,.82-.21A.65.65,0,0,0,74.87,10.33Z"/><path d="M77,5.05a.57.57,0,0,1,.14-.38.51.51,0,0,1,.4-.15.54.54,0,0,1,.4.15.57.57,0,0,1,.13.38.52.52,0,0,1-.13.36.54.54,0,0,1-.4.15.51.51,0,0,1-.4-.15A.52.52,0,0,1,77,5.05Zm1,6.68H77V6.45h.9Z"/><path d="M83.85,9.15a3.15,3.15,0,0,1-.56,1.94,1.78,1.78,0,0,1-1.49.74,1.84,1.84,0,0,1-1.55-.71l0,.61h-.83V4.23h.9V7a1.84,1.84,0,0,1,1.51-.68,1.78,1.78,0,0,1,1.51.73,3.27,3.27,0,0,1,.55,2ZM82.94,9a2.41,2.41,0,0,0-.35-1.42,1.17,1.17,0,0,0-1-.5A1.32,1.32,0,0,0,80.28,8v2.28a1.36,1.36,0,0,0,1.29.83,1.19,1.19,0,0,0,1-.5A2.62,2.62,0,0,0,82.94,9Z"/><path d="M86,11.73h-.91V4.23H86Z"/><path d="M89.6,11.83a2.31,2.31,0,0,1-1.74-.71,2.61,2.61,0,0,1-.68-1.88V9.07a3.13,3.13,0,0,1,.3-1.4,2.28,2.28,0,0,1,.84-1,2.14,2.14,0,0,1,1.17-.35,2,2,0,0,1,1.6.68A2.94,2.94,0,0,1,91.67,9v.38H88.09a1.86,1.86,0,0,0,.45,1.26,1.43,1.43,0,0,0,1.11.48,1.57,1.57,0,0,0,.81-.19,1.92,1.92,0,0,0,.58-.52l.56.43A2.24,2.24,0,0,1,89.6,11.83Zm-.11-4.74a1.21,1.21,0,0,0-.92.4,1.92,1.92,0,0,0-.45,1.12h2.64V8.54a1.69,1.69,0,0,0-.37-1.07A1.14,1.14,0,0,0,89.49,7.09Z"/><line class="c" x1="138" y1="-234.15" x2="138" y2="151.85"/><line class="c" x1="163" y1="-234.15" x2="163" y2="151.85"/><line class="c" x1="188" y1="-234.15" x2="188" y2="151.85"/><line class="c" x1="213" y1="-234.15" x2="213" y2="151.85"/><line class="c" x1="238" y1="-234.15" x2="238" y2="151.85"/><line class="c" x1="263" y1="-234.15" x2="263" y2="151.85"/><line class="c" x1="288" y1="-234.15" x2="288" y2="151.85"/><line class="c" x1="313" y1="-234.15" x2="313" y2="151.85"/><line class="c" x1="338" y1="-234.15" x2="338" y2="151.85"/><line class="c" x1="363" y1="-234.15" x2="363" y2="151.85"/><line class="c" x1="388" y1="-234.15" x2="388" y2="151.85"/></svg>