<svg xmlns="http://www.w3.org/2000/svg" width="401.5" height="119.62" viewBox="0 0 401.5 119.62"><defs><style>.a{fill:#39b54a;}.b{fill:#fff;}.c{fill:red;}.d{fill:none;stroke:#666;stroke-miterlimit:10;stroke-width:0.25px;opacity:0.18;}</style></defs><rect class="a" x="138" y="5.65" width="25" height="8"/><rect class="b" x="163" y="5.65" width="25" height="8"/><rect class="a" x="188" y="5.65" width="25" height="8"/><rect class="b" x="213" y="5.65" width="25" height="8"/><rect class="a" x="238" y="5.65" width="25" height="8"/><rect class="b" x="263" y="5.65" width="25" height="8"/><rect class="a" x="288" y="5.65" width="25" height="8"/><rect class="b" x="313" y="5.65" width="25" height="8"/><rect class="a" x="338" y="5.65" width="25" height="8"/><rect class="b" x="363" y="5.65" width="25" height="8"/><rect class="c" x="138" y="30.65" width="25" height="8"/><rect class="c" x="163" y="30.65" width="25" height="8"/><rect class="c" x="188" y="30.65" width="25" height="8"/><rect class="b" x="213" y="30.65" width="25" height="8"/><rect class="b" x="238" y="30.65" width="25" height="8"/><rect class="b" x="263" y="30.65" width="25" height="8"/><rect class="b" x="288" y="30.65" width="25" height="8"/><rect class="b" x="313" y="30.65" width="25" height="8"/><rect class="b" x="338" y="30.65" width="25" height="8"/><rect class="b" x="363" y="30.65" width="25" height="8"/><rect class="c" x="138" y="55.65" width="25" height="8"/><rect class="c" x="163" y="55.65" width="25" height="8"/><rect class="c" x="188" y="55.65" width="25" height="8"/><rect class="b" x="213" y="55.65" width="25" height="8"/><rect class="a" x="238" y="55.65" width="25" height="8"/><rect class="b" x="263" y="55.65" width="25" height="8"/><rect class="b" x="288" y="55.65" width="25" height="8"/><rect class="b" x="313" y="55.65" width="25" height="8"/><rect class="b" x="338" y="55.65" width="25" height="8"/><rect class="b" x="363" y="55.65" width="25" height="8"/><rect class="c" x="138" y="80.65" width="25" height="8"/><rect class="c" x="163" y="80.65" width="25" height="8"/><rect class="c" x="188" y="80.65" width="25" height="8"/><rect class="b" x="213" y="80.65" width="25" height="8"/><rect class="a" x="238" y="80.65" width="25" height="8"/><rect class="b" x="263" y="80.65" width="25" height="8"/><rect class="a" x="288" y="80.65" width="25" height="8"/><rect class="b" x="313" y="80.65" width="25" height="8"/><rect class="b" x="338" y="80.65" width="25" height="8"/><rect class="b" x="363" y="80.65" width="25" height="8"/><rect class="c" x="138" y="105.65" width="25" height="8"/><rect class="c" x="163" y="105.65" width="25" height="8"/><rect class="c" x="188" y="105.65" width="25" height="8"/><rect class="b" x="213" y="105.65" width="25" height="8"/><rect class="a" x="238" y="105.65" width="25" height="8"/><rect class="b" x="263" y="105.65" width="25" height="8"/><rect class="a" x="288" y="105.65" width="25" height="8"/><rect class="b" x="313" y="105.65" width="25" height="8"/><rect class="a" x="338" y="105.65" width="25" height="8"/><rect class="b" x="363" y="105.65" width="25" height="8"/><path d="M9,8.75H5.9v2.52H9.48V12H5V4.93H9.43v.76H5.9V8H9Z"/><path d="M11.36,6.75l0,.67A1.92,1.92,0,0,1,13,6.65c1.12,0,1.68.63,1.69,1.89V12h-.9V8.54a1.23,1.23,0,0,0-.26-.85,1.06,1.06,0,0,0-.8-.27,1.28,1.28,0,0,0-.77.24,1.63,1.63,0,0,0-.52.61V12h-.9V6.75Z"/><path d="M19.29,12a1.91,1.91,0,0,1-.13-.56,2,2,0,0,1-1.5.65,1.83,1.83,0,0,1-1.28-.44,1.41,1.41,0,0,1-.51-1.12,1.48,1.48,0,0,1,.63-1.28,2.93,2.93,0,0,1,1.77-.46h.88V8.42a1,1,0,0,0-.29-.76A1.15,1.15,0,0,0,18,7.38a1.26,1.26,0,0,0-.81.25.71.71,0,0,0-.33.59H16a1.3,1.3,0,0,1,.28-.77A2,2,0,0,1,17,6.87a2.64,2.64,0,0,1,1.06-.22,2.1,2.1,0,0,1,1.43.46,1.63,1.63,0,0,1,.54,1.26V10.8A3.1,3.1,0,0,0,20.23,12V12Zm-1.5-.69a1.63,1.63,0,0,0,.8-.22,1.39,1.39,0,0,0,.56-.57V9.47h-.71c-1.11,0-1.66.33-1.66,1a.82.82,0,0,0,.28.67A1.09,1.09,0,0,0,17.79,11.35Z"/><path d="M25.94,9.45a3.16,3.16,0,0,1-.56,2,1.77,1.77,0,0,1-1.49.73,1.84,1.84,0,0,1-1.55-.7l-.05.61h-.83V4.54h.91V7.33a1.84,1.84,0,0,1,1.51-.68,1.81,1.81,0,0,1,1.51.73,3.29,3.29,0,0,1,.55,2ZM25,9.35a2.44,2.44,0,0,0-.35-1.43,1.2,1.2,0,0,0-1-.5,1.33,1.33,0,0,0-1.28.83v2.29a1.36,1.36,0,0,0,1.29.83,1.17,1.17,0,0,0,1-.51A2.59,2.59,0,0,0,25,9.35Z"/><path d="M28.06,12h-.91V4.54h.91Z"/><path d="M31.69,12.13a2.3,2.3,0,0,1-1.74-.7,2.62,2.62,0,0,1-.68-1.89V9.37a3.16,3.16,0,0,1,.3-1.4,2.41,2.41,0,0,1,.84-1,2.14,2.14,0,0,1,1.17-.35,2,2,0,0,1,1.6.68,3,3,0,0,1,.57,1.95v.37H30.18a1.86,1.86,0,0,0,.45,1.26,1.41,1.41,0,0,0,1.11.49,1.57,1.57,0,0,0,.81-.2,1.8,1.8,0,0,0,.58-.52l.56.43A2.24,2.24,0,0,1,31.69,12.13ZM31.58,7.4a1.23,1.23,0,0,0-.92.39,1.94,1.94,0,0,0-.45,1.12h2.64V8.84a1.66,1.66,0,0,0-.37-1.06A1.11,1.11,0,0,0,31.58,7.4Z"/><path d="M42.89,8.71a4.28,4.28,0,0,1-.36,1.82,2.6,2.6,0,0,1-1,1.19,2.73,2.73,0,0,1-4-1.18,4.11,4.11,0,0,1-.37-1.77V8.26a4.46,4.46,0,0,1,.35-1.81,2.73,2.73,0,0,1,1-1.2A2.7,2.7,0,0,1,40,4.83a2.8,2.8,0,0,1,1.51.41,2.65,2.65,0,0,1,1,1.2,4.31,4.31,0,0,1,.36,1.82ZM42,8.25a3.25,3.25,0,0,0-.5-1.94A1.7,1.7,0,0,0,40,5.63a1.68,1.68,0,0,0-1.4.68,3.2,3.2,0,0,0-.52,1.88v.52a3.16,3.16,0,0,0,.52,1.93,1.8,1.8,0,0,0,2.82,0A3.23,3.23,0,0,0,42,8.78Z"/><path d="M49.07,5.69H46.79V12h-.94V5.69H43.57V4.93h5.5Z"/><path d="M53.67,10.18h-3L50,12h-1l2.72-7.11h.82L55.31,12h-1ZM51,9.41h2.42L52.18,6.08Z"/><path d="M63.06,9.45a3.17,3.17,0,0,1-.55,2,1.77,1.77,0,0,1-1.49.73,1.93,1.93,0,0,1-1.52-.61v2.55h-.9V6.75h.82l0,.59A1.86,1.86,0,0,1,61,6.65a1.8,1.8,0,0,1,1.51.72,3.21,3.21,0,0,1,.55,2Zm-.9-.1a2.34,2.34,0,0,0-.38-1.41,1.24,1.24,0,0,0-1.05-.52,1.33,1.33,0,0,0-1.23.73v2.52a1.33,1.33,0,0,0,1.24.73,1.23,1.23,0,0,0,1-.52A2.5,2.5,0,0,0,62.16,9.35Z"/><path d="M67.47,12a2.31,2.31,0,0,1-.13-.56,2,2,0,0,1-1.5.65,1.83,1.83,0,0,1-1.28-.44,1.41,1.41,0,0,1-.5-1.12,1.48,1.48,0,0,1,.63-1.28,2.88,2.88,0,0,1,1.76-.46h.88V8.42a1.06,1.06,0,0,0-.28-.76,1.18,1.18,0,0,0-.84-.28,1.28,1.28,0,0,0-.81.25.71.71,0,0,0-.33.59h-.9a1.24,1.24,0,0,1,.28-.77,1.88,1.88,0,0,1,.76-.58,2.6,2.6,0,0,1,1.05-.22,2.14,2.14,0,0,1,1.44.46,1.65,1.65,0,0,1,.53,1.26V10.8A2.89,2.89,0,0,0,68.42,12V12ZM66,11.35a1.7,1.7,0,0,0,.81-.22,1.43,1.43,0,0,0,.55-.57V9.47h-.71c-1.11,0-1.66.33-1.66,1a.85.85,0,0,0,.28.67A1.11,1.11,0,0,0,66,11.35Z"/><path d="M69.65,5.35A.53.53,0,0,1,69.79,5a.51.51,0,0,1,.4-.15.54.54,0,0,1,.4.89.56.56,0,0,1-.4.14.54.54,0,0,1-.4-.14A.53.53,0,0,1,69.65,5.35Zm1,6.69h-.9V6.75h.9Z"/><path d="M74.63,7.56a3.19,3.19,0,0,0-.45,0,1.18,1.18,0,0,0-1.2.76V12h-.9V6.75H73l0,.61a1.4,1.4,0,0,1,1.26-.71,1,1,0,0,1,.4.07Z"/><path d="M75.46,5.35A.53.53,0,0,1,75.6,5a.51.51,0,0,1,.4-.15.54.54,0,0,1,.4.89.56.56,0,0,1-.4.14.54.54,0,0,1-.4-.14A.53.53,0,0,1,75.46,5.35Zm1,6.69h-.9V6.75h.9Z"/><path d="M78.74,6.75l0,.67a1.92,1.92,0,0,1,1.58-.77c1.12,0,1.68.63,1.69,1.89V12h-.9V8.54a1.29,1.29,0,0,0-.26-.85,1.06,1.06,0,0,0-.8-.27,1.28,1.28,0,0,0-.77.24,1.47,1.47,0,0,0-.52.61V12h-.9V6.75Z"/><path d="M83.19,9.35a3.14,3.14,0,0,1,.57-2,1.85,1.85,0,0,1,1.51-.73,1.8,1.8,0,0,1,1.51.69l0-.59h.82v5.16A2.12,2.12,0,0,1,87,13.52a2.21,2.21,0,0,1-1.63.6,2.8,2.8,0,0,1-1.12-.25,1.86,1.86,0,0,1-.83-.67l.47-.54a1.75,1.75,0,0,0,1.42.72,1.38,1.38,0,0,0,1-.37,1.42,1.42,0,0,0,.37-1v-.45a1.87,1.87,0,0,1-1.48.62,1.82,1.82,0,0,1-1.5-.74A3.29,3.29,0,0,1,83.19,9.35Zm.91.1a2.41,2.41,0,0,0,.36,1.41,1.2,1.2,0,0,0,1,.51,1.31,1.31,0,0,0,1.25-.78V8.18a1.32,1.32,0,0,0-1.24-.76,1.19,1.19,0,0,0-1,.51A2.58,2.58,0,0,0,84.1,9.45Z"/><path d="M91.46,9.15A7.44,7.44,0,0,1,91.75,7a6.31,6.31,0,0,1,.88-1.85A3.8,3.8,0,0,1,93.85,4l.18.6a4,4,0,0,0-1.17,1.67,7.37,7.37,0,0,0-.5,2.51v.42a7.26,7.26,0,0,0,.69,3.27,3.83,3.83,0,0,0,1,1.3l-.18.55a3.81,3.81,0,0,1-1.24-1.21A6.78,6.78,0,0,1,91.46,9.15Z"/><path d="M99.47,12H94.81v-.65l2.47-2.74a5.93,5.93,0,0,0,.75-1,1.65,1.65,0,0,0,.21-.8,1.28,1.28,0,0,0-.34-.91,1.16,1.16,0,0,0-.9-.36A1.42,1.42,0,0,0,96,6,1.53,1.53,0,0,0,95.58,7h-.9a2.12,2.12,0,0,1,.63-1.59A2.36,2.36,0,0,1,97,4.83a2.24,2.24,0,0,1,1.57.52,1.8,1.8,0,0,1,.58,1.38,4.07,4.07,0,0,1-1.34,2.5L95.9,11.3h3.57Z"/><path d="M103.6,10.63a.64.64,0,0,0-.28-.56,2.38,2.38,0,0,0-1-.35,4.47,4.47,0,0,1-1.09-.36,1.38,1.38,0,0,1-.59-.48,1.19,1.19,0,0,1-.2-.68A1.4,1.4,0,0,1,101,7.1a2.45,2.45,0,0,1,2.86,0,1.44,1.44,0,0,1,.56,1.18h-.91a.79.79,0,0,0-.31-.63,1.17,1.17,0,0,0-.79-.27,1.24,1.24,0,0,0-.77.21.66.66,0,0,0-.28.56.54.54,0,0,0,.26.5,3.16,3.16,0,0,0,.93.31,4.4,4.4,0,0,1,1.1.37,1.59,1.59,0,0,1,.62.5,1.29,1.29,0,0,1,.2.72,1.38,1.38,0,0,1-.56,1.14,2.42,2.42,0,0,1-1.47.42,2.68,2.68,0,0,1-1.13-.22,1.82,1.82,0,0,1-.76-.63,1.48,1.48,0,0,1-.28-.87h.91a.91.91,0,0,0,.36.72,1.4,1.4,0,0,0,.9.27,1.45,1.45,0,0,0,.82-.21A.63.63,0,0,0,103.6,10.63Z"/><path d="M107.76,9.2a7.64,7.64,0,0,1-.28,2.09,6,6,0,0,1-.88,1.84,3.85,3.85,0,0,1-1.23,1.2l-.19-.55A4,4,0,0,0,106.39,12a7.94,7.94,0,0,0,.47-2.69V9.14a8.27,8.27,0,0,0-.22-1.91,6.32,6.32,0,0,0-.6-1.58,3.61,3.61,0,0,0-.86-1.09l.19-.55A3.92,3.92,0,0,1,106.6,5.2a6,6,0,0,1,.87,1.85A7.45,7.45,0,0,1,107.76,9.2Z"/><path d="M5.9,34.25V37H5V29.93H7.59a2.62,2.62,0,0,1,1.83.59,2,2,0,0,1,.66,1.58,2,2,0,0,1-.65,1.59,2.71,2.71,0,0,1-1.85.56Zm0-.76H7.59a1.67,1.67,0,0,0,1.15-.36,1.29,1.29,0,0,0,.4-1,1.32,1.32,0,0,0-.4-1,1.56,1.56,0,0,0-1.1-.4H5.9Z"/><path d="M14.34,37a2.31,2.31,0,0,1-.13-.56,2,2,0,0,1-1.5.65,1.83,1.83,0,0,1-1.28-.44,1.41,1.41,0,0,1-.5-1.12,1.48,1.48,0,0,1,.63-1.28,2.88,2.88,0,0,1,1.76-.46h.88v-.41a1.06,1.06,0,0,0-.28-.76,1.18,1.18,0,0,0-.84-.28,1.28,1.28,0,0,0-.81.25.71.71,0,0,0-.33.59H11a1.24,1.24,0,0,1,.28-.77,1.88,1.88,0,0,1,.76-.58,2.6,2.6,0,0,1,1.05-.22,2.14,2.14,0,0,1,1.44.46,1.65,1.65,0,0,1,.53,1.26V35.8A2.89,2.89,0,0,0,15.29,37V37Zm-1.5-.69a1.7,1.7,0,0,0,.81-.22,1.43,1.43,0,0,0,.55-.57V34.47h-.71c-1.11,0-1.66.33-1.66,1a.85.85,0,0,0,.28.67A1.11,1.11,0,0,0,12.84,36.35Z"/><path d="M16.52,30.35a.53.53,0,0,1,.14-.37.51.51,0,0,1,.4-.15.54.54,0,0,1,.4.89.56.56,0,0,1-.4.14.54.54,0,0,1-.4-.14A.53.53,0,0,1,16.52,30.35Zm1,6.69h-.9V31.75h.9Z"/><path d="M21.5,32.56a3.19,3.19,0,0,0-.45,0,1.18,1.18,0,0,0-1.2.76V37H19V31.75h.87l0,.61a1.4,1.4,0,0,1,1.26-.71,1,1,0,0,1,.4.07Z"/><path d="M22.33,30.35a.53.53,0,0,1,.14-.37.51.51,0,0,1,.4-.15.54.54,0,0,1,.4.89.56.56,0,0,1-.4.14.54.54,0,0,1-.4-.14A.53.53,0,0,1,22.33,30.35Zm1,6.69h-.9V31.75h.9Z"/><path d="M25.61,31.75l0,.67a1.92,1.92,0,0,1,1.58-.77c1.12,0,1.68.63,1.69,1.89V37H28v-3.5a1.29,1.29,0,0,0-.26-.85,1.06,1.06,0,0,0-.8-.27,1.28,1.28,0,0,0-.77.24,1.55,1.55,0,0,0-.52.61V37h-.9V31.75Z"/><path d="M30.06,34.35a3.14,3.14,0,0,1,.57-2,1.85,1.85,0,0,1,1.51-.73,1.8,1.8,0,0,1,1.51.69l.05-.59h.82v5.16a2.12,2.12,0,0,1-.61,1.61,2.21,2.21,0,0,1-1.63.6,2.8,2.8,0,0,1-1.12-.25,1.86,1.86,0,0,1-.83-.67l.47-.54a1.75,1.75,0,0,0,1.42.72,1.38,1.38,0,0,0,1-.37,1.42,1.42,0,0,0,.37-1v-.45a1.87,1.87,0,0,1-1.48.62,1.82,1.82,0,0,1-1.5-.74A3.29,3.29,0,0,1,30.06,34.35Zm.91.1a2.41,2.41,0,0,0,.36,1.41,1.2,1.2,0,0,0,1,.51,1.31,1.31,0,0,0,1.25-.78V33.18a1.32,1.32,0,0,0-1.24-.76,1.19,1.19,0,0,0-1,.51A2.58,2.58,0,0,0,31,34.45Z"/><path d="M39.21,31.75l0,.59a2,2,0,0,1,1.57-.69,1.52,1.52,0,0,1,1.51.85,2,2,0,0,1,.69-.61,2,2,0,0,1,1-.24c1.16,0,1.75.62,1.77,1.85V37h-.9V33.55a1.23,1.23,0,0,0-.26-.85,1.12,1.12,0,0,0-.87-.28,1.18,1.18,0,0,0-1.22,1.11V37H41.6V33.57a1,1,0,0,0-1.13-1.15,1.2,1.2,0,0,0-1.21.76V37h-.91V31.75Z"/><path d="M46.88,34.35a3.17,3.17,0,0,1,.31-1.4A2.28,2.28,0,0,1,48,32a2.35,2.35,0,0,1,1.24-.34A2.24,2.24,0,0,1,51,32.4a2.9,2.9,0,0,1,.66,2v.06a3.12,3.12,0,0,1-.29,1.39,2.24,2.24,0,0,1-.85.95,2.29,2.29,0,0,1-1.26.34,2.26,2.26,0,0,1-1.74-.74,2.89,2.89,0,0,1-.67-2Zm.91.1a2.25,2.25,0,0,0,.41,1.41,1.38,1.38,0,0,0,2.19,0,2.49,2.49,0,0,0,.4-1.51,2.29,2.29,0,0,0-.41-1.41,1.32,1.32,0,0,0-1.1-.54,1.3,1.3,0,0,0-1.08.53A2.46,2.46,0,0,0,47.79,34.45Z"/><path d="M52.61,34.35a3.15,3.15,0,0,1,.57-2,2,2,0,0,1,3-.1V29.54h.91V37h-.83l-.05-.57a1.84,1.84,0,0,1-1.51.66,1.79,1.79,0,0,1-1.49-.75,3.09,3.09,0,0,1-.58-2Zm.9.1a2.34,2.34,0,0,0,.37,1.41,1.2,1.2,0,0,0,1,.51,1.32,1.32,0,0,0,1.25-.77V33.17a1.32,1.32,0,0,0-1.24-.75,1.21,1.21,0,0,0-1,.51A2.58,2.58,0,0,0,53.51,34.45Z"/><path d="M60.66,37.13a2.31,2.31,0,0,1-1.75-.7,2.62,2.62,0,0,1-.67-1.89v-.17a3.16,3.16,0,0,1,.3-1.4,2.41,2.41,0,0,1,.84-1,2.14,2.14,0,0,1,1.17-.35,2,2,0,0,1,1.6.68,3,3,0,0,1,.57,2v.37H59.14a1.87,1.87,0,0,0,.46,1.26,1.41,1.41,0,0,0,1.11.49,1.57,1.57,0,0,0,.81-.2,2,2,0,0,0,.58-.52l.55.43A2.22,2.22,0,0,1,60.66,37.13Zm-.11-4.73a1.22,1.22,0,0,0-.92.39,2,2,0,0,0-.46,1.12h2.65v-.07a1.72,1.72,0,0,0-.37-1.06A1.14,1.14,0,0,0,60.55,32.4Z"/><path d="M68.12,34.38H65.74v-.73h2.38Z"/><path d="M75.84,34a4.14,4.14,0,0,1-.54,2.36,2.26,2.26,0,0,1-3.38,0,3.93,3.93,0,0,1-.57-2.25V32.92a4,4,0,0,1,.54-2.33,2.3,2.3,0,0,1,3.39,0,3.92,3.92,0,0,1,.56,2.27Zm-.9-1.23a3.22,3.22,0,0,0-.33-1.67,1.1,1.1,0,0,0-1-.53,1.09,1.09,0,0,0-1,.52,3.21,3.21,0,0,0-.32,1.61v1.44a3.44,3.44,0,0,0,.33,1.71,1.21,1.21,0,0,0,2,0,3.33,3.33,0,0,0,.34-1.63Z"/><path d="M79.33,34.35a3.16,3.16,0,0,1,.3-1.4,2.28,2.28,0,0,1,.85-1,2.35,2.35,0,0,1,1.24-.34,2.24,2.24,0,0,1,1.75.75,2.9,2.9,0,0,1,.67,2v.06a3.12,3.12,0,0,1-.3,1.39,2.29,2.29,0,0,1-.84.95,2.34,2.34,0,0,1-1.27.34A2.26,2.26,0,0,1,80,36.39a2.89,2.89,0,0,1-.66-2Zm.9.1a2.25,2.25,0,0,0,.41,1.41,1.38,1.38,0,0,0,2.19,0,2.49,2.49,0,0,0,.4-1.51,2.29,2.29,0,0,0-.41-1.41,1.32,1.32,0,0,0-1.1-.54,1.3,1.3,0,0,0-1.08.53A2.46,2.46,0,0,0,80.23,34.45Z"/><path d="M87.39,36.4a1.27,1.27,0,0,0,.84-.3,1,1,0,0,0,.4-.73h.86a1.6,1.6,0,0,1-.32.86,2,2,0,0,1-.76.66,2.28,2.28,0,0,1-1,.24,2.19,2.19,0,0,1-1.72-.72,2.88,2.88,0,0,1-.64-2v-.15a3.17,3.17,0,0,1,.29-1.37,2.17,2.17,0,0,1,.81-.93,2.31,2.31,0,0,1,1.25-.34,2.09,2.09,0,0,1,1.48.54,1.91,1.91,0,0,1,.63,1.38h-.86a1.22,1.22,0,0,0-.38-.84,1.36,1.36,0,0,0-1.93.16,2.29,2.29,0,0,0-.38,1.44v.17a2.27,2.27,0,0,0,.37,1.4A1.28,1.28,0,0,0,87.39,36.4Z"/><path d="M93.76,36.51a1.88,1.88,0,0,1-1.54.62,1.62,1.62,0,0,1-1.29-.49,2.16,2.16,0,0,1-.45-1.45V31.75h.91v3.42c0,.8.32,1.2,1,1.2a1.36,1.36,0,0,0,1.38-.77V31.75h.9V37h-.86Z"/><path d="M100.48,34.45a3.24,3.24,0,0,1-.55,1.95,1.78,1.78,0,0,1-1.5.73,1.92,1.92,0,0,1-1.51-.61v2.55H96V31.75h.82l0,.59a1.86,1.86,0,0,1,1.54-.69,1.79,1.79,0,0,1,1.5.72,3.21,3.21,0,0,1,.56,2Zm-.9-.1a2.27,2.27,0,0,0-.39-1.41,1.21,1.21,0,0,0-1-.52,1.31,1.31,0,0,0-1.23.73v2.52a1.32,1.32,0,0,0,1.24.73,1.23,1.23,0,0,0,1-.52A2.5,2.5,0,0,0,99.58,34.35Z"/><path d="M101.63,30.35a.57.57,0,0,1,.13-.37.52.52,0,0,1,.4-.15.51.51,0,0,1,.4.15.56.56,0,0,1,0,.74.54.54,0,0,1-.4.14.56.56,0,0,1-.4-.14A.57.57,0,0,1,101.63,30.35Zm1,6.69h-.91V31.75h.91Z"/><path d="M106.25,37.13a2.31,2.31,0,0,1-1.75-.7,2.62,2.62,0,0,1-.68-1.89v-.17a3.16,3.16,0,0,1,.3-1.4,2.41,2.41,0,0,1,.84-1,2.14,2.14,0,0,1,1.17-.35,2,2,0,0,1,1.6.68,2.91,2.91,0,0,1,.58,2v.37h-3.58a1.86,1.86,0,0,0,.45,1.26,1.41,1.41,0,0,0,1.11.49,1.57,1.57,0,0,0,.81-.2,1.94,1.94,0,0,0,.59-.52l.55.43A2.23,2.23,0,0,1,106.25,37.13Zm-.12-4.73a1.23,1.23,0,0,0-.92.39,1.94,1.94,0,0,0-.45,1.12h2.64v-.07a1.66,1.66,0,0,0-.37-1.06A1.11,1.11,0,0,0,106.13,32.4Z"/><path d="M109.13,34.35a3.09,3.09,0,0,1,.58-2,1.82,1.82,0,0,1,1.51-.74,1.87,1.87,0,0,1,1.47.64V29.54h.9V37h-.83l-.05-.57a1.83,1.83,0,0,1-1.5.66,1.79,1.79,0,0,1-1.5-.75,3.09,3.09,0,0,1-.58-2Zm.9.1a2.34,2.34,0,0,0,.38,1.41,1.18,1.18,0,0,0,1,.51,1.34,1.34,0,0,0,1.26-.77V33.17a1.33,1.33,0,0,0-1.25-.75,1.19,1.19,0,0,0-1,.51A2.58,2.58,0,0,0,110,34.45Z"/><path d="M5.9,59.25V62H5V54.93H7.59a2.62,2.62,0,0,1,1.83.59,2,2,0,0,1,.66,1.58,2,2,0,0,1-.65,1.59,2.71,2.71,0,0,1-1.85.56Zm0-.76H7.59a1.67,1.67,0,0,0,1.15-.36,1.29,1.29,0,0,0,.4-1,1.32,1.32,0,0,0-.4-1,1.56,1.56,0,0,0-1.1-.4H5.9Z"/><path d="M14.34,62a2.31,2.31,0,0,1-.13-.56,2,2,0,0,1-1.5.65,1.83,1.83,0,0,1-1.28-.44,1.41,1.41,0,0,1-.5-1.12,1.48,1.48,0,0,1,.63-1.28,2.88,2.88,0,0,1,1.76-.46h.88v-.41a1.06,1.06,0,0,0-.28-.76,1.18,1.18,0,0,0-.84-.28,1.28,1.28,0,0,0-.81.25.71.71,0,0,0-.33.59H11a1.24,1.24,0,0,1,.28-.77,1.88,1.88,0,0,1,.76-.58,2.6,2.6,0,0,1,1.05-.22,2.14,2.14,0,0,1,1.44.46,1.65,1.65,0,0,1,.53,1.26V60.8A2.86,2.86,0,0,0,15.29,62V62Zm-1.5-.69a1.7,1.7,0,0,0,.81-.22,1.43,1.43,0,0,0,.55-.57V59.47h-.71c-1.11,0-1.66.33-1.66,1a.85.85,0,0,0,.28.67A1.11,1.11,0,0,0,12.84,61.35Z"/><path d="M16.52,55.35a.53.53,0,0,1,.14-.37.51.51,0,0,1,.4-.15.54.54,0,0,1,.4.89.56.56,0,0,1-.4.14.54.54,0,0,1-.4-.14A.53.53,0,0,1,16.52,55.35Zm1,6.69h-.9V56.75h.9Z"/><path d="M21.5,57.56a3.19,3.19,0,0,0-.45,0,1.18,1.18,0,0,0-1.2.76V62H19V56.75h.87l0,.61a1.4,1.4,0,0,1,1.26-.71,1,1,0,0,1,.4.07Z"/><path d="M22.33,55.35a.53.53,0,0,1,.14-.37.51.51,0,0,1,.4-.15.54.54,0,0,1,.4.89.56.56,0,0,1-.4.14.54.54,0,0,1-.4-.14A.53.53,0,0,1,22.33,55.35Zm1,6.69h-.9V56.75h.9Z"/><path d="M25.61,56.75l0,.67a1.92,1.92,0,0,1,1.58-.77c1.12,0,1.68.63,1.69,1.89V62H28v-3.5a1.29,1.29,0,0,0-.26-.85,1.06,1.06,0,0,0-.8-.27,1.28,1.28,0,0,0-.77.24,1.55,1.55,0,0,0-.52.61V62h-.9V56.75Z"/><path d="M30.06,59.35a3.14,3.14,0,0,1,.57-2,1.85,1.85,0,0,1,1.51-.73,1.8,1.8,0,0,1,1.51.69l.05-.59h.82v5.16a2.12,2.12,0,0,1-.61,1.61,2.21,2.21,0,0,1-1.63.6,2.8,2.8,0,0,1-1.12-.25,1.86,1.86,0,0,1-.83-.67l.47-.54a1.75,1.75,0,0,0,1.42.72,1.38,1.38,0,0,0,1-.37,1.42,1.42,0,0,0,.37-1v-.45a1.87,1.87,0,0,1-1.48.62,1.82,1.82,0,0,1-1.5-.74A3.29,3.29,0,0,1,30.06,59.35Zm.91.1a2.41,2.41,0,0,0,.36,1.41,1.2,1.2,0,0,0,1,.51,1.31,1.31,0,0,0,1.25-.78V58.18a1.32,1.32,0,0,0-1.24-.76,1.19,1.19,0,0,0-1,.51A2.58,2.58,0,0,0,31,59.45Z"/><path d="M39.21,56.75l0,.59a2,2,0,0,1,1.57-.69,1.52,1.52,0,0,1,1.51.85,2,2,0,0,1,.69-.61,2,2,0,0,1,1-.24c1.16,0,1.75.62,1.77,1.85V62h-.9V58.55a1.23,1.23,0,0,0-.26-.85,1.12,1.12,0,0,0-.87-.28,1.18,1.18,0,0,0-1.22,1.11V62H41.6V58.57a1,1,0,0,0-1.13-1.15,1.2,1.2,0,0,0-1.21.76V62h-.91V56.75Z"/><path d="M46.88,59.35a3.17,3.17,0,0,1,.31-1.4A2.28,2.28,0,0,1,48,57a2.35,2.35,0,0,1,1.24-.34A2.24,2.24,0,0,1,51,57.4a2.9,2.9,0,0,1,.66,2v.06a3.12,3.12,0,0,1-.29,1.39,2.24,2.24,0,0,1-.85.95,2.29,2.29,0,0,1-1.26.34,2.26,2.26,0,0,1-1.74-.74,2.89,2.89,0,0,1-.67-2Zm.91.1a2.25,2.25,0,0,0,.41,1.41,1.38,1.38,0,0,0,2.19,0,2.49,2.49,0,0,0,.4-1.51,2.29,2.29,0,0,0-.41-1.41,1.32,1.32,0,0,0-1.1-.54,1.3,1.3,0,0,0-1.08.53A2.46,2.46,0,0,0,47.79,59.45Z"/><path d="M52.61,59.35a3.15,3.15,0,0,1,.57-2,2,2,0,0,1,3-.1V54.54h.91V62h-.83l-.05-.57a1.84,1.84,0,0,1-1.51.66,1.79,1.79,0,0,1-1.49-.75,3.11,3.11,0,0,1-.58-2Zm.9.1a2.34,2.34,0,0,0,.37,1.41,1.2,1.2,0,0,0,1,.51,1.32,1.32,0,0,0,1.25-.77V58.17a1.32,1.32,0,0,0-1.24-.75,1.21,1.21,0,0,0-1,.51A2.58,2.58,0,0,0,53.51,59.45Z"/><path d="M60.66,62.13a2.31,2.31,0,0,1-1.75-.7,2.62,2.62,0,0,1-.67-1.89v-.17a3.16,3.16,0,0,1,.3-1.4,2.41,2.41,0,0,1,.84-1,2.14,2.14,0,0,1,1.17-.35,2,2,0,0,1,1.6.68,3,3,0,0,1,.57,2v.37H59.14a1.87,1.87,0,0,0,.46,1.26,1.41,1.41,0,0,0,1.11.49,1.57,1.57,0,0,0,.81-.2,2,2,0,0,0,.58-.52l.55.43A2.22,2.22,0,0,1,60.66,62.13Zm-.11-4.73a1.22,1.22,0,0,0-.92.39,2,2,0,0,0-.46,1.12h2.65v-.07a1.72,1.72,0,0,0-.37-1.06A1.14,1.14,0,0,0,60.55,57.4Z"/><path d="M68.12,59.38H65.74v-.73h2.38Z"/><path d="M74.35,62h-.91V56l-1.82.67v-.82l2.59-1h.14Z"/><path d="M79.33,59.35a3.16,3.16,0,0,1,.3-1.4,2.28,2.28,0,0,1,.85-1,2.35,2.35,0,0,1,1.24-.34,2.24,2.24,0,0,1,1.75.75,2.9,2.9,0,0,1,.67,2v.06a3.12,3.12,0,0,1-.3,1.39,2.29,2.29,0,0,1-.84.95,2.34,2.34,0,0,1-1.27.34A2.26,2.26,0,0,1,80,61.39a2.89,2.89,0,0,1-.66-2Zm.9.1a2.25,2.25,0,0,0,.41,1.41,1.38,1.38,0,0,0,2.19,0,2.49,2.49,0,0,0,.4-1.51,2.29,2.29,0,0,0-.41-1.41,1.32,1.32,0,0,0-1.1-.54,1.3,1.3,0,0,0-1.08.53A2.46,2.46,0,0,0,80.23,59.45Z"/><path d="M87.39,61.4a1.27,1.27,0,0,0,.84-.3,1,1,0,0,0,.4-.73h.86a1.6,1.6,0,0,1-.32.86,2,2,0,0,1-.76.66,2.28,2.28,0,0,1-1,.24,2.19,2.19,0,0,1-1.72-.72,2.88,2.88,0,0,1-.64-2v-.15a3.17,3.17,0,0,1,.29-1.37,2.17,2.17,0,0,1,.81-.93,2.31,2.31,0,0,1,1.25-.34,2.09,2.09,0,0,1,1.48.54,1.91,1.91,0,0,1,.63,1.38h-.86a1.22,1.22,0,0,0-.38-.84,1.36,1.36,0,0,0-1.93.16,2.29,2.29,0,0,0-.38,1.44v.17a2.27,2.27,0,0,0,.37,1.4A1.28,1.28,0,0,0,87.39,61.4Z"/><path d="M93.76,61.51a1.88,1.88,0,0,1-1.54.62,1.62,1.62,0,0,1-1.29-.49,2.18,2.18,0,0,1-.45-1.45V56.75h.91v3.42c0,.8.32,1.2,1,1.2a1.36,1.36,0,0,0,1.38-.77V56.75h.9V62h-.86Z"/><path d="M100.48,59.45a3.24,3.24,0,0,1-.55,1.95,1.78,1.78,0,0,1-1.5.73,1.92,1.92,0,0,1-1.51-.61v2.55H96V56.75h.82l0,.59a1.86,1.86,0,0,1,1.54-.69,1.79,1.79,0,0,1,1.5.72,3.21,3.21,0,0,1,.56,2Zm-.9-.1a2.27,2.27,0,0,0-.39-1.41,1.21,1.21,0,0,0-1-.52,1.31,1.31,0,0,0-1.23.73v2.52a1.34,1.34,0,0,0,1.24.73,1.23,1.23,0,0,0,1-.52A2.5,2.5,0,0,0,99.58,59.35Z"/><path d="M101.63,55.35a.57.57,0,0,1,.13-.37.52.52,0,0,1,.4-.15.51.51,0,0,1,.4.15.56.56,0,0,1,0,.74.54.54,0,0,1-.4.14.56.56,0,0,1-.4-.14A.57.57,0,0,1,101.63,55.35Zm1,6.69h-.91V56.75h.91Z"/><path d="M106.25,62.13a2.31,2.31,0,0,1-1.75-.7,2.62,2.62,0,0,1-.68-1.89v-.17a3.16,3.16,0,0,1,.3-1.4,2.41,2.41,0,0,1,.84-1,2.14,2.14,0,0,1,1.17-.35,2,2,0,0,1,1.6.68,2.91,2.91,0,0,1,.58,2v.37h-3.58a1.86,1.86,0,0,0,.45,1.26,1.41,1.41,0,0,0,1.11.49,1.57,1.57,0,0,0,.81-.2,1.94,1.94,0,0,0,.59-.52l.55.43A2.23,2.23,0,0,1,106.25,62.13Zm-.12-4.73a1.23,1.23,0,0,0-.92.39,1.94,1.94,0,0,0-.45,1.12h2.64v-.07a1.66,1.66,0,0,0-.37-1.06A1.11,1.11,0,0,0,106.13,57.4Z"/><path d="M109.13,59.35a3.09,3.09,0,0,1,.58-2,1.82,1.82,0,0,1,1.51-.74,1.87,1.87,0,0,1,1.47.64V54.54h.9V62h-.83l-.05-.57a1.83,1.83,0,0,1-1.5.66,1.79,1.79,0,0,1-1.5-.75,3.11,3.11,0,0,1-.58-2Zm.9.1a2.34,2.34,0,0,0,.38,1.41,1.18,1.18,0,0,0,1,.51,1.34,1.34,0,0,0,1.26-.77V58.17a1.33,1.33,0,0,0-1.25-.75,1.19,1.19,0,0,0-1,.51A2.58,2.58,0,0,0,110,59.45Z"/><path d="M5.9,84.25V87H5V79.93H7.59a2.67,2.67,0,0,1,1.83.59,2,2,0,0,1,.66,1.58,2,2,0,0,1-.65,1.59,2.71,2.71,0,0,1-1.85.56Zm0-.76H7.59a1.67,1.67,0,0,0,1.15-.36,1.29,1.29,0,0,0,.4-1,1.32,1.32,0,0,0-.4-1,1.56,1.56,0,0,0-1.1-.4H5.9Z"/><path d="M14.34,87a2.31,2.31,0,0,1-.13-.56,2,2,0,0,1-1.5.65,1.83,1.83,0,0,1-1.28-.44,1.41,1.41,0,0,1-.5-1.12,1.48,1.48,0,0,1,.63-1.28,2.88,2.88,0,0,1,1.76-.46h.88v-.41a1.06,1.06,0,0,0-.28-.76,1.18,1.18,0,0,0-.84-.28,1.28,1.28,0,0,0-.81.25.71.71,0,0,0-.33.59H11a1.24,1.24,0,0,1,.28-.77,1.88,1.88,0,0,1,.76-.58,2.6,2.6,0,0,1,1.05-.22,2.14,2.14,0,0,1,1.44.46,1.65,1.65,0,0,1,.53,1.26V85.8A2.86,2.86,0,0,0,15.29,87V87Zm-1.5-.69a1.7,1.7,0,0,0,.81-.22,1.43,1.43,0,0,0,.55-.57V84.47h-.71c-1.11,0-1.66.33-1.66,1a.85.85,0,0,0,.28.67A1.11,1.11,0,0,0,12.84,86.35Z"/><path d="M16.52,80.35a.53.53,0,0,1,.14-.37.51.51,0,0,1,.4-.15.54.54,0,0,1,.4.89.56.56,0,0,1-.4.14.54.54,0,0,1-.4-.14A.53.53,0,0,1,16.52,80.35Zm1,6.69h-.9V81.75h.9Z"/><path d="M21.5,82.56a3.19,3.19,0,0,0-.45,0,1.18,1.18,0,0,0-1.2.76V87H19V81.75h.87l0,.61a1.4,1.4,0,0,1,1.26-.71,1,1,0,0,1,.4.07Z"/><path d="M22.33,80.35a.53.53,0,0,1,.14-.37.51.51,0,0,1,.4-.15.54.54,0,0,1,.4.89.56.56,0,0,1-.4.14.54.54,0,0,1-.4-.14A.53.53,0,0,1,22.33,80.35Zm1,6.69h-.9V81.75h.9Z"/><path d="M25.61,81.75l0,.67a1.92,1.92,0,0,1,1.58-.77c1.12,0,1.68.63,1.69,1.89V87H28v-3.5a1.29,1.29,0,0,0-.26-.85,1.06,1.06,0,0,0-.8-.27,1.28,1.28,0,0,0-.77.24,1.55,1.55,0,0,0-.52.61V87h-.9V81.75Z"/><path d="M30.06,84.35a3.09,3.09,0,0,1,.57-2,1.83,1.83,0,0,1,1.51-.74,1.8,1.8,0,0,1,1.51.69l.05-.59h.82v5.16a2.12,2.12,0,0,1-.61,1.61,2.21,2.21,0,0,1-1.63.6,2.8,2.8,0,0,1-1.12-.25,1.86,1.86,0,0,1-.83-.67l.47-.54a1.75,1.75,0,0,0,1.42.72,1.38,1.38,0,0,0,1-.37A1.42,1.42,0,0,0,33.61,87v-.45a1.87,1.87,0,0,1-1.48.62,1.82,1.82,0,0,1-1.5-.74A3.29,3.29,0,0,1,30.06,84.35Zm.91.1a2.41,2.41,0,0,0,.36,1.41,1.2,1.2,0,0,0,1,.51,1.31,1.31,0,0,0,1.25-.78V83.18a1.32,1.32,0,0,0-1.24-.76,1.19,1.19,0,0,0-1,.51A2.58,2.58,0,0,0,31,84.45Z"/><path d="M39.21,81.75l0,.59a2,2,0,0,1,1.57-.69,1.52,1.52,0,0,1,1.51.85,2,2,0,0,1,.69-.61,2,2,0,0,1,1-.24c1.16,0,1.75.62,1.77,1.85V87h-.9V83.55a1.23,1.23,0,0,0-.26-.85,1.12,1.12,0,0,0-.87-.28,1.18,1.18,0,0,0-1.22,1.11V87H41.6V83.57a1,1,0,0,0-1.13-1.15,1.2,1.2,0,0,0-1.21.76V87h-.91V81.75Z"/><path d="M46.88,84.35a3.17,3.17,0,0,1,.31-1.4,2.25,2.25,0,0,1,2.09-1.3A2.24,2.24,0,0,1,51,82.4a2.9,2.9,0,0,1,.66,2v.06a3.12,3.12,0,0,1-.29,1.39,2.24,2.24,0,0,1-.85,1,2.29,2.29,0,0,1-1.26.34,2.26,2.26,0,0,1-1.74-.74,2.89,2.89,0,0,1-.67-2Zm.91.1a2.25,2.25,0,0,0,.41,1.41,1.38,1.38,0,0,0,2.19,0,2.49,2.49,0,0,0,.4-1.51,2.29,2.29,0,0,0-.41-1.41,1.32,1.32,0,0,0-1.1-.54,1.3,1.3,0,0,0-1.08.53A2.46,2.46,0,0,0,47.79,84.45Z"/><path d="M52.61,84.35a3.15,3.15,0,0,1,.57-2,2,2,0,0,1,3-.1V79.54h.91V87h-.83l-.05-.57a1.84,1.84,0,0,1-1.51.66,1.79,1.79,0,0,1-1.49-.75,3.11,3.11,0,0,1-.58-2Zm.9.1a2.34,2.34,0,0,0,.37,1.41,1.2,1.2,0,0,0,1,.51,1.32,1.32,0,0,0,1.25-.77V83.17a1.32,1.32,0,0,0-1.24-.75,1.21,1.21,0,0,0-1,.51A2.58,2.58,0,0,0,53.51,84.45Z"/><path d="M60.66,87.13a2.31,2.31,0,0,1-1.75-.7,2.62,2.62,0,0,1-.67-1.89v-.17a3.16,3.16,0,0,1,.3-1.4,2.41,2.41,0,0,1,.84-1,2.14,2.14,0,0,1,1.17-.35,2,2,0,0,1,1.6.68,3,3,0,0,1,.57,2v.37H59.14a1.87,1.87,0,0,0,.46,1.26,1.41,1.41,0,0,0,1.11.49,1.57,1.57,0,0,0,.81-.2,2,2,0,0,0,.58-.52l.55.43A2.22,2.22,0,0,1,60.66,87.13Zm-.11-4.73a1.19,1.19,0,0,0-.92.4,1.89,1.89,0,0,0-.46,1.11h2.65v-.07a1.72,1.72,0,0,0-.37-1.06A1.14,1.14,0,0,0,60.55,82.4Z"/><path d="M68.12,84.38H65.74v-.73h2.38Z"/><path d="M76,87H71.38v-.65l2.46-2.74a5.58,5.58,0,0,0,.76-1,1.61,1.61,0,0,0,.2-.8,1.27,1.27,0,0,0-.33-.91,1.19,1.19,0,0,0-.9-.36,1.42,1.42,0,0,0-1,.38A1.47,1.47,0,0,0,72.15,82h-.9a2.12,2.12,0,0,1,.63-1.59,2.34,2.34,0,0,1,1.69-.6,2.26,2.26,0,0,1,1.57.52,1.79,1.79,0,0,1,.57,1.38,4,4,0,0,1-1.33,2.5L72.47,86.3H76Z"/><path d="M79.33,84.35a3.16,3.16,0,0,1,.3-1.4,2.25,2.25,0,0,1,2.09-1.3,2.24,2.24,0,0,1,1.75.75,2.9,2.9,0,0,1,.67,2v.06a3.12,3.12,0,0,1-.3,1.39,2.29,2.29,0,0,1-.84,1,2.34,2.34,0,0,1-1.27.34A2.26,2.26,0,0,1,80,86.39a2.89,2.89,0,0,1-.66-2Zm.9.1a2.25,2.25,0,0,0,.41,1.41,1.38,1.38,0,0,0,2.19,0,2.49,2.49,0,0,0,.4-1.51,2.29,2.29,0,0,0-.41-1.41,1.32,1.32,0,0,0-1.1-.54,1.3,1.3,0,0,0-1.08.53A2.46,2.46,0,0,0,80.23,84.45Z"/><path d="M87.39,86.4a1.27,1.27,0,0,0,.84-.3,1,1,0,0,0,.4-.73h.86a1.6,1.6,0,0,1-.32.86,2,2,0,0,1-.76.66,2.28,2.28,0,0,1-1,.24,2.19,2.19,0,0,1-1.72-.72,2.88,2.88,0,0,1-.64-2v-.15a3.17,3.17,0,0,1,.29-1.37,2.17,2.17,0,0,1,.81-.93,2.31,2.31,0,0,1,1.25-.34,2.09,2.09,0,0,1,1.48.54,1.91,1.91,0,0,1,.63,1.38h-.86a1.22,1.22,0,0,0-.38-.84,1.36,1.36,0,0,0-1.93.16,2.29,2.29,0,0,0-.38,1.44v.17a2.27,2.27,0,0,0,.37,1.4A1.28,1.28,0,0,0,87.39,86.4Z"/><path d="M93.76,86.51a1.88,1.88,0,0,1-1.54.62,1.62,1.62,0,0,1-1.29-.49,2.18,2.18,0,0,1-.45-1.45V81.75h.91v3.42c0,.8.32,1.2,1,1.2a1.36,1.36,0,0,0,1.38-.77V81.75h.9V87h-.86Z"/><path d="M100.48,84.45a3.24,3.24,0,0,1-.55,2,1.78,1.78,0,0,1-1.5.73,1.92,1.92,0,0,1-1.51-.61v2.55H96V81.75h.82l0,.59a1.86,1.86,0,0,1,1.54-.69,1.79,1.79,0,0,1,1.5.72,3.21,3.21,0,0,1,.56,2Zm-.9-.1a2.27,2.27,0,0,0-.39-1.41,1.21,1.21,0,0,0-1-.52,1.31,1.31,0,0,0-1.23.73v2.52a1.34,1.34,0,0,0,1.24.73,1.23,1.23,0,0,0,1-.52A2.5,2.5,0,0,0,99.58,84.35Z"/><path d="M101.63,80.35a.57.57,0,0,1,.13-.37.52.52,0,0,1,.4-.15.51.51,0,0,1,.4.15.56.56,0,0,1,0,.74.54.54,0,0,1-.4.14.56.56,0,0,1-.4-.14A.57.57,0,0,1,101.63,80.35Zm1,6.69h-.91V81.75h.91Z"/><path d="M106.25,87.13a2.31,2.31,0,0,1-1.75-.7,2.62,2.62,0,0,1-.68-1.89v-.17a3.16,3.16,0,0,1,.3-1.4,2.41,2.41,0,0,1,.84-1,2.14,2.14,0,0,1,1.17-.35,2,2,0,0,1,1.6.68,2.91,2.91,0,0,1,.58,2v.37h-3.58a1.86,1.86,0,0,0,.45,1.26,1.41,1.41,0,0,0,1.11.49,1.57,1.57,0,0,0,.81-.2,1.94,1.94,0,0,0,.59-.52l.55.43A2.23,2.23,0,0,1,106.25,87.13Zm-.12-4.73a1.21,1.21,0,0,0-.92.4,1.88,1.88,0,0,0-.45,1.11h2.64v-.07a1.66,1.66,0,0,0-.37-1.06A1.11,1.11,0,0,0,106.13,82.4Z"/><path d="M109.13,84.35a3.09,3.09,0,0,1,.58-2,1.82,1.82,0,0,1,1.51-.74,1.87,1.87,0,0,1,1.47.64V79.54h.9V87h-.83l-.05-.57a1.83,1.83,0,0,1-1.5.66,1.79,1.79,0,0,1-1.5-.75,3.11,3.11,0,0,1-.58-2Zm.9.1a2.34,2.34,0,0,0,.38,1.41,1.18,1.18,0,0,0,1,.51,1.34,1.34,0,0,0,1.26-.77V83.17a1.33,1.33,0,0,0-1.25-.75,1.19,1.19,0,0,0-1,.51A2.58,2.58,0,0,0,110,84.45Z"/><path d="M5.9,109.25V112H5v-7.11H7.59a2.67,2.67,0,0,1,1.83.59,2,2,0,0,1,.66,1.58,2,2,0,0,1-.65,1.59,2.71,2.71,0,0,1-1.85.56Zm0-.76H7.59a1.67,1.67,0,0,0,1.15-.36,1.29,1.29,0,0,0,.4-1,1.32,1.32,0,0,0-.4-1,1.56,1.56,0,0,0-1.1-.4H5.9Z"/><path d="M14.34,112a2.31,2.31,0,0,1-.13-.56,2,2,0,0,1-1.5.65,1.83,1.83,0,0,1-1.28-.44,1.41,1.41,0,0,1-.5-1.12,1.48,1.48,0,0,1,.63-1.28,2.88,2.88,0,0,1,1.76-.46h.88v-.41a1.06,1.06,0,0,0-.28-.76,1.18,1.18,0,0,0-.84-.28,1.28,1.28,0,0,0-.81.25.71.71,0,0,0-.33.59H11a1.24,1.24,0,0,1,.28-.77,1.88,1.88,0,0,1,.76-.58,2.6,2.6,0,0,1,1.05-.22,2.14,2.14,0,0,1,1.44.46,1.65,1.65,0,0,1,.53,1.26v2.43a2.86,2.86,0,0,0,.19,1.16V112Zm-1.5-.69a1.7,1.7,0,0,0,.81-.22,1.43,1.43,0,0,0,.55-.57v-1.09h-.71c-1.11,0-1.66.33-1.66,1a.85.85,0,0,0,.28.67A1.11,1.11,0,0,0,12.84,111.35Z"/><path d="M16.52,105.35a.53.53,0,0,1,.14-.37.51.51,0,0,1,.4-.15.54.54,0,0,1,.4.89.56.56,0,0,1-.4.14.54.54,0,0,1-.4-.14A.53.53,0,0,1,16.52,105.35Zm1,6.69h-.9v-5.29h.9Z"/><path d="M21.5,107.56a3.19,3.19,0,0,0-.45,0,1.18,1.18,0,0,0-1.2.76V112H19v-5.29h.87l0,.61a1.4,1.4,0,0,1,1.26-.71,1,1,0,0,1,.4.07Z"/><path d="M22.33,105.35a.53.53,0,0,1,.14-.37.51.51,0,0,1,.4-.15.54.54,0,0,1,.4.89.56.56,0,0,1-.4.14.54.54,0,0,1-.4-.14A.53.53,0,0,1,22.33,105.35Zm1,6.69h-.9v-5.29h.9Z"/><path d="M25.61,106.75l0,.67a1.92,1.92,0,0,1,1.58-.77c1.12,0,1.68.63,1.69,1.89V112H28v-3.5a1.29,1.29,0,0,0-.26-.85,1.06,1.06,0,0,0-.8-.27,1.28,1.28,0,0,0-.77.24,1.55,1.55,0,0,0-.52.61V112h-.9v-5.29Z"/><path d="M30.06,109.35a3.09,3.09,0,0,1,.57-2,1.83,1.83,0,0,1,1.51-.74,1.8,1.8,0,0,1,1.51.69l.05-.59h.82v5.16a2.12,2.12,0,0,1-.61,1.61,2.21,2.21,0,0,1-1.63.6,2.8,2.8,0,0,1-1.12-.25,1.86,1.86,0,0,1-.83-.67l.47-.54a1.75,1.75,0,0,0,1.42.72,1.38,1.38,0,0,0,1-.37,1.42,1.42,0,0,0,.37-1.05v-.45a1.87,1.87,0,0,1-1.48.62,1.82,1.82,0,0,1-1.5-.74A3.29,3.29,0,0,1,30.06,109.35Zm.91.1a2.41,2.41,0,0,0,.36,1.41,1.2,1.2,0,0,0,1,.51,1.31,1.31,0,0,0,1.25-.78v-2.41a1.32,1.32,0,0,0-1.24-.76,1.19,1.19,0,0,0-1,.51A2.58,2.58,0,0,0,31,109.45Z"/><path d="M39.21,106.75l0,.59a2,2,0,0,1,1.57-.69,1.52,1.52,0,0,1,1.51.85,2,2,0,0,1,.69-.61,2,2,0,0,1,1-.24c1.16,0,1.75.62,1.77,1.85V112h-.9v-3.49a1.23,1.23,0,0,0-.26-.85,1.12,1.12,0,0,0-.87-.28,1.18,1.18,0,0,0-1.22,1.11V112H41.6v-3.47a1,1,0,0,0-1.13-1.15,1.2,1.2,0,0,0-1.21.76V112h-.91v-5.29Z"/><path d="M46.88,109.35a3.17,3.17,0,0,1,.31-1.4,2.25,2.25,0,0,1,2.09-1.3,2.24,2.24,0,0,1,1.75.75,2.9,2.9,0,0,1,.66,2v.06a3.12,3.12,0,0,1-.29,1.39,2.24,2.24,0,0,1-.85,1,2.29,2.29,0,0,1-1.26.34,2.26,2.26,0,0,1-1.74-.74,2.89,2.89,0,0,1-.67-2Zm.91.1a2.25,2.25,0,0,0,.41,1.41,1.38,1.38,0,0,0,2.19,0,2.49,2.49,0,0,0,.4-1.51,2.29,2.29,0,0,0-.41-1.41,1.32,1.32,0,0,0-1.1-.54,1.3,1.3,0,0,0-1.08.53A2.46,2.46,0,0,0,47.79,109.45Z"/><path d="M52.61,109.35a3.15,3.15,0,0,1,.57-2,2,2,0,0,1,3-.1v-2.75h.91V112h-.83l-.05-.57a1.84,1.84,0,0,1-1.51.66,1.79,1.79,0,0,1-1.49-.75,3.11,3.11,0,0,1-.58-2Zm.9.1a2.34,2.34,0,0,0,.37,1.41,1.2,1.2,0,0,0,1,.51,1.32,1.32,0,0,0,1.25-.77v-2.43a1.32,1.32,0,0,0-1.24-.75,1.21,1.21,0,0,0-1,.51A2.58,2.58,0,0,0,53.51,109.45Z"/><path d="M60.66,112.13a2.31,2.31,0,0,1-1.75-.7,2.62,2.62,0,0,1-.67-1.89v-.17a3.16,3.16,0,0,1,.3-1.4,2.41,2.41,0,0,1,.84-1,2.14,2.14,0,0,1,1.17-.35,2,2,0,0,1,1.6.68,3,3,0,0,1,.57,2v.37H59.14a1.87,1.87,0,0,0,.46,1.26,1.41,1.41,0,0,0,1.11.49,1.57,1.57,0,0,0,.81-.2,2,2,0,0,0,.58-.52l.55.43A2.22,2.22,0,0,1,60.66,112.13Zm-.11-4.73a1.19,1.19,0,0,0-.92.4,1.89,1.89,0,0,0-.46,1.11h2.65v-.07a1.72,1.72,0,0,0-.37-1.06A1.14,1.14,0,0,0,60.55,107.4Z"/><path d="M68.12,109.38H65.74v-.73h2.38Z"/><path d="M72.7,108h.67a1.45,1.45,0,0,0,1-.34,1.12,1.12,0,0,0,.37-.88,1.11,1.11,0,0,0-1.25-1.25,1.29,1.29,0,0,0-.93.33,1.16,1.16,0,0,0-.35.89h-.91a1.81,1.81,0,0,1,.62-1.4,2.22,2.22,0,0,1,1.57-.56,2.25,2.25,0,0,1,1.58.53,1.94,1.94,0,0,1,.57,1.48,1.57,1.57,0,0,1-.3.9,1.84,1.84,0,0,1-.82.65,1.8,1.8,0,0,1,.91.61,1.74,1.74,0,0,1,.32,1,1.93,1.93,0,0,1-.63,1.52,2.32,2.32,0,0,1-1.62.56,2.41,2.41,0,0,1-1.63-.54,1.79,1.79,0,0,1-.63-1.43h.91a1.18,1.18,0,0,0,.36.9,1.45,1.45,0,0,0,1,.34,1.37,1.37,0,0,0,1-.35,1.3,1.3,0,0,0,.34-1,1.17,1.17,0,0,0-.38-.95,1.68,1.68,0,0,0-1.1-.34H72.7Z"/><path d="M79.33,109.35a3.16,3.16,0,0,1,.3-1.4,2.25,2.25,0,0,1,2.09-1.3,2.24,2.24,0,0,1,1.75.75,2.9,2.9,0,0,1,.67,2v.06a3.12,3.12,0,0,1-.3,1.39,2.29,2.29,0,0,1-.84,1,2.34,2.34,0,0,1-1.27.34,2.26,2.26,0,0,1-1.74-.74,2.89,2.89,0,0,1-.66-2Zm.9.1a2.25,2.25,0,0,0,.41,1.41,1.38,1.38,0,0,0,2.19,0,2.49,2.49,0,0,0,.4-1.51,2.29,2.29,0,0,0-.41-1.41,1.32,1.32,0,0,0-1.1-.54,1.3,1.3,0,0,0-1.08.53A2.46,2.46,0,0,0,80.23,109.45Z"/><path d="M87.39,111.4a1.27,1.27,0,0,0,.84-.3,1,1,0,0,0,.4-.73h.86a1.6,1.6,0,0,1-.32.86,2,2,0,0,1-.76.66,2.28,2.28,0,0,1-1,.24,2.19,2.19,0,0,1-1.72-.72,2.88,2.88,0,0,1-.64-2v-.15a3.17,3.17,0,0,1,.29-1.37,2.17,2.17,0,0,1,.81-.93,2.31,2.31,0,0,1,1.25-.34,2.09,2.09,0,0,1,1.48.54,1.91,1.91,0,0,1,.63,1.38h-.86a1.22,1.22,0,0,0-.38-.84,1.36,1.36,0,0,0-1.93.16,2.29,2.29,0,0,0-.38,1.44v.17a2.27,2.27,0,0,0,.37,1.4A1.28,1.28,0,0,0,87.39,111.4Z"/><path d="M93.76,111.51a1.88,1.88,0,0,1-1.54.62,1.62,1.62,0,0,1-1.29-.49,2.18,2.18,0,0,1-.45-1.45v-3.44h.91v3.42c0,.8.32,1.2,1,1.2a1.36,1.36,0,0,0,1.38-.77v-3.85h.9V112h-.86Z"/><path d="M100.48,109.45a3.24,3.24,0,0,1-.55,2,1.78,1.78,0,0,1-1.5.73,1.92,1.92,0,0,1-1.51-.61v2.55H96v-7.32h.82l0,.59a1.86,1.86,0,0,1,1.54-.69,1.79,1.79,0,0,1,1.5.72,3.21,3.21,0,0,1,.56,2Zm-.9-.1a2.27,2.27,0,0,0-.39-1.41,1.21,1.21,0,0,0-1-.52,1.31,1.31,0,0,0-1.23.73v2.52a1.34,1.34,0,0,0,1.24.73,1.23,1.23,0,0,0,1-.52A2.5,2.5,0,0,0,99.58,109.35Z"/><path d="M101.63,105.35a.57.57,0,0,1,.13-.37.52.52,0,0,1,.4-.15.51.51,0,0,1,.4.15.56.56,0,0,1,0,.74.54.54,0,0,1-.4.14.56.56,0,0,1-.4-.14A.57.57,0,0,1,101.63,105.35Zm1,6.69h-.91v-5.29h.91Z"/><path d="M106.25,112.13a2.31,2.31,0,0,1-1.75-.7,2.62,2.62,0,0,1-.68-1.89v-.17a3.16,3.16,0,0,1,.3-1.4,2.41,2.41,0,0,1,.84-1,2.14,2.14,0,0,1,1.17-.35,2,2,0,0,1,1.6.68,2.91,2.91,0,0,1,.58,2v.37h-3.58a1.86,1.86,0,0,0,.45,1.26,1.41,1.41,0,0,0,1.11.49,1.57,1.57,0,0,0,.81-.2,1.94,1.94,0,0,0,.59-.52l.55.43A2.23,2.23,0,0,1,106.25,112.13Zm-.12-4.73a1.21,1.21,0,0,0-.92.4,1.88,1.88,0,0,0-.45,1.11h2.64v-.07a1.66,1.66,0,0,0-.37-1.06A1.11,1.11,0,0,0,106.13,107.4Z"/><path d="M109.13,109.35a3.09,3.09,0,0,1,.58-2,1.82,1.82,0,0,1,1.51-.74,1.87,1.87,0,0,1,1.47.64v-2.75h.9V112h-.83l-.05-.57a1.83,1.83,0,0,1-1.5.66,1.79,1.79,0,0,1-1.5-.75,3.11,3.11,0,0,1-.58-2Zm.9.1a2.34,2.34,0,0,0,.38,1.41,1.18,1.18,0,0,0,1,.51,1.34,1.34,0,0,0,1.26-.77v-2.43a1.33,1.33,0,0,0-1.25-.75,1.19,1.19,0,0,0-1,.51A2.58,2.58,0,0,0,110,109.45Z"/><line class="d" x1="138" y1="-108.85" x2="138" y2="277.15"/><line class="d" x1="163" y1="-108.85" x2="163" y2="277.15"/><line class="d" x1="188" y1="-108.85" x2="188" y2="277.15"/><line class="d" x1="213" y1="-108.85" x2="213" y2="277.15"/><line class="d" x1="238" y1="-108.85" x2="238" y2="277.15"/><line class="d" x1="263" y1="-108.85" x2="263" y2="277.15"/><line class="d" x1="288" y1="-108.85" x2="288" y2="277.15"/><line class="d" x1="313" y1="-108.85" x2="313" y2="277.15"/><line class="d" x1="338" y1="-108.85" x2="338" y2="277.15"/><line class="d" x1="363" y1="-108.85" x2="363" y2="277.15"/><line class="d" x1="388" y1="-108.85" x2="388" y2="277.15"/></svg>