<svg id="Ebene_1" data-name="Ebene 1" xmlns="http://www.w3.org/2000/svg" xmlns:xlink="http://www.w3.org/1999/xlink" viewBox="0 0 385.55 117"><defs><style>.cls-1{fill:none;}.cls-2{fill:currentColor;}.cls-3{fill:#356cb4;}.cls-4{fill:#fe0;}.cls-5{fill:#d42526;}.cls-6{fill:#34b44a;}.cls-10,.cls-15,.cls-17,.cls-27,.cls-7{fill:#fff;}.cls-8{font-size:9.03px;}.cls-24,.cls-32,.cls-8{fill:#f4e724;}.cls-10,.cls-17,.cls-27,.cls-8{font-family:Roboto-Regular, Roboto;}.cls-9{clip-path:url(#clip-path);}.cls-10{font-size:13.62px;}.cls-11{clip-path:url(#clip-path-2);}.cls-12{clip-path:url(#clip-path-3);}.cls-13{fill:#002dff;}.cls-14,.cls-15{font-size:10.18px;font-family:Roboto-Medium, Roboto;font-weight:500;}.cls-16{fill:#f20618;}.cls-17{font-size:12.54px;}.cls-18{letter-spacing:0.01em;}.cls-19{letter-spacing:0em;}.cls-20{letter-spacing:-0.01em;}.cls-21{letter-spacing:0em;}.cls-22{letter-spacing:-0.03em;}.cls-23{letter-spacing:0em;}.cls-24{font-size:6.29px;}.cls-24,.cls-32{font-family:Roboto-Bold, Roboto;font-weight:700;}.cls-25{letter-spacing:0.01em;}.cls-26{letter-spacing:0.03em;}.cls-27{font-size:13.61px;}.cls-28{letter-spacing:-0.01em;}.cls-29{letter-spacing:-0.01em;}.cls-30{letter-spacing:-0.01em;}.cls-31{letter-spacing:0.01em;}.cls-32{font-size:6.82px;}.cls-33{letter-spacing:0em;}.cls-34{letter-spacing:0.03em;}</style><clipPath id="clip-path"><rect class="cls-1" x="103.96" y="93.27" width="63.28" height="14.88"/></clipPath><clipPath id="clip-path-2"><rect class="cls-1" x="103.96" y="57.69" width="63.28" height="14.88"/></clipPath><clipPath id="clip-path-3"><rect class="cls-1" x="103.96" y="22.37" width="63.28" height="14.88"/></clipPath></defs><g id="Encoder"><path id="Encoder-2" data-name="Encoder" class="cls-2" d="M332.42,58.14c0,4.81-2.3,1.85-3.26,5.83s2.4,2.77-.09,6.67-3,.58-5.74,3.41.65,3.58-3.41,5.75-2.6-1-6.67.08-1.14,3.26-5.83,3.26-2.05-2.13-5.82-3.26-2.53,2.3-6.68-.08-.51-2.84-3.36-5.69-3.29.5-5.79-3.47.54-3-.09-6.67-3.26-1-3.26-5.83,2.56-1.8,3.26-5.82-2.32-2.46.09-6.68,2.82-.72,5.74-3.4-.57-3.36,3.41-5.75,2.86,1,6.68-.08,1.22-3.26,5.82-3.26,1.87,2.09,5.83,3.26,2.42-2.35,6.67.08.42,3.08,3.41,5.75,3.41-1,5.74,3.4-.82,2.75.09,6.68,3.26,1,3.26,5.82"/><path id="Encoder_Outer" data-name="Encoder Outer" class="cls-2" d="M307.42,31.12a27,27,0,1,1-27,27,27.06,27.06,0,0,1,27-27m0-1.71a28.74,28.74,0,1,0,28.74,28.73,28.73,28.73,0,0,0-28.74-28.73Z"/></g><g id="Unit_3" data-name="Unit 3"><g id="Buttons_1_-_3" data-name="Buttons 1 - 3"><g id="Activity"><rect id="Button_Activity" data-name="Button Activity" class="cls-3" x="33.74" y="81.64" width="37.54" height="23.89" rx="1.11"/><rect id="Button_Activity-2" data-name="Button Activity" class="cls-3" x="33.74" y="45.93" width="37.54" height="23.89" rx="1.11"/><rect id="Button_Activity-3" data-name="Button Activity" class="cls-4" x="33.74" y="9.56" width="37.54" height="25.19" rx="1.11"/></g><g id="Borders"><path d="M66,107.64H39a7.2,7.2,0,0,1-7.18-7.19V86.73A7.19,7.19,0,0,1,39,79.54H66a7.2,7.2,0,0,1,7.19,7.19v13.72A7.2,7.2,0,0,1,66,107.64ZM39,82.1a4.63,4.63,0,0,0-4.62,4.63v13.72A4.63,4.63,0,0,0,39,105.08H66a4.64,4.64,0,0,0,4.63-4.63V86.73A4.64,4.64,0,0,0,66,82.1Z"/><path d="M66,71.92H39a7.19,7.19,0,0,1-7.18-7.19V51A7.19,7.19,0,0,1,39,43.83H66A7.2,7.2,0,0,1,73.19,51V64.73A7.2,7.2,0,0,1,66,71.92ZM39,46.38A4.63,4.63,0,0,0,34.4,51V64.73A4.63,4.63,0,0,0,39,69.36H66a4.64,4.64,0,0,0,4.63-4.63V51A4.64,4.64,0,0,0,66,46.38Z"/><path d="M66,36.2H39A7.19,7.19,0,0,1,31.84,29V15.29A7.19,7.19,0,0,1,39,8.11H66a7.2,7.2,0,0,1,7.19,7.18V29A7.2,7.2,0,0,1,66,36.2ZM39,10.67a4.62,4.62,0,0,0-4.62,4.62V29A4.62,4.62,0,0,0,39,33.64H66A4.63,4.63,0,0,0,70.63,29V15.29A4.63,4.63,0,0,0,66,10.67Z"/></g></g></g><g id="Display"><rect id="Display_Background" data-name="Display Background" x="97.61" y="4.74" width="141.89" height="106.42" rx="8.06"/><g id="Channel_1" data-name="Channel 1"><path id="Channel_Status" data-name="Channel Status" class="cls-5" d="M124,86.72,125,85h1l-1.56,2.36L126,89.75h-.94L124,88l-1.1,1.79h-.95l1.61-2.41L122,85h1Z"/><g id="Channel_Volume" data-name="Channel Volume"><rect class="cls-6" x="127.43" y="84.8" width="22.11" height="5.16"/><rect class="cls-7" x="149.54" y="84.8" width="1.56" height="5.16"/></g><rect id="Channel_Color" data-name="Channel Color" class="cls-4" x="98.89" y="76.97" width="68.39" height="5.11"/><text class="cls-8" transform="translate(104.21 90.48)">3</text><g class="cls-9"><text class="cls-10" transform="translate(105.15 104.69)">Light</text></g></g><g id="Channel_1-2" data-name="Channel 1"><path id="Channel_Status-2" data-name="Channel Status" class="cls-5" d="M124,51.14,125,49.4h1l-1.56,2.36L126,54.17h-.94L124,52.38l-1.1,1.79h-.95l1.61-2.41L122,49.4h1Z"/><g id="Channel_Volume-2" data-name="Channel Volume"><rect class="cls-6" x="127.43" y="49.22" width="22.11" height="5.16"/><rect class="cls-7" x="149.54" y="49.22" width="1.56" height="5.16"/></g><rect id="Channel_Color-2" data-name="Channel Color" class="cls-4" x="98.89" y="41.39" width="68.39" height="5.11"/><text class="cls-8" transform="translate(104.21 54.9)">2</text><g class="cls-11"><text class="cls-10" transform="translate(105.15 69.11)">Sound</text></g></g><g id="Channel_1-3" data-name="Channel 1"><path id="Channel_Status-3" data-name="Channel Status" class="cls-5" d="M124,15.81,125,14.07h1l-1.56,2.36L126,18.84h-.94L124,17.06l-1.1,1.78h-.95l1.61-2.41L122,14.07h1Z"/><g id="Channel_Volume-3" data-name="Channel Volume"><rect class="cls-6" x="127.43" y="13.9" width="22.11" height="5.16"/><rect class="cls-7" x="149.54" y="13.9" width="1.56" height="5.16"/></g><rect id="Channel_Color-3" data-name="Channel Color" class="cls-4" x="98.89" y="6.07" width="68.39" height="5.11"/><text class="cls-8" transform="translate(104.21 19.57)">1</text><g class="cls-12"><text class="cls-10" transform="translate(105.15 33.79)">Show</text></g></g><rect id="Display_Divider_Vertical" data-name="Display Divider Vertical" class="cls-13" x="167.28" y="6.02" width="2.55" height="103.87"/><rect id="Display_Divider_Horizontal" data-name="Display Divider Horizontal" class="cls-13" x="98.89" y="38.84" width="139.34" height="2.55"/><rect id="Display_Divider_Horizontal-2" data-name="Display Divider Horizontal" class="cls-13" x="98.89" y="74.5" width="139.34" height="2.55"/><path id="Display_Border" data-name="Display Border" d="M233.47,112.44H103.64a7.32,7.32,0,0,1-7.31-7.31V10.78a7.32,7.32,0,0,1,7.31-7.31H233.47a7.32,7.32,0,0,1,7.31,7.31v94.35A7.32,7.32,0,0,1,233.47,112.44ZM103.64,6a4.76,4.76,0,0,0-4.75,4.76v94.35a4.76,4.76,0,0,0,4.75,4.76H233.47a4.76,4.76,0,0,0,4.76-4.76V10.78A4.77,4.77,0,0,0,233.47,6Z"/><g id="Channel_6" data-name="Channel 6"><g id="Function_Half-Left" data-name="Function Half-Left"><g id="Function_Half-Left_Border" data-name="Function Half-Left Border"><rect class="cls-4" x="169.83" y="77.17" width="34.07" height="32.72" rx="5.07"/></g><text class="cls-14" transform="translate(172.89 97.3)">Listen</text></g><g id="Function_Half-Right" data-name="Function Half-Right"><text class="cls-15" transform="translate(212.22 97.3)">Call</text><path id="Function_Half-Right_Border" data-name="Function Half-Right Border" class="cls-16" d="M234.58,80.56l.09,25.94-27.37.08-.09-26h27.37m.09-3.39H207.21a3.31,3.31,0,0,0-3.31,3.31v26.1a3.31,3.31,0,0,0,3.31,3.31h27.46a3.31,3.31,0,0,0,3.3-3.31V80.48a3.31,3.31,0,0,0-3.3-3.31Z"/></g></g><g id="Channel_1-4" data-name="Channel 1"><text class="cls-17" transform="translate(175.94 32.63)"><tspan class="cls-18">S</tspan><tspan class="cls-19" x="7.57" y="0">p</tspan><tspan class="cls-20" x="14.61" y="0">e</tspan><tspan class="cls-21" x="21.19" y="0">a</tspan><tspan class="cls-22" x="27.97" y="0">k</tspan><tspan class="cls-23" x="34" y="0">e</tspan><tspan x="40.7" y="0">r</tspan></text><text class="cls-24" transform="translate(176.01 18.71)"><tspan class="cls-25">V</tspan><tspan class="cls-26" x="4.15" y="0">O</tspan><tspan x="8.68" y="0">L</tspan></text><g id="Channel_Volume-4" data-name="Channel Volume"><rect class="cls-6" x="191.45" y="13.9" width="22.11" height="5.16"/><rect class="cls-7" x="213.56" y="13.9" width="1.56" height="5.16"/></g></g><g id="Channel_2" data-name="Channel 2"><g id="Channel_Volume-5" data-name="Channel Volume"><rect class="cls-6" x="194.99" y="49.01" width="4.14" height="5.17"/><rect class="cls-7" x="221.07" y="49.01" width="2.59" height="5.17"/></g><text class="cls-27" transform="translate(176.03 68.95)">H<tspan class="cls-28" x="9.7" y="0">e</tspan><tspan class="cls-29" x="16.84" y="0">a</tspan><tspan class="cls-30" x="24.15" y="0">ds</tspan><tspan class="cls-31" x="38.66" y="0">e</tspan><tspan x="45.95" y="0">t</tspan></text><text class="cls-32" transform="translate(176.03 54.16)"><tspan class="cls-33">V</tspan><tspan class="cls-34" x="4.48" y="0">O</tspan><tspan x="9.39" y="0">L</tspan></text></g></g></svg>