<svg xmlns="http://www.w3.org/2000/svg"viewBox="0 0 36 36"><path  d="M33,7.8V28.2H3V7.8H33m.13-2H2.86A1.87,1.87,0,0,0,1,7.67V28.33A1.87,1.87,0,0,0,2.86,30.2H33.12A1.87,1.87,0,0,0,35,28.33V7.67A1.87,1.87,0,0,0,33.12,5.8Z"/><path  d="M11.37,21.32a3.2,3.2,0,1,1,3.2-3.2A3.2,3.2,0,0,1,11.37,21.32Zm0-5.75a2.56,2.56,0,1,0,2.56,2.56A2.56,2.56,0,0,0,11.37,15.57Z"/><path  d="M25.64,20.25a.33.33,0,0,1-.23-.09.31.31,0,0,1,0-.45l1.27-1.27H18l1.27,1.27a.31.31,0,0,1,0,.45.32.32,0,0,1-.45,0L17,18.36h0a.18.18,0,0,1-.05-.08.53.53,0,0,1,0-.12h0A.27.27,0,0,1,17,18s0-.06.06-.1h0l1.8-1.8a.32.32,0,1,1,.45.45L18,17.85h8.68l-1.27-1.27a.32.32,0,0,1,.45-.45l1.8,1.8h0a.21.21,0,0,1,.06.1.5.5,0,0,1,0,.13.31.31,0,0,1,0,.13h0a.24.24,0,0,1-.06.1h0l-1.8,1.8A.65.65,0,0,1,25.64,20.25Z"/></svg>