<svg xmlns="http://www.w3.org/2000/svg" viewBox="0 0 36 36"><path  d="M33,7.8V28.2H3V7.8H33m.13-2H2.86A1.87,1.87,0,0,0,1,7.67V28.33A1.87,1.87,0,0,0,2.86,30.2H33.12A1.87,1.87,0,0,0,35,28.33V7.67A1.87,1.87,0,0,0,33.12,5.8Z"/><path  d="M11.41,25.53a3.2,3.2,0,1,1,3.2-3.2A3.2,3.2,0,0,1,11.41,25.53Zm0-5.75A2.56,2.56,0,1,0,14,22.34,2.56,2.56,0,0,0,11.41,19.78Z"/><path  d="M25.68,24.48a.33.33,0,0,1-.23-.09.31.31,0,0,1,0-.45l1.27-1.27H17.26a.32.32,0,1,1,0-.64h9.46l-1.27-1.27a.32.32,0,1,1,.45-.45l1.8,1.8.06.08h0s0,0,0,0a.53.53,0,0,1,0,.12h0a.27.27,0,0,1,0,.12.24.24,0,0,1-.06.1l-1.8,1.8A.44.44,0,0,1,25.68,24.48Z"/><path  d="M11.41,16.85a3.2,3.2,0,1,1,3.2-3.2A3.2,3.2,0,0,1,11.41,16.85Zm0-5.75A2.56,2.56,0,1,0,14,13.66,2.56,2.56,0,0,0,11.41,11.1Z"/><path  d="M19.05,15.78a.33.33,0,0,1-.23-.09L17,13.89h0a.21.21,0,0,1-.06-.1.53.53,0,0,1,0-.12h0a.27.27,0,0,1,0-.12.35.35,0,0,1,.05-.08h0l1.8-1.8a.32.32,0,0,1,.45.45L18,13.38h9.46a.32.32,0,0,1,0,.64H18l1.27,1.27a.31.31,0,0,1,0,.45A1.58,1.58,0,0,1,19.05,15.78Z"/></svg>