<svg xmlns="http://www.w3.org/2000/svg" width="399.345" height="66.77mm" viewBox="0 0 299.52 189.26"><path d="M32.21 189.26h235.1a32.25 32.25 0 0032.21-32.21V86.3a32.23 32.23 0 00-32.21-32.2H32.21A32.23 32.23 0 000 86.3v70.75a32.25 32.25 0 0032.21 32.21zM10 86.3a22.26 22.26 0 0122.21-22.22h235.1a22.25 22.25 0 0122.23 22.22v70.75a22.26 22.26 0 01-22.23 22.23H32.21A22.27 22.27 0 0110 157.05z"/><path d="M140.51 160.45l-1.03 10.02 27.34-19.86L132.7 155l7.81 5.45zM115.99 99.16h67.53v45.03h-67.53z"/><ellipse cx="199.85" cy="144.54" rx="4.9" ry="7.62"/><circle cx="230.85" cy="144.54" r="13.61"/><ellipse cx="99.67" cy="144.54" rx="4.9" ry="7.62"/><circle cx="68.67" cy="144.54" r="13.61"/><ellipse cx="99.67" cy="98.81" rx="4.9" ry="7.62"/><circle cx="68.67" cy="98.81" r="13.61"/><ellipse cx="199.85" cy="98.81" rx="4.9" ry="7.62"/><circle cx="230.85" cy="98.81" r="13.61"/></svg>