<svg xmlns="http://www.w3.org/2000/svg" width="399.345" height="66.77mm" viewBox="0 0 299.52 189.26"><path d="M32.21 189.26h235.1a32.25 32.25 0 0032.21-32.21V86.3a32.23 32.23 0 00-32.21-32.2H32.21A32.23 32.23 0 000 86.3v70.75a32.25 32.25 0 0032.21 32.21zM10 86.3a22.26 22.26 0 0122.21-22.22h235.1a22.25 22.25 0 0122.23 22.22v70.75a22.26 22.26 0 01-22.23 22.23H32.21A22.27 22.27 0 0110 157.05z"/><path d="M140.51 160.45l-1.03 10.02 27.34-19.86L132.7 155l7.81 5.45zM115.99 99.16h67.53v45.03h-67.53z"/><ellipse cx="199.85" cy="144.54" rx="4.9" ry="7.62"/><circle cx="247.87" cy="121.68" r="22.86"/><circle cx="54.98" cy="121.68" r="22.86"/><ellipse cx="99.67" cy="144.54" rx="4.9" ry="7.62"/><ellipse cx="99.67" cy="98.81" rx="4.9" ry="7.62"/><ellipse cx="199.85" cy="98.81" rx="4.9" ry="7.62"/><path d="M82.85 53.21v1.34a1.78 1.78 0 01-1.37 1.73 1.54 1.54 0 01-.43.06H38.91a1.42 1.42 0 01-.42-.06 1.77 1.77 0 01-1.37-1.73v-1.34a1.79 1.79 0 011.79-1.79h2a22.87 22.87 0 0138.08 0h2a1.8 1.8 0 011.86 1.79zM265.73 53.21v1.34a1.78 1.78 0 01-1.37 1.73 1.54 1.54 0 01-.43.06h-42.14a1.42 1.42 0 01-.42-.06 1.77 1.77 0 01-1.37-1.73v-1.34a1.79 1.79 0 011.79-1.79h2a22.87 22.87 0 0138.08 0h2a1.8 1.8 0 011.86 1.79z"/></svg>