<svg viewBox="0 0 36 36" xmlns="http://www.w3.org/2000/svg"><path d="M12 16.14h-.87a8.67 8.67 0 00-6.43 2.52l-.24.28v8.28h4.08v-4.7l.55-.62.25-.29a11 11 0 014.71-2.86A6.59 6.59 0 0112 16.14zM31.34 18.63a8.67 8.67 0 00-6.43-2.52 10.47 10.47 0 00-1.09.06 6.59 6.59 0 01-2 2.45 10.91 10.91 0 015 3l.25.28.54.62v4.71h3.94v-8.32zM11.1 14.19h.31a6.45 6.45 0 013.11-6.29 4.09 4.09 0 10-3.42 6.33zM24.43 13.44a6.54 6.54 0 010 .69 4.09 4.09 0 00.58.05h.19A4.09 4.09 0 1021.47 8a6.53 6.53 0 012.96 5.44z"/><circle cx="17.87" cy="13.45" r="4.47"/><path d="M18.11 20.3A9.69 9.69 0 0011 23l-.25.28v6.33a1.57 1.57 0 001.6 1.54h11.49a1.57 1.57 0 001.6-1.54V23.3l-.24-.3a9.58 9.58 0 00-7.09-2.7z"/><path fill="none" d="M0 0h36v36H0z"/></svg>