<svg xmlns="http://www.w3.org/2000/svg" viewBox="0 0 36 36"><path d="M30.8 4.4c.5 0 .8.4.8.8v25.5c0 .5-.4.8-.8.8H5.2c-.5 0-.8-.4-.8-.8V5.2c0-.5.4-.8.8-.8h25.6m0-2H5.2c-1.6 0-2.8 1.3-2.8 2.8v25.5c0 1.6 1.3 2.8 2.8 2.8h25.5c1.6 0 2.8-1.3 2.8-2.8V5.2c.1-1.5-1.2-2.8-2.7-2.8z"/><path d="M11.3 12.4c.1.1.1.3.2.4.1-.1.1-.3.2-.4s.1-.3.2-.4l2.6-4.9c0-.1.1-.1.1-.1l.1-.1h1.5v8.9h-1.5V10v-.4-.4l-2.7 5c-.1.1-.1.2-.2.3-.1.1-.2.1-.3.1h-.2c-.1 0-.2 0-.3-.1-.1-.1-.2-.2-.2-.3l-2.7-5v6.5H6.7V6.8h1.5s.1 0 .1.1.1.1.2.2l2.7 4.9c0 .2.1.3.1.4zM20.8 15.7h-1.7V6.8h1.7v8.9zM24.1 11.2l-2.8-4.3h1.8l.2.1 2 3.3c0-.1 0-.1.1-.2s.1-.1.1-.2L27.4 7c.1-.2.2-.2.4-.2h1.6l-2.9 4.3 2.9 4.6h-1.7c-.1 0-.2 0-.3-.1l-.2-.2-2-3.4s0 .1-.1.1c0 0 0 .1-.1.1l-2 3.2c0 .1-.1.1-.2.2s-.1.1-.2.1H21l3.1-4.5z"/><g><path d="M13 23.9h3.2v1.3H13v-1.3zM19.3 27.1h1.8v-5.2-.6l-1.3 1.1c-.1 0-.1.1-.2.1h-.2c-.1 0-.2 0-.2-.1-.1 0-.1-.1-.2-.1l-.5-.7 2.7-2.3h1.2v7.8H24v1.1h-4.9v-1.1z"/></g></svg>