<svg xmlns="http://www.w3.org/2000/svg" viewBox="0 0 36 36"><path d="M23.41 25.25a1 1 0 01-.54-1.85 6.21 6.21 0 00-.19-10.65 1 1 0 111-1.73 8.21 8.21 0 01.24 14.06 1 1 0 01-.51.17z"/><path d="M25.62 31.18a1 1 0 01-.45-1.89A12.44 12.44 0 0025 6.89a1 1 0 11.87-1.8 14.44 14.44 0 01.24 26 1 1 0 01-.49.09zM18 32.06a2 2 0 01-1.42-.59L9.14 24H4a2 2 0 01-2-2v-8a2 2 0 012-2h5.22l7.33-7.39A2 2 0 0120 6v24a2 2 0 01-1.24 1.85 2 2 0 01-.76.21zM4 14v8h5.56a1 1 0 01.71.3L18 30.06V6l-7.65 7.7a1 1 0 01-.71.3zm14-8z"/><path d="M0 0h36v36H0z" fill="none"/></svg>