<svg xmlns="http://www.w3.org/2000/svg" viewBox="0 0 36 36"><path d="M3.61 6.41L9.19 12H4a2 2 0 00-2 2v8a2 2 0 002 2h5.14l7.41 7.47A2 2 0 0018 32a2 2 0 00.76-.15A2 2 0 0020 30v-7.23l5.89 5.89c-.25.15-.49.29-.75.42a1 1 0 00.9 1.79 14.4 14.4 0 001.31-.75l2.28 2.28L31 31 5 5zM18 30l-7.73-7.77a1 1 0 00-.71-.23H4v-8h5.64a1 1 0 00.71-.3l.26-.26L18 20.81zM24.89 6.69A12.42 12.42 0 0129 26.1l1.42 1.42a14.42 14.42 0 00-4.66-22.64 1 1 0 10-.87 1.8z"/><path d="M22.69 12.62A6.27 6.27 0 0125.8 18a6.17 6.17 0 01-1.24 3.71L26 23.13A8.15 8.15 0 0027.8 18a8.28 8.28 0 00-4.1-7.11 1 1 0 10-1 1.73zM18 6v9.15l2 2V6a2 2 0 00-3.42-1.41L12 9.17l1.41 1.41z"/><path d="M0 0h36v36H0z" fill="none"/></svg>