<svg xmlns="http://www.w3.org/2000/svg" viewBox="0 0 299.5 174.6"><path d="M120 104c.1-.4.3-.9.6-1.4l.3-.6c1.4-1.9 2.4-3.4 3.2-4.6.8-1.2 1.5-2.3 2-3.4 1.6-2.9 2.8-5.5 3.6-7.7.7-1.9 1-3.4 1-4.7 0-.7 0-1.3-.2-2s-.4-1.2-.6-1.6c-.5-.8-1.1-1.4-1.9-1.6-.8-.3-1.6-.3-2.4.1-.8.3-1.5.8-2.3 1.3-1.2.8-2.4 2-3.7 3.4-2.5 2.8-3.8 5.9-4 9.3-.2 3.6 1 7.6 3.4 11.9l1 1.6z"/><path d="M299.5 0L0 38.5l68.6 47.9-9.1 88L299.5 0zm-113 30.2c.3-.2.6-.4.8-.5l.4.1h.2l.1.2c2.8 3.5 6.1 6.6 10 9.3.5.4 1 .7 1.5 1 .1.1.6.4 1.5.9 2.2 1.3 4.1 2.2 5.5 2.8 1.3.5 2.5.7 3.7.8.4 0 .8 0 1.1-.1s.6-.2.9-.5c1-.8 1.5-1.9 1.2-3.3 0-.3-.2-.7-.4-1.3-.2-.5-.9-2-1.9-4.4l-.7-1.6-3.5-6.9c-1.3-2.2-2-3.7-2.1-4.5s.2-1.8.9-3.2l.4-.6h.6l.3.1.2.1c.3.3.8.6 1.3 1.1s1 .9 1.4 1.3c.2.6.2 1.2.2 1.9-.3.5-.6 1.1-.8 1.8l.5 1 .2.5 3 5.6c1.3 2.2 2.2 4 2.7 5.4.5 1.4.8 2.7.9 3.6.2 2.5-.6 4.3-2.2 5.5-1.1.8-2.4 1.1-4 1s-3.1-.4-4.6-.9-3.3-1.3-5.5-2.5c-1.8-.9-3.6-2.1-5.5-3.6-2.2-1.6-4.7-3.7-7.5-6.1l-1.7-1.6-.1-.4c-.1-.8.3-1.4 1-2zm-1.7 5.3l.2-.5.2-.3.2-.3.2-.2.2-.2h.2l.3.1.1.1c.2.1.5.5.8 1.1.4.6.8 1.3 1.3 2.2l4.8 8.6c1.2 2.1 2.3 3.9 3.4 5.5 1 1.6 2.4 3.3 4 5l-.2 1-.3.9c-.3.2-.6.4-.9.4l-.3.1-.5-.1-1-.6-2-2.9-4.2-7.7-2.1-3.5c-.3-.5-.5-.9-.6-1.1-1.3-2.3-2.7-4.4-4-6.2-.1-.4 0-.9.2-1.4zm-2.3 15.3c.1.2.2.3.2.4.2.4.5.9.6 1.4l-1.1.9-4 3.1c-2.1 1.5-3.6 2.7-4.4 3.4-.8.8-1.9 1.9-3.2 3.4 0 .1.1.3.2.5s.2.5.3.7c.1.3.3.5.4.8.2.3.3.5.4.7 2.3 4 5.2 4.8 8.5 2.4.4-.3.7-.5.9-.7l.5-.5c.6-.6 1.1-1.2 1.6-1.9s1.1-1.8 1.8-3.4l.4-.8 1.2-2.5c.3-.6.5-1 .7-1.2s.4-.5.6-.7c.2 0 .4 0 .6.1.2 0 .4.1.7.1l.4.1.1.3.1.2.1.3.1.2c-.1 1.2-.4 2.4-1 3.7-.5 1.2-1.3 2.6-2.3 4-.8 1.1-1.6 2.1-2.4 3-.8.9-1.7 1.6-2.5 2.2-2.4 1.7-4.7 2.4-7 1.9-2.2-.5-4-1.9-5.4-4.2-1-1.8-1.9-3.8-2.5-6-.6-2.2-1-4.7-1.2-7.5l-.1-2.3.5-.6c.3-.3.7-.7 1.1-.9.3-.2.6-.4.9-.5.2 3.1.6 6.3 1.3 9.3 1.8-1.9 3.8-3.6 5.9-5.1.6-.4 1.2-.8 1.9-1.3.7-.4 1.5-.9 2.5-1.5.4-.3.9-.6 1.4-.8.5-.3.9-.5 1.2-.7zm-18-2c1.3-1.7 2.5-3.2 3.6-4.4s2.1-2.1 2.8-2.8 1.4-1.3 2.1-1.8c1.1-.8 2.2-1.3 3.2-1.5 1.1-.2 2.4-.2 4.1.1l.8.1v.4l-.1.4-.2 1.1c-1 .1-1.7.3-2.3.5-1 .3-1.8.5-2.4.8-.6.2-1.2.6-1.8 1-.8.6-2 1.7-3.5 3.4-.4.4-.9.9-1.4 1.6-.5.7-1.1 1.4-1.7 2.1l-1.1 1.4-.3.2-.3.2-.3.1-.3.2-1.1-.3-.1-.7.3-2.1zm-5.4 18.8c.1.2.2.3.2.4.2.4.5.9.6 1.4l-1.1.9-4 3.1c-2.1 1.5-3.6 2.7-4.4 3.4-.8.8-1.9 1.9-3.2 3.4 0 .1.1.3.2.5s.2.5.3.7c.1.3.3.5.4.8.2.3.3.5.4.7 2.3 4 5.2 4.8 8.5 2.4.4-.3.7-.5.9-.7l.5-.5c.6-.6 1.1-1.2 1.6-1.9s1.1-1.8 1.8-3.4l.4-.8 1.2-2.5c.3-.6.5-1 .7-1.2s.4-.5.6-.7c.2 0 .4 0 .6.1s.4.1.7.1l.4.1.1.3.1.2.1.3.1.2c-.1 1.2-.4 2.4-1 3.7-.5 1.2-1.3 2.6-2.3 4-.8 1.1-1.6 2.1-2.4 3-.8.9-1.7 1.6-2.5 2.2-2.4 1.7-4.7 2.4-7 1.9-2.2-.5-4-1.9-5.4-4.2-1-1.8-1.9-3.8-2.5-6s-1-4.7-1.2-7.5l-.1-2.3.5-.6c.3-.3.7-.7 1.1-.9.3-.2.6-.4.9-.5.2 3.1.6 6.3 1.3 9.3 1.8-1.9 3.8-3.6 5.9-5.1.6-.4 1.2-.8 1.9-1.3.7-.4 1.5-.9 2.5-1.5.4-.3.9-.6 1.4-.8.4-.3.9-.5 1.2-.7zm-18.1-2c1.3-1.7 2.5-3.2 3.6-4.4s2.1-2.1 2.8-2.8 1.4-1.3 2.1-1.8c1.1-.8 2.2-1.3 3.2-1.5 1.1-.2 2.4-.2 4.1.1l.8.1v.4l-.1.4-.2 1.1c-1 .1-1.7.3-2.3.5-1 .3-1.8.5-2.4.8-.6.2-1.2.6-1.8 1-.8.6-2 1.7-3.5 3.4-.4.4-.9.9-1.4 1.6-.5.7-1.1 1.4-1.7 2.1l-1.1 1.4-.3.2-.3.2-.3.1-.3.2-1.1-.3-.1-.7c.2-.8.3-1.4.3-2.1zm-29.6 26.7c.2-.3.5-.5.8-.8.3-.2.6-.5 1-.8-.1-2.3.5-4.7 1.6-6.9 1.2-2.5 3.2-4.9 5.9-7.2.2-.2.4-.4.6-.5.2-.2.5-.4.8-.6 1.1-.8 2.3-1.5 3.6-2s2.5-.6 3.7-.2 2.2 1.2 2.9 2.5c.4.7.7 1.6.9 2.5s.3 2 .3 3.2c-.1 1.7-.5 3.6-1.3 5.7-.9 2.5-2.3 5.2-4 8.2-1.1 1.8-2.3 3.5-3.5 5.2l-1.6 2.1c.8.1 1.7 0 2.6-.3s3-1 6.2-2.1c2.2-.8 4.1-1.6 5.8-2.4 3.2-1.5 5.6-2.8 7.2-3.9.9-.7 1.8-1.4 2.7-2.3h.3l.4.2c.4.2.7.5 1.1.9l-.1.4c-.1.6-.3 1.1-.5 1.3-.2.3-.6.6-1.2 1-.5.3-.9.7-1.4 1-.4.3-.9.6-1.3.9-.2.2-.4.3-.5.4-1.2.9-2.9 1.8-5.1 2.7-1.7.7-4.3 1.7-7.7 2.8-2.8.9-4.9 1.6-6.4 1.9s-2.9.5-4.2.6l1.9 2.8 1.6 2.3v.3c-.1.3-.2.5-.2.7-.2.6-.4.9-.6 1.1-.2.1-.6.2-1.4.2-.2 0-.3-.1-.5-.2l-.7-1.3-.5-.8-.8-1.4-2.8-4.8c-.8-1.5-1.5-2.8-2.1-3.9-.6-1.2-1.3-2.5-2.2-3.9l-.9-1.7-.7-1.4.3-1.5zm-22.7 22.9c.1-4.6.9-8.9 2.4-12.8 2-5.2 4.2-8.6 6.6-10.3 1.6-1.2 2.9-1.7 3.9-1.6.8.1 1.5.5 2.1 1l.7.9c.2.5.2 1.1.1 1.7-.6 1-1.1 1.9-1.8 2.7l-.6.1h-.5l-.6-.3-1-.4-.2-.1c-.4-.2-.8-.1-1.2.1-.4.3-1.1 1.2-2.1 2.8-.9 1.4-1.7 3.1-2.6 5.1-.7 1.7-1.3 3.5-1.7 5.3-.4 1.8-.6 3.7-.6 5.8v2.5c.1 1.7.2 3 .3 4 .1 1 .3 1.8.5 2.6.2.7.5 1.3.8 1.8.7 1.2 1.6 1.9 2.7 2.1 1.1.2 2.3-.2 3.5-1 1.3-.9 2.7-2.5 4.2-4.6s3-4.9 4.6-8.4c.9-1.9 1.5-3.4 1.9-4.4.3-.8.5-1.5.6-1.9 0-.3 0-.6-.2-.9-.2-.4-.6-.6-.9-.6-.4 0-.7.1-1 .2s-.7.3-1.2.7c-.3.2-.5.3-.6.4-.3.2-.7.5-1.4 1.1-.7.5-1.2.9-1.6 1.2l-1.4 1.2c-1.3 1.1-2.1 1.9-2.4 2.3s-.6 1.1-.8 2l-.1.8-.1.3c0 .2-.1.5-.3 1l-.4.8-.6.1-.6.1h-1c-.3-.2-.6-.6-.8-1v-.5-1.6c0-.4.1-.7.1-.8l.1-.1.1-.3 1.6-1.7 3.8-3.8c1-.9 1.8-1.6 2.5-2.2 2.2-1.7 3.6-2.8 4.2-3.2.2-.2.6-.4 1.1-.6.5-.3 1.1-.3 1.8-.1.7.2 1.3.7 1.7 1.4.3.5.5 1 .6 1.7s.1 1.6-.2 2.8c-.3 1.4-1 3.4-2 5.9-1.5 3.8-3.2 7-4.8 9.4-1.5 2.3-3.2 4-4.9 5.3-1.9 1.4-3.7 1.9-5.5 1.5-1.8-.3-3.3-1.5-4.4-3.4-.2-.4-.5-1-.8-1.8s-.5-1.6-.7-2.6-.4-2.3-.5-4.1c-.1-.7-.1-1.3-.1-1.8-.3-.2-.3-.8-.3-1.8z"/><g><path d="M201.5 137.7v-10.3h23.7v21.1c-4.5 3.1-8.5 5.2-12 6.3-3.5 1.1-7.6 1.7-12.4 1.7-5.9 0-10.7-1-14.4-3s-6.6-5-8.6-9-3.1-8.5-3.1-13.7c0-5.4 1.1-10.1 3.3-14.1s5.5-7 9.8-9.1c3.4-1.6 7.9-2.4 13.6-2.4 5.5 0 9.6.5 12.3 1.5s5 2.5 6.8 4.6 3.1 4.7 4 7.9l-14.8 2.6c-.6-1.9-1.6-3.3-3.1-4.3s-3.3-1.5-5.6-1.5c-3.4 0-6 1.2-8 3.5s-3 6-3 11.1c0 5.4 1 9.2 3 11.5s4.8 3.5 8.4 3.5c1.7 0 3.3-.2 4.9-.7 1.6-.5 3.3-1.3 5.3-2.5v-4.7h-10.1zM232.4 130.9c0-8.1 2.3-14.4 6.8-18.9s10.8-6.8 18.8-6.8c8.3 0 14.6 2.2 19.1 6.6s6.7 10.6 6.7 18.6c0 5.8-1 10.5-2.9 14.3-2 3.7-4.8 6.6-8.5 8.7s-8.3 3.1-13.8 3.1c-5.6 0-10.2-.9-13.9-2.7s-6.6-4.6-8.9-8.5c-2.3-3.8-3.4-8.6-3.4-14.4zm15.3 0c0 5 .9 8.6 2.8 10.8 1.9 2.2 4.4 3.3 7.6 3.3 3.3 0 5.8-1.1 7.6-3.2 1.8-2.1 2.7-6 2.7-11.5 0-4.7-.9-8.1-2.8-10.2-1.9-2.2-4.4-3.2-7.7-3.2-3.1 0-5.6 1.1-7.4 3.3-1.8 2.1-2.8 5.7-2.8 10.7z"/></g></svg>