<svg xmlns="http://www.w3.org/2000/svg" viewBox="0 0 126.6 80.5"><path d="M29.2 40.3l-3.6 40.2L126.6 0 0 18.2l29.2 22.1z"/>
	<g>
		<path class="st1" d="M201.5,137.7v-10.3h23.7v21.1c-4.5,3.1-8.5,5.2-12,6.3c-3.5,1.1-7.6,1.7-12.4,1.7c-5.9,0-10.7-1-14.4-3
			s-6.6-5-8.6-9s-3.1-8.5-3.1-13.7c0-5.4,1.1-10.1,3.3-14.1s5.5-7,9.8-9.1c3.4-1.6,7.9-2.4,13.6-2.4c5.5,0,9.6,0.5,12.3,1.5
			s5,2.5,6.8,4.6s3.1,4.7,4,7.9l-14.8,2.6c-0.6-1.9-1.6-3.3-3.1-4.3s-3.3-1.5-5.6-1.5c-3.4,0-6,1.2-8,3.5s-3,6-3,11.1
			c0,5.4,1,9.2,3,11.5s4.8,3.5,8.4,3.5c1.7,0,3.3-0.2,4.9-0.7c1.6-0.5,3.3-1.3,5.3-2.5v-4.7H201.5z"/>
		<path class="st1" d="M232.4,130.9c0-8.1,2.3-14.4,6.8-18.9s10.8-6.8,18.8-6.8c8.3,0,14.6,2.2,19.1,6.6s6.7,10.6,6.7,18.6
			c0,5.8-1,10.5-2.9,14.3c-2,3.7-4.8,6.6-8.5,8.7s-8.3,3.1-13.8,3.1c-5.6,0-10.2-0.9-13.9-2.7s-6.6-4.6-8.9-8.5
			C233.5,141.5,232.4,136.7,232.4,130.9z M247.7,130.9c0,5,0.9,8.6,2.8,10.8c1.9,2.2,4.4,3.3,7.6,3.3c3.3,0,5.8-1.1,7.6-3.2
			c1.8-2.1,2.7-6,2.7-11.5c0-4.7-0.9-8.1-2.8-10.2c-1.9-2.2-4.4-3.2-7.7-3.2c-3.1,0-5.6,1.1-7.4,3.3
			C248.7,122.3,247.7,125.9,247.7,130.9z"/>
	</g></svg>