<svg xmlns="http://www.w3.org/2000/svg" width="798.69" height="35.32mm" viewBox="0 0 599.02 100.11"><rect x="62.66" y="26.1" width="63.89" height="47.92" rx="1.99"/><rect x="201.61" y="26.1" width="63.89" height="47.92" rx="1.99"/><rect x="32.57" y="28.49" width="17.57" height="11.18" rx="1.07"/><rect x="32.57" y="44.46" width="17.57" height="11.18" rx="1.07"/><rect x="32.57" y="60.42" width="17.57" height="11.18" rx="1.07"/><rect x="171.8" y="28.49" width="17.57" height="11.18" rx="1.07"/><rect x="171.8" y="44.46" width="17.57" height="11.18" rx="1.07"/><rect x="171.8" y="60.42" width="17.57" height="11.18" rx="1.07"/><rect x="139.05" y="28.49" width="17.57" height="11.18" rx="1.07"/><rect x="139.05" y="44.46" width="17.57" height="11.18" rx="1.07"/><rect x="139.05" y="60.42" width="17.57" height="11.18" rx="1.07"/><rect x="278" y="28.49" width="17.57" height="11.18" rx="1.07"/><rect x="278" y="44.46" width="17.57" height="11.18" rx="1.07"/><rect x="278" y="60.42" width="17.57" height="11.18" rx="1.07"/><rect x="340.83" y="26.1" width="63.89" height="47.92" rx="1.99"/><rect x="311.02" y="28.49" width="17.57" height="11.18" rx="1.07"/><rect x="311.02" y="44.46" width="17.57" height="11.18" rx="1.07"/><rect x="311.02" y="60.42" width="17.57" height="11.18" rx="1.07"/><rect x="417.23" y="28.49" width="17.57" height="11.18" rx="1.07"/><rect x="417.23" y="44.46" width="17.57" height="11.18" rx="1.07"/><rect x="417.23" y="60.42" width="17.57" height="11.18" rx="1.07"/><rect x="451.39" y="28.49" width="17.57" height="11.18" rx="1.07"/><rect x="451.39" y="60.42" width="17.57" height="11.18" rx="1.07"/><path d="M589.34.79H9.66a10 10 0 00-7 2.87A8.75 8.75 0 000 9.9V91c0 5 4.34 9.11 9.68 9.11h579.68A9.41 9.41 0 00599 91V9.9c0-5.03-4.32-9.11-9.66-9.11zM589 90.11H10V10.79h579z"/><path d="M519.6 67.57l48.41-35.15-60.4 7.75 13.83 9.65-1.84 17.75zM482.2 58.54a9.54 9.54 0 009.56-9.54 9.54 9.54 0 10-9.56 9.53z"/></svg>