<svg xmlns="http://www.w3.org/2000/svg" width="399.345" height="67.33mm" viewBox="0 0 299.52 190.86"><rect x="182.5" y="52.79" width="56.13" height="42.1" rx="1.75"/><rect x="156.31" y="54.89" width="15.44" height="9.82" rx=".94"/><rect x="156.31" y="68.92" width="15.44" height="9.82" rx=".94"/><rect x="156.31" y="82.95" width="15.44" height="9.82" rx=".94"/><rect x="249.62" y="54.89" width="15.44" height="9.82" rx=".94"/><rect x="249.62" y="68.92" width="15.44" height="9.82" rx=".94"/><rect x="249.62" y="82.95" width="15.44" height="9.82" rx=".94"/><path d="M289.84 0H9.66a10 10 0 00-7 2.87A8.75 8.75 0 000 9.11v172.64c0 5 4.34 9.11 9.68 9.11h280.18a9.41 9.41 0 009.66-9.11V9.11c0-5.03-4.34-9.11-9.68-9.11zm-.32 180.86H10V10h279.52z"/><rect x="60.42" y="52.79" width="56.13" height="42.1" rx="1.75"/><rect x="60.42" y="120.15" width="56.13" height="42.1" rx="1.75"/><rect x="182.5" y="120.15" width="56.13" height="42.1" rx="1.75"/><rect x="33.99" y="54.9" width="15.44" height="9.82" rx=".94"/><rect x="33.99" y="68.93" width="15.44" height="9.82" rx=".94"/><rect x="33.99" y="82.96" width="15.44" height="9.82" rx=".94"/><rect x="33.99" y="122.25" width="15.44" height="9.82" rx=".94"/><rect x="33.99" y="136.28" width="15.44" height="9.82" rx=".94"/><rect x="33.99" y="150.31" width="15.44" height="9.82" rx=".94"/><rect x="156.31" y="122.25" width="15.44" height="9.82" rx=".94"/><rect x="156.31" y="136.28" width="15.44" height="9.82" rx=".94"/><rect x="156.31" y="150.31" width="15.44" height="9.82" rx=".94"/><rect x="127.54" y="54.9" width="15.44" height="9.82" rx=".94"/><rect x="127.54" y="68.93" width="15.44" height="9.82" rx=".94"/><rect x="127.54" y="82.96" width="15.44" height="9.82" rx=".94"/><rect x="127.54" y="122.25" width="15.44" height="9.82" rx=".94"/><rect x="127.54" y="136.28" width="15.44" height="9.82" rx=".94"/><rect x="127.54" y="150.31" width="15.44" height="9.82" rx=".94"/><rect x="249.62" y="122.25" width="15.44" height="9.82" rx=".94"/><rect x="249.62" y="136.28" width="15.44" height="9.82" rx=".94"/><rect x="249.62" y="150.31" width="15.44" height="9.82" rx=".94"/></svg>