<svg xmlns="http://www.w3.org/2000/svg" viewBox="0 0 36 36"><path d="M30.5 27.4c-1.3 0-2.5.9-2.9 2.1h-4.1c-2.9 0-5.2-2.3-5.2-5.2V19h9.3c.4 1.2 1.6 2.1 2.9 2.1 1.7 0 3.1-1.4 3.1-3.1 0-1.7-1.4-3.1-3.1-3.1-1.4 0-2.5.9-2.9 2.1h-9.3v-5.2c0-2.9 2.3-5.2 5.2-5.2h4.1c.4 1.2 1.6 2.1 2.9 2.1 1.7 0 3.1-1.4 3.1-3.1s-1.4-3.1-3.1-3.1c-1.3 0-2.5.9-2.9 2.1h-4.1c-4 0-7.2 3.2-7.2 7.2V17H8.5c-.4-1.2-1.6-2.1-2.9-2.1-1.7 0-3.1 1.4-3.1 3.1 0 1.7 1.4 3.1 3.1 3.1 1.4 0 2.5-.9 2.9-2.1h7.8v5.2c0 4 3.2 7.2 7.2 7.2h4.1c.4 1.2 1.6 2.1 2.9 2.1 1.7 0 3.1-1.4 3.1-3.1 0-1.6-1.4-3-3.1-3z"/></svg>