<svg xmlns="http://www.w3.org/2000/svg" viewBox="0 0 36 36"><path d="M30.8 4.4c.5 0 .8.4.8.8v25.5c0 .5-.4.8-.8.8H5.2c-.5 0-.8-.4-.8-.8V5.2c0-.5.4-.8.8-.8h25.6m0-2H5.2c-1.6 0-2.8 1.3-2.8 2.8v25.5c0 1.6 1.3 2.8 2.8 2.8h25.5c1.6 0 2.8-1.3 2.8-2.8V5.2c.1-1.5-1.2-2.8-2.7-2.8z"/><path d="M25.1 16.1c-.6-3.3-3.6-5.8-7.1-5.8-2.8 0-5.2 1.6-6.4 3.9-2.9.3-5.2 2.8-5.2 5.8 0 3.2 2.6 5.8 5.8 5.8h12.5c2.7 0 4.8-2.2 4.8-4.8.1-2.7-1.9-4.7-4.4-4.9zm-.4 7.7H12.2c-2.1 0-3.9-1.7-3.9-3.9S10 16 12.2 16h.7c.6-2.2 2.7-3.9 5.1-3.9 2.9 0 5.3 2.4 5.3 5.3v.6h1.5c1.6 0 2.9 1.3 2.9 2.9-.1 1.6-1.4 2.9-3 2.9z"/></svg>