<svg xmlns="http://www.w3.org/2000/svg"viewBox="0 0 36 36"><defs><style>.a{fill:#ff8f00;}</style></defs><path d="M30,13.49a7.89,7.89,0,0,1-.84-.05V31.89a1,1,0,0,1-1,1H7.82a1,1,0,0,1-1-1V4.09a1,1,0,0,1,1-1h6.71V6H10A1.08,1.08,0,0,0,8.94,7.08a1.13,1.13,0,0,0,.31.74l8,8a1.07,1.07,0,0,0,1.5,0h0L24,10.52A7.44,7.44,0,0,1,22.5,6h-1V3.11h1.6A7.72,7.72,0,0,1,24.42,1H7.82a3.1,3.1,0,0,0-3.1,3.1V31.9A3.1,3.1,0,0,0,7.82,35H28.18a3.1,3.1,0,0,0,3.1-3.1h0V13.37A6.85,6.85,0,0,1,30,13.49Z"/><polygon points="13.45 24.19 12.96 29.29 26.44 19.09 9.56 21.4 13.45 24.19"/><circle class="a" cx="30" cy="5.99" r="5"/></svg>