<svg viewBox="0 0 36 36" xmlns="http://www.w3.org/2000/svg"><path d="M32.57 15.72l-3.35-1a11.65 11.65 0 00-.95-2.33l1.64-3.07a.61.61 0 00-.11-.72l-2.39-2.4a.61.61 0 00-.72-.11l-3.05 1.63a11.62 11.62 0 00-2.36-1l-1-3.31a.61.61 0 00-.59-.41h-3.38a.61.61 0 00-.58.43l-1 3.3a11.63 11.63 0 00-2.38 1l-3-1.62a.61.61 0 00-.72.11L6.2 8.59a.61.61 0 00-.11.72l1.62 3a11.63 11.63 0 00-1 2.37l-3.31 1a.61.61 0 00-.43.58v3.38a.61.61 0 00.43.58l3.33 1a11.62 11.62 0 001 2.33l-1.64 3.14a.61.61 0 00.11.72l2.39 2.39a.61.61 0 00.72.11l3.09-1.65a11.65 11.65 0 002.3.94l1 3.37a.61.61 0 00.58.43h3.38a.61.61 0 00.58-.43l1-3.38a11.63 11.63 0 002.28-.94l3.11 1.66a.61.61 0 00.72-.11l2.39-2.39a.61.61 0 00.11-.72l-1.66-3.1a11.63 11.63 0 00.95-2.29l3.37-1a.61.61 0 00.43-.58v-3.41a.61.61 0 00-.37-.59zM18 23.5a5.5 5.5 0 115.5-5.5 5.5 5.5 0 01-5.5 5.5z"/><path fill="none" d="M0 0h36v36H0z"/></svg>