<svg viewBox="0 0 36 36" xmlns="http://www.w3.org/2000/svg"><path d="M25.19 20.4a6.78 6.78 0 00.43-2.4 6.86 6.86 0 00-6.86-6.86 6.79 6.79 0 00-2.37.43L18 13.23a4.78 4.78 0 01.74-.06A4.87 4.87 0 0123.62 18a4.79 4.79 0 01-.06.74z"/><path d="M34.29 17.53c-3.37-6.23-9.28-10-15.82-10a16.82 16.82 0 00-5.24.85L14.84 10a14.78 14.78 0 013.63-.47c5.63 0 10.75 3.14 13.8 8.43a17.75 17.75 0 01-4.37 5.1l1.42 1.42a19.93 19.93 0 005-6l.26-.48zM4.87 5.78l4.46 4.46a19.52 19.52 0 00-6.69 7.29l-.26.47.26.48c3.37 6.23 9.28 10 15.82 10a16.93 16.93 0 007.37-1.69l5 5 1.75-1.5-26-26zm9.75 9.75l6.65 6.65a4.81 4.81 0 01-2.5.72A4.87 4.87 0 0113.9 18a4.81 4.81 0 01.72-2.47zm-1.45-1.45a6.85 6.85 0 009.55 9.55l1.6 1.6a14.91 14.91 0 01-5.86 1.2c-5.63 0-10.75-3.14-13.8-8.43a17.29 17.29 0 016.12-6.3z"/><path fill="none" d="M0 0h36v36H0z"/></svg>