<svg xmlns="http://www.w3.org/2000/svg" width="398.287" height="67.33mm" viewBox="0 0 298.73 190.86"><path d="M205.8 27.45a16.63 16.63 0 00-12.41-5.79h-87a18.48 18.48 0 00-17.74 19.15v130.13a19.4 19.4 0 005 14.57 16.55 16.55 0 0012.15 5.35h87.49a18.32 18.32 0 0016.71-19.6V41.57a18.29 18.29 0 00-4.2-14.12zm-5.73 13.1v131.09a8.49 8.49 0 01-7.25 9.29h-87a6.69 6.69 0 01-5-2.23 9.86 9.86 0 01-2.36-7.44v-130a8.88 8.88 0 017.77-9.67h87.11a6.31 6.31 0 015 2.36 8 8 0 011.73 6.6z"/><circle cx="149.37" cy="107.96" r="7.44"/><path d="M136.26 94.56a18.54 18.54 0 0126.21 0l7.95-7.66a29.77 29.77 0 00-42.11 0z"/><path d="M121.45 80a39.47 39.47 0 0155.82 0l8.93-8.93a52.11 52.11 0 00-73.69 0zM140.1 154.16l-1.04 10.04 27.39-19.89-34.18 4.39 7.83 5.46z"/></svg>