<svg xmlns="http://www.w3.org/2000/svg" viewBox="0 0 36 36"><path d="M33.55 8.2a28.1 28.1 0 00-31.11.08 1 1 0 101.12 1.66 26.11 26.11 0 0128.89-.07 1 1 0 001.1-1.67zM18.05 10.72A20.74 20.74 0 006.23 14.4 1 1 0 007.36 16a18.85 18.85 0 0121.28 0 1 1 0 001.12-1.65 20.75 20.75 0 00-11.71-3.63zM18.05 17.9a13.51 13.51 0 00-8 2.64 1 1 0 001.18 1.61 11.56 11.56 0 0113.62-.08A1 1 0 1026 20.46a13.52 13.52 0 00-7.95-2.56zM18 24.42a4 4 0 104 4 4 4 0 00-4-4zm0 6a2 2 0 112-2 2 2 0 01-2 2z"/><path d="M0 0h36v36H0z" fill="none"/></svg>