<svg xmlns="http://www.w3.org/2000/svg" viewBox="0 0 36 36"><circle cx="18" cy="29.54" r="3"/><path d="M32.76 9.38a27.87 27.87 0 00-29.57 0 1.51 1.51 0 00-.48 2.11l.11.17a1.49 1.49 0 002 .46 24.68 24.68 0 0126.26 0 1.49 1.49 0 002-.46l.11-.17a1.51 1.51 0 00-.43-2.11z"/><path d="M28.82 15.44a20.59 20.59 0 00-21.7 0 1.51 1.51 0 00-.46 2.1l.11.17a1.49 1.49 0 002 .46 17.4 17.4 0 0118.36 0 1.49 1.49 0 002-.46l.11-.17a1.51 1.51 0 00-.42-2.1zM24.88 21.49a13.41 13.41 0 00-13.82 0 1.5 1.5 0 00-.46 2.09l.1.16a1.52 1.52 0 002.06.44 10.27 10.27 0 0110.42 0 1.52 1.52 0 002.06-.45l.1-.16a1.49 1.49 0 00-.46-2.08z"/><path d="M0 0h36v36H0z" fill="none"/></svg>