<svg xmlns="http://www.w3.org/2000/svg" width="399.345" height="67.33mm" viewBox="0 0 299.51 190.86"><defs><style>.prefix__a{fill:#010101}</style></defs><path class="prefix__a" d="M285.53 51.29H14a14 14 0 00-14 14v111.59a14 14 0 0014 14h271.53a14 14 0 0014-14V65.26a14 14 0 00-14-13.97zm4 125.59a4 4 0 01-4 4H14a4 4 0 01-4-4V65.26a4 4 0 014-4h271.53a4 4 0 014 4z"/><path class="prefix__a" d="M250 97.53a13 13 0 1013 13 13 13 0 00-13-13z"/><rect class="prefix__a" x="133.3" y="78.53" width="88.75" height="66.56" rx="2.78"/><rect class="prefix__a" x="91.52" y="81.87" width="24.41" height="15.53" rx="1.48"/><rect class="prefix__a" x="91.52" y="104.05" width="24.41" height="15.53" rx="1.48"/><path class="prefix__a" d="M34.79 109.49l-1.57 15.23 41.52-30.16-51.81 6.65 11.86 8.28z"/><rect class="prefix__a" x="91.52" y="126.24" width="24.41" height="15.53" rx="1.48"/></svg>