<svg xmlns="http://www.w3.org/2000/svg" viewBox="0 0 36 36"><path d="M32.9 24.9c-.2-.8-.7-1.4-1.5-1.8-1.2-.6-2.6-.5-3.5.3l-3.3-1.8c.3-.8.5-1.7.5-2.6 0-3.5-2.7-6.4-6.2-6.9V8.6c1.2-.4 2.1-1.5 2.1-2.8 0-1.6-1.4-3-3.1-3s-3.1 1.3-3.1 3c0 1.3.9 2.4 2.1 2.8v3.5c-3.5.5-6.2 3.4-6.2 6.9 0 .9.2 1.8.5 2.6l-3.3 1.8c-1-.8-2.4-1-3.5-.3-.7.4-1.2 1.1-1.5 1.8-.2.8-.1 1.6.3 2.3.8.9 1.8 1.4 2.9 1.4.5 0 1-.1 1.5-.4.7-.4 1.2-1.1 1.5-1.8.1-.4.1-.9 0-1.3l3.3-1.8C13.7 25 15.7 26 18 26s4.3-1 5.7-2.7l3.3 1.8c-.1.4-.1.9 0 1.3.2.8.7 1.4 1.5 1.8.5.3 1 .4 1.5.4 1.1 0 2.1-.5 2.7-1.5.3-.6.4-1.4.2-2.2zm-25.8 1c-.1.3-.2.5-.5.6-.5.3-1.2.1-1.5-.4-.1-.2-.1-.4-.1-.7.1-.3.2-.5.5-.6.2-.1.4-.1.6-.1.4 0 .7.2.9.5.1.2.2.5.1.7zM18 4.8c.6 0 1.1.4 1.1 1s-.5 1-1.1 1-1.1-.4-1.1-1 .5-1 1.1-1zM18 24c-2.9 0-5.2-2.2-5.2-5s2.3-5 5.2-5 5.2 2.2 5.2 5-2.3 5-5.2 5zm12.9 2.1c-.3.5-1 .7-1.5.4-.2-.1-.4-.4-.5-.6-.1-.2 0-.5.1-.7.2-.3.6-.5.9-.5.2 0 .4 0 .6.1.2.1.4.4.5.6 0 .3 0 .5-.1.7z"/><path d="M29.1 9.7c-1.7-1.9-3.9-3.3-6.3-4.1l-.6 1.9c2.1.7 4 1.9 5.4 3.5l1.5-1.3zM30.7 20.6l2 .3c.1-.6.1-1.3.1-1.9 0-1.9-.4-3.8-1.2-5.6l-1.8.8c.7 1.5 1 3.1 1 4.8 0 .6-.1 1.1-.1 1.6zM9.8 9.7c1-.8 2.2-1.5 3.4-2l-.7-1.9c-1.5.6-2.8 1.4-4 2.3-.8.7-1.5 1.4-2.1 2.2l1.5 1.3c.6-.7 1.2-1.4 1.9-1.9zM5.4 21.3c-.1-.7-.2-1.5-.2-2.3 0-1.4.3-2.8.8-4.1l-1.9-.7c-.6 1.6-.9 3.2-.9 4.8 0 .9.1 1.8.3 2.7l1.9-.4zM20.3 31.1l.3 2c2.5-.4 4.9-1.5 6.8-3l.1-.1-1.3-1.5c-1.7 1.3-3.7 2.2-5.9 2.6zM9.1 30.4c2 1.5 4.4 2.4 7 2.7l.2-2c-2.2-.3-4.3-1.1-6.1-2.4l-1.1 1.7z"/></svg>